<svg id="eNWDR8SfCQi1" xmlns="http://www.w3.org/2000/svg" xmlns:xlink="http://www.w3.org/1999/xlink" viewBox="0 0 1440 809.999993" shape-rendering="geometricPrecision" text-rendering="geometricPrecision"><rect width="1728" height="972" rx="0" ry="0" transform="translate(-144-81)" fill="#fff"/><rect width="1728" height="972" rx="0" ry="0" transform="translate(-144-81)" fill="#fff"/><rect width="1728" height="972" rx="0" ry="0" transform="translate(-144-81)" fill="#fff"/><path d="M168.886719,-364.441406c23.113281,0,45.300781,4.347656,66.140625,14.523437c31.589844,15.4375,52.964844,40.140625,65.253906,72.90625c5.492188,14.644531,8.652344,29.859375,11.179688,45.214844c2.648437,15.988281,4.425781,32.136719,8.042968,47.984375c3.59375,15.769531,9.285156,30.613281,18.964844,43.714844c8.277344,11.1875,18.511719,20.375,29.574219,28.695312c11.378906,8.578125,23.410156,16.144532,35.359375,23.851563c13.910156,8.972656,27.835937,17.945312,40.738281,28.378906c15.410156,12.453125,29.097656,26.464844,39.292969,43.617187c14.027344,23.636719,18.550781,49.011719,13.710937,76.046876-5.550781,31.046874-20.644531,56.71875-43.878906,77.785156-12.839844,11.660156-27.222656,21.066406-42.472656,29.1875-14.621094,7.789062-29.910157,14.152344-44.964844,21.007812-8,3.636719-15.765625,7.6875-23.132813,12.511719-13.945312,9.148437-23.707031,21.597656-29.769531,37.074219-4.03125,10.277344-6.582031,20.96875-8.773437,31.757812-3.21875,15.890625-5.609375,31.957032-9.324219,47.765625-4.070313,17.371094-9.464844,34.289063-18.136719,49.980469-11.378906,20.589844-27.082031,36.796875-48.480468,47.054688-16.988282,8.140624-34.90625,11.480468-53.714844,10-28.605469-2.253907-52.628906-14.269532-73.035156-34.050782-11.476563-11.148437-20.761719-24.03125-29.472657-37.351562-6.875-10.515625-13.355469-21.285156-21-31.265625-3.875-5.039063-8.082031-9.761719-12.960937-13.851563C27.675781,299.402344,15.546875,295.308594,2.25,294.382812c-11.933594-.832031-23.746094.3125-35.5,2.308594-19.28125,3.261719-38.1875,8.300782-57.210938,12.667969-14.9375,3.441406-29.929687,6.582031-45.203124,8.125-15.664063,1.578125-31.292969,1.660156-46.679688-2.414063-12.386719-3.277343-23.429688-9.011718-32.125-18.613281-9.996094-11.066406-14.339844-24.347656-14.875-39.03125-.574219-15.632812,3.300781-30.394531,9.027344-44.761719c7.035156-17.667968,16.8125-33.796874,27.441406-49.464843c10.628906-15.632813,22.207031-30.574219,33.128906-45.988281c6.640625-9.347657,13.078125-18.796876,18.628906-28.835938c4.761719-8.59375,8.773438-17.46875,10.570313-27.210938c1.898437-10.257812.75-20.117187-3.554687-29.625-3.851563-8.496093-9.40625-15.828124-15.488282-22.824218-6.203125-7.136719-12.941406-13.773438-19.617187-20.457032-9.109375-9.128906-18.273438-18.199218-26.492188-28.179687-7.585937-9.230469-14.265625-19.03125-18.847656-30.136719-9.105469-22.035156-7.328125-43.457031,3.972656-64.210937c8.472657-15.53125,20.722657-27.707031,34.867188-38.042969c15.546875-11.382812,32.617187-19.820312,51.027343-25.472656c6.816407-2.09375,13.929688-2.863282,21-3.4375c17.996094-1.421875,35.324219-5.394532,51.484376-13.695313c11.832031-6.085937,21.097656-15.097656,28.683593-25.871093C-14.5625,-253.515625,-6.246094,-266.675781,3.59375,-278.75c28.367188-34.785156,62.980469-60.871094,105.75-75.453125c19.320312-6.582031,39.117188-10.21875,59.542969-10.238281Zm-.058594,16.046875c-23.035156-.078125-44.984375,4.980469-66.140625,13.734375-36.984375,15.277344-66.734375,39.863281-90.933594,71.441406-7.3125,9.546875-13.710937,19.703125-20.429687,29.664062-6.0625,8.972657-12.820313,17.371094-21.433594,24.050782-21.496094,16.679687-45.890625,25.335937-73.074219,26.046875-7.707031.199219-15.273437,1.324219-22.640625,3.558593-14.480469,4.40625-27.777343,11.222657-40.003906,20.117188-10.886719,7.886719-20.507813,17.054688-27.875,28.398438-5.652344,8.695312-9.425781,18.121093-10.375,28.539062-1.144531,12.644531,2.273437,24.207031,8.417969,35.097656c6.105468,10.847656,14.085937,20.214844,22.582031,29.207032c10.449219,11.066406,21.628906,21.464843,31.902344,32.707031c6.382812,6.996093,12.40625,14.25,17.265625,22.410156c9.78125,16.425781,12.882812,33.855469,7.984375,52.550781-2.667969,10.195313-7.054688,19.644532-12.230469,28.753906-7.980469,14.03125-17.40625,27.113282-26.925781,40.117188-11.222657,15.335938-22.679688,30.511719-32.773438,46.660156-8.632812,13.792969-16.242187,28.101563-21.160156,43.695313-3.613281,11.460937-5.550781,23.121093-3.773437,35.15625c1.382812,9.289062,5.078124,17.449219,11.894531,24.050781c5.867187,5.710938,12.957031,9.289062,20.742187,11.5625c14.242188,4.128906,28.765625,3.910156,43.324219,2.410156c15.152344-1.5625,30.027344-4.78125,44.863281-8.222656c20.328125-4.722656,40.5-10.117188,61.183594-13.179688c13.355469-1.976562,26.730469-2.90625,40.183594-1.046874c15.230468,2.09375,28.820312,7.882812,40.417968,18.140624c7.644532,6.757813,13.847657,14.722657,19.636719,23.042969c8.0625,11.601563,15.210938,23.773438,23.371094,35.316407c8.910156,12.589843,18.847656,24.207031,31.292969,33.476562c20.566406,15.335938,43.640625,22.253906,69.183594,19.289062c25.089843-2.90625,45.28125-14.941406,60.648437-34.960937c10.292969-13.417969,16.714844-28.753906,21.496094-44.839844c5.234375-17.609375,8.078125-35.75,11.457031-53.753906c2.585938-13.773437,5.492188-27.449219,10.429688-40.632813c7.527343-20.15625,20.152343-36.144531,38.40625-47.648437c8.199218-5.15625,16.832031-9.484375,25.621093-13.496094c12.132813-5.515625,24.417969-10.652343,36.332031-16.679687c15.03125-7.609375,29.277344-16.363282,42.078126-27.371094c19.023437-16.382812,32.578124-36.304688,39.292968-60.632812C482.917969,54.347656,484.125,40.15625,481.851562,25.75c-2.429687-15.375-8.75-29.070312-17.757812-41.621094-10.15625-14.148437-22.898438-25.671875-36.746094-36.066406-14.144531-10.613281-29.199218-19.878906-44.035156-29.484375-14.636719-9.507813-29.058594-19.308594-41.820312-31.34375-12.527344-11.816406-22.5625-25.375-29.300782-41.304687-5.667968-13.398438-8.929687-27.429688-11.398437-41.699219-2.605469-15.117188-4.363281-30.355469-7.308594-45.414063-3.140625-15.988281-7.585937-31.539062-15.328125-45.988281-11.953125-22.308594-29.4375-38.8125-52.433594-49.363281-18.074218-8.300782-37.140625-11.859375-56.933594-11.78125Zm0,0" fill="#0c5f52"/><g id="eNWDR8SfCQi6" clip-path="url(#eNWDR8SfCQi9)"><g><path d="M290.277344,141.863281c18.289062-.058593,37.082031,2.214844,55.574218,6.902344c23.476563,5.957031,44.777344,16.457031,64.25,30.804687c7.191407,5.300782,14.039063,11.027344,20.320313,17.398438c8.414063,8.515625,14.6875,18.402344,18.910156,29.605469c2.613281,6.902343,4.992188,13.875,6.257813,21.179687.820312,4.769532,1.3125,9.574219,1.683594,14.394532.320312,4.160156.65625,8.328124.804687,12.511718.195313,5.441406-.738281,10.765625-2.082031,16.03125-2.269532,8.859375-5.984375,17.15625-9.75,25.433594-5.339844,11.730469-11.785156,22.871094-17.964844,34.152344-6.535156,11.953125-12.761719,24.039062-16.902344,37.074218-2.761718,8.699219-4.570312,17.570313-5.285156,26.699219-1.046875,13.414063.886719,26.46875,4.214844,39.398438c3.359375,13.035156,7.972656,25.652343,12.542968,38.292969c5.269532,14.566406,10.542969,29.132812,13.957032,44.285156c2.210937,9.761718,3.765625,19.601562,3.9375,29.671875.207031,12.101562-1.207032,23.878906-5.902344,35.113281-5.328125,12.746094-14.019531,22.632812-25.8125,29.742188-9.609375,5.796874-20.140625,8.917968-31.210938,10.417968-14.71875,1.992188-29.21875.554688-43.605468-2.707031-13.703125-3.113281-26.753906-8.113281-39.597656-13.703125-11.105469-4.828125-22.039063-10.082031-33.269532-14.601562-13.707031-5.519532-27.722656-9.875-42.40625-11.9375-7.296875-1.023438-14.628906-1.660157-21.992187-1.933594-5.652344-.210938-11.289063-.472656-16.941407-.347656-10.148437.21875-20.300781.484374-30.449218.726562-11.21875.265625-22.429688.046875-33.625-.691406-7.851563-.519532-15.640625-1.359375-23.410156-2.558594-15.9375-2.464844-31.347657-6.707031-45.871094-13.851562-9.527344-4.691407-18.367188-10.472657-25.972656-17.941407-9.4375-9.253906-16.273438-20.074219-19.046876-33.199219-1.332031-6.304687-1.597656-12.664062-1.011718-19.070312c1.1875-12.976562,5.410156-25.089844,10.367187-37.003906c4.480469-10.75,9.679688-21.167969,14.546875-31.722656c5.835938-12.65625,11.417969-25.410157,15.699219-38.699219c3.773437-11.71875,6.398437-23.714844,8.273437-35.871094c1.796876-11.664063,3.003907-23.394531,4.476563-35.089844c1.828125-14.554687,4.109375-29.027343,8.207031-43.167969c6.109375-21.085937,15.523438-40.492187,29.078125-57.835937c11.554688-14.773437,25.203125-27.3125,40.453125-38.132813c24.832032-17.617187,52.082032-30.085937,81.300782-38.429687c11.890624-3.386719,23.914062-6.164063,36.125-8.089844c8.320312-1.300781,16.6875-2.234375,25.109374-2.753906c5.078126-.3125,10.140626-.355469,16.007813-.460937ZM180.101562,583.917969c12.933594-.066407,24.949219.371093,36.90625,1.855469c10.988282,1.371093,21.726563,3.828124,32.269532,7.191406c15.234375,4.875,29.699218,11.640625,44.257812,18.160156c11.726563,5.257812,23.570313,10.234375,35.984375,13.691406c13.167969,3.664063,26.503907,5.761719,40.222657,4.976563c7.480468-.425781,14.796874-1.65625,21.851562-4.148438c17.550781-6.1875,29.449219-17.941406,34.652344-36.019531c3.199218-11.121094,3.304687-22.507812,2.027344-33.902344-1.300782-11.59375-4.144532-22.863281-7.609376-33.996094-2.945312-9.472656-6.363281-18.773437-9.722656-28.105468-4.523437-12.5625-9-25.144532-12.335937-38.097656-3.753907-14.554688-5.535157-29.257813-4.179688-44.308594c1.058594-11.765625,3.925781-23.070313,7.988281-34.109375c4.566407-12.433594,10.804688-24.050781,17.191407-35.609375c6.777343-12.257813,13.589843-24.507813,19.070312-37.4375c3.714844-8.769532,5.972657-17.863282,6.363281-27.378906.289063-7.042969.507813-14.105469-.425781-21.125-.65625-4.953126-1.277343-9.957032-2.992187-14.65625-3.429688-9.382813-6.824219-18.761719-12.683594-27.058594-2.472656-3.503906-5.0625-6.84375-8.125-9.804688-8.375-8.125-17.511719-15.292968-27.316406-21.609375-11.269532-7.246093-23.144532-13.285156-35.792969-17.722656-10.746094-3.78125-21.785156-6.417969-33.039063-8.238281-8.816406-1.417969-17.6875-2.292969-26.582031-2.699219-12.039062-.539063-24.0625.105469-36.03125,1.464844-10.980469,1.234375-21.832031,3.214843-32.570312,5.808593-23.015625,5.542969-45.132813,13.449219-66.007813,24.742188-14.671875,7.9375-28.484375,17.109375-41.003906,28.183594-10.230469,9.046875-19.4375,19.003906-27.207031,30.261718-13.152344,19.0625-21.117188,40.242188-25.613281,62.828126-2.523438,12.617187-3.949219,25.410156-5.445313,38.175781-1.253906,10.742187-2.613281,21.46875-4.589844,32.09375-3.386719,18.128906-9.046875,35.539062-16.34375,52.445312-5.417969,12.570313-11.4375,24.867188-17.144531,37.300781-4.039062,8.792969-7.816406,17.699219-10.507812,27.011719-2.453126,8.457031-4.015626,17.03125-3.199219,25.925781.527343,5.707032,1.921875,11.132813,4.371093,16.285157c4.257813,8.917969,10.703126,16.039062,18.425782,22.054687c9.195312,7.179688,19.496094,12.308594,30.460937,16.132813c18.804688,6.558593,38.332031,8.953125,58.082031,9.84375c8.757813.390625,17.527344.195312,26.285157.148437c10.320312-.058594,20.621093-.726562,30.046875-.578125Zm0,0" fill="#00bf63"/></g><clipPath id="eNWDR8SfCQi9" transform="translate(0 0.000001)"><path d="M0,141.453125h458.25L458.25,642L0,642Zm0,0" transform="translate(0 0.000001)"/></clipPath></g><g clip-path="url(#eNWDR8SfCQi22)"><g><g clip-path="url(#eNWDR8SfCQi20)"><g><g clip-path="url(#eNWDR8SfCQi18)"><g><path d="M506.867188,1108.722656c-33.808594,8.4375-66.980469,11.445313-100.625,9.21875-35.535157-2.351562-69.695313-10.472656-102.488282-24.292968-30.171875-12.710938-57.554687-29.90625-82.144531-51.535157-30.722656-27.011719-55.847656-58.566406-76.207031-93.992187-9.464844-16.460938-17.660156-33.53125-24.671875-51.152344-5.554688-13.960938-10.355469-28.1875-14.378907-42.683594-2.351562-8.464844-4.414062-16.980468-6.253906-25.554687-3.554687-16.570313-5.921875-33.332031-7.171875-50.25-1.90625-25.722657-1.238281-51.351563,2.46875-76.894531c5.757813-39.710938,19.023438-76.605469,41.222657-110.136719c17.554687-26.5,39.128906-49.136719,65.523437-67.042969c12.988281-8.8125,26.773437-16.09375,41.535156-21.386719c23.789063-8.515625,48.097657-10.746093,72.882813-5.171875c21.269531,4.792969,39.625,15.078125,55.542968,29.871094c14.273438,13.257812,25.304688,28.949219,34.078126,46.257812c10.390624,20.480469,16.726562,42.300782,21.171874,64.765626c4.21875,21.300781,6.597657,42.828124,8.238282,64.441406c1.199218,15.78125,1.539062,31.59375,1.914062,47.417968.238282,9.777344.683594,19.546876,3.367188,29.0625.445312,1.582032,1.054687,3.023438,2.019531,4.351563c4.734375,6.476563,10.785156,10.824219,18.628906,13.136719c13.476563,3.960937,26.535157,2.554687,39.464844-1.964844c9.34375-3.265625,18.152344-7.75,26.660156-12.777344c4.882813-2.871094,10.09375-5.003906,15.363281-6.972656c14.460938-5.394531,28.972657-10.597656,44.113282-13.828125c18.222656-3.871094,36.511718-5.074219,54.875-.976563c20.347656,4.554688,37.46875,14.515626,50.851562,30.636719c7.148438,8.617188,12.441406,18.316407,16.25,28.835938c8.433594,23.238281,9.292969,47.097656,5.804688,71.285156-3.375,23.347656-10.714844,45.496094-21.101563,66.617187-18.691406,37.953126-44.816406,69.992188-77.746093,96.484376-18.453126,14.835937-38.59375,26.996093-60.148438,36.816406-16.199219,7.375-32.933594,13.125-49.027344,17.394531Zm-4.570313-14.050781c2.339844-.601563,4.699219-1.160156,7.027344-1.804687c14.796875-4.078126,29.164062-9.394532,43.058593-15.894532c27.148438-12.695312,51.628907-29.308594,73.21875-50.160156c23.585938-22.773438,42.738282-48.796875,56.742188-78.5c9.917969-21.035156,16.726562-43.007812,19.074219-66.230469c2.105469-20.953125.554687-41.46875-7.621094-61.164062-3.589844-8.644531-8.410156-16.53125-14.765625-23.398438-13.027344-14.082031-29.359375-21.632812-48.195312-24.09375-13.757813-1.808593-27.347657-.398437-40.835938,2.433594-14.953125,3.132813-29.234375,8.402344-43.285156,14.320313-5.011719,2.109374-10.007813,4.28125-14.894532,6.636718-3.804687,1.824219-7.410156,4.070313-11.253906,5.859375-8.050781,3.75-16.207031,7.078125-24.90625,9.160157-11.824218,2.84375-23.460937,2.761718-35.292968.007812-12.273438-2.867188-21.828126-9.382812-29.40625-19.335938-3.449219-4.511718-5.296876-9.460937-6.03125-14.925781-1.011719-7.484375-1.671876-15.019531-1.847657-22.578125-.578125-24.980468-1.375-49.949218-4.222656-74.808594-1.804687-15.828124-4.082031-31.601562-7.53125-47.15625-2.742187-12.316406-6.308594-24.398437-10.898437-36.171874-5.332032-13.691407-12.089844-26.601563-20.6875-38.5-11.5625-16.015626-25.621094-29.21875-43.449219-38.09375-21.4375-10.675782-44.019531-13.203126-67.414063-8.976563-19.097656,3.453125-36.542968,11.152344-52.898437,21.445313-29.027344,18.246093-52,42.507812-70.273438,71.347656C125.5,635.984375,113.9375,670.96875,109.089844,708.265625c-5.238282,40.304687-2.792969,80.269531,5.699218,119.90625c3.109376,14.492187,7.109376,28.769531,11.878907,42.828125c5.402343,15.859375,11.632812,31.363281,18.929687,46.433594c17.414063,36.058594,39.9375,68.558594,67.972656,97.179687c18.734376,19.109375,39.5,35.617188,62.671876,49.082031c33.003906,19.175782,68.421874,31.414063,106.117187,37.085938c40.371094,6.058594,80.359375,3.953125,119.910156-6.089844Zm0,0" fill="#0c5f52"/></g><clipPath id="eNWDR8SfCQi18"><path d="M162.964844,1174.433594L45.726562,534.839844l595.332032-109.125l117.238281,639.59375Zm0,0"/></clipPath></g></g><clipPath id="eNWDR8SfCQi20"><path d="M162.964844,1174.433594L45.726562,534.839844l595.332032-109.125l117.238281,639.59375Zm0,0"/></clipPath></g></g><clipPath id="eNWDR8SfCQi22"><path d="M91,494h626v316h-626Zm0,0"/></clipPath></g>
<script><![CDATA[
!function(t,n){"object"==typeof exports&&"undefined"!=typeof module?module.exports=n():"function"==typeof __SVGATOR_DEFINE__&&__SVGATOR_DEFINE__.amd?__SVGATOR_DEFINE__(n):((t="undefined"!=typeof globalThis?globalThis:t||self).__SVGATOR_PLAYER__=t.__SVGATOR_PLAYER__||{},t.__SVGATOR_PLAYER__["5c7f360c"]=n())}(this,(function(){"use strict";function t(t,n){var e=Object.keys(t);if(Object.getOwnPropertySymbols){var r=Object.getOwnPropertySymbols(t);n&&(r=r.filter((function(n){return Object.getOwnPropertyDescriptor(t,n).enumerable}))),e.push.apply(e,r)}return e}function n(n){for(var e=1;e<arguments.length;e++){var r=null!=arguments[e]?arguments[e]:{};e%2?t(Object(r),!0).forEach((function(t){u(n,t,r[t])})):Object.getOwnPropertyDescriptors?Object.defineProperties(n,Object.getOwnPropertyDescriptors(r)):t(Object(r)).forEach((function(t){Object.defineProperty(n,t,Object.getOwnPropertyDescriptor(r,t))}))}return n}function e(t){return(e="function"==typeof Symbol&&"symbol"==typeof Symbol.iterator?function(t){return typeof t}:function(t){return t&&"function"==typeof Symbol&&t.constructor===Symbol&&t!==Symbol.prototype?"symbol":typeof t})(t)}function r(t,n){if(!(t instanceof n))throw new TypeError("Cannot call a class as a function")}function i(t,n){for(var e=0;e<n.length;e++){var r=n[e];r.enumerable=r.enumerable||!1,r.configurable=!0,"value"in r&&(r.writable=!0),Object.defineProperty(t,r.key,r)}}function o(t,n,e){return n&&i(t.prototype,n),e&&i(t,e),t}function u(t,n,e){return n in t?Object.defineProperty(t,n,{value:e,enumerable:!0,configurable:!0,writable:!0}):t[n]=e,t}function a(t){return(a=Object.setPrototypeOf?Object.getPrototypeOf:function(t){return t.__proto__||Object.getPrototypeOf(t)})(t)}function l(t,n){return(l=Object.setPrototypeOf||function(t,n){return t.__proto__=n,t})(t,n)}function s(){if("undefined"==typeof Reflect||!Reflect.construct)return!1;if(Reflect.construct.sham)return!1;if("function"==typeof Proxy)return!0;try{return Boolean.prototype.valueOf.call(Reflect.construct(Boolean,[],(function(){}))),!0}catch(t){return!1}}function f(t,n,e){return(f=s()?Reflect.construct:function(t,n,e){var r=[null];r.push.apply(r,n);var i=new(Function.bind.apply(t,r));return e&&l(i,e.prototype),i}).apply(null,arguments)}function c(t,n){if(n&&("object"==typeof n||"function"==typeof n))return n;if(void 0!==n)throw new TypeError("Derived constructors may only return object or undefined");return function(t){if(void 0===t)throw new ReferenceError("this hasn't been initialised - super() hasn't been called");return t}(t)}function h(t,n,e){return(h="undefined"!=typeof Reflect&&Reflect.get?Reflect.get:function(t,n,e){var r=function(t,n){for(;!Object.prototype.hasOwnProperty.call(t,n)&&null!==(t=a(t)););return t}(t,n);if(r){var i=Object.getOwnPropertyDescriptor(r,n);return i.get?i.get.call(e):i.value}})(t,n,e||t)}function v(t){return function(t){if(Array.isArray(t))return y(t)}(t)||function(t){if("undefined"!=typeof Symbol&&null!=t[Symbol.iterator]||null!=t["@@iterator"])return Array.from(t)}(t)||function(t,n){if(!t)return;if("string"==typeof t)return y(t,n);var e=Object.prototype.toString.call(t).slice(8,-1);"Object"===e&&t.constructor&&(e=t.constructor.name);if("Map"===e||"Set"===e)return Array.from(t);if("Arguments"===e||/^(?:Ui|I)nt(?:8|16|32)(?:Clamped)?Array$/.test(e))return y(t,n)}(t)||function(){throw new TypeError("Invalid attempt to spread non-iterable instance.\nIn order to be iterable, non-array objects must have a [Symbol.iterator]() method.")}()}function y(t,n){(null==n||n>t.length)&&(n=t.length);for(var e=0,r=new Array(n);e<n;e++)r[e]=t[e];return r}Number.isInteger||(Number.isInteger=function(t){return"number"==typeof t&&isFinite(t)&&Math.floor(t)===t}),Number.EPSILON||(Number.EPSILON=2220446049250313e-31);var g=d(Math.pow(10,-6));function d(t){var n=arguments.length>1&&void 0!==arguments[1]?arguments[1]:6;if(Number.isInteger(t))return t;var e=Math.pow(10,n);return Math.round((+t+Number.EPSILON)*e)/e}function p(t,n){var e=arguments.length>2&&void 0!==arguments[2]?arguments[2]:g;return Math.abs(t-n)<e}var m=Math.PI/180;function b(t){return t}function w(t,n,e){var r=1-e;return 3*e*r*(t*r+n*e)+e*e*e}function A(){var t=arguments.length>0&&void 0!==arguments[0]?arguments[0]:0,n=arguments.length>1&&void 0!==arguments[1]?arguments[1]:0,e=arguments.length>2&&void 0!==arguments[2]?arguments[2]:1,r=arguments.length>3&&void 0!==arguments[3]?arguments[3]:1;return t<0||t>1||e<0||e>1?null:p(t,n)&&p(e,r)?b:function(i){if(i<=0)return t>0?i*n/t:0===n&&e>0?i*r/e:0;if(i>=1)return e<1?1+(i-1)*(r-1)/(e-1):1===e&&t<1?1+(i-1)*(n-1)/(t-1):1;for(var o,u=0,a=1;u<a;){var l=w(t,e,o=(u+a)/2);if(p(i,l))break;l<i?u=o:a=o}return w(n,r,o)}}function _(){return 1}function x(t){return 1===t?1:0}function k(){var t=arguments.length>0&&void 0!==arguments[0]?arguments[0]:1,n=arguments.length>1&&void 0!==arguments[1]?arguments[1]:0;if(1===t){if(0===n)return x;if(1===n)return _}var e=1/t;return function(t){return t>=1?1:(t+=n*e)-t%e}}var S=Math.sin,O=Math.cos,j=Math.acos,E=Math.asin,M=Math.tan,P=Math.atan2,I=Math.PI/180,R=180/Math.PI,F=Math.sqrt,N=function(){function t(){var n=arguments.length>0&&void 0!==arguments[0]?arguments[0]:1,e=arguments.length>1&&void 0!==arguments[1]?arguments[1]:0,i=arguments.length>2&&void 0!==arguments[2]?arguments[2]:0,o=arguments.length>3&&void 0!==arguments[3]?arguments[3]:1,u=arguments.length>4&&void 0!==arguments[4]?arguments[4]:0,a=arguments.length>5&&void 0!==arguments[5]?arguments[5]:0;r(this,t),this.m=[n,e,i,o,u,a],this.i=null,this.w=null,this.s=null}return o(t,[{key:"determinant",get:function(){var t=this.m;return t[0]*t[3]-t[1]*t[2]}},{key:"isIdentity",get:function(){if(null===this.i){var t=this.m;this.i=1===t[0]&&0===t[1]&&0===t[2]&&1===t[3]&&0===t[4]&&0===t[5]}return this.i}},{key:"point",value:function(t,n){var e=this.m;return{x:e[0]*t+e[2]*n+e[4],y:e[1]*t+e[3]*n+e[5]}}},{key:"translateSelf",value:function(){var t=arguments.length>0&&void 0!==arguments[0]?arguments[0]:0,n=arguments.length>1&&void 0!==arguments[1]?arguments[1]:0;if(!t&&!n)return this;var e=this.m;return e[4]+=e[0]*t+e[2]*n,e[5]+=e[1]*t+e[3]*n,this.w=this.s=this.i=null,this}},{key:"rotateSelf",value:function(){var t=arguments.length>0&&void 0!==arguments[0]?arguments[0]:0;if(t%=360){var n=S(t*=I),e=O(t),r=this.m,i=r[0],o=r[1];r[0]=i*e+r[2]*n,r[1]=o*e+r[3]*n,r[2]=r[2]*e-i*n,r[3]=r[3]*e-o*n,this.w=this.s=this.i=null}return this}},{key:"scaleSelf",value:function(){var t=arguments.length>0&&void 0!==arguments[0]?arguments[0]:1,n=arguments.length>1&&void 0!==arguments[1]?arguments[1]:1;if(1!==t||1!==n){var e=this.m;e[0]*=t,e[1]*=t,e[2]*=n,e[3]*=n,this.w=this.s=this.i=null}return this}},{key:"skewSelf",value:function(t,n){if(n%=360,(t%=360)||n){var e=this.m,r=e[0],i=e[1],o=e[2],u=e[3];t&&(t=M(t*I),e[2]+=r*t,e[3]+=i*t),n&&(n=M(n*I),e[0]+=o*n,e[1]+=u*n),this.w=this.s=this.i=null}return this}},{key:"resetSelf",value:function(){var t=arguments.length>0&&void 0!==arguments[0]?arguments[0]:1,n=arguments.length>1&&void 0!==arguments[1]?arguments[1]:0,e=arguments.length>2&&void 0!==arguments[2]?arguments[2]:0,r=arguments.length>3&&void 0!==arguments[3]?arguments[3]:1,i=arguments.length>4&&void 0!==arguments[4]?arguments[4]:0,o=arguments.length>5&&void 0!==arguments[5]?arguments[5]:0,u=this.m;return u[0]=t,u[1]=n,u[2]=e,u[3]=r,u[4]=i,u[5]=o,this.w=this.s=this.i=null,this}},{key:"recomposeSelf",value:function(){var t=arguments.length>0&&void 0!==arguments[0]?arguments[0]:null,n=arguments.length>1&&void 0!==arguments[1]?arguments[1]:null,e=arguments.length>2&&void 0!==arguments[2]?arguments[2]:null,r=arguments.length>3&&void 0!==arguments[3]?arguments[3]:null,i=arguments.length>4&&void 0!==arguments[4]?arguments[4]:null;return this.isIdentity||this.resetSelf(),t&&(t.x||t.y)&&this.translateSelf(t.x,t.y),n&&this.rotateSelf(n),e&&(e.x&&this.skewSelf(e.x,0),e.y&&this.skewSelf(0,e.y)),!r||1===r.x&&1===r.y||this.scaleSelf(r.x,r.y),i&&(i.x||i.y)&&this.translateSelf(i.x,i.y),this}},{key:"decompose",value:function(){var t=arguments.length>0&&void 0!==arguments[0]?arguments[0]:0,n=arguments.length>1&&void 0!==arguments[1]?arguments[1]:0,e=this.m,r=e[0]*e[0]+e[1]*e[1],i=[[e[0],e[1]],[e[2],e[3]]],o=F(r);if(0===o)return{origin:{x:d(e[4]),y:d(e[5])},translate:{x:d(t),y:d(n)},scale:{x:0,y:0},skew:{x:0,y:0},rotate:0};i[0][0]/=o,i[0][1]/=o;var u=e[0]*e[3]-e[1]*e[2]<0;u&&(o=-o);var a=i[0][0]*i[1][0]+i[0][1]*i[1][1];i[1][0]-=i[0][0]*a,i[1][1]-=i[0][1]*a;var l=F(i[1][0]*i[1][0]+i[1][1]*i[1][1]);if(0===l)return{origin:{x:d(e[4]),y:d(e[5])},translate:{x:d(t),y:d(n)},scale:{x:d(o),y:0},skew:{x:0,y:0},rotate:0};i[1][0]/=l,i[1][1]/=l,a/=l;var s=0;return i[1][1]<0?(s=j(i[1][1])*R,i[0][1]<0&&(s=360-s)):s=E(i[0][1])*R,u&&(s=-s),a=P(a,F(i[0][0]*i[0][0]+i[0][1]*i[0][1]))*R,u&&(a=-a),{origin:{x:d(e[4]),y:d(e[5])},translate:{x:d(t),y:d(n)},scale:{x:d(o),y:d(l)},skew:{x:d(a),y:0},rotate:d(s)}}},{key:"clone",value:function(){var t=this.m;return new this.constructor(t[0],t[1],t[2],t[3],t[4],t[5])}},{key:"toString",value:function(){var t=arguments.length>0&&void 0!==arguments[0]?arguments[0]:" ";if(null===this.s){var n=this.m.map((function(t){return d(t)}));1===n[0]&&0===n[1]&&0===n[2]&&1===n[3]?this.s="translate("+n[4]+t+n[5]+")":this.s="matrix("+n.join(t)+")"}return this.s}}],[{key:"create",value:function(t){return t?Array.isArray(t)?f(this,v(t)):t instanceof this?t.clone():(new this).recomposeSelf(t.origin,t.rotate,t.skew,t.scale,t.translate):new this}}]),t}();function T(t,n,e){return t>=.5?e:n}function q(t,n,e){return 0===t||n===e?n:t*(e-n)+n}function B(t,n,e){var r=q(t,n,e);return r<=0?0:r}function D(t,n,e){var r=q(t,n,e);return r<=0?0:r>=1?1:r}function L(t,n,e){return 0===t?n:1===t?e:{x:q(t,n.x,e.x),y:q(t,n.y,e.y)}}function C(t,n,e){var r=function(t,n,e){return Math.round(q(t,n,e))}(t,n,e);return r<=0?0:r>=255?255:r}function V(t,n,e){return 0===t?n:1===t?e:{r:C(t,n.r,e.r),g:C(t,n.g,e.g),b:C(t,n.b,e.b),a:q(t,null==n.a?1:n.a,null==e.a?1:e.a)}}function G(t,n){for(var e=[],r=0;r<t;r++)e.push(n);return e}function z(t,n){if(--n<=0)return t;var e=(t=Object.assign([],t)).length;do{for(var r=0;r<e;r++)t.push(t[r])}while(--n>0);return t}var Y,$=function(){function t(n){r(this,t),this.list=n,this.length=n.length}return o(t,[{key:"setAttribute",value:function(t,n){for(var e=this.list,r=0;r<this.length;r++)e[r].setAttribute(t,n)}},{key:"removeAttribute",value:function(t){for(var n=this.list,e=0;e<this.length;e++)n[e].removeAttribute(t)}},{key:"style",value:function(t,n){for(var e=this.list,r=0;r<this.length;r++)e[r].style[t]=n}}]),t}(),U=/-./g,Q=function(t,n){return n.toUpperCase()};function H(t){return"function"==typeof t?t:T}function J(t){return t?"function"==typeof t?t:Array.isArray(t)?function(t){var n=arguments.length>1&&void 0!==arguments[1]?arguments[1]:b;if(!Array.isArray(t))return n;switch(t.length){case 1:return k(t[0])||n;case 2:return k(t[0],t[1])||n;case 4:return A(t[0],t[1],t[2],t[3])||n}return n}(t,null):function(t,n){var e=arguments.length>2&&void 0!==arguments[2]?arguments[2]:b;switch(t){case"linear":return b;case"steps":return k(n.steps||1,n.jump||0)||e;case"bezier":case"cubic-bezier":return A(n.x1||0,n.y1||0,n.x2||0,n.y2||0)||e}return e}(t.type,t.value,null):null}function Z(t,n,e){var r=arguments.length>3&&void 0!==arguments[3]&&arguments[3],i=n.length-1;if(t<=n[0].t)return r?[0,0,n[0].v]:n[0].v;if(t>=n[i].t)return r?[i,1,n[i].v]:n[i].v;var o,u=n[0],a=null;for(o=1;o<=i;o++){if(!(t>n[o].t)){a=n[o];break}u=n[o]}return null==a?r?[i,1,n[i].v]:n[i].v:u.t===a.t?r?[o,1,a.v]:a.v:(t=(t-u.t)/(a.t-u.t),u.e&&(t=u.e(t)),r?[o,t,e(t,u.v,a.v)]:e(t,u.v,a.v))}function K(t,n){var e=arguments.length>2&&void 0!==arguments[2]?arguments[2]:null;return t&&t.length?"function"!=typeof n?null:("function"!=typeof e&&(e=null),function(r){var i=Z(r,t,n);return null!=i&&e&&(i=e(i)),i}):null}function W(t,n){return t.t-n.t}function X(t,n,r,i,o){var u,a="@"===r[0],l="#"===r[0],s=Y[r],f=T;switch(a?(u=r.substr(1),r=u.replace(U,Q)):l&&(r=r.substr(1)),e(s)){case"function":if(f=s(i,o,Z,J,r,a,n,t),l)return f;break;case"string":f=K(i,H(s));break;case"object":if((f=K(i,H(s.i),s.f))&&"function"==typeof s.u)return s.u(n,f,r,a,t)}return f?function(t,n,e){if(arguments.length>3&&void 0!==arguments[3]&&arguments[3])return t instanceof $?function(r){return t.style(n,e(r))}:function(r){return t.style[n]=e(r)};if(Array.isArray(n)){var r=n.length;return function(i){var o=e(i);if(null==o)for(var u=0;u<r;u++)t[u].removeAttribute(n);else for(var a=0;a<r;a++)t[a].setAttribute(n,o)}}return function(r){var i=e(r);null==i?t.removeAttribute(n):t.setAttribute(n,i)}}(n,r,f,a):null}function tt(t,n,r,i){if(!i||"object"!==e(i))return null;var o=null,u=null;return Array.isArray(i)?u=function(t){if(!t||!t.length)return null;for(var n=0;n<t.length;n++)t[n].e&&(t[n].e=J(t[n].e));return t.sort(W)}(i):(u=i.keys,o=i.data||null),u?X(t,n,r,u,o):null}function nt(t,n,e){if(!e)return null;var r=[];for(var i in e)if(e.hasOwnProperty(i)){var o=tt(t,n,i,e[i]);o&&r.push(o)}return r.length?r:null}function et(t,n){if(!n.settings.duration||n.settings.duration<0)return null;var e,r,i,o,u,a=function(t,n){if(!n)return null;var e=[];if(Array.isArray(n))for(var r=n.length,i=0;i<r;i++){var o=n[i];if(2===o.length){var u=null;if("string"==typeof o[0])u=t.getElementById(o[0]);else if(Array.isArray(o[0])){u=[];for(var a=0;a<o[0].length;a++)if("string"==typeof o[0][a]){var l=t.getElementById(o[0][a]);l&&u.push(l)}u=u.length?1===u.length?u[0]:new $(u):null}if(u){var s=nt(t,u,o[1]);s&&(e=e.concat(s))}}}else for(var f in n)if(n.hasOwnProperty(f)){var c=t.getElementById(f);if(c){var h=nt(t,c,n[f]);h&&(e=e.concat(h))}}return e.length?e:null}(t,n.elements);return a?(e=a,r=n.settings,i=r.duration,o=e.length,u=null,function(t,n){var a=r.iterations||1/0,l=(r.alternate&&a%2==0)^r.direction>0?i:0,s=t%i,f=1+(t-s)/i;n*=r.direction,r.alternate&&f%2==0&&(n=-n);var c=!1;if(f>a)s=l,c=!0,-1===r.fill&&(s=r.direction>0?0:i);else if(n<0&&(s=i-s),s===u)return!1;u=s;for(var h=0;h<o;h++)e[h](s);return c}):null}function rt(t,n){for(var e=n.querySelectorAll("svg"),r=0;r<e.length;r++)if(e[r].id===t.root&&!e[r].svgatorAnimation)return e[r].svgatorAnimation=!0,e[r];return null}function it(t){var n=function(t){return t.shadowRoot};return document?Array.from(t.querySelectorAll(":not("+["a","area","audio","br","canvas","circle","datalist","embed","g","head","hr","iframe","img","input","link","object","path","polygon","rect","script","source","style","svg","title","track","video"].join()+")")).filter(n).map(n):[]}function ot(t){var n=arguments.length>1&&void 0!==arguments[1]?arguments[1]:document,e=arguments.length>2&&void 0!==arguments[2]?arguments[2]:0,r=rt(t,n);if(r)return r;if(e>=20)return null;for(var i=it(n),o=0;o<i.length;o++){var u=ot(t,i[o],e+1);if(u)return u}return null}function ut(t,n){if(Y=n,!t||!t.root||!Array.isArray(t.animations))return null;var e=ot(t);if(!e)return null;var r=t.animations.map((function(t){return et(e,t)})).filter((function(t){return!!t}));return r.length?{svg:e,animations:r,animationSettings:t.animationSettings,options:t.options||void 0}:null}function at(t){var n=arguments.length>1&&void 0!==arguments[1]?arguments[1]:null,e=arguments.length>2&&void 0!==arguments[2]?arguments[2]:Number,r=arguments.length>3&&void 0!==arguments[3]?arguments[3]:"undefined"!=typeof BigInt&&BigInt,i="0x"+(t.replace(/[^0-9a-fA-F]+/g,"")||27);return n&&r&&e.isSafeInteger&&!e.isSafeInteger(+i)?e(r(i))%n+n:+i}function lt(t,n,e){return!t||!e||n>t.length?t:t.substring(0,n)+lt(t.substring(n+1),e,e)}function st(t){var n=arguments.length>1&&void 0!==arguments[1]?arguments[1]:27;return!t||t%n?t%n:[0,1].includes(n)?n:st(t/n,n)}function ft(t,n,e){if(t&&t.length){var r=at(e),i=st(r)+5,o=lt(t,st(r,5),i);return o=o.replace(/\x7c$/g,"==").replace(/\x2f$/g,"="),o=function(t,n,e){var r=+("0x"+t.substring(0,4));t=t.substring(4);for(var i=at(n,r)%r+e%27,o=[],u=0;u<t.length;u+=2)if("|"!==t[u]){var a=+("0x"+t[u]+t[u+1])-i;o.push(a)}else{var l=+("0x"+t.substring(u+1,u+1+4))-i;u+=3,o.push(l)}return String.fromCharCode.apply(String,o)}(o=(o=atob(o)).replace(/[\x41-\x5A]/g,""),n,r),o=JSON.parse(o)}}var ct=[{key:"alternate",def:!1},{key:"fill",def:1},{key:"iterations",def:0},{key:"direction",def:1},{key:"speed",def:1},{key:"fps",def:100}],ht=function(){function t(n,e){var i=this,o=arguments.length>2&&void 0!==arguments[2]?arguments[2]:null;r(this,t),this._id=0,this._running=!1,this._rollingBack=!1,this._animations=n,this._settings=e,(!o||o<"2022-05-02")&&delete this._settings.speed,ct.forEach((function(t){i._settings[t.key]=i._settings[t.key]||t.def})),this.duration=e.duration,this.offset=e.offset||0,this.rollbackStartOffset=0}return o(t,[{key:"alternate",get:function(){return this._settings.alternate}},{key:"fill",get:function(){return this._settings.fill}},{key:"iterations",get:function(){return this._settings.iterations}},{key:"direction",get:function(){return this._settings.direction}},{key:"speed",get:function(){return this._settings.speed}},{key:"fps",get:function(){return this._settings.fps}},{key:"maxFiniteDuration",get:function(){return this.iterations>0?this.iterations*this.duration:this.duration}},{key:"_apply",value:function(t){for(var n=arguments.length>1&&void 0!==arguments[1]?arguments[1]:{},e=this._animations,r=e.length,i=0,o=0;o<r;o++)n[o]?i++:(n[o]=e[o](t,1),n[o]&&i++);return i}},{key:"_rollback",value:function(t){var n=this,e=1/0,r=null;this.rollbackStartOffset=t,this._rollingBack=!0,this._running=!0;this._id=window.requestAnimationFrame((function i(o){if(n._rollingBack){null==r&&(r=o);var u=Math.round(t-(o-r)*n.speed);if(u>n.duration&&e!==1/0){var a=!!n.alternate&&u/n.duration%2>1,l=u%n.duration;u=(l+=a?n.duration:0)||n.duration}var s=(n.fps?1e3/n.fps:0)*n.speed,f=Math.max(0,u);f<=e-s&&(n.offset=f,e=f,n._apply(f));var c=n.iterations>0&&-1===n.fill&&u>=n.maxFiniteDuration;(u<=0||n.offset<u||c)&&n.stop(),n._id=window.requestAnimationFrame(i)}}))}},{key:"_start",value:function(){var t=this,n=arguments.length>0&&void 0!==arguments[0]?arguments[0]:0,e=-1/0,r=null,i={};this._running=!0;var o=function o(u){null==r&&(r=u);var a=Math.round((u-r)*t.speed+n),l=(t.fps?1e3/t.fps:0)*t.speed;if(a>=e+l&&!t._rollingBack&&(t.offset=a,e=a,t._apply(a,i)===t._animations.length))return void t.pause(!0);t._id=window.requestAnimationFrame(o)};this._id=window.requestAnimationFrame(o)}},{key:"_pause",value:function(){this._id&&window.cancelAnimationFrame(this._id),this._running=!1}},{key:"play",value:function(){if(!this._running)return this._rollingBack?this._rollback(this.offset):this._start(this.offset)}},{key:"stop",value:function(){this._pause(),this.offset=0,this.rollbackStartOffset=0,this._rollingBack=!1,this._apply(0)}},{key:"reachedToEnd",value:function(){return this.iterations>0&&this.offset>=this.iterations*this.duration}},{key:"restart",value:function(){var t=arguments.length>0&&void 0!==arguments[0]&&arguments[0];this.stop(t),this.play(t)}},{key:"pause",value:function(){this._pause()}},{key:"reverse",value:function(){this.direction=-this.direction}}],[{key:"build",value:function(t,n){delete t.animationSettings,t.options=ft(t.options,t.root,"5c7f360c"),t.animations.map((function(n){n.settings=ft(n.s,t.root,"5c7f360c"),delete n.s,t.animationSettings||(t.animationSettings=n.settings)}));var e=t.version;if(!(t=ut(t,n)))return null;var r=t.options||{},i=new this(t.animations,t.animationSettings,e);return{el:t.svg,options:r,player:i}}},{key:"push",value:function(t){return this.build(t)}},{key:"init",value:function(){var t=this,n=window.__SVGATOR_PLAYER__&&window.__SVGATOR_PLAYER__["5c7f360c"];Array.isArray(n)&&n.splice(0).forEach((function(n){return t.build(n)}))}}]),t}();function vt(t){return d(t)+""}function yt(t){var n=arguments.length>1&&void 0!==arguments[1]?arguments[1]:" ";return t&&t.length?t.map(vt).join(n):""}function gt(t){if(!t)return"transparent";if(null==t.a||t.a>=1){var n=function(t){return 1===(t=parseInt(t).toString(16)).length?"0"+t:t},e=function(t){return t.charAt(0)===t.charAt(1)},r=n(t.r),i=n(t.g),o=n(t.b);return e(r)&&e(i)&&e(o)&&(r=r.charAt(0),i=i.charAt(0),o=o.charAt(0)),"#"+r+i+o}return"rgba("+t.r+","+t.g+","+t.b+","+t.a+")"}function dt(t){return t?"url(#"+t+")":"none"}!function(){for(var t=0,n=["ms","moz","webkit","o"],e=0;e<n.length&&!window.requestAnimationFrame;++e)window.requestAnimationFrame=window[n[e]+"RequestAnimationFrame"],window.cancelAnimationFrame=window[n[e]+"CancelAnimationFrame"]||window[n[e]+"CancelRequestAnimationFrame"];window.requestAnimationFrame||(window.requestAnimationFrame=function(n){var e=Date.now(),r=Math.max(0,16-(e-t)),i=window.setTimeout((function(){n(e+r)}),r);return t=e+r,i},window.cancelAnimationFrame=window.clearTimeout)}();var pt={f:null,i:function(t,n,e){return 0===t?n:1===t?e:{x:B(t,n.x,e.x),y:B(t,n.y,e.y)}},u:function(t,n){return function(e){var r=n(e);t.setAttribute("rx",vt(r.x)),t.setAttribute("ry",vt(r.y))}}},mt={f:null,i:function(t,n,e){return 0===t?n:1===t?e:{width:B(t,n.width,e.width),height:B(t,n.height,e.height)}},u:function(t,n){return function(e){var r=n(e);t.setAttribute("width",vt(r.width)),t.setAttribute("height",vt(r.height))}}};Object.freeze({M:2,L:2,Z:0,H:1,V:1,C:6,Q:4,T:2,S:4,A:7});var bt={},wt=null;function At(t){var n=function(){if(wt)return wt;if("object"!==("undefined"==typeof document?"undefined":e(document))||!document.createElementNS)return{};var t=document.createElementNS("http://www.w3.org/2000/svg","svg");return t&&t.style?(t.style.position="absolute",t.style.opacity="0.01",t.style.zIndex="-9999",t.style.left="-9999px",t.style.width="1px",t.style.height="1px",wt={svg:t}):{}}().svg;if(!n)return function(t){return null};var r=document.createElementNS(n.namespaceURI,"path");r.setAttributeNS(null,"d",t),r.setAttributeNS(null,"fill","none"),r.setAttributeNS(null,"stroke","none"),n.appendChild(r);var i=r.getTotalLength();return function(t){var n=r.getPointAtLength(i*t);return{x:n.x,y:n.y}}}function _t(t){return bt[t]?bt[t]:bt[t]=At(t)}function xt(t,n,e,r){if(!t||!r)return!1;var i=["M",t.x,t.y];if(n&&e&&(i.push("C"),i.push(n.x),i.push(n.y),i.push(e.x),i.push(e.y)),n?!e:e){var o=n||e;i.push("Q"),i.push(o.x),i.push(o.y)}return n||e||i.push("L"),i.push(r.x),i.push(r.y),i.join(" ")}function kt(t,n,e,r){var i=arguments.length>4&&void 0!==arguments[4]?arguments[4]:1,o=xt(t,n,e,r),u=_t(o);try{return u(i)}catch(t){return null}}function St(t,n,e){return t+(n-t)*e}function Ot(t,n,e){var r=arguments.length>3&&void 0!==arguments[3]&&arguments[3],i={x:St(t.x,n.x,e),y:St(t.y,n.y,e)};return r&&(i.a=jt(t,n)),i}function jt(t,n){return Math.atan2(n.y-t.y,n.x-t.x)}function Et(t,n,e,r){var i=1-r;return i*i*t+2*i*r*n+r*r*e}function Mt(t,n,e,r){return 2*(1-r)*(n-t)+2*r*(e-n)}function Pt(t,n,e,r){var i=arguments.length>4&&void 0!==arguments[4]&&arguments[4],o=kt(t,n,null,e,r);return o||(o={x:Et(t.x,n.x,e.x,r),y:Et(t.y,n.y,e.y,r)}),i&&(o.a=It(t,n,e,r)),o}function It(t,n,e,r){return Math.atan2(Mt(t.y,n.y,e.y,r),Mt(t.x,n.x,e.x,r))}function Rt(t,n,e,r,i){var o=i*i;return i*o*(r-t+3*(n-e))+3*o*(t+e-2*n)+3*i*(n-t)+t}function Ft(t,n,e,r,i){var o=1-i;return 3*(o*o*(n-t)+2*o*i*(e-n)+i*i*(r-e))}function Nt(t,n,e,r,i){var o=arguments.length>5&&void 0!==arguments[5]&&arguments[5],u=kt(t,n,e,r,i);return u||(u={x:Rt(t.x,n.x,e.x,r.x,i),y:Rt(t.y,n.y,e.y,r.y,i)}),o&&(u.a=Tt(t,n,e,r,i)),u}function Tt(t,n,e,r,i){return Math.atan2(Ft(t.y,n.y,e.y,r.y,i),Ft(t.x,n.x,e.x,r.x,i))}function qt(t,n,e){var r=arguments.length>3&&void 0!==arguments[3]&&arguments[3];if(Dt(n)){if(Lt(e))return Pt(n,e.start,e,t,r)}else if(Dt(e)){if(Ct(n))return Pt(n,n.end,e,t,r)}else{if(Ct(n))return Lt(e)?Nt(n,n.end,e.start,e,t,r):Pt(n,n.end,e,t,r);if(Lt(e))return Pt(n,e.start,e,t,r)}return Ot(n,e,t,r)}function Bt(t,n,e){var r=qt(t,n,e,!0);return r.a=function(t){return arguments.length>1&&void 0!==arguments[1]&&arguments[1]?t+Math.PI:t}(r.a)/m,r}function Dt(t){return!t.type||"corner"===t.type}function Lt(t){return null!=t.start&&!Dt(t)}function Ct(t){return null!=t.end&&!Dt(t)}var Vt=new N;var Gt={f:vt,i:q},zt={f:vt,i:D};function Yt(t,n,e){return t.map((function(t){return function(t,n,e){var r=t.v;if(!r||"g"!==r.t||r.s||!r.v||!r.r)return t;var i=e.getElementById(r.r),o=i&&i.querySelectorAll("stop")||[];return r.s=r.v.map((function(t,n){var e=o[n]&&o[n].getAttribute("offset");return{c:t,o:e=d(parseInt(e)/100)}})),delete r.v,t}(t,0,e)}))}var $t={gt:"gradientTransform",c:{x:"cx",y:"cy"},rd:"r",f:{x:"x1",y:"y1"},to:{x:"x2",y:"y2"}};function Ut(t,n,r,i,o,u,a,l){return Yt(t,0,l),n=function(t,n,e){for(var r,i,o,u=t.length-1,a={},l=0;l<=u;l++)(r=t[l]).e&&(r.e=n(r.e)),r.v&&"g"===(i=r.v).t&&i.r&&(o=e.getElementById(i.r))&&(a[i.r]={e:o,s:o.querySelectorAll("stop")});return a}(t,i,l),function(i){var o=r(i,t,Qt);if(!o)return"none";if("c"===o.t)return gt(o.v);if("g"===o.t){if(!n[o.r])return dt(o.r);var u=n[o.r];return function(t,n){for(var e=t.s,r=e.length;r<n.length;r++){var i=e[e.length-1].cloneNode();i.id=Zt(i.id),t.e.appendChild(i),e=t.s=t.e.querySelectorAll("stop")}for(var o=0,u=e.length,a=n.length-1;o<u;o++)e[o].setAttribute("stop-color",gt(n[Math.min(o,a)].c)),e[o].setAttribute("offset",n[Math.min(o,a)].o)}(u,o.s),Object.keys($t).forEach((function(t){if(void 0!==o[t])if("object"!==e($t[t])){var n,r="gt"===t?(n=o[t],Array.isArray(n)?"matrix("+n.join(" ")+")":""):o[t],i=$t[t];u.e.setAttribute(i,r)}else Object.keys($t[t]).forEach((function(n){if(void 0!==o[t][n]){var e=o[t][n],r=$t[t][n];u.e.setAttribute(r,e)}}))})),dt(o.r)}return"none"}}function Qt(t,e,r){if(0===t)return e;if(1===t)return r;if(e&&r){var i=e.t;if(i===r.t)switch(e.t){case"c":return{t:i,v:V(t,e.v,r.v)};case"g":if(e.r===r.r){var o={t:i,s:Ht(t,e.s,r.s),r:e.r};return e.gt&&r.gt&&(o.gt=function(t,n,e){var r=n.length;if(r!==e.length)return T(t,n,e);for(var i=new Array(r),o=0;o<r;o++)i[o]=q(t,n[o],e[o]);return i}(t,e.gt,r.gt)),e.c?(o.c=L(t,e.c,r.c),o.rd=B(t,e.rd,r.rd)):e.f&&(o.f=L(t,e.f,r.f),o.to=L(t,e.to,r.to)),o}}if("c"===e.t&&"g"===r.t||"c"===r.t&&"g"===e.t){var u="c"===e.t?e:r,a="g"===e.t?n({},e):n({},r),l=a.s.map((function(t){return{c:u.v,o:t.o}}));return a.s="c"===e.t?Ht(t,l,a.s):Ht(t,a.s,l),a}}return T(t,e,r)}function Ht(t,n,e){if(n.length===e.length)return n.map((function(n,r){return Jt(t,n,e[r])}));for(var r=Math.max(n.length,e.length),i=[],o=0;o<r;o++){var u=Jt(t,n[Math.min(o,n.length-1)],e[Math.min(o,e.length-1)]);i.push(u)}return i}function Jt(t,n,e){return{o:D(t,n.o,e.o||0),c:V(t,n.c,e.c||{})}}function Zt(t){return t.replace(/-fill-([0-9]+)$/,(function(t,n){return"-fill-"+(+n+1)}))}var Kt={fill:Ut,"fill-opacity":zt,stroke:Ut,"stroke-opacity":zt,"stroke-width":Gt,"stroke-dashoffset":{f:vt,i:q},"stroke-dasharray":{f:function(t){var n=arguments.length>1&&void 0!==arguments[1]?arguments[1]:" ";return t&&t.length>0&&(t=t.map((function(t){return d(t,4)}))),yt(t,n)},i:function(t,n,e){var r,i,o,u=n.length,a=e.length;if(u!==a)if(0===u)n=G(u=a,0);else if(0===a)a=u,e=G(u,0);else{var l=(o=(r=u)*(i=a)/function(t,n){for(var e;n;)e=n,n=t%n,t=e;return t||1}(r,i))<0?-o:o;n=z(n,Math.floor(l/u)),e=z(e,Math.floor(l/a)),u=a=l}for(var s=[],f=0;f<u;f++)s.push(d(B(t,n[f],e[f])));return s}},opacity:zt,transform:function(t,n,r,i){if(!(t=function(t,n){if(!t||"object"!==e(t))return null;var r=!1;for(var i in t)t.hasOwnProperty(i)&&(t[i]&&t[i].length?(t[i].forEach((function(t){t.e&&(t.e=n(t.e))})),r=!0):delete t[i]);return r?t:null}(t,i)))return null;var o=function(e,i,o){var u=arguments.length>3&&void 0!==arguments[3]?arguments[3]:null;return t[e]?r(i,t[e],o):n&&n[e]?n[e]:u};return n&&n.a&&t.o?function(n){var e=r(n,t.o,Bt);return Vt.recomposeSelf(e,o("r",n,q,0)+e.a,o("k",n,L),o("s",n,L),o("t",n,L)).toString()}:function(t){return Vt.recomposeSelf(o("o",t,qt,null),o("r",t,q,0),o("k",t,L),o("s",t,L),o("t",t,L)).toString()}},r:Gt,"#size":mt,"#radius":pt,_:function(t,n){if(Array.isArray(t))for(var e=0;e<t.length;e++)this[t[e]]=n;else this[t]=n}},Wt=function(t){!function(t,n){if("function"!=typeof n&&null!==n)throw new TypeError("Super expression must either be null or a function");t.prototype=Object.create(n&&n.prototype,{constructor:{value:t,writable:!0,configurable:!0}}),n&&l(t,n)}(u,t);var n,e,i=(n=u,e=s(),function(){var t,r=a(n);if(e){var i=a(this).constructor;t=Reflect.construct(r,arguments,i)}else t=r.apply(this,arguments);return c(this,t)});function u(){return r(this,u),i.apply(this,arguments)}return o(u,null,[{key:"build",value:function(t){var n=h(a(u),"build",this).call(this,t,Kt);if(!n)return null;n.el,n.options,function(t,n,e){t.play()}(n.player)}}]),u}(ht);return Wt.init(),Wt}));
(function(s,i,o,w,d,a,b){w[o]=w[o]||{};w[o][s]=w[o][s]||[];w[o][s].push(i);})('5c7f360c',{"root":"eNWDR8SfCQi1","version":"2022-05-04","animations":[{"elements":{"eNWDR8SfCQi6":{"transform":{"data":{"o":{"x":229.215446,"y":391.873352,"type":"corner"},"t":{"x":-229.215446,"y":-391.873352}},"keys":{"r":[{"t":0,"v":0},{"t":2500,"v":90},{"t":5000,"v":180},{"t":7500,"v":270},{"t":10000,"v":360}]}}}},"s":"MXDA1ZWRhODFjM2Q0ZDQFGYzBVZDNjOGNlY2RFYODE5OTkwOGY4ZjhmHOGY4YjgxYzNjOGQxWGGM0YzJkM2M4Y2VjZDSgxOTk5MDhiODFXYzhUkM0xjNGQxYzBKZDNjGOGNlY2RkMjgxOTk5MDDhiODFjNWM4Y2JjYjRgxOTk5MFI4YjgxYzBTjYmQzYzRkMWNkWGMwNZDNjNDgxOTljNWMwYJ2JkMmM0OGI4MWQyY2GZjNGM0YzM4MVM5OTkIwOGI4MWM1Y2ZRZDI4JMTk5OTA4ZjhmZGM/"}],"options":"MSDAxMDg4MmY4MDgxNmLU3ZjgxMmY0NzJmNzkB3YzZlNzEyZjhh"},'__SVGATOR_PLAYER__',window,document)
]]></script>
</svg>
