<svg xmlns="http://www.w3.org/2000/svg" xmlns:xlink="http://www.w3.org/1999/xlink" width="1920" zoomAndPan="magnify" viewBox="0 0 1440 809.999993" height="1080" preserveAspectRatio="xMidYMid meet" version="1.0"><defs><clipPath id="930c1be0c3"><path d="M 0 0 L 502 0 L 502 810 L 0 810 Z M 0 0 " clip-rule="nonzero"/></clipPath><clipPath id="d7357b19ec"><path d="M 706.898438 -761.738281 L 942.097656 922.921875 L -434.300781 1115.085938 L -669.5 -569.578125 Z M 706.898438 -761.738281 " clip-rule="nonzero"/></clipPath><clipPath id="189d1a9bad"><path d="M 706.898438 -761.738281 L 942.097656 922.921875 L -434.300781 1115.085938 L -669.5 -569.578125 Z M 706.898438 -761.738281 " clip-rule="nonzero"/></clipPath><clipPath id="ba6218344d"><path d="M 0 0 L 616 0 L 616 810 L 0 810 Z M 0 0 " clip-rule="nonzero"/></clipPath><clipPath id="a436d8f6c9"><path d="M 706.898438 -761.738281 L 942.097656 922.921875 L -434.300781 1115.085938 L -669.5 -569.578125 Z M 706.898438 -761.738281 " clip-rule="nonzero"/></clipPath><clipPath id="ee993ec926"><path d="M 706.898438 -761.738281 L 942.097656 922.921875 L -434.300781 1115.085938 L -669.5 -569.578125 Z M 706.898438 -761.738281 " clip-rule="nonzero"/></clipPath><clipPath id="ce97f3ef47"><path d="M 0 0 L 738 0 L 738 810 L 0 810 Z M 0 0 " clip-rule="nonzero"/></clipPath><clipPath id="fea6a7f994"><path d="M 706.898438 -761.738281 L 942.097656 922.921875 L -434.300781 1115.085938 L -669.5 -569.578125 Z M 706.898438 -761.738281 " clip-rule="nonzero"/></clipPath><clipPath id="a86122df8a"><path d="M 706.898438 -761.738281 L 942.097656 922.921875 L -434.300781 1115.085938 L -669.5 -569.578125 Z M 706.898438 -761.738281 " clip-rule="nonzero"/></clipPath><clipPath id="a2f81e1f27"><path d="M 0 0 L 290 0 L 290 810 L 0 810 Z M 0 0 " clip-rule="nonzero"/></clipPath><clipPath id="adc4e426a3"><path d="M -837.144531 -138.390625 L 326.433594 -49.0625 L 179.410156 1866.054688 L -984.164062 1776.726562 Z M -837.144531 -138.390625 " clip-rule="nonzero"/></clipPath><clipPath id="57d9f8cd0f"><path d="M 326.058594 -49.089844 L -837.515625 -138.417969 L -984.539062 1776.699219 L 179.039062 1866.023438 Z M 326.058594 -49.089844 " clip-rule="nonzero"/></clipPath><clipPath id="ad28a4fa00"><path d="M 0 0 L 170 0 L 170 810 L 0 810 Z M 0 0 " clip-rule="nonzero"/></clipPath><clipPath id="77c2932cd5"><path d="M -837.144531 -138.390625 L 326.433594 -49.0625 L 179.410156 1866.054688 L -984.164062 1776.726562 Z M -837.144531 -138.390625 " clip-rule="nonzero"/></clipPath><clipPath id="ae0a5252b9"><path d="M 326.058594 -49.089844 L -837.515625 -138.417969 L -984.539062 1776.699219 L 179.039062 1866.023438 Z M 326.058594 -49.089844 " clip-rule="nonzero"/></clipPath><clipPath id="0dab5f4980"><path d="M 0 0 L 46 0 L 46 810 L 0 810 Z M 0 0 " clip-rule="nonzero"/></clipPath><clipPath id="4680e1cab5"><path d="M -837.144531 -138.390625 L 326.433594 -49.0625 L 179.410156 1866.054688 L -984.164062 1776.726562 Z M -837.144531 -138.390625 " clip-rule="nonzero"/></clipPath><clipPath id="2cd1d59507"><path d="M 326.058594 -49.089844 L -837.515625 -138.417969 L -984.539062 1776.699219 L 179.039062 1866.023438 Z M 326.058594 -49.089844 " clip-rule="nonzero"/></clipPath></defs><g clip-path="url(#930c1be0c3)"><g clip-path="url(#d7357b19ec)"><g clip-path="url(#189d1a9bad)"><path fill="#0c5f52" d="M 390.011719 -581.25 C 200.160156 -637.417969 13.988281 -649.210938 -147.316406 -610.09375 C -322.621094 -567.585938 -422.847656 -491.53125 -445.257812 -387.28125 C -452.777344 -352.300781 -447.859375 -319.292969 -432.773438 -293.78125 L -432.773438 -293.785156 C -339.378906 -135.890625 -278.308594 -22.21875 -254.070312 50.085938 C -227.257812 130.074219 -209.601562 203.789062 -209.117188 272.40625 C -208.78125 319.929688 -219.992188 357.660156 -239.925781 385.027344 C -240.082031 385.242188 -240.25 385.449219 -240.425781 385.644531 L -397.703125 559.195312 L -397.476562 558.933594 C -416.621094 582.109375 -433.5625 607.929688 -446.789062 637.140625 C -473.203125 695.488281 -470.578125 744.210938 -452.757812 788.703125 C -429.390625 847.050781 -348.476562 892.671875 -189.707031 910.273438 C -73.109375 923.199219 33.089844 900.75 124.144531 842.988281 C 212.578125 786.886719 254.21875 707.082031 250.972656 609.929688 C 249.90625 577.949219 240.441406 537.390625 218.242188 491.429688 L 212.753906 480.058594 L 207.4375 469.054688 C 134.410156 317.855469 86.117188 217.613281 67.203125 166.625 C 49.152344 117.964844 40.152344 75.117188 46.878906 38.367188 C 52.335938 8.550781 70.816406 -17.191406 98.160156 -39.535156 C 98.394531 -39.726562 98.640625 -39.902344 98.894531 -40.0625 L 401.882812 -231.566406 L 401.816406 -231.527344 C 425.382812 -246.765625 447.660156 -273.292969 465.296875 -313.15625 C 515.371094 -426.339844 470.65625 -546.714844 401.449219 -577.335938 C 396.597656 -579.484375 391.632812 -581.191406 386.566406 -582.441406 C 382.574219 -583.421875 380.132812 -587.457031 381.117188 -591.449219 C 382.101562 -595.441406 386.132812 -597.882812 390.125 -596.898438 C 396.066406 -595.433594 401.855469 -593.4375 407.472656 -590.953125 C 486.511719 -555.980469 531.1875 -425.292969 478.914062 -307.128906 C 460.425781 -265.34375 436.496094 -236.222656 409.902344 -219.023438 L 409.839844 -218.980469 L 106.847656 -27.476562 L 107.582031 -28.003906 C 81.933594 -7.042969 66.140625 15.835938 61.523438 41.050781 C 55.542969 73.746094 63.359375 113.460938 81.160156 161.445312 C 99.761719 211.585938 147.601562 310.933594 220.84375 462.578125 L 226.160156 473.582031 L 231.648438 484.953125 C 254.589844 532.449219 264.703125 575.035156 265.851562 609.433594 C 269.28125 712.035156 224.851562 796.734375 132.121094 855.5625 C 37.914062 915.324219 -71.746094 938.332031 -191.347656 925.070312 C -350.300781 907.449219 -439.757812 861.210938 -466.582031 794.238281 C -485.863281 746.089844 -488.488281 693.144531 -460.351562 631 C -446.507812 600.421875 -428.816406 573.496094 -408.957031 549.453125 C -408.882812 549.363281 -408.808594 549.277344 -408.734375 549.195312 L -251.460938 375.644531 L -251.960938 376.261719 C -234.351562 352.082031 -223.683594 317.703125 -224.003906 272.511719 C -224.472656 206.21875 -241.5625 134.25 -268.1875 54.820312 C -291.839844 -15.734375 -352.039062 -128.046875 -445.585938 -286.203125 C -462.839844 -315.371094 -468.007812 -352.296875 -459.816406 -390.410156 C -435.539062 -503.347656 -327.734375 -581.667969 -150.824219 -624.566406 C 13.617188 -664.441406 202.519531 -652.25 394.234375 -595.53125 C 398.175781 -594.363281 400.425781 -590.222656 399.261719 -586.277344 C 398.09375 -582.335938 393.953125 -580.085938 390.011719 -581.25 Z M 390.011719 -581.25 " fill-opacity="1" fill-rule="nonzero"/></g></g></g><g clip-path="url(#ba6218344d)"><g clip-path="url(#a436d8f6c9)"><g clip-path="url(#ee993ec926)"><path fill="#00bf63" d="M 504.535156 -533.617188 C 314.6875 -589.785156 128.515625 -601.574219 -32.789062 -562.460938 C -208.097656 -519.953125 -308.324219 -443.894531 -330.734375 -339.644531 C -338.253906 -304.667969 -333.335938 -271.65625 -318.246094 -246.148438 C -224.851562 -88.253906 -163.785156 25.414062 -139.546875 97.722656 C -112.734375 177.707031 -95.078125 251.425781 -94.589844 320.042969 C -94.253906 367.566406 -105.46875 405.296875 -125.398438 432.664062 C -125.554688 432.878906 -125.722656 433.082031 -125.902344 433.28125 L -283.175781 606.828125 L -282.953125 606.570312 C -302.09375 629.746094 -319.035156 655.566406 -332.261719 684.777344 C -358.675781 743.121094 -356.050781 791.847656 -338.234375 836.335938 C -314.863281 894.6875 -233.953125 940.304688 -75.179688 957.90625 C 41.417969 970.835938 147.617188 948.382812 238.671875 890.621094 C 327.101562 834.523438 368.742188 754.714844 365.5 657.566406 C 364.429688 625.582031 354.96875 585.027344 332.769531 539.0625 L 327.277344 527.695312 L 321.960938 516.6875 C 248.9375 365.492188 200.640625 265.246094 181.726562 214.261719 C 163.675781 165.597656 154.679688 122.753906 161.40625 86.003906 C 166.863281 56.183594 185.34375 30.445312 212.6875 8.101562 C 212.921875 7.910156 213.164062 7.734375 213.421875 7.574219 L 516.410156 -183.933594 L 516.34375 -183.890625 C 539.910156 -199.132812 562.1875 -225.65625 579.824219 -265.519531 C 629.894531 -378.707031 585.179688 -499.078125 515.976562 -529.703125 C 511.125 -531.847656 506.15625 -533.558594 501.09375 -534.804688 C 497.101562 -535.789062 494.660156 -539.820312 495.644531 -543.8125 C 496.625 -547.808594 500.660156 -550.246094 504.652344 -549.261719 C 510.589844 -547.800781 516.382812 -545.804688 522 -543.320312 C 601.039062 -508.34375 645.714844 -377.65625 593.4375 -259.496094 C 574.953125 -217.707031 551.023438 -188.585938 524.429688 -171.386719 L 524.363281 -171.347656 L 221.375 20.160156 L 222.109375 19.632812 C 196.457031 40.59375 180.664062 63.472656 176.050781 88.683594 C 170.066406 121.378906 177.886719 161.097656 195.6875 209.082031 C 214.285156 259.21875 262.128906 358.570312 335.367188 510.210938 L 340.683594 521.21875 L 346.175781 532.585938 C 369.117188 580.085938 379.230469 622.667969 380.378906 657.070312 C 383.804688 759.671875 339.378906 844.367188 246.644531 903.195312 C 152.441406 962.957031 42.777344 985.964844 -76.820312 972.707031 C -235.777344 955.082031 -325.234375 908.84375 -352.054688 841.871094 C -371.335938 793.726562 -373.960938 740.78125 -345.824219 678.632812 C -331.980469 648.058594 -314.289062 621.128906 -294.429688 597.085938 C -294.359375 597 -294.285156 596.914062 -294.207031 596.828125 L -136.933594 423.28125 L -137.433594 423.898438 C -119.824219 399.71875 -109.160156 365.335938 -109.480469 320.144531 C -109.949219 253.855469 -127.035156 181.882812 -153.664062 102.453125 C -177.3125 31.898438 -237.511719 -80.410156 -331.0625 -238.566406 C -348.316406 -267.738281 -353.484375 -304.660156 -345.289062 -342.777344 C -321.011719 -455.710938 -213.210938 -534.03125 -36.300781 -576.929688 C 128.144531 -616.804688 317.046875 -604.613281 508.761719 -547.894531 C 512.703125 -546.730469 514.953125 -542.585938 513.789062 -538.644531 C 512.621094 -534.699219 508.480469 -532.449219 504.535156 -533.617188 Z M 504.535156 -533.617188 " fill-opacity="1" fill-rule="nonzero"/></g></g></g><g clip-path="url(#ce97f3ef47)"><g clip-path="url(#fea6a7f994)"><g clip-path="url(#a86122df8a)"><path fill="#0c5f52" d="M 625.71875 -488.34375 C 435.867188 -544.511719 249.695312 -556.300781 88.390625 -517.1875 C -86.917969 -474.679688 -187.144531 -398.621094 -209.554688 -294.375 C -217.074219 -259.394531 -212.15625 -226.386719 -197.066406 -200.875 C -103.671875 -42.980469 -42.605469 70.6875 -18.367188 142.992188 C 8.445312 222.980469 26.105469 296.699219 26.589844 365.3125 C 26.925781 412.835938 15.710938 450.570312 -4.21875 477.9375 C -4.375 478.152344 -4.542969 478.355469 -4.722656 478.554688 L -161.996094 652.101562 L -161.773438 651.84375 C -180.914062 675.015625 -197.855469 700.839844 -211.082031 730.046875 C -237.5 788.394531 -234.871094 837.117188 -217.050781 881.609375 L -217.054688 881.609375 C -193.683594 939.960938 -112.773438 985.578125 46 1003.179688 C 162.597656 1016.105469 268.796875 993.65625 359.851562 935.894531 C 448.28125 879.796875 489.921875 799.988281 486.679688 702.839844 C 485.609375 670.855469 476.148438 630.300781 453.949219 584.335938 L 448.457031 572.964844 L 443.140625 561.960938 C 370.117188 410.761719 321.824219 310.523438 302.90625 259.53125 C 284.855469 210.871094 275.859375 168.027344 282.585938 131.273438 C 288.042969 101.457031 306.523438 75.71875 333.867188 53.375 C 334.101562 53.183594 334.34375 53.007812 334.601562 52.84375 L 637.589844 -138.660156 L 637.523438 -138.617188 C 661.089844 -153.859375 683.367188 -180.382812 701.003906 -220.246094 C 751.074219 -333.433594 706.359375 -453.808594 637.15625 -484.429688 C 632.304688 -486.574219 627.339844 -488.285156 622.273438 -489.53125 C 618.28125 -490.515625 615.839844 -494.550781 616.824219 -498.542969 C 617.804688 -502.535156 621.839844 -504.972656 625.832031 -503.992188 C 631.773438 -502.527344 637.5625 -500.53125 643.179688 -498.046875 C 722.21875 -463.074219 766.894531 -332.386719 714.617188 -214.222656 C 696.132812 -172.433594 672.203125 -143.3125 645.609375 -126.113281 L 645.542969 -126.074219 L 342.554688 65.433594 L 343.289062 64.902344 C 317.636719 85.867188 301.84375 108.742188 297.230469 133.957031 C 291.246094 166.652344 299.066406 206.371094 316.867188 254.355469 C 335.464844 304.492188 383.308594 403.839844 456.550781 555.484375 L 461.863281 566.492188 L 467.355469 577.859375 C 490.296875 625.359375 500.410156 667.941406 501.558594 702.34375 C 504.984375 804.945312 460.558594 889.640625 367.824219 948.46875 C 273.621094 1008.230469 163.957031 1031.238281 44.359375 1017.980469 C -114.597656 1000.355469 -204.054688 954.117188 -230.875 887.144531 C -250.15625 838.996094 -252.78125 786.054688 -224.644531 723.90625 C -210.800781 693.332031 -193.109375 666.398438 -173.25 642.359375 C -173.179688 642.269531 -173.105469 642.183594 -173.027344 642.101562 L -15.753906 468.554688 L -16.253906 469.167969 C 1.355469 444.992188 12.019531 410.609375 11.699219 365.417969 C 11.230469 299.125 -5.855469 227.15625 -32.480469 147.726562 C -56.132812 77.171875 -116.332031 -35.140625 -209.882812 -193.292969 C -227.136719 -222.464844 -232.304688 -259.390625 -224.109375 -297.503906 C -199.832031 -410.4375 -92.03125 -488.761719 84.878906 -531.660156 C 249.324219 -571.535156 438.226562 -559.339844 629.941406 -502.621094 C 633.882812 -501.457031 636.132812 -497.3125 634.96875 -493.371094 C 633.800781 -489.429688 629.660156 -487.179688 625.71875 -488.34375 Z M 625.71875 -488.34375 " fill-opacity="1" fill-rule="nonzero"/></g></g></g><g clip-path="url(#a2f81e1f27)"><g clip-path="url(#adc4e426a3)"><g clip-path="url(#57d9f8cd0f)"><path fill="#0c5f52" d="M 72.925781 53.800781 C 164.914062 110.609375 235.519531 180.859375 268.875 322.652344 C 276.886719 356.707031 267.160156 398.546875 252.730469 447.832031 L 253.074219 446.871094 C 176.796875 625.765625 155.3125 677.980469 155.28125 678.050781 L 163.265625 681.34375 L 155.28125 678.058594 C 147.980469 695.804688 143.492188 714.890625 141.761719 735.269531 C 138.902344 769.058594 146.9375 807.816406 169.023438 915.660156 C 175.710938 948.320312 183.691406 987.285156 193.132812 1034.617188 C 201.78125 1077.976562 195.910156 1113.367188 185.363281 1139.394531 L 185.835938 1138.414062 L 50.617188 1379.417969 C 50.511719 1379.613281 50.410156 1379.8125 50.316406 1380.011719 L -64.058594 1626.832031 L -63.777344 1626.273438 C -86.210938 1666.753906 -115.585938 1702.300781 -150.15625 1734.964844 C -188.183594 1770.894531 -236.503906 1796.535156 -298.101562 1799.527344 C -394.570312 1804.207031 -454.773438 1783.25 -476.847656 1747.617188 C -487.351562 1730.664062 -491.832031 1706.878906 -489.480469 1680.339844 C -471.976562 1482.808594 -467.351562 1364.390625 -478.34375 1325.253906 C -479.492188 1321.167969 -480.574219 1316.699219 -481.761719 1311.765625 C -483.09375 1306.25 -484.558594 1300.175781 -486.339844 1293.832031 C -490.324219 1279.644531 -495.988281 1263.757812 -505.941406 1247.398438 C -516.824219 1229.511719 -526.539062 1213.578125 -536.230469 1197.683594 C -544.59375 1183.960938 -552.667969 1170.722656 -560.070312 1158.558594 C -613.753906 1070.332031 -640.113281 1025.183594 -640.753906 1015.960938 L -640.753906 1015.957031 C -640.75 1015.980469 -640.75 1015.96875 -640.75 1015.988281 C -640.789062 1014.894531 -641.03125 1013.820312 -641.46875 1012.820312 C -655.289062 981.25 -656.367188 947.675781 -644.425781 911.585938 C -634.335938 881.074219 -619.105469 855.597656 -598.695312 834.996094 C -596.410156 832.6875 -595.613281 829.292969 -596.632812 826.207031 L -596.632812 826.210938 C -595.078125 830.910156 -598.464844 834.238281 -597.316406 832.703125 C -594.28125 828.648438 -573.214844 812.0625 -531.886719 779.769531 C -507.835938 760.976562 -477.503906 737.277344 -441.109375 708.375 C -418.425781 690.363281 -406.480469 668.109375 -399.3125 648.957031 C -389.011719 621.445312 -382.414062 589.746094 -382.726562 554 C -384.667969 330.570312 -383.847656 210.539062 -381.78125 191.820312 C -377.246094 150.816406 -364.050781 108.699219 -329.355469 72.765625 C -229.207031 -30.960938 -92.222656 -35.46875 77.027344 56.386719 C 81.21875 58.660156 86.457031 57.109375 88.734375 52.917969 C 91.007812 48.726562 89.453125 43.488281 85.265625 41.210938 C -87.667969 -52.640625 -234.109375 -50.738281 -341.78125 60.773438 C -379.941406 100.300781 -394.140625 146.488281 -398.941406 189.921875 C -401.160156 209.972656 -401.925781 331.546875 -399.992188 554.148438 C -399.699219 587.636719 -405.871094 617.234375 -415.480469 642.902344 C -421.980469 660.257812 -432.421875 679.429688 -451.847656 694.855469 C -488.207031 723.726562 -518.453125 747.359375 -542.519531 766.164062 C -581.957031 796.980469 -606.28125 815.863281 -611.140625 822.355469 C -610.972656 822.132812 -614.761719 826.382812 -613.027344 831.632812 L -610.964844 822.847656 C -633.441406 845.53125 -649.980469 873.390625 -660.820312 906.164062 C -673.96875 945.902344 -672.976562 983.898438 -657.289062 1019.742188 L -658.007812 1016.574219 C -658.003906 1016.757812 -657.992188 1016.964844 -657.976562 1017.160156 L -657.976562 1017.15625 C -656.953125 1031.917969 -626.296875 1082.929688 -574.820312 1167.53125 C -567.347656 1179.8125 -559.40625 1192.839844 -550.972656 1206.667969 C -541.253906 1222.613281 -531.605469 1238.441406 -520.691406 1256.371094 C -511.832031 1270.933594 -506.695312 1285.214844 -502.960938 1298.5 C -501.28125 1304.492188 -499.886719 1310.257812 -498.546875 1315.8125 C -497.375 1320.679688 -496.222656 1325.460938 -494.96875 1329.921875 C -485.0625 1365.1875 -489.011719 1479.414062 -506.679688 1678.8125 C -509.253906 1707.847656 -504.558594 1735.671875 -491.527344 1756.707031 C -463.9375 1801.246094 -394.207031 1821.476562 -297.265625 1816.773438 C -230.886719 1813.550781 -178.796875 1785.78125 -138.296875 1747.511719 C -102.726562 1713.90625 -72.144531 1676.988281 -48.671875 1634.644531 C -48.570312 1634.464844 -48.476562 1634.277344 -48.390625 1634.089844 L 65.980469 1387.273438 L 65.679688 1387.867188 L 200.894531 1146.859375 C 201.074219 1146.542969 201.230469 1146.214844 201.367188 1145.878906 C 213.15625 1116.789062 219.386719 1077.972656 210.066406 1031.242188 C 200.621094 983.875 192.625 944.84375 185.941406 912.199219 C 163.546875 802.859375 156.375 767.351562 158.96875 736.730469 C 160.558594 717.972656 164.667969 700.621094 171.25 684.625 L 163.265625 681.34375 L 171.246094 684.632812 C 171.238281 684.648438 192.695312 632.507812 268.957031 453.644531 C 269.089844 453.332031 269.207031 453.011719 269.300781 452.683594 C 283.523438 404.101562 294.898438 357.878906 285.683594 318.699219 C 251.050781 171.476562 176.957031 97.753906 82 39.109375 C 77.941406 36.605469 72.621094 37.863281 70.117188 41.917969 C 67.613281 45.972656 68.867188 51.292969 72.925781 53.800781 Z M 72.925781 53.800781 " fill-opacity="1" fill-rule="nonzero"/></g></g></g><g clip-path="url(#ad28a4fa00)"><g clip-path="url(#77c2932cd5)"><g clip-path="url(#ae0a5252b9)"><path fill="#00bf63" d="M -46.6875 33.746094 C 45.300781 90.554688 115.90625 160.804688 149.261719 302.597656 C 157.269531 336.652344 147.542969 378.492188 133.113281 427.777344 L 133.457031 426.820312 C 57.144531 605.796875 35.683594 657.957031 35.664062 658.003906 C 28.363281 675.75 23.875 694.839844 22.148438 715.214844 C 19.285156 749.003906 27.324219 787.761719 49.410156 895.609375 C 56.097656 928.269531 64.078125 967.226562 73.519531 1014.566406 C 82.167969 1057.921875 76.296875 1093.3125 65.75 1119.339844 L 66.222656 1118.359375 L -68.996094 1359.363281 C -69.105469 1359.558594 -69.207031 1359.757812 -69.300781 1359.960938 L -183.671875 1606.777344 L -183.390625 1606.222656 C -205.824219 1646.695312 -235.199219 1682.246094 -269.769531 1714.910156 C -307.796875 1750.839844 -356.121094 1776.484375 -417.714844 1779.472656 C -514.183594 1784.152344 -574.386719 1763.195312 -596.460938 1727.5625 C -606.964844 1710.609375 -611.445312 1686.824219 -609.09375 1660.285156 C -591.589844 1462.753906 -586.964844 1344.335938 -597.960938 1305.199219 C -599.109375 1301.109375 -600.1875 1296.648438 -601.378906 1291.710938 L -601.378906 1291.707031 C -602.710938 1286.179688 -604.167969 1280.136719 -605.953125 1273.777344 C -609.9375 1259.59375 -615.601562 1243.703125 -625.554688 1227.34375 C -636.386719 1209.546875 -646.203125 1193.445312 -655.835938 1177.640625 C -664.460938 1163.496094 -672.011719 1151.109375 -679.671875 1138.519531 C -733.363281 1050.285156 -759.726562 1005.128906 -760.367188 995.90625 L -760.367188 995.902344 C -760.367188 995.914062 -760.367188 995.90625 -760.367188 995.933594 C -760.402344 994.839844 -760.648438 993.765625 -761.085938 992.765625 C -774.902344 961.195312 -775.980469 927.621094 -764.042969 891.53125 C -753.949219 861.019531 -738.722656 835.542969 -718.3125 814.941406 C -716.023438 812.636719 -715.226562 809.238281 -716.25 806.15625 C -714.691406 810.859375 -718.082031 814.183594 -716.929688 812.648438 C -713.898438 808.59375 -692.828125 792.003906 -651.5 759.714844 C -627.484375 740.949219 -597.085938 717.195312 -560.722656 688.320312 C -538.039062 670.308594 -526.097656 648.054688 -518.925781 628.902344 C -508.625 601.390625 -502.027344 569.695312 -502.339844 533.945312 C -504.28125 310.519531 -503.464844 190.480469 -501.394531 171.765625 C -496.859375 130.761719 -483.664062 88.644531 -448.972656 52.710938 C -348.820312 -51.011719 -211.835938 -55.523438 -42.585938 36.332031 C -38.398438 38.605469 -33.15625 37.054688 -30.882812 32.863281 C -28.605469 28.671875 -30.160156 23.433594 -34.351562 21.160156 C -207.285156 -72.695312 -353.726562 -70.792969 -461.394531 40.71875 C -499.558594 80.246094 -513.753906 126.433594 -518.558594 169.867188 C -520.773438 189.914062 -521.542969 311.496094 -519.605469 534.097656 C -519.316406 567.582031 -525.488281 597.179688 -535.097656 622.847656 C -541.59375 640.203125 -552.039062 659.375 -571.460938 674.800781 C -607.785156 703.644531 -638.101562 727.332031 -662.132812 746.109375 C -701.570312 776.925781 -725.894531 795.808594 -730.757812 802.304688 L -730.753906 802.300781 C -730.585938 802.078125 -734.378906 806.328125 -732.640625 811.578125 L -730.578125 802.792969 C -753.054688 825.480469 -769.59375 853.335938 -780.4375 886.109375 C -793.582031 925.847656 -792.59375 963.84375 -776.902344 999.6875 L -777.621094 996.519531 C -777.617188 996.714844 -777.605469 996.921875 -777.59375 997.105469 L -777.59375 997.101562 C -776.570312 1011.863281 -745.910156 1062.882812 -694.421875 1147.496094 C -686.609375 1160.335938 -679.351562 1172.238281 -670.582031 1186.625 C -661.21875 1201.980469 -650.859375 1218.976562 -640.308594 1236.316406 C -631.445312 1250.878906 -626.308594 1265.160156 -622.578125 1278.445312 C -620.890625 1284.453125 -619.507812 1290.1875 -618.164062 1295.757812 L -618.164062 1295.753906 C -616.988281 1300.628906 -615.839844 1305.402344 -614.585938 1309.871094 C -604.675781 1345.132812 -608.625 1459.363281 -626.296875 1658.757812 C -628.867188 1687.792969 -624.171875 1715.617188 -611.140625 1736.652344 C -583.550781 1781.191406 -513.820312 1801.421875 -416.878906 1796.71875 C -350.503906 1793.496094 -298.414062 1765.726562 -257.910156 1727.460938 C -222.339844 1693.851562 -191.757812 1656.933594 -168.289062 1614.589844 C -168.1875 1614.410156 -168.09375 1614.222656 -168.003906 1614.035156 L -53.632812 1367.21875 L -53.9375 1367.8125 L 81.28125 1126.804688 C 81.457031 1126.488281 81.617188 1126.160156 81.753906 1125.824219 C 93.539062 1096.738281 99.773438 1057.921875 90.453125 1011.1875 C 81.003906 963.820312 73.011719 924.792969 66.324219 892.144531 C 43.933594 782.804688 36.761719 747.296875 39.355469 716.675781 C 40.945312 697.917969 45.054688 680.566406 51.632812 664.574219 C 51.605469 664.640625 73.046875 612.527344 149.34375 433.589844 C 149.476562 433.277344 149.589844 432.957031 149.6875 432.628906 C 163.910156 384.046875 175.285156 337.824219 166.070312 298.644531 C 131.4375 151.421875 57.34375 77.699219 -37.613281 19.054688 C -41.671875 16.550781 -46.992188 17.808594 -49.496094 21.863281 C -52.003906 25.921875 -50.746094 31.238281 -46.6875 33.746094 Z M -46.6875 33.746094 " fill-opacity="1" fill-rule="nonzero"/></g></g></g><g clip-path="url(#0dab5f4980)"><g clip-path="url(#4680e1cab5)"><g clip-path="url(#2cd1d59507)"><path fill="#0c5f52" d="M -170.1875 7.34375 C -78.195312 64.15625 -7.589844 134.40625 25.761719 276.199219 C 33.773438 310.25 24.046875 352.089844 9.617188 401.378906 L 9.960938 400.417969 C -66.363281 579.425781 -87.800781 631.527344 -87.832031 631.601562 C -95.132812 649.351562 -99.621094 668.4375 -101.347656 688.816406 C -104.210938 722.605469 -96.175781 761.363281 -74.085938 869.207031 C -67.410156 901.816406 -59.410156 940.882812 -49.976562 988.164062 C -41.332031 1031.519531 -47.199219 1066.910156 -57.746094 1092.941406 L -57.277344 1091.957031 L -192.492188 1332.964844 C -192.601562 1333.160156 -192.703125 1333.355469 -192.796875 1333.558594 L -307.167969 1580.375 L -306.886719 1579.820312 C -329.324219 1620.296875 -358.695312 1655.847656 -393.265625 1688.507812 L -393.265625 1688.511719 C -431.292969 1724.4375 -479.617188 1750.082031 -541.210938 1753.070312 C -637.679688 1757.753906 -697.886719 1736.792969 -719.957031 1701.164062 C -730.460938 1684.207031 -734.941406 1660.425781 -732.589844 1633.882812 C -715.089844 1436.351562 -710.460938 1317.933594 -721.457031 1278.800781 C -722.605469 1274.703125 -723.679688 1270.253906 -724.875 1265.308594 C -726.203125 1259.796875 -727.667969 1253.71875 -729.449219 1247.375 C -733.4375 1233.1875 -739.097656 1217.304688 -749.050781 1200.941406 C -760.085938 1182.808594 -769.492188 1167.382812 -779.335938 1151.238281 C -787.664062 1137.574219 -795.800781 1124.230469 -803.167969 1112.121094 C -856.859375 1023.886719 -883.222656 978.726562 -883.863281 969.507812 L -883.863281 969.503906 C -883.863281 969.503906 -883.863281 969.515625 -883.863281 969.53125 C -883.898438 968.441406 -884.144531 967.367188 -884.582031 966.367188 C -898.398438 934.792969 -899.476562 901.222656 -887.539062 865.128906 C -877.445312 834.621094 -862.21875 809.144531 -841.808594 788.542969 C -839.519531 786.234375 -838.722656 782.839844 -839.746094 779.753906 L -839.746094 779.757812 C -838.1875 784.457031 -841.578125 787.785156 -840.429688 786.246094 L -840.425781 786.246094 C -837.390625 782.191406 -816.324219 765.605469 -774.996094 733.3125 C -750.902344 714.488281 -720.660156 690.855469 -684.21875 661.921875 C -661.535156 643.90625 -649.59375 621.65625 -642.421875 602.5 C -632.121094 574.988281 -625.527344 543.292969 -625.835938 507.546875 C -627.777344 284.113281 -626.960938 164.085938 -624.890625 145.367188 C -620.359375 104.363281 -607.160156 62.242188 -572.46875 26.3125 C -472.320312 -77.414062 -335.335938 -81.921875 -166.085938 9.933594 C -161.894531 12.207031 -156.652344 10.652344 -154.378906 6.464844 C -152.101562 2.273438 -153.65625 -2.96875 -157.847656 -5.242188 C -330.78125 -99.097656 -477.222656 -97.191406 -584.890625 14.320312 C -623.054688 53.84375 -637.253906 100.035156 -642.054688 143.46875 C -644.269531 163.519531 -645.039062 285.09375 -643.101562 507.695312 C -642.8125 541.183594 -648.984375 570.78125 -658.59375 596.449219 C -665.089844 613.804688 -675.535156 632.972656 -694.960938 648.398438 C -731.324219 677.277344 -761.550781 700.894531 -785.628906 719.707031 C -825.066406 750.527344 -849.390625 769.40625 -854.253906 775.902344 C -854.082031 775.675781 -857.875 779.929688 -856.136719 785.179688 L -854.074219 776.390625 C -876.550781 799.078125 -893.09375 826.9375 -903.933594 859.707031 C -917.078125 899.445312 -916.089844 937.445312 -900.398438 973.289062 L -901.121094 970.121094 C -901.113281 970.328125 -901.101562 970.503906 -901.089844 970.707031 L -901.089844 970.703125 C -900.066406 985.464844 -869.40625 1036.484375 -817.921875 1121.09375 C -810.398438 1133.457031 -802.558594 1146.316406 -794.078125 1160.226562 C -784.285156 1176.289062 -774.785156 1191.871094 -763.804688 1209.917969 C -754.941406 1224.480469 -749.808594 1238.757812 -746.074219 1252.046875 C -744.390625 1258.042969 -743 1263.800781 -741.660156 1269.355469 C -740.484375 1274.226562 -739.335938 1279.007812 -738.082031 1283.46875 C -728.171875 1318.734375 -732.121094 1432.960938 -749.792969 1632.359375 C -752.363281 1661.390625 -747.667969 1689.21875 -734.636719 1710.253906 C -707.050781 1754.789062 -637.316406 1775.023438 -540.375 1770.316406 C -474 1767.09375 -421.910156 1739.324219 -381.40625 1701.058594 C -345.835938 1667.453125 -315.253906 1630.535156 -291.785156 1588.191406 C -291.683594 1588.007812 -291.589844 1587.824219 -291.503906 1587.632812 L -177.128906 1340.816406 L -177.433594 1341.410156 L -42.214844 1100.40625 C -42.039062 1100.089844 -41.878906 1099.761719 -41.742188 1099.425781 C -29.957031 1070.335938 -23.722656 1031.519531 -33.042969 984.789062 C -42.488281 937.429688 -50.488281 898.382812 -57.171875 865.746094 C -79.5625 756.402344 -86.738281 720.898438 -84.140625 690.273438 C -82.554688 671.515625 -78.445312 654.167969 -71.863281 638.171875 C -71.871094 638.195312 -50.46875 586.171875 25.84375 407.191406 C 25.980469 406.875 26.09375 406.554688 26.1875 406.230469 C 40.414062 357.648438 51.789062 311.421875 42.570312 272.246094 C 7.941406 125.023438 -66.15625 51.296875 -161.113281 -7.34375 C -165.167969 -9.851562 -170.488281 -8.59375 -172.996094 -4.535156 C -175.5 -0.480469 -174.242188 4.839844 -170.1875 7.34375 Z M -170.1875 7.34375 " fill-opacity="1" fill-rule="nonzero"/></g></g></g></svg>