<svg xmlns="http://www.w3.org/2000/svg" xmlns:xlink="http://www.w3.org/1999/xlink" width="1920" zoomAndPan="magnify" viewBox="0 0 1440 809.999993" height="1080" preserveAspectRatio="xMidYMid meet" version="1.0"><defs><clipPath id="f61aa58f53"><path d="M 893 28 L 1440 28 L 1440 810 L 893 810 Z M 893 28 " clip-rule="nonzero"/></clipPath><clipPath id="d2ff6bab71"><path d="M 616.894531 528.183594 L 1525.0625 -614.347656 L 2598.898438 239.214844 L 1690.734375 1381.746094 Z M 616.894531 528.183594 " clip-rule="nonzero"/></clipPath><clipPath id="73f199f5a5"><path d="M 616.894531 528.183594 L 1525.0625 -614.347656 L 2598.898438 239.214844 L 1690.734375 1381.746094 Z M 616.894531 528.183594 " clip-rule="nonzero"/></clipPath><clipPath id="4ea2633410"><path d="M 908 0 L 1440 0 L 1440 810 L 908 810 Z M 908 0 " clip-rule="nonzero"/></clipPath><clipPath id="0fcd38963e"><path d="M 616.894531 528.183594 L 1525.0625 -614.347656 L 2598.898438 239.214844 L 1690.734375 1381.746094 Z M 616.894531 528.183594 " clip-rule="nonzero"/></clipPath><clipPath id="3fa2fafbd0"><path d="M 616.894531 528.183594 L 1525.0625 -614.347656 L 2598.898438 239.214844 L 1690.734375 1381.746094 Z M 616.894531 528.183594 " clip-rule="nonzero"/></clipPath><clipPath id="176b251aee"><path d="M 947 0 L 1440 0 L 1440 771 L 947 771 Z M 947 0 " clip-rule="nonzero"/></clipPath><clipPath id="820ee221e0"><path d="M 616.894531 528.183594 L 1525.0625 -614.347656 L 2598.898438 239.214844 L 1690.734375 1381.746094 Z M 616.894531 528.183594 " clip-rule="nonzero"/></clipPath><clipPath id="bdacffad61"><path d="M 616.894531 528.183594 L 1525.0625 -614.347656 L 2598.898438 239.214844 L 1690.734375 1381.746094 Z M 616.894531 528.183594 " clip-rule="nonzero"/></clipPath><clipPath id="433aab6656"><path d="M 600 0 L 1440 0 L 1440 520 L 600 520 Z M 600 0 " clip-rule="nonzero"/></clipPath><clipPath id="f5d5e48471"><path d="M 387.960938 -853.253906 L 2066.648438 -1507.011719 L 2690.742188 95.5 L 1012.050781 749.261719 Z M 387.960938 -853.253906 " clip-rule="nonzero"/></clipPath><clipPath id="41efcfc880"><path d="M 387.960938 -853.253906 L 2066.648438 -1507.011719 L 2690.742188 95.5 L 1012.050781 749.261719 Z M 387.960938 -853.253906 " clip-rule="nonzero"/></clipPath><clipPath id="3c6b358f71"><path d="M 746 0 L 1440 0 L 1440 453 L 746 453 Z M 746 0 " clip-rule="nonzero"/></clipPath><clipPath id="6edfeef098"><path d="M 387.960938 -853.253906 L 2066.648438 -1507.011719 L 2690.742188 95.5 L 1012.050781 749.261719 Z M 387.960938 -853.253906 " clip-rule="nonzero"/></clipPath><clipPath id="b9755b93e6"><path d="M 387.960938 -853.253906 L 2066.648438 -1507.011719 L 2690.742188 95.5 L 1012.050781 749.261719 Z M 387.960938 -853.253906 " clip-rule="nonzero"/></clipPath><clipPath id="c179f3ec98"><path d="M 881 0 L 1440 0 L 1440 410 L 881 410 Z M 881 0 " clip-rule="nonzero"/></clipPath><clipPath id="932bf524a7"><path d="M 387.960938 -853.253906 L 2066.648438 -1507.011719 L 2690.742188 95.5 L 1012.050781 749.261719 Z M 387.960938 -853.253906 " clip-rule="nonzero"/></clipPath><clipPath id="2b72555739"><path d="M 387.960938 -853.253906 L 2066.648438 -1507.011719 L 2690.742188 95.5 L 1012.050781 749.261719 Z M 387.960938 -853.253906 " clip-rule="nonzero"/></clipPath></defs><rect x="-144" width="1728" fill="#ffffff" y="-80.999999" height="971.999992" fill-opacity="1"/><rect x="-144" width="1728" fill="#ffffff" y="-80.999999" height="971.999992" fill-opacity="1"/><g clip-path="url(#f61aa58f53)"><g clip-path="url(#d2ff6bab71)"><g clip-path="url(#73f199f5a5)"><path fill="#00bf63" d="M 1139.371094 151.609375 C 1183.058594 81.070312 1225.910156 27.203125 1302.121094 28.105469 C 1340.785156 28.5625 1377.742188 40.441406 1415.292969 56.644531 C 1431.484375 63.632812 1489.292969 102.664062 1588.75 173.558594 C 1606.234375 186.023438 1624.769531 192.820312 1641.867188 194.269531 C 1669.460938 196.605469 1741.855469 187.054688 1907.457031 150.246094 C 1946.335938 141.605469 1982.449219 148.324219 2012.863281 153.914062 C 2015.074219 154.320312 2017.441406 154.753906 2019.589844 155.144531 L 2019.59375 155.144531 C 2122.371094 173.75 2204.484375 241.65625 2258.042969 363.152344 C 2293.210938 442.921875 2300.105469 504.664062 2282.800781 543.410156 C 2275.914062 558.820312 2264.796875 577.269531 2243.757812 589.953125 C 2110.144531 670.523438 2045.820312 712.628906 2042.972656 726.417969 C 2042.773438 727.375 2042.386719 728.277344 2041.835938 729.078125 C 2033.921875 740.5625 2028.679688 756.730469 2026.632812 778.160156 L 2026.660156 777.707031 L 2021.292969 939.671875 C 2021.28125 940 2021.25 940.328125 2021.195312 940.65625 C 2017.285156 963.546875 2004.554688 985.734375 1979.609375 1001.546875 C 1932.457031 1031.429688 1842.03125 1042.234375 1817.441406 1040.84375 C 1797.28125 1039.703125 1771.039062 1026.46875 1708.292969 995.292969 C 1689.15625 985.785156 1666.328125 974.441406 1639.179688 961.171875 C 1612.386719 948.074219 1588.257812 946.441406 1569.761719 947.839844 C 1549.835938 949.34375 1532.429688 951.917969 1517.847656 958.632812 C 1423.574219 1002.03125 1368.984375 1026.644531 1356.859375 1027.09375 C 1356.710938 1027.097656 1356.574219 1027.101562 1356.433594 1027.101562 L 1358.769531 1026.699219 C 1332.785156 1035.707031 1305.636719 1038.457031 1277.433594 1034.851562 C 1257.910156 1032.355469 1238.136719 1021.984375 1226.359375 999.359375 C 1212.554688 972.839844 1202.0625 951.863281 1193.445312 934.648438 C 1187.410156 922.582031 1182.320312 912.410156 1177.632812 903.40625 C 1164.070312 877.351562 1154.070312 861.425781 1135.28125 839.769531 C 1105.363281 805.289062 1016.789062 737.019531 968.933594 700.164062 C 961.5 694.4375 955.136719 689.539062 950.105469 685.617188 C 911.5 655.542969 891.335938 611.273438 893.351562 571.574219 C 903.558594 370.550781 1000.621094 280.890625 1097.957031 190.882812 C 1111.988281 177.90625 1125.988281 164.960938 1139.78125 151.640625 C 1142.675781 148.847656 1147.289062 148.925781 1150.082031 151.820312 C 1152.878906 154.714844 1152.796875 159.328125 1149.902344 162.125 C 1135.992188 175.558594 1121.851562 188.636719 1107.847656 201.582031 C 1010.9375 291.195312 917.800781 377.410156 907.90625 572.308594 C 906.15625 606.769531 923.796875 646.648438 959.0625 674.121094 C 964.03125 677.996094 970.402344 682.902344 977.824219 688.617188 C 1024.9375 724.902344 1115.144531 794.324219 1146.289062 830.21875 C 1166.007812 852.949219 1176.617188 869.894531 1190.558594 896.675781 C 1195.304688 905.800781 1200.457031 916.097656 1206.476562 928.125 C 1215.085938 945.332031 1225.542969 966.226562 1239.285156 992.628906 C 1248.523438 1010.378906 1263.726562 1018.410156 1279.285156 1020.398438 C 1305.316406 1023.726562 1330.195312 1021.183594 1354 1012.933594 C 1354.753906 1012.671875 1355.542969 1012.535156 1356.339844 1012.53125 C 1356.339844 1012.53125 1356.320312 1012.53125 1356.320312 1012.53125 C 1364.59375 1012.226562 1414.738281 990.058594 1511.753906 945.394531 C 1528.839844 937.527344 1548.460938 934.832031 1568.667969 933.308594 C 1589.085938 931.765625 1615.933594 933.585938 1645.578125 948.078125 C 1672.769531 961.371094 1695.648438 972.738281 1714.777344 982.242188 C 1779.441406 1014.371094 1801.960938 1025.371094 1818.265625 1026.292969 C 1841.117188 1027.585938 1928.140625 1016.914062 1971.808594 989.238281 C 1993.121094 975.730469 2003.585938 957.207031 2006.828125 938.203125 L 2006.730469 939.1875 L 2012.097656 777.226562 C 2012.101562 777.074219 2012.113281 776.925781 2012.125 776.773438 C 2014.316406 753.867188 2020.042969 735.027344 2029.835938 720.8125 L 2028.699219 723.472656 C 2033.253906 701.433594 2108.167969 654.695312 2236.234375 577.476562 C 2253.679688 566.957031 2263.210938 551.535156 2269.496094 537.464844 C 2284.148438 504.660156 2279.515625 447.988281 2244.710938 369.035156 C 2192.703125 251.058594 2114.113281 187.066406 2016.996094 169.484375 C 2014.722656 169.074219 2012.535156 168.671875 2010.226562 168.246094 C 1979.535156 162.605469 1946.214844 156.558594 1910.613281 164.472656 C 1745.808594 201.105469 1670.941406 211.355469 1640.636719 208.789062 C 1620.648438 207.097656 1599.65625 199.230469 1580.292969 185.425781 C 1479.917969 113.878906 1423.871094 76.21875 1409.519531 70.023438 C 1372.636719 54.109375 1337.765625 43.097656 1301.949219 42.675781 C 1234.621094 41.878906 1195.652344 88.402344 1151.757812 159.28125 C 1149.640625 162.699219 1145.148438 163.757812 1141.726562 161.636719 C 1138.308594 159.519531 1137.25 155.027344 1139.371094 151.609375 Z M 1139.371094 151.609375 " fill-opacity="1" fill-rule="nonzero"/></g></g></g><g clip-path="url(#4ea2633410)"><g clip-path="url(#0fcd38963e)"><g clip-path="url(#3fa2fafbd0)"><path fill="#0c5f52" d="M 1154.347656 24.59375 C 1198.03125 -45.945312 1240.886719 -99.8125 1317.097656 -98.910156 C 1355.761719 -98.453125 1392.71875 -86.574219 1430.269531 -70.371094 C 1446.460938 -63.382812 1504.265625 -24.351562 1603.726562 46.542969 C 1621.210938 59.007812 1639.746094 65.804688 1656.84375 67.253906 C 1684.4375 69.59375 1756.828125 60.039062 1922.429688 23.230469 C 1961.3125 14.589844 1997.425781 21.308594 2027.84375 26.898438 C 2030.125 27.320312 2032.34375 27.726562 2034.566406 28.128906 C 2137.34375 46.734375 2219.457031 114.640625 2273.019531 236.136719 C 2308.183594 315.90625 2315.082031 377.648438 2297.773438 416.394531 C 2290.890625 431.804688 2279.769531 450.253906 2258.734375 462.9375 C 2125.117188 543.507812 2060.796875 585.613281 2057.945312 599.402344 C 2057.75 600.359375 2057.363281 601.261719 2056.808594 602.0625 C 2048.898438 613.542969 2043.65625 629.714844 2041.605469 651.144531 L 2041.636719 650.691406 L 2036.269531 812.65625 C 2036.257812 812.984375 2036.222656 813.3125 2036.167969 813.640625 C 2032.261719 836.53125 2019.53125 858.71875 1994.582031 874.53125 C 1947.429688 904.414062 1857.007812 915.21875 1832.417969 913.828125 C 1812.257812 912.6875 1786.011719 899.453125 1723.265625 868.277344 C 1704.101562 858.753906 1681.332031 847.441406 1654.152344 834.15625 C 1627.359375 821.058594 1603.234375 819.425781 1584.738281 820.824219 C 1564.808594 822.328125 1547.40625 824.902344 1532.824219 831.617188 L 1532.851562 831.601562 L 1532.820312 831.617188 L 1532.792969 831.628906 C 1438.539062 875.019531 1383.957031 899.628906 1371.832031 900.078125 L 1371.835938 900.078125 C 1371.691406 900.082031 1371.542969 900.085938 1371.40625 900.085938 L 1373.746094 899.683594 C 1347.761719 908.691406 1320.609375 911.441406 1292.410156 907.835938 C 1272.882812 905.339844 1253.113281 894.96875 1241.335938 872.34375 C 1227.53125 845.824219 1217.035156 824.847656 1208.421875 807.632812 C 1202.382812 795.5625 1197.296875 785.398438 1192.605469 776.390625 C 1179.046875 750.335938 1169.042969 734.410156 1150.257812 712.757812 C 1120.339844 678.273438 1031.765625 610.003906 983.90625 573.148438 C 976.5 567.441406 970.085938 562.503906 965.082031 558.601562 C 926.476562 528.527344 906.3125 484.257812 908.328125 444.558594 C 918.535156 243.535156 1015.597656 153.871094 1112.929688 63.867188 C 1126.949219 50.90625 1140.980469 37.929688 1154.757812 24.625 C 1157.652344 21.832031 1162.261719 21.910156 1165.058594 24.804688 C 1167.855469 27.699219 1167.773438 32.3125 1164.878906 35.109375 C 1150.964844 48.542969 1136.824219 61.621094 1122.824219 74.566406 C 1025.914062 164.179688 932.777344 250.394531 922.882812 445.292969 C 921.132812 479.753906 938.773438 519.636719 974.039062 547.105469 C 978.980469 550.957031 985.402344 555.90625 992.796875 561.601562 C 1039.914062 597.886719 1130.121094 667.308594 1161.265625 703.203125 C 1180.984375 725.933594 1191.589844 742.878906 1205.53125 769.660156 C 1210.289062 778.796875 1215.425781 789.066406 1221.453125 801.109375 C 1230.0625 818.316406 1240.515625 839.210938 1254.261719 865.613281 C 1263.5 883.363281 1278.703125 891.394531 1294.257812 893.382812 C 1320.292969 896.710938 1345.171875 894.167969 1368.976562 885.917969 C 1369.726562 885.65625 1370.515625 885.519531 1371.3125 885.515625 C 1371.3125 885.515625 1371.296875 885.515625 1371.296875 885.515625 C 1379.566406 885.210938 1429.703125 863.046875 1526.699219 818.394531 L 1526.671875 818.40625 L 1526.703125 818.390625 L 1526.730469 818.378906 C 1543.816406 810.511719 1563.433594 807.816406 1583.644531 806.292969 C 1604.0625 804.75 1630.90625 806.570312 1660.554688 821.0625 C 1687.761719 834.363281 1710.605469 845.710938 1729.75 855.226562 C 1794.414062 887.355469 1816.9375 898.355469 1833.242188 899.277344 C 1856.089844 900.570312 1943.113281 889.898438 1986.785156 862.222656 C 2008.097656 848.714844 2018.5625 830.191406 2021.804688 811.1875 L 2021.703125 812.171875 L 2027.070312 650.210938 C 2027.078125 650.058594 2027.085938 649.910156 2027.101562 649.757812 C 2029.292969 626.855469 2035.019531 608.007812 2044.8125 593.796875 L 2043.675781 596.457031 C 2048.230469 574.417969 2123.144531 527.679688 2251.210938 450.460938 C 2268.65625 439.941406 2278.183594 424.519531 2284.46875 410.449219 C 2299.125 377.644531 2294.492188 320.972656 2259.683594 242.019531 C 2207.675781 124.042969 2129.089844 60.050781 2031.96875 42.46875 C 2029.695312 42.058594 2027.515625 41.65625 2025.207031 41.230469 C 1994.511719 35.589844 1961.195312 29.542969 1925.589844 37.457031 C 1760.78125 74.089844 1685.917969 84.34375 1655.613281 81.773438 C 1635.625 80.082031 1614.628906 72.214844 1595.265625 58.410156 C 1494.894531 -13.136719 1438.84375 -50.796875 1424.492188 -56.992188 C 1387.613281 -72.90625 1352.742188 -83.917969 1316.921875 -84.339844 C 1249.59375 -85.136719 1210.628906 -38.613281 1166.734375 32.265625 C 1164.613281 35.683594 1160.125 36.742188 1156.703125 34.621094 C 1153.28125 32.503906 1152.226562 28.011719 1154.347656 24.59375 Z M 1154.347656 24.59375 " fill-opacity="1" fill-rule="nonzero"/></g></g></g><g clip-path="url(#176b251aee)"><g clip-path="url(#820ee221e0)"><g clip-path="url(#bdacffad61)"><path fill="#00bf63" d="M 1193.710938 -118.398438 C 1237.398438 -188.9375 1280.253906 -242.800781 1356.464844 -241.902344 C 1395.125 -241.445312 1432.085938 -229.5625 1469.632812 -213.359375 C 1485.828125 -206.375 1543.632812 -167.34375 1643.09375 -96.445312 C 1660.574219 -83.984375 1679.113281 -77.183594 1696.210938 -75.734375 C 1723.800781 -73.398438 1796.199219 -82.953125 1961.796875 -119.757812 C 2000.679688 -128.398438 2036.789062 -121.683594 2067.207031 -116.089844 C 2069.417969 -115.683594 2071.78125 -115.25 2073.933594 -114.859375 C 2176.710938 -96.253906 2258.824219 -28.351562 2312.386719 93.148438 C 2347.550781 172.917969 2354.449219 234.65625 2337.140625 273.402344 C 2330.253906 288.816406 2319.136719 307.265625 2298.101562 319.949219 C 2164.484375 400.515625 2100.160156 442.625 2097.3125 456.414062 C 2097.113281 457.367188 2096.730469 458.273438 2096.175781 459.074219 C 2088.265625 470.554688 2083.023438 486.722656 2080.972656 508.152344 L 2081.003906 507.703125 L 2075.632812 669.664062 C 2075.625 669.996094 2075.589844 670.324219 2075.535156 670.648438 C 2071.628906 693.539062 2058.898438 715.726562 2033.949219 731.539062 C 1986.796875 761.425781 1896.375 772.230469 1871.78125 770.835938 C 1851.625 769.695312 1825.378906 756.464844 1762.632812 725.289062 C 1743.5 715.78125 1720.667969 704.4375 1693.519531 691.164062 C 1666.726562 678.070312 1642.601562 676.4375 1624.105469 677.832031 C 1604.175781 679.335938 1586.773438 681.910156 1572.1875 688.625 C 1477.917969 732.023438 1423.324219 756.640625 1411.199219 757.085938 L 1411.203125 757.085938 C 1411.050781 757.09375 1410.914062 757.097656 1410.773438 757.097656 L 1413.113281 756.695312 C 1387.125 765.703125 1359.976562 768.453125 1331.777344 764.847656 C 1312.25 762.351562 1292.476562 751.980469 1280.703125 729.355469 C 1266.898438 702.835938 1256.402344 681.859375 1247.789062 664.640625 C 1241.75 652.578125 1236.660156 642.40625 1231.972656 633.402344 C 1218.414062 607.347656 1208.410156 591.421875 1189.625 569.765625 C 1159.707031 535.28125 1071.132812 467.015625 1023.273438 430.15625 C 1015.839844 424.433594 1009.480469 419.535156 1004.449219 415.613281 C 965.84375 385.539062 945.679688 341.265625 947.695312 301.566406 C 957.902344 100.546875 1054.964844 10.882812 1152.296875 -79.121094 C 1166.328125 -92.097656 1180.332031 -105.046875 1194.121094 -118.363281 C 1197.015625 -121.160156 1201.628906 -121.078125 1204.425781 -118.183594 C 1207.21875 -115.289062 1207.140625 -110.675781 1204.246094 -107.882812 C 1190.332031 -94.445312 1176.191406 -81.371094 1162.191406 -68.421875 C 1065.28125 21.1875 972.144531 107.40625 962.246094 302.304688 C 960.496094 336.761719 978.140625 376.644531 1013.402344 404.117188 C 1018.375 407.988281 1024.742188 412.894531 1032.167969 418.609375 C 1079.28125 454.898438 1169.488281 524.320312 1200.632812 560.214844 C 1220.351562 582.941406 1230.957031 599.886719 1244.898438 626.671875 C 1249.648438 635.792969 1254.800781 646.089844 1260.820312 658.121094 C 1269.429688 675.324219 1279.882812 696.21875 1293.628906 722.625 C 1302.867188 740.375 1318.070312 748.402344 1333.625 750.390625 C 1359.660156 753.71875 1384.539062 751.175781 1408.339844 742.925781 C 1409.09375 742.664062 1409.882812 742.53125 1410.679688 742.523438 C 1410.683594 742.523438 1410.660156 742.527344 1410.664062 742.527344 C 1418.933594 742.21875 1469.082031 720.050781 1566.097656 675.386719 C 1583.183594 667.523438 1602.804688 664.828125 1623.007812 663.300781 C 1643.425781 661.761719 1670.273438 663.582031 1699.921875 678.074219 C 1727.113281 691.363281 1749.988281 702.730469 1769.117188 712.238281 C 1833.78125 744.367188 1856.300781 755.367188 1872.609375 756.289062 C 1895.457031 757.582031 1982.480469 746.90625 2026.152344 719.230469 C 2047.464844 705.722656 2057.929688 687.199219 2061.171875 668.199219 L 2061.070312 669.183594 L 2066.4375 507.222656 C 2066.441406 507.070312 2066.453125 506.917969 2066.46875 506.769531 C 2068.65625 483.863281 2074.382812 465.019531 2084.175781 450.808594 L 2083.042969 453.464844 C 2087.597656 431.429688 2162.507812 384.691406 2290.578125 307.46875 C 2308.023438 296.949219 2317.550781 281.527344 2323.835938 267.460938 C 2338.488281 234.65625 2333.859375 177.984375 2299.050781 99.027344 C 2247.042969 -18.949219 2168.453125 -82.941406 2071.335938 -100.519531 C 2069.0625 -100.933594 2066.875 -101.335938 2064.570312 -101.757812 C 2033.878906 -107.402344 2000.558594 -113.445312 1964.957031 -105.53125 C 1800.148438 -68.902344 1725.28125 -58.648438 1694.976562 -61.214844 C 1674.992188 -62.910156 1653.996094 -70.777344 1634.632812 -84.578125 C 1534.257812 -156.128906 1478.210938 -193.789062 1463.859375 -199.980469 C 1426.976562 -215.894531 1392.109375 -226.90625 1356.289062 -227.328125 C 1288.960938 -228.125 1249.996094 -181.601562 1206.101562 -110.726562 C 1203.980469 -107.304688 1199.492188 -106.25 1196.070312 -108.367188 C 1192.648438 -110.484375 1191.59375 -114.976562 1193.710938 -118.398438 Z M 1193.710938 -118.398438 " fill-opacity="1" fill-rule="nonzero"/></g></g></g><g clip-path="url(#433aab6656)"><g clip-path="url(#f5d5e48471)"><g clip-path="url(#41efcfc880)"><path fill="#0c5f52" d="M 642.328125 -480.832031 C 639.40625 -468.132812 635.257812 -455.472656 631.105469 -442.777344 C 626.664062 -429.199219 622.191406 -415.511719 618.859375 -401.035156 C 610.429688 -364.367188 609.289062 -322.472656 636.863281 -267.804688 C 650.996094 -239.78125 672.632812 -211.644531 703.683594 -189.289062 C 851.625 -82.78125 936.375 -20.671875 942.683594 3.714844 L 941.003906 0.738281 C 970.199219 30.550781 1018.441406 142.558594 1091.632812 331.023438 C 1103.359375 361.214844 1122.523438 388.714844 1146.609375 412.921875 C 1225.222656 491.914062 1365.113281 521.933594 1565.019531 498.144531 C 1646.984375 488.390625 1684.347656 467.324219 1690.765625 445.761719 C 1694.917969 431.816406 1699.453125 414.820312 1698.164062 393.292969 C 1689.390625 246.808594 1687.4375 166.953125 1688.488281 153.050781 C 1693.25 90.109375 1698.742188 36.523438 1710.359375 -7.390625 C 1723.003906 -55.183594 1743.554688 -100.257812 1770.269531 -144.410156 C 1797.027344 -188.632812 1861.808594 -266.5 1958.476562 -382.742188 L 1965.023438 -390.613281 C 1997.753906 -429.972656 2016.707031 -469.640625 2032.785156 -503.34375 C 2035.390625 -508.804688 2037.9375 -514.144531 2040.445312 -519.265625 C 2072.511719 -584.835938 2063.09375 -644.625 2005.734375 -705.25 C 1976.796875 -735.832031 1938.015625 -753.859375 1887.070312 -757.433594 C 1886.421875 -757.480469 1885.785156 -757.621094 1885.175781 -757.851562 C 1870.417969 -763.476562 1782.429688 -753.203125 1614.976562 -730.9375 C 1583.90625 -726.808594 1561.390625 -731.570312 1547.269531 -736.675781 C 1525.488281 -744.554688 1501.121094 -757.328125 1479.945312 -781.6875 C 1355.308594 -925.089844 1284.792969 -1000.152344 1261.601562 -1008 C 1261.050781 -1008.183594 1260.527344 -1008.445312 1260.042969 -1008.765625 C 1217.546875 -1037.179688 1164.757812 -1036.371094 1095.089844 -1031.636719 C 877.078125 -1016.820312 724.121094 -841.414062 639.804688 -470.761719 C 638.992188 -467.195312 635.441406 -464.957031 631.875 -465.769531 C 628.304688 -466.582031 626.070312 -470.132812 626.882812 -473.703125 C 711.554688 -845.929688 866.996094 -1029.421875 1094.191406 -1044.859375 C 1163.132812 -1049.542969 1220.589844 -1051.085938 1267.410156 -1019.785156 L 1265.847656 -1020.550781 C 1293.492188 -1011.199219 1367.351562 -931.433594 1489.949219 -790.382812 C 1509.210938 -768.21875 1531.402344 -756.507812 1551.777344 -749.140625 C 1564.042969 -744.703125 1584.417969 -740.246094 1613.226562 -744.078125 C 1777.257812 -765.886719 1870.984375 -777.445312 1889.894531 -770.238281 L 1888 -770.65625 C 1941.824219 -766.878906 1983.863281 -747.648438 2015.359375 -714.359375 C 2076.125 -650.140625 2087.089844 -584.476562 2052.347656 -513.441406 C 2049.871094 -508.378906 2047.363281 -503.121094 2044.746094 -497.636719 C 2028.675781 -463.953125 2009.117188 -422.910156 1975.214844 -382.136719 L 1968.667969 -374.265625 C 1871.550781 -257.488281 1807.703125 -180.675781 1781.609375 -137.550781 C 1755.40625 -94.242188 1735.425781 -50.332031 1723.171875 -4 C 1711.90625 38.59375 1706.46875 91.054688 1701.707031 154.046875 C 1700.738281 166.832031 1702.59375 245.578125 1711.394531 392.5 C 1712.824219 416.410156 1707.734375 435.214844 1703.46875 449.542969 C 1694.242188 480.539062 1646.84375 501.753906 1566.585938 511.304688 C 1365.535156 535.230469 1220.273438 505.726562 1137.21875 422.269531 C 1112.089844 397.019531 1091.785156 368.023438 1079.28125 335.820312 C 1005.398438 145.582031 958.277344 37.324219 931.535156 10.011719 C 930.722656 9.183594 930.144531 8.15625 929.851562 7.035156 C 925.132812 -11.214844 847.898438 -69.132812 695.941406 -178.535156 C 662.953125 -202.28125 640 -232.15625 625.03125 -261.835938 C 595.863281 -319.664062 596.925781 -364.789062 605.945312 -404.007812 C 609.429688 -419.15625 614.09375 -433.394531 618.511719 -446.898438 C 622.699219 -459.707031 626.648438 -471.785156 629.410156 -483.804688 C 630.230469 -487.371094 633.789062 -489.597656 637.355469 -488.777344 C 640.921875 -487.957031 643.148438 -484.398438 642.328125 -480.832031 Z M 642.328125 -480.832031 " fill-opacity="1" fill-rule="nonzero"/></g></g></g><g clip-path="url(#3c6b358f71)"><g clip-path="url(#6edfeef098)"><g clip-path="url(#b9755b93e6)"><path fill="#00bf63" d="M 788.109375 -547.714844 C 785.191406 -535.019531 781.042969 -522.351562 776.890625 -509.660156 C 772.445312 -496.082031 767.972656 -482.394531 764.644531 -467.917969 C 756.210938 -431.25 755.074219 -389.355469 782.648438 -334.6875 C 796.78125 -306.667969 818.417969 -278.527344 849.464844 -256.171875 C 997.40625 -149.664062 1082.15625 -87.554688 1088.46875 -63.167969 L 1086.785156 -66.144531 C 1115.980469 -36.332031 1164.222656 75.675781 1237.417969 264.140625 C 1249.144531 294.332031 1268.304688 321.832031 1292.394531 346.035156 C 1371.007812 425.03125 1510.898438 455.050781 1710.804688 431.261719 C 1792.769531 421.503906 1830.132812 400.441406 1836.550781 378.878906 C 1840.699219 364.9375 1845.238281 347.9375 1843.945312 326.410156 C 1835.175781 179.921875 1833.222656 100.074219 1834.273438 86.167969 C 1839.03125 23.226562 1844.527344 -30.359375 1856.144531 -74.273438 C 1868.785156 -122.066406 1889.339844 -167.140625 1916.054688 -211.292969 C 1942.8125 -255.519531 2007.585938 -333.375 2104.25 -449.609375 L 2110.808594 -457.496094 C 2143.539062 -496.859375 2162.492188 -536.527344 2178.570312 -570.230469 C 2181.171875 -575.683594 2183.726562 -581.035156 2186.226562 -586.148438 C 2218.292969 -651.71875 2208.878906 -711.511719 2151.515625 -772.132812 C 2122.582031 -802.714844 2083.796875 -820.746094 2032.855469 -824.316406 C 2032.207031 -824.363281 2031.566406 -824.503906 2030.960938 -824.734375 C 2016.199219 -830.359375 1928.214844 -820.085938 1760.757812 -797.820312 C 1729.691406 -793.691406 1707.175781 -798.453125 1693.054688 -803.558594 C 1671.269531 -811.4375 1646.90625 -824.210938 1625.730469 -848.570312 C 1501.09375 -991.972656 1430.574219 -1067.035156 1407.386719 -1074.882812 C 1406.835938 -1075.066406 1406.3125 -1075.328125 1405.828125 -1075.648438 C 1363.332031 -1104.0625 1310.542969 -1103.253906 1240.871094 -1098.519531 C 1022.863281 -1083.703125 869.902344 -908.296875 785.589844 -537.644531 C 784.777344 -534.078125 781.226562 -531.839844 777.65625 -532.652344 C 774.089844 -533.464844 771.855469 -537.015625 772.667969 -540.585938 C 857.339844 -912.8125 1012.78125 -1096.304688 1239.972656 -1111.742188 C 1308.917969 -1116.425781 1366.375 -1117.96875 1413.191406 -1086.667969 L 1411.632812 -1087.4375 C 1439.273438 -1078.082031 1513.136719 -998.316406 1635.734375 -857.265625 L 1635.730469 -857.265625 C 1654.996094 -835.101562 1677.1875 -823.390625 1697.558594 -816.023438 C 1709.828125 -811.585938 1730.199219 -807.128906 1759.011719 -810.960938 C 1923.042969 -832.769531 2016.765625 -844.328125 2035.679688 -837.121094 L 2033.78125 -837.539062 C 2087.609375 -833.761719 2129.644531 -814.53125 2161.144531 -781.242188 C 2221.90625 -717.023438 2232.871094 -651.359375 2198.132812 -580.324219 C 2195.660156 -575.273438 2193.144531 -569.996094 2190.53125 -564.523438 C 2174.460938 -530.839844 2154.902344 -489.792969 2120.996094 -449.019531 L 2114.4375 -441.136719 C 2017.328125 -324.363281 1953.484375 -247.558594 1927.390625 -204.433594 C 1901.1875 -161.125 1881.210938 -117.214844 1868.957031 -70.882812 C 1857.6875 -28.289062 1852.25 24.171875 1847.488281 87.164062 C 1846.523438 99.949219 1848.378906 178.695312 1857.175781 325.617188 C 1858.609375 349.523438 1853.515625 368.335938 1849.25 382.660156 C 1840.027344 413.65625 1792.628906 434.867188 1712.371094 444.421875 C 1511.316406 468.347656 1366.058594 438.84375 1283 355.386719 C 1257.875 330.136719 1237.570312 301.140625 1225.0625 268.9375 C 1151.179688 78.699219 1104.0625 -29.5625 1077.316406 -56.871094 C 1076.507812 -57.699219 1075.925781 -58.726562 1075.636719 -59.847656 C 1070.914062 -78.097656 993.679688 -136.015625 841.722656 -245.417969 C 808.738281 -269.164062 785.785156 -299.039062 770.816406 -328.71875 C 741.648438 -386.546875 742.710938 -431.671875 751.730469 -470.890625 C 755.210938 -486.035156 759.875 -500.277344 764.292969 -513.78125 C 768.484375 -526.585938 772.433594 -538.671875 775.195312 -550.6875 C 776.015625 -554.253906 779.570312 -556.480469 783.136719 -555.660156 C 786.703125 -554.839844 788.929688 -551.285156 788.109375 -547.714844 Z M 788.109375 -547.714844 " fill-opacity="1" fill-rule="nonzero"/></g></g></g><g clip-path="url(#c179f3ec98)"><g clip-path="url(#932bf524a7)"><g clip-path="url(#2b72555739)"><path fill="#0c5f52" d="M 923.867188 -590.449219 C 920.945312 -577.75 916.796875 -565.089844 912.644531 -552.394531 C 908.203125 -538.816406 903.730469 -525.128906 900.398438 -510.652344 C 891.96875 -473.984375 890.828125 -432.089844 918.402344 -377.421875 C 932.535156 -349.398438 954.171875 -321.261719 985.222656 -298.90625 C 1133.164062 -192.394531 1217.914062 -130.289062 1224.222656 -105.898438 L 1222.542969 -108.878906 C 1251.738281 -79.0625 1299.980469 32.941406 1373.171875 221.40625 C 1384.898438 251.597656 1404.0625 279.097656 1428.148438 303.304688 C 1506.761719 382.296875 1646.652344 412.316406 1846.558594 388.527344 C 1928.523438 378.773438 1965.886719 357.707031 1972.304688 336.144531 C 1976.457031 322.203125 1980.992188 305.203125 1979.703125 283.675781 C 1970.929688 137.191406 1968.976562 57.335938 1970.03125 43.433594 C 1974.789062 -19.507812 1980.28125 -73.09375 1991.898438 -117.003906 C 2004.542969 -164.800781 2025.09375 -209.875 2051.808594 -254.027344 C 2078.566406 -298.25 2143.347656 -376.117188 2240.015625 -492.355469 L 2246.5625 -500.230469 C 2279.292969 -539.589844 2298.246094 -579.257812 2314.324219 -612.960938 C 2316.929688 -618.421875 2319.476562 -623.761719 2321.984375 -628.882812 C 2354.050781 -694.449219 2344.632812 -754.242188 2287.273438 -814.867188 C 2258.335938 -845.449219 2219.554688 -863.476562 2168.609375 -867.050781 C 2167.960938 -867.097656 2167.324219 -867.238281 2166.714844 -867.46875 C 2151.957031 -873.09375 2063.96875 -862.820312 1896.515625 -840.554688 C 1865.445312 -836.425781 1842.929688 -841.1875 1828.808594 -846.292969 C 1807.027344 -854.171875 1782.660156 -866.945312 1761.484375 -891.304688 C 1636.847656 -1034.707031 1566.332031 -1109.769531 1543.140625 -1117.613281 C 1542.589844 -1117.800781 1542.066406 -1118.058594 1541.582031 -1118.382812 C 1499.085938 -1146.796875 1446.296875 -1145.988281 1376.628906 -1141.253906 C 1158.617188 -1126.4375 1005.660156 -951.03125 921.34375 -580.378906 C 920.53125 -576.808594 916.980469 -574.574219 913.414062 -575.386719 C 909.84375 -576.199219 907.609375 -579.75 908.421875 -583.320312 C 993.09375 -955.546875 1148.535156 -1139.035156 1375.730469 -1154.476562 C 1444.671875 -1159.160156 1502.128906 -1160.703125 1548.949219 -1129.402344 L 1547.386719 -1130.167969 C 1575.03125 -1120.816406 1648.890625 -1041.050781 1771.488281 -900 C 1790.75 -877.835938 1812.941406 -866.125 1833.316406 -858.757812 C 1845.582031 -854.320312 1865.957031 -849.863281 1894.765625 -853.691406 C 2058.796875 -875.503906 2152.523438 -887.0625 2171.433594 -879.851562 L 2169.539062 -880.273438 C 2223.363281 -876.496094 2265.402344 -857.265625 2296.898438 -823.976562 C 2357.664062 -759.757812 2368.628906 -694.09375 2333.886719 -623.058594 C 2331.410156 -617.996094 2328.902344 -612.738281 2326.285156 -607.253906 C 2310.214844 -573.570312 2290.65625 -532.527344 2256.753906 -491.753906 L 2250.207031 -483.882812 C 2153.089844 -367.101562 2089.242188 -290.292969 2063.148438 -247.167969 C 2036.945312 -203.859375 2016.964844 -159.949219 2004.710938 -113.617188 C 1993.445312 -71.023438 1988.007812 -18.5625 1983.246094 44.433594 C 1982.277344 57.214844 1984.132812 135.960938 1992.933594 282.882812 C 1994.363281 306.792969 1989.273438 325.597656 1985.007812 339.925781 C 1975.78125 370.921875 1928.382812 392.136719 1848.125 401.6875 C 1647.074219 425.613281 1501.8125 396.109375 1418.757812 312.652344 C 1393.628906 287.402344 1373.324219 258.40625 1360.820312 226.203125 C 1286.9375 35.964844 1239.816406 -72.292969 1213.074219 -99.605469 C 1212.261719 -100.433594 1211.683594 -101.457031 1211.390625 -102.582031 C 1206.671875 -120.832031 1129.4375 -178.75 977.480469 -288.152344 C 944.492188 -311.898438 921.539062 -341.773438 906.570312 -371.453125 C 877.402344 -429.28125 878.464844 -474.40625 887.484375 -513.621094 C 890.96875 -528.773438 895.632812 -543.011719 900.050781 -556.515625 C 904.238281 -569.324219 908.1875 -581.402344 910.949219 -593.421875 C 911.769531 -596.988281 915.328125 -599.214844 918.894531 -598.394531 C 922.460938 -597.574219 924.6875 -594.015625 923.867188 -590.449219 Z M 923.867188 -590.449219 " fill-opacity="1" fill-rule="nonzero"/></g></g></g></svg>