<svg xmlns="http://www.w3.org/2000/svg" xmlns:xlink="http://www.w3.org/1999/xlink" width="1920" zoomAndPan="magnify" viewBox="0 0 1440 809.999993" height="1080" preserveAspectRatio="xMidYMid meet" version="1.0"><defs><clipPath id="b0dbf05f5b"><path d="M 1151 0 L 1393 0 L 1393 28 L 1151 28 Z M 1151 0 " clip-rule="nonzero"/></clipPath><clipPath id="855c2a6b43"><path d="M 1452.410156 -54.3125 L 1250.519531 54.820312 L 1131.046875 -166.207031 L 1332.9375 -275.339844 Z M 1452.410156 -54.3125 " clip-rule="nonzero"/></clipPath><clipPath id="e4c460c325"><path d="M 1452.410156 -54.3125 L 1250.519531 54.820312 L 1131.046875 -166.207031 L 1332.9375 -275.339844 Z M 1452.410156 -54.3125 " clip-rule="nonzero"/></clipPath><clipPath id="07806e2f3a"><path d="M 1286 0 L 1440 0 L 1440 146 L 1286 146 Z M 1286 0 " clip-rule="nonzero"/></clipPath><clipPath id="1b95f0f26e"><path d="M 1482.226562 -94.261719 L 1523.851562 131.433594 L 1313.648438 170.203125 L 1272.023438 -55.492188 Z M 1482.226562 -94.261719 " clip-rule="nonzero"/></clipPath><clipPath id="eed4dda2dd"><path d="M 1482.226562 -94.261719 L 1523.851562 131.433594 L 1313.648438 170.203125 L 1272.023438 -55.492188 Z M 1482.226562 -94.261719 " clip-rule="nonzero"/></clipPath><clipPath id="8054f5dd95"><path d="M 0 693.90625 L 262 693.90625 L 262 810 L 0 810 Z M 0 693.90625 " clip-rule="nonzero"/></clipPath><clipPath id="baf4330a6d"><path d="M 0 565 L 92 565 L 92 810 L 0 810 Z M 0 565 " clip-rule="nonzero"/></clipPath><clipPath id="578f3ac537"><path d="M 80.992188 555.328125 L 99.199219 837.492188 L -188.949219 856.085938 L -207.160156 573.925781 Z M 80.992188 555.328125 " clip-rule="nonzero"/></clipPath><clipPath id="c00e3d0772"><path d="M 80.992188 555.328125 L 99.199219 837.492188 L -188.949219 856.085938 L -207.160156 573.925781 Z M 80.992188 555.328125 " clip-rule="nonzero"/></clipPath></defs><g clip-path="url(#b0dbf05f5b)"><g clip-path="url(#855c2a6b43)"><g clip-path="url(#e4c460c325)"><path fill="#00bf63" d="M 1324.425781 14.636719 C 1316.382812 19.019531 1307.5625 22.492188 1298.296875 24.832031 C 1286.535156 27.796875 1274.652344 28.246094 1262.65625 26.5625 C 1258.226562 25.941406 1253.847656 25.050781 1249.558594 23.738281 C 1243.824219 21.992188 1238.707031 19.128906 1234.179688 15.199219 C 1231.386719 12.78125 1228.675781 10.277344 1226.378906 7.359375 C 1224.882812 5.453125 1223.519531 3.453125 1222.210938 1.421875 C 1221.078125 -0.335938 1219.9375 -2.09375 1218.875 -3.902344 C 1217.496094 -6.25 1216.636719 -8.816406 1215.976562 -11.457031 C 1214.867188 -15.902344 1214.527344 -20.441406 1214.214844 -24.984375 C 1213.773438 -31.421875 1213.960938 -37.867188 1213.996094 -44.308594 C 1214.03125 -51.128906 1213.894531 -57.9375 1212.617188 -64.664062 C 1211.761719 -69.152344 1210.445312 -73.492188 1208.585938 -77.683594 C 1205.855469 -83.839844 1201.894531 -89.132812 1197.351562 -94.035156 C 1192.765625 -98.976562 1187.726562 -103.4375 1182.707031 -107.917969 C 1176.914062 -113.078125 1171.125 -118.242188 1166.011719 -124.101562 C 1162.710938 -127.875 1159.683594 -131.839844 1157.210938 -136.234375 C 1154.238281 -141.515625 1152.058594 -147.042969 1151.449219 -153.109375 C 1150.761719 -159.992188 1152.238281 -166.417969 1155.742188 -172.359375 C 1158.59375 -177.199219 1162.488281 -181.085938 1167.011719 -184.378906 C 1173.019531 -188.765625 1179.75 -191.582031 1186.867188 -193.570312 C 1193.644531 -195.464844 1200.585938 -196.371094 1207.574219 -196.964844 C 1213.617188 -197.484375 1219.683594 -197.773438 1225.710938 -198.457031 C 1233.0625 -199.289062 1240.273438 -200.710938 1247.234375 -203.296875 C 1250.695312 -204.582031 1254.074219 -206.050781 1257.386719 -207.683594 C 1259.925781 -208.9375 1262.472656 -210.164062 1264.929688 -211.5625 C 1269.351562 -214.078125 1273.757812 -216.613281 1278.171875 -219.136719 C 1283.054688 -221.925781 1288.042969 -224.496094 1293.152344 -226.839844 C 1296.734375 -228.480469 1300.367188 -229.964844 1304.074219 -231.285156 C 1311.683594 -233.996094 1319.484375 -235.796875 1327.582031 -236.109375 C 1332.898438 -236.3125 1338.167969 -235.867188 1343.296875 -234.390625 C 1349.660156 -232.5625 1355.246094 -229.421875 1359.59375 -224.300781 C 1361.683594 -221.84375 1363.316406 -219.101562 1364.582031 -216.140625 C 1367.148438 -210.144531 1368.171875 -203.800781 1368.824219 -197.371094 C 1369.414062 -191.570312 1369.601562 -185.742188 1369.96875 -179.933594 C 1370.414062 -172.96875 1370.992188 -166.019531 1372.269531 -159.148438 C 1373.398438 -153.085938 1375.097656 -147.175781 1377.164062 -141.375 C 1379.152344 -135.808594 1381.414062 -130.355469 1383.550781 -124.851562 C 1386.207031 -118.003906 1388.652344 -111.085938 1390.210938 -103.882812 C 1392.542969 -93.136719 1393.015625 -82.347656 1391.171875 -71.476562 C 1389.601562 -62.21875 1386.570312 -53.445312 1382.429688 -45.046875 C 1375.683594 -31.371094 1366.648438 -19.386719 1355.761719 -8.753906 C 1351.332031 -4.429688 1346.695312 -0.34375 1341.773438 3.410156 C 1338.417969 5.96875 1334.953125 8.371094 1331.367188 10.605469 C 1329.203125 11.949219 1326.984375 13.175781 1324.421875 14.621094 Z M 1267.707031 -206.332031 C 1262.023438 -203.222656 1256.625 -200.554688 1251.003906 -198.363281 C 1245.835938 -196.347656 1240.519531 -194.875 1235.074219 -193.84375 C 1227.203125 -192.363281 1219.21875 -191.898438 1211.25 -191.304688 C 1204.832031 -190.828125 1198.429688 -190.199219 1192.136719 -188.765625 C 1185.464844 -187.246094 1179.089844 -184.992188 1173.230469 -181.378906 C 1170.039062 -179.410156 1167.105469 -177.125 1164.589844 -174.347656 C 1158.332031 -167.441406 1155.890625 -159.429688 1157.902344 -150.226562 C 1159.140625 -144.566406 1161.804688 -139.527344 1165.082031 -134.8125 C 1168.417969 -130.011719 1172.351562 -125.726562 1176.527344 -121.648438 C 1180.082031 -118.175781 1183.800781 -114.894531 1187.503906 -111.582031 C 1192.488281 -107.125 1197.457031 -102.648438 1202.011719 -97.738281 C 1207.132812 -92.21875 1211.417969 -86.167969 1214.402344 -79.214844 C 1216.738281 -73.777344 1218.167969 -68.117188 1219.007812 -62.285156 C 1219.953125 -55.71875 1219.972656 -49.117188 1219.910156 -42.503906 C 1219.84375 -35.488281 1219.757812 -28.472656 1220.425781 -21.472656 C 1220.875 -16.722656 1222.046875 -12.179688 1224.140625 -7.894531 C 1225.691406 -4.722656 1227.277344 -1.558594 1229.359375 1.308594 C 1230.828125 3.335938 1232.292969 5.390625 1234.167969 7.054688 C 1237.910156 10.371094 1241.640625 13.691406 1246.195312 15.953125 C 1248.121094 16.90625 1250.058594 17.761719 1252.113281 18.339844 C 1257.738281 19.921875 1263.46875 20.902344 1269.292969 21.351562 C 1275.984375 21.859375 1282.652344 21.691406 1289.28125 20.632812 C 1294.917969 19.738281 1300.40625 18.273438 1305.800781 16.394531 C 1310.019531 14.921875 1314.136719 13.195312 1318.152344 11.253906 C 1323.585938 8.625 1328.730469 5.476562 1333.679688 2.027344 C 1338.222656 -1.128906 1342.53125 -4.589844 1346.644531 -8.289062 C 1355.464844 -16.210938 1363.328125 -24.960938 1369.835938 -34.90625 C 1374.410156 -41.898438 1378.308594 -49.226562 1381.1875 -57.085938 C 1383.542969 -63.507812 1385.226562 -70.085938 1385.96875 -76.898438 C 1387.226562 -88.425781 1385.691406 -99.652344 1382.296875 -110.675781 C 1380.402344 -116.832031 1377.984375 -122.808594 1375.601562 -128.789062 C 1373.597656 -133.816406 1371.640625 -138.867188 1369.984375 -144.019531 C 1367.160156 -152.808594 1365.507812 -161.828125 1364.695312 -171.011719 C 1364.089844 -177.84375 1363.8125 -184.691406 1363.367188 -191.527344 C 1363.054688 -196.363281 1362.597656 -201.1875 1361.566406 -205.929688 C 1360.632812 -210.238281 1359.277344 -214.390625 1356.800781 -218.113281 C 1355.210938 -220.5 1353.304688 -222.558594 1350.996094 -224.246094 C 1346.996094 -227.160156 1342.460938 -228.761719 1337.628906 -229.574219 C 1331.867188 -230.546875 1326.109375 -230.351562 1320.367188 -229.425781 C 1310.519531 -227.835938 1301.34375 -224.242188 1292.433594 -219.929688 C 1288.480469 -218.015625 1284.664062 -215.84375 1280.816406 -213.734375 C 1276.28125 -211.253906 1271.90625 -208.503906 1267.714844 -206.328125 Z M 1267.707031 -206.332031 " fill-opacity="1" fill-rule="nonzero"/></g></g></g><g clip-path="url(#07806e2f3a)"><g clip-path="url(#1b95f0f26e)"><g clip-path="url(#eed4dda2dd)"><path fill="#0c5f52" d="M 1360.800781 -70.921875 C 1372.738281 -73.914062 1384.449219 -74.988281 1396.332031 -74.21875 C 1408.882812 -73.402344 1420.949219 -70.550781 1432.535156 -65.6875 C 1443.195312 -61.210938 1452.871094 -55.15625 1461.5625 -47.53125 C 1472.421875 -38.011719 1481.304688 -26.886719 1488.507812 -14.390625 C 1491.855469 -8.585938 1494.757812 -2.5625 1497.238281 3.652344 C 1499.203125 8.578125 1500.90625 13.597656 1502.332031 18.710938 C 1503.164062 21.699219 1503.894531 24.703125 1504.546875 27.726562 C 1505.808594 33.578125 1506.652344 39.492188 1507.097656 45.460938 C 1507.78125 54.539062 1507.554688 63.585938 1506.253906 72.601562 C 1504.234375 86.621094 1499.5625 99.648438 1491.734375 111.492188 C 1485.542969 120.851562 1477.933594 128.851562 1468.617188 135.183594 C 1464.03125 138.296875 1459.167969 140.875 1453.957031 142.75 C 1445.558594 145.765625 1436.972656 146.5625 1428.21875 144.605469 C 1420.707031 142.921875 1414.21875 139.300781 1408.59375 134.085938 C 1403.546875 129.410156 1399.648438 123.878906 1396.542969 117.773438 C 1392.867188 110.546875 1390.621094 102.851562 1389.042969 94.921875 C 1387.546875 87.40625 1386.699219 79.808594 1386.113281 72.183594 C 1385.683594 66.613281 1385.558594 61.03125 1385.417969 55.449219 C 1385.332031 51.996094 1385.171875 48.546875 1384.21875 45.191406 C 1384.0625 44.632812 1383.847656 44.125 1383.503906 43.65625 C 1381.832031 41.371094 1379.691406 39.839844 1376.921875 39.027344 C 1372.160156 37.636719 1367.550781 38.136719 1362.984375 39.738281 C 1359.6875 40.894531 1356.578125 42.480469 1353.574219 44.257812 C 1351.851562 45.273438 1350.011719 46.027344 1348.152344 46.726562 C 1343.046875 48.636719 1337.925781 50.480469 1332.578125 51.625 C 1326.144531 53 1319.6875 53.433594 1313.199219 51.992188 C 1306.011719 50.394531 1299.960938 46.886719 1295.230469 41.203125 C 1292.703125 38.164062 1290.832031 34.742188 1289.480469 31.03125 C 1286.496094 22.832031 1286.183594 14.410156 1287.40625 5.875 C 1288.589844 -2.367188 1291.175781 -10.1875 1294.835938 -17.648438 C 1301.421875 -31.050781 1310.640625 -42.371094 1322.257812 -51.734375 C 1328.773438 -56.976562 1335.878906 -61.28125 1343.488281 -64.753906 C 1349.207031 -67.363281 1355.113281 -69.402344 1360.796875 -70.914062 Z M 1362.417969 -65.964844 C 1361.59375 -65.75 1360.761719 -65.550781 1359.9375 -65.324219 C 1354.714844 -63.878906 1349.640625 -61.996094 1344.738281 -59.695312 C 1335.15625 -55.203125 1326.515625 -49.328125 1318.898438 -41.960938 C 1310.574219 -33.914062 1303.820312 -24.722656 1298.886719 -14.230469 C 1295.390625 -6.800781 1292.992188 0.957031 1292.171875 9.152344 C 1291.4375 16.550781 1291.992188 23.789062 1294.882812 30.738281 C 1296.15625 33.789062 1297.859375 36.570312 1300.109375 38.988281 C 1304.714844 43.957031 1310.484375 46.613281 1317.136719 47.472656 C 1321.996094 48.105469 1326.792969 47.601562 1331.558594 46.597656 C 1336.835938 45.484375 1341.878906 43.617188 1346.839844 41.523438 C 1348.605469 40.777344 1350.371094 40.007812 1352.09375 39.175781 C 1353.4375 38.53125 1354.710938 37.734375 1356.066406 37.101562 C 1358.910156 35.777344 1361.789062 34.597656 1364.859375 33.859375 C 1369.035156 32.851562 1373.144531 32.875 1377.324219 33.84375 C 1381.660156 34.847656 1385.035156 37.144531 1387.714844 40.652344 C 1388.933594 42.246094 1389.589844 43.992188 1389.851562 45.917969 C 1390.210938 48.5625 1390.445312 51.21875 1390.511719 53.886719 C 1390.726562 62.703125 1391.015625 71.515625 1392.027344 80.289062 C 1392.671875 85.875 1393.480469 91.441406 1394.703125 96.929688 C 1395.675781 101.273438 1396.941406 105.539062 1398.566406 109.691406 C 1400.453125 114.519531 1402.84375 119.074219 1405.882812 123.269531 C 1409.972656 128.917969 1414.941406 133.574219 1421.242188 136.699219 C 1428.816406 140.457031 1436.792969 141.339844 1445.054688 139.839844 C 1451.796875 138.609375 1457.953125 135.886719 1463.726562 132.246094 C 1473.972656 125.792969 1482.074219 117.222656 1488.519531 107.035156 C 1495.644531 95.769531 1499.714844 83.417969 1501.414062 70.25 C 1503.25 56.023438 1502.371094 41.917969 1499.359375 27.933594 C 1498.257812 22.820312 1496.839844 17.78125 1495.148438 12.820312 C 1493.238281 7.226562 1491.03125 1.757812 1488.449219 -3.558594 C 1482.285156 -16.277344 1474.324219 -27.742188 1464.410156 -37.828125 C 1457.789062 -44.566406 1450.449219 -50.382812 1442.261719 -55.125 C 1430.601562 -61.878906 1418.085938 -66.183594 1404.773438 -68.171875 C 1390.515625 -70.292969 1376.394531 -69.53125 1362.429688 -65.972656 Z M 1362.417969 -65.964844 " fill-opacity="1" fill-rule="nonzero"/></g></g></g><g clip-path="url(#8054f5dd95)"><path fill="#0c5f52" d="M 126.277344 693.90625 C 135.761719 693.90625 144.867188 695.6875 153.421875 699.859375 C 166.386719 706.183594 175.160156 716.308594 180.207031 729.738281 C 182.460938 735.742188 183.757812 741.976562 184.792969 748.273438 C 185.882812 754.824219 186.609375 761.441406 188.09375 767.9375 C 189.570312 774.402344 191.90625 780.484375 195.878906 785.855469 C 199.277344 790.441406 203.476562 794.207031 208.019531 797.617188 C 212.6875 801.132812 217.625 804.234375 222.53125 807.394531 C 228.242188 811.070312 233.957031 814.75 239.25 819.023438 C 245.578125 824.128906 251.195312 829.871094 255.378906 836.902344 C 261.136719 846.589844 262.992188 856.988281 261.007812 868.070312 C 258.726562 880.796875 252.535156 891.316406 242.996094 899.953125 C 237.726562 904.730469 231.824219 908.585938 225.566406 911.914062 C 219.5625 915.109375 213.289062 917.714844 207.109375 920.527344 C 203.824219 922.015625 200.640625 923.675781 197.613281 925.652344 C 191.890625 929.402344 187.882812 934.507812 185.394531 940.847656 C 183.742188 945.0625 182.695312 949.441406 181.792969 953.867188 C 180.472656 960.378906 179.492188 966.964844 177.96875 973.445312 C 176.296875 980.5625 174.082031 987.496094 170.523438 993.929688 C 165.851562 1002.367188 159.40625 1009.011719 150.625 1013.214844 C 143.652344 1016.550781 136.296875 1017.921875 128.578125 1017.3125 C 116.835938 1016.390625 106.976562 1011.464844 98.601562 1003.355469 C 93.890625 998.789062 90.078125 993.507812 86.503906 988.046875 C 83.679688 983.738281 81.023438 979.324219 77.882812 975.234375 C 76.292969 973.167969 74.566406 971.230469 72.566406 969.554688 C 68.316406 965.992188 63.335938 964.316406 57.878906 963.933594 C 52.984375 963.59375 48.132812 964.0625 43.308594 964.882812 C 35.394531 966.21875 27.636719 968.285156 19.828125 970.074219 C 13.695312 971.484375 7.542969 972.769531 1.273438 973.402344 C -5.15625 974.050781 -11.570312 974.082031 -17.886719 972.414062 C -22.96875 971.070312 -27.503906 968.722656 -31.070312 964.785156 C -35.171875 960.25 -36.957031 954.804688 -37.175781 948.789062 C -37.410156 942.378906 -35.820312 936.328125 -33.46875 930.441406 C -30.582031 923.199219 -26.570312 916.589844 -22.207031 910.167969 C -17.84375 903.757812 -13.09375 897.636719 -8.609375 891.316406 C -5.886719 887.488281 -3.242188 883.613281 -0.964844 879.5 C 0.992188 875.976562 2.636719 872.339844 3.375 868.347656 C 4.152344 864.140625 3.683594 860.101562 1.914062 856.203125 C 0.332031 852.722656 -1.945312 849.714844 -4.441406 846.847656 C -6.988281 843.925781 -9.753906 841.203125 -12.492188 838.464844 C -16.230469 834.722656 -19.996094 831.003906 -23.367188 826.914062 C -26.480469 823.132812 -29.222656 819.113281 -31.101562 814.5625 C -34.839844 805.53125 -34.109375 796.75 -29.472656 788.246094 C -25.996094 781.878906 -20.96875 776.890625 -15.160156 772.652344 C -8.78125 767.988281 -1.773438 764.527344 5.78125 762.210938 C 8.582031 761.351562 11.5 761.039062 14.402344 760.800781 C 21.789062 760.21875 28.898438 758.589844 35.53125 755.1875 C 40.390625 752.695312 44.191406 749 47.304688 744.585938 C 50.980469 739.371094 54.394531 733.976562 58.429688 729.027344 C 70.074219 714.769531 84.28125 704.078125 101.835938 698.101562 C 109.765625 695.402344 117.890625 693.914062 126.277344 693.90625 Z M 126.25 700.480469 C 116.796875 700.449219 107.789062 702.523438 99.105469 706.109375 C 83.925781 712.371094 71.714844 722.449219 61.78125 735.394531 C 58.78125 739.304688 56.152344 743.46875 53.394531 747.550781 C 50.90625 751.226562 48.132812 754.671875 44.597656 757.410156 C 35.777344 764.246094 25.761719 767.792969 14.605469 768.085938 C 11.441406 768.164062 8.335938 768.628906 5.3125 769.542969 C -0.632812 771.347656 -6.089844 774.144531 -11.105469 777.789062 C -15.574219 781.019531 -19.523438 784.777344 -22.546875 789.429688 C -24.867188 792.992188 -26.417969 796.855469 -26.804688 801.125 C -27.277344 806.308594 -25.871094 811.046875 -23.351562 815.511719 C -20.84375 819.957031 -17.570312 823.796875 -14.082031 827.480469 C -9.792969 832.019531 -5.203125 836.277344 -0.988281 840.886719 C 1.632812 843.753906 4.105469 846.726562 6.097656 850.074219 C 10.113281 856.804688 11.386719 863.949219 9.375 871.609375 C 8.28125 875.789062 6.480469 879.660156 4.355469 883.394531 C 1.078125 889.148438 -2.789062 894.507812 -6.695312 899.839844 C -11.300781 906.125 -16.003906 912.34375 -20.148438 918.964844 C -23.691406 924.617188 -26.8125 930.480469 -28.832031 936.871094 C -30.316406 941.570312 -31.109375 946.347656 -30.382812 951.28125 C -29.8125 955.089844 -28.296875 958.433594 -25.5 961.140625 C -23.089844 963.480469 -20.179688 964.945312 -16.984375 965.878906 C -11.140625 967.570312 -5.179688 967.480469 0.796875 966.867188 C 7.015625 966.226562 13.121094 964.90625 19.210938 963.496094 C 27.554688 961.5625 35.832031 959.351562 44.324219 958.09375 C 49.804688 957.285156 55.292969 956.902344 60.816406 957.664062 C 67.066406 958.523438 72.644531 960.898438 77.40625 965.101562 C 80.542969 967.871094 83.089844 971.136719 85.464844 974.546875 C 88.773438 979.300781 91.707031 984.289062 95.058594 989.019531 C 98.714844 994.179688 102.792969 998.941406 107.902344 1002.742188 C 116.34375 1009.027344 125.8125 1011.863281 136.296875 1010.648438 C 146.59375 1009.457031 154.882812 1004.523438 161.191406 996.316406 C 165.414062 990.816406 168.050781 984.53125 170.011719 977.9375 C 172.160156 970.722656 173.328125 963.285156 174.714844 955.90625 C 175.777344 950.261719 176.96875 944.65625 178.996094 939.253906 C 182.085938 930.992188 187.269531 924.4375 194.761719 919.722656 C 198.125 917.609375 201.667969 915.835938 205.277344 914.191406 C 210.253906 911.933594 215.300781 909.828125 220.1875 907.355469 C 226.359375 904.238281 232.207031 900.648438 237.460938 896.136719 C 245.269531 889.421875 250.832031 881.257812 253.585938 871.285156 C 255.167969 865.550781 255.664062 859.734375 254.730469 853.832031 C 253.734375 847.527344 251.140625 841.914062 247.441406 836.773438 C 243.273438 830.972656 238.042969 826.25 232.359375 821.988281 C 226.554688 817.640625 220.375 813.839844 214.285156 809.90625 C 208.277344 806.007812 202.359375 801.992188 197.121094 797.058594 C 191.980469 792.214844 187.859375 786.65625 185.09375 780.128906 C 182.769531 774.636719 181.429688 768.886719 180.417969 763.039062 C 179.347656 756.839844 178.625 750.597656 177.417969 744.425781 C 176.125 737.871094 174.300781 731.496094 171.125 725.574219 C 166.21875 716.429688 159.042969 709.667969 149.605469 705.339844 C 142.183594 701.941406 134.359375 700.480469 126.234375 700.515625 Z M 126.25 700.480469 " fill-opacity="1" fill-rule="nonzero"/></g><g clip-path="url(#baf4330a6d)"><g clip-path="url(#578f3ac537)"><g clip-path="url(#c00e3d0772)"><path fill="#00bf63" d="M -77.164062 565.667969 C -74.566406 565.414062 -71.25 565.40625 -67.949219 565.378906 C -60.492188 565.308594 -53.058594 565.695312 -45.640625 566.589844 C -35.550781 567.800781 -25.660156 569.914062 -16.007812 573.046875 C -6.742188 576.050781 2.144531 579.9375 10.648438 584.714844 C 17.6875 588.667969 24.375 593.132812 30.742188 598.113281 C 34.988281 601.445312 39.058594 604.96875 42.925781 608.730469 C 47.765625 613.4375 52.285156 618.4375 56.484375 623.734375 C 61.480469 630.03125 65.996094 636.648438 70.003906 643.605469 C 75.226562 652.667969 79.574219 662.144531 82.992188 672.039062 C 84.886719 677.535156 86.484375 683.121094 87.765625 688.78125 C 88.46875 691.878906 89.019531 695.007812 89.519531 698.152344 C 90.214844 702.515625 90.738281 706.90625 90.984375 711.304688 C 91.25 716.042969 91.265625 720.792969 91.046875 725.550781 C 90.597656 735.085938 89.089844 744.433594 86.492188 753.601562 C 83.957031 762.539062 80.433594 771.070312 75.933594 779.195312 C 72.308594 785.75 68.097656 791.894531 63.386719 797.714844 C 57.777344 804.640625 51.433594 810.800781 44.5 816.367188 C 38.828125 820.921875 32.761719 824.890625 26.390625 828.386719 C 19.386719 832.230469 12.082031 835.390625 4.53125 837.996094 C -1.167969 839.957031 -6.957031 841.558594 -12.835938 842.855469 C -16.054688 843.570312 -19.316406 844.128906 -22.585938 844.628906 C -25.769531 845.113281 -28.972656 845.453125 -32.175781 845.78125 C -33.992188 845.964844 -35.808594 846.203125 -37.625 846.242188 C -42.324219 846.332031 -47.019531 846.464844 -51.726562 846.277344 C -59.28125 845.972656 -66.753906 845.070312 -74.167969 843.644531 C -81.503906 842.234375 -88.699219 840.257812 -95.75 837.777344 C -105.179688 834.460938 -114.203125 830.257812 -122.785156 825.125 C -127.78125 822.140625 -132.574219 818.859375 -137.203125 815.339844 C -141.058594 812.410156 -144.746094 809.277344 -148.285156 805.964844 C -155.828125 798.894531 -162.5625 791.101562 -168.445312 782.589844 C -171.414062 778.292969 -174.234375 773.894531 -176.792969 769.339844 C -183.371094 757.648438 -188.59375 745.386719 -192.335938 732.496094 C -193.910156 727.082031 -195.234375 721.605469 -196.339844 716.074219 C -196.90625 713.210938 -197.378906 710.320312 -197.785156 707.421875 C -198.28125 703.894531 -198.574219 700.335938 -199.015625 696.800781 C -199.574219 692.316406 -199.652344 687.820312 -199.714844 683.332031 C -199.84375 673.65625 -199.15625 664.027344 -197.421875 654.480469 C -195.851562 645.804688 -193.484375 637.367188 -190.039062 629.253906 C -187.097656 622.316406 -183.472656 615.742188 -179.132812 609.582031 C -175.503906 604.433594 -171.421875 599.664062 -166.636719 595.542969 C -163.769531 593.074219 -160.617188 590.996094 -157.414062 588.988281 C -154.035156 586.875 -150.617188 584.816406 -147.207031 582.757812 C -142.597656 579.972656 -137.574219 578.175781 -132.445312 576.640625 C -129.035156 575.625 -125.632812 574.574219 -122.222656 573.558594 C -119.457031 572.734375 -116.609375 572.285156 -113.816406 571.570312 C -109.175781 570.382812 -104.515625 569.300781 -99.804688 568.457031 C -96.386719 567.835938 -92.953125 567.304688 -89.5 566.894531 C -85.625 566.4375 -81.753906 565.984375 -77.15625 565.671875 Z M -77.550781 572.03125 C -80.675781 572.234375 -83.8125 572.394531 -86.933594 572.78125 C -91.054688 573.289062 -95.15625 573.910156 -99.242188 574.632812 C -104.671875 575.597656 -110.011719 576.914062 -115.3125 578.410156 C -122.902344 580.546875 -130.324219 583.203125 -137.605469 586.238281 C -144.078125 588.941406 -150.292969 592.15625 -156.335938 595.675781 C -162.3125 599.152344 -167.089844 604.019531 -171.351562 609.433594 C -176.347656 615.777344 -180.339844 622.699219 -183.671875 630.023438 C -187.0625 637.480469 -189.351562 645.285156 -190.980469 653.289062 C -191.902344 657.820312 -192.535156 662.398438 -192.941406 666.996094 C -193.210938 670.078125 -193.410156 673.164062 -193.488281 676.261719 C -193.566406 679.566406 -193.679688 682.878906 -193.515625 686.179688 C -193.265625 691.398438 -192.992188 696.613281 -192.34375 701.804688 C -191.992188 704.625 -191.617188 707.445312 -191.160156 710.246094 C -190.488281 714.296875 -189.644531 718.316406 -188.699219 722.324219 C -186.910156 729.886719 -184.636719 737.289062 -181.816406 744.53125 C -177.292969 756.164062 -171.507812 767.144531 -164.535156 777.488281 C -157.976562 787.210938 -150.308594 795.964844 -141.597656 803.804688 C -139.292969 805.875 -136.867188 807.800781 -134.441406 809.730469 C -130.015625 813.242188 -125.351562 816.410156 -120.53125 819.339844 C -113.007812 823.910156 -105.117188 827.730469 -96.878906 830.839844 C -89.203125 833.734375 -81.347656 835.988281 -73.304688 837.558594 C -67.3125 838.730469 -61.28125 839.542969 -55.175781 839.929688 C -50.945312 840.195312 -46.710938 840.355469 -42.476562 840.234375 C -35.4375 840.027344 -28.429688 839.433594 -21.476562 838.230469 C -17.011719 837.460938 -12.5625 836.582031 -8.1875 835.425781 C -0.433594 833.382812 7.132812 830.773438 14.453125 827.472656 C 22.722656 823.746094 30.511719 819.210938 37.785156 813.792969 C 47.066406 806.875 55.121094 798.726562 62.039062 789.449219 C 66.699219 783.203125 70.6875 776.554688 73.988281 769.503906 C 78.238281 760.433594 81.308594 750.96875 83.09375 741.101562 C 83.929688 736.46875 84.46875 731.804688 84.78125 727.105469 C 85.011719 723.59375 85.132812 720.074219 85.011719 716.5625 C 84.796875 709.941406 84.238281 703.351562 83.0625 696.8125 C 82.386719 693.0625 81.640625 689.320312 80.679688 685.636719 C 78.550781 677.503906 75.792969 669.582031 72.382812 661.882812 C 67.710938 651.320312 61.964844 641.386719 55.128906 632.089844 C 47.320312 621.464844 38.277344 612.023438 27.980469 603.785156 C 22.371094 599.300781 16.484375 595.230469 10.296875 591.589844 C 2.332031 586.921875 -6 583.050781 -14.710938 579.992188 C -24.871094 576.425781 -35.296875 574.027344 -45.984375 572.753906 C -50.148438 572.253906 -54.324219 571.925781 -58.511719 571.730469 C -62.28125 571.546875 -66.054688 571.539062 -69.816406 571.570312 C -72.398438 571.59375 -74.980469 571.875 -77.5625 572.039062 Z M -77.550781 572.03125 " fill-opacity="1" fill-rule="nonzero"/></g></g></g></svg>