<svg xmlns="http://www.w3.org/2000/svg" xmlns:xlink="http://www.w3.org/1999/xlink" width="1920" zoomAndPan="magnify" viewBox="0 0 1440 809.999993" height="1080" preserveAspectRatio="xMidYMid meet" version="1.0"><defs><clipPath id="a97bff6630"><path d="M 1314 573 L 1440 573 L 1440 810 L 1314 810 Z M 1314 573 " clip-rule="nonzero"/></clipPath><clipPath id="06f4c4ea18"><path d="M 1320.296875 878.855469 L 1308.898438 578.320312 L 1632.667969 566.042969 L 1644.0625 866.578125 Z M 1320.296875 878.855469 " clip-rule="nonzero"/></clipPath><clipPath id="d6d001ad8e"><path d="M 1320.296875 878.855469 L 1308.898438 578.320312 L 1632.667969 566.042969 L 1644.0625 866.578125 Z M 1320.296875 878.855469 " clip-rule="nonzero"/></clipPath><clipPath id="ff2f40cec4"><path d="M 1192 749 L 1440 749 L 1440 810 L 1192 810 Z M 1192 749 " clip-rule="nonzero"/></clipPath><clipPath id="b10f7b1cb6"><path d="M 1177.324219 765.585938 L 1458.597656 736.695312 L 1488.097656 1023.933594 L 1206.828125 1052.824219 Z M 1177.324219 765.585938 " clip-rule="nonzero"/></clipPath><clipPath id="a0f4e366f9"><path d="M 1177.324219 765.585938 L 1458.597656 736.695312 L 1488.097656 1023.933594 L 1206.828125 1052.824219 Z M 1177.324219 765.585938 " clip-rule="nonzero"/></clipPath><clipPath id="c28409a3b7"><path d="M 0 6 L 96 6 L 96 267 L 0 267 Z M 0 6 " clip-rule="nonzero"/></clipPath><clipPath id="2648af99bf"><path d="M -98.988281 -36.867188 L 114.820312 46.546875 L 23.5 280.613281 L -190.304688 197.199219 Z M -98.988281 -36.867188 " clip-rule="nonzero"/></clipPath><clipPath id="6a83e28a4c"><path d="M -98.988281 -36.867188 L 114.820312 46.546875 L 23.5 280.613281 L -190.304688 197.199219 Z M -98.988281 -36.867188 " clip-rule="nonzero"/></clipPath></defs><g clip-path="url(#a97bff6630)"><g clip-path="url(#06f4c4ea18)"><g clip-path="url(#d6d001ad8e)"><path fill="#00bf63" d="M 1314.085938 715.089844 C 1313.726562 705.609375 1315.160156 696.441406 1319.007812 687.734375 C 1324.835938 674.539062 1334.621094 665.390625 1347.851562 659.839844 C 1353.761719 657.359375 1359.945312 655.828125 1366.195312 654.550781 C 1372.703125 653.21875 1379.289062 652.238281 1385.722656 650.507812 C 1392.128906 648.789062 1398.117188 646.226562 1403.332031 642.050781 C 1407.785156 638.480469 1411.390625 634.140625 1414.625 629.476562 C 1417.960938 624.675781 1420.875 619.625 1423.84375 614.601562 C 1427.304688 608.757812 1430.761719 602.90625 1434.835938 597.453125 C 1439.695312 590.9375 1445.21875 585.105469 1452.085938 580.660156 C 1461.550781 574.539062 1471.871094 572.289062 1483.019531 573.855469 C 1495.824219 575.648438 1506.574219 581.441406 1515.5625 590.640625 C 1520.539062 595.726562 1524.613281 601.480469 1528.179688 607.609375 C 1531.59375 613.484375 1534.4375 619.65625 1537.480469 625.726562 C 1539.09375 628.949219 1540.875 632.070312 1542.964844 635.019531 C 1546.929688 640.597656 1552.179688 644.40625 1558.613281 646.652344 C 1562.882812 648.148438 1567.304688 649.027344 1571.757812 649.757812 C 1578.3125 650.832031 1584.933594 651.5625 1591.464844 652.839844 C 1598.644531 654.242188 1605.65625 656.191406 1612.21875 659.503906 C 1620.828125 663.851562 1627.710938 670.039062 1632.242188 678.65625 C 1635.84375 685.496094 1637.488281 692.796875 1637.175781 700.53125 C 1636.695312 712.300781 1632.148438 722.339844 1624.363281 731.015625 C 1619.976562 735.898438 1614.84375 739.90625 1609.523438 743.6875 C 1605.324219 746.667969 1601.015625 749.492188 1597.046875 752.785156 C 1595.042969 754.453125 1593.175781 756.25 1591.574219 758.316406 C 1588.175781 762.695312 1586.6875 767.734375 1586.511719 773.203125 C 1586.359375 778.109375 1587.011719 782.9375 1588.011719 787.726562 C 1589.648438 795.585938 1592.007812 803.261719 1594.089844 810.996094 C 1595.730469 817.066406 1597.253906 823.167969 1598.121094 829.410156 C 1599.011719 835.808594 1599.289062 842.21875 1597.859375 848.59375 C 1596.707031 853.722656 1594.53125 858.34375 1590.734375 862.058594 C 1586.355469 866.328125 1580.984375 868.316406 1574.980469 868.765625 C 1568.585938 869.242188 1562.480469 867.882812 1556.507812 865.757812 C 1549.160156 863.148438 1542.402344 859.386719 1535.820312 855.269531 C 1529.25 851.152344 1522.953125 846.636719 1516.46875 842.398438 C 1512.539062 839.820312 1508.566406 837.324219 1504.371094 835.203125 C 1500.773438 833.382812 1497.078125 831.878906 1493.058594 831.292969 C 1488.828125 830.671875 1484.808594 831.296875 1480.980469 833.210938 C 1477.5625 834.921875 1474.644531 837.3125 1471.875 839.917969 C 1469.046875 842.570312 1466.433594 845.4375 1463.800781 848.28125 C 1460.203125 852.15625 1456.632812 856.058594 1452.671875 859.585938 C 1449.007812 862.839844 1445.097656 865.730469 1440.621094 867.78125 C 1431.738281 871.859375 1422.9375 871.464844 1414.261719 867.152344 C 1407.765625 863.917969 1402.589844 859.082031 1398.136719 853.441406 C 1393.234375 847.242188 1389.511719 840.371094 1386.910156 832.90625 C 1385.945312 830.144531 1385.519531 827.238281 1385.175781 824.347656 C 1384.3125 816.988281 1382.417969 809.945312 1378.765625 803.445312 C 1376.089844 798.683594 1372.253906 795.023438 1367.722656 792.082031 C 1362.371094 788.609375 1356.851562 785.402344 1351.753906 781.554688 C 1337.066406 770.457031 1325.84375 756.667969 1319.203125 739.351562 C 1316.207031 731.53125 1314.410156 723.46875 1314.085938 715.089844 Z M 1320.660156 714.863281 C 1320.984375 724.3125 1323.398438 733.238281 1327.3125 741.777344 C 1334.144531 756.710938 1344.675781 768.53125 1357.988281 777.964844 C 1362.011719 780.816406 1366.273438 783.285156 1370.457031 785.882812 C 1374.226562 788.230469 1377.769531 790.871094 1380.640625 794.300781 C 1387.804688 802.859375 1391.730469 812.730469 1392.445312 823.867188 C 1392.644531 827.027344 1393.222656 830.113281 1394.253906 833.097656 C 1396.285156 838.96875 1399.28125 844.316406 1403.117188 849.195312 C 1406.515625 853.535156 1410.417969 857.339844 1415.179688 860.1875 C 1418.828125 862.367188 1422.75 863.769531 1427.03125 863.996094 C 1432.226562 864.269531 1436.910156 862.6875 1441.273438 860 C 1445.621094 857.328125 1449.335938 853.910156 1452.886719 850.285156 C 1457.257812 845.828125 1461.339844 841.078125 1465.785156 836.691406 C 1468.550781 833.964844 1471.429688 831.382812 1474.695312 829.261719 C 1481.269531 824.996094 1488.359375 823.453125 1496.09375 825.171875 C 1500.3125 826.105469 1504.25 827.757812 1508.0625 829.742188 C 1513.933594 832.796875 1519.4375 836.457031 1524.910156 840.160156 C 1531.367188 844.527344 1537.761719 848.988281 1544.53125 852.878906 C 1550.316406 856.207031 1556.292969 859.101562 1562.757812 860.878906 C 1567.507812 862.183594 1572.3125 862.796875 1577.214844 861.878906 C 1581 861.167969 1584.285156 859.527344 1586.882812 856.628906 C 1589.128906 854.132812 1590.484375 851.167969 1591.292969 847.941406 C 1592.761719 842.035156 1592.449219 836.082031 1591.605469 830.132812 C 1590.730469 823.945312 1589.179688 817.890625 1587.542969 811.859375 C 1585.292969 803.597656 1582.769531 795.40625 1581.191406 786.972656 C 1580.175781 781.523438 1579.585938 776.054688 1580.136719 770.507812 C 1580.757812 764.226562 1582.917969 758.5625 1586.9375 753.648438 C 1589.589844 750.40625 1592.753906 747.738281 1596.070312 745.234375 C 1600.699219 741.75 1605.574219 738.625 1610.171875 735.101562 C 1615.191406 731.25 1619.792969 726.996094 1623.398438 721.746094 C 1629.359375 713.074219 1631.832031 703.5 1630.222656 693.070312 C 1628.640625 682.824219 1623.398438 674.730469 1614.960938 668.738281 C 1609.304688 664.726562 1602.921875 662.332031 1596.257812 660.621094 C 1588.964844 658.746094 1581.492188 657.859375 1574.066406 656.753906 C 1568.382812 655.90625 1562.734375 654.929688 1557.261719 653.109375 C 1548.886719 650.332031 1542.144531 645.40625 1537.148438 638.097656 C 1534.90625 634.8125 1533 631.339844 1531.222656 627.796875 C 1528.773438 622.90625 1526.480469 617.945312 1523.824219 613.15625 C 1520.476562 607.105469 1516.667969 601.402344 1511.960938 596.320312 C 1504.953125 588.773438 1496.585938 583.523438 1486.515625 581.148438 C 1480.726562 579.785156 1474.894531 579.511719 1469.03125 580.664062 C 1462.769531 581.902344 1457.257812 584.707031 1452.257812 588.597656 C 1446.621094 592.980469 1442.101562 598.386719 1438.058594 604.226562 C 1433.933594 610.195312 1430.371094 616.511719 1426.667969 622.746094 C 1423 628.898438 1419.210938 634.964844 1414.480469 640.386719 C 1409.835938 645.707031 1404.4375 650.035156 1398.019531 653.042969 C 1392.621094 655.578125 1386.921875 657.132812 1381.117188 658.367188 C 1374.964844 659.671875 1368.753906 660.628906 1362.632812 662.070312 C 1356.132812 663.609375 1349.832031 665.671875 1344.035156 669.074219 C 1335.082031 674.320312 1328.59375 681.75 1324.628906 691.34375 C 1321.511719 698.886719 1320.351562 706.761719 1320.691406 714.878906 Z M 1320.660156 714.863281 " fill-opacity="1" fill-rule="nonzero"/></g></g></g><g clip-path="url(#ff2f40cec4)"><g clip-path="url(#b10f7b1cb6)"><g clip-path="url(#a0f4e366f9)"><path fill="#0c5f52" d="M 1193.648438 923.234375 C 1193.296875 920.648438 1193.164062 917.335938 1193.011719 914.039062 C 1192.660156 906.585938 1192.765625 899.144531 1193.378906 891.699219 C 1194.207031 881.570312 1195.941406 871.609375 1198.707031 861.839844 C 1201.359375 852.46875 1204.902344 843.441406 1209.355469 834.761719 C 1213.039062 827.582031 1217.25 820.726562 1221.984375 814.179688 C 1225.152344 809.804688 1228.519531 805.605469 1232.132812 801.601562 C 1236.652344 796.585938 1241.476562 791.878906 1246.609375 787.480469 C 1252.710938 782.253906 1259.15625 777.488281 1265.957031 773.21875 C 1274.816406 767.65625 1284.117188 762.953125 1293.878906 759.164062 C 1299.296875 757.0625 1304.816406 755.253906 1310.425781 753.757812 C 1313.496094 752.9375 1316.601562 752.269531 1319.726562 751.652344 C 1324.058594 750.792969 1328.425781 750.101562 1332.8125 749.6875 C 1337.539062 749.242188 1342.28125 749.046875 1347.042969 749.085938 C 1356.589844 749.175781 1365.984375 750.324219 1375.246094 752.574219 C 1384.273438 754.765625 1392.933594 757.96875 1401.222656 762.152344 C 1407.910156 765.527344 1414.210938 769.503906 1420.207031 773.992188 C 1427.339844 779.335938 1433.734375 785.441406 1439.5625 792.160156 C 1444.328125 797.65625 1448.519531 803.566406 1452.257812 809.800781 C 1456.363281 816.652344 1459.796875 823.832031 1462.6875 831.277344 C 1464.863281 836.898438 1466.683594 842.625 1468.203125 848.445312 C 1469.035156 851.636719 1469.71875 854.875 1470.34375 858.125 C 1470.949219 861.289062 1471.410156 864.476562 1471.859375 867.664062 C 1472.109375 869.46875 1472.414062 871.277344 1472.523438 873.089844 C 1472.792969 877.785156 1473.101562 882.472656 1473.09375 887.179688 C 1473.078125 894.742188 1472.457031 902.246094 1471.3125 909.707031 C 1470.179688 917.089844 1468.480469 924.355469 1466.269531 931.492188 C 1463.3125 941.046875 1459.453125 950.21875 1454.648438 958.992188 C 1451.855469 964.09375 1448.761719 969.007812 1445.417969 973.769531 C 1442.636719 977.730469 1439.648438 981.539062 1436.472656 985.199219 C 1429.691406 993.003906 1422.160156 1000.027344 1413.875 1006.230469 C 1409.695312 1009.359375 1405.410156 1012.34375 1400.953125 1015.074219 C 1389.519531 1022.089844 1377.464844 1027.773438 1364.726562 1032.003906 C 1359.371094 1033.777344 1353.953125 1035.3125 1348.464844 1036.625 C 1345.625 1037.300781 1342.753906 1037.878906 1339.875 1038.394531 C 1336.367188 1039.027344 1332.824219 1039.457031 1329.308594 1040.03125 C 1324.847656 1040.757812 1320.359375 1041.007812 1315.875 1041.238281 C 1306.210938 1041.734375 1296.5625 1041.414062 1286.957031 1040.042969 C 1278.226562 1038.800781 1269.707031 1036.753906 1261.46875 1033.617188 C 1254.425781 1030.941406 1247.71875 1027.570312 1241.398438 1023.46875 C 1236.117188 1020.035156 1231.191406 1016.136719 1226.894531 1011.511719 C 1224.320312 1008.742188 1222.121094 1005.667969 1219.996094 1002.542969 C 1217.753906 999.25 1215.570312 995.910156 1213.382812 992.578125 C 1210.421875 988.082031 1208.4375 983.125 1206.710938 978.058594 C 1205.566406 974.695312 1204.386719 971.332031 1203.242188 967.964844 C 1202.3125 965.230469 1201.757812 962.402344 1200.941406 959.636719 C 1199.578125 955.046875 1198.316406 950.429688 1197.296875 945.753906 C 1196.546875 942.359375 1195.882812 938.953125 1195.34375 935.515625 C 1194.742188 931.660156 1194.140625 927.808594 1193.65625 923.226562 Z M 1200.027344 923.378906 C 1200.347656 926.496094 1200.625 929.625 1201.128906 932.726562 C 1201.792969 936.828125 1202.566406 940.902344 1203.449219 944.957031 C 1204.613281 950.347656 1206.136719 955.632812 1207.828125 960.875 C 1210.253906 968.375 1213.1875 975.691406 1216.5 982.855469 C 1219.441406 989.222656 1222.890625 995.308594 1226.636719 1001.214844 C 1230.339844 1007.054688 1235.382812 1011.644531 1240.957031 1015.695312 C 1247.484375 1020.449219 1254.550781 1024.175781 1261.996094 1027.230469 C 1269.578125 1030.332031 1277.464844 1032.324219 1285.523438 1033.648438 C 1290.085938 1034.398438 1294.683594 1034.859375 1299.292969 1035.089844 C 1302.382812 1035.242188 1305.472656 1035.324219 1308.574219 1035.285156 C 1311.878906 1035.238281 1315.191406 1035.222656 1318.488281 1034.9375 C 1323.691406 1034.488281 1328.890625 1034.015625 1334.054688 1033.171875 C 1336.859375 1032.714844 1339.664062 1032.234375 1342.445312 1031.671875 C 1346.46875 1030.84375 1350.453125 1029.851562 1354.417969 1028.75 C 1361.910156 1026.679688 1369.222656 1024.125 1376.351562 1021.035156 C 1387.804688 1016.074219 1398.558594 1009.875 1408.628906 1002.515625 C 1418.097656 995.59375 1426.554688 987.597656 1434.058594 978.597656 C 1436.039062 976.214844 1437.875 973.71875 1439.707031 971.222656 C 1443.046875 966.667969 1446.039062 961.886719 1448.785156 956.957031 C 1453.066406 949.265625 1456.585938 941.238281 1459.378906 932.886719 C 1461.980469 925.109375 1463.933594 917.171875 1465.199219 909.074219 C 1466.140625 903.042969 1466.726562 896.984375 1466.882812 890.867188 C 1466.988281 886.632812 1466.988281 882.394531 1466.703125 878.167969 C 1466.234375 871.140625 1465.371094 864.164062 1463.90625 857.257812 C 1462.96875 852.824219 1461.921875 848.414062 1460.601562 844.082031 C 1458.265625 836.414062 1455.371094 828.953125 1451.796875 821.761719 C 1447.757812 813.640625 1442.933594 806.027344 1437.242188 798.964844 C 1429.976562 789.953125 1421.527344 782.210938 1411.996094 775.652344 C 1405.578125 771.230469 1398.785156 767.5 1391.609375 764.464844 C 1382.386719 760.5625 1372.816406 757.855469 1362.882812 756.445312 C 1358.222656 755.78125 1353.542969 755.421875 1348.835938 755.285156 C 1345.316406 755.191406 1341.792969 755.203125 1338.289062 755.457031 C 1331.683594 755.921875 1325.117188 756.730469 1318.632812 758.152344 C 1314.90625 758.972656 1311.195312 759.859375 1307.550781 760.960938 C 1299.503906 763.394531 1291.695312 766.449219 1284.128906 770.148438 C 1273.75 775.21875 1264.042969 781.335938 1255.011719 788.519531 C 1244.691406 796.726562 1235.597656 806.117188 1227.757812 816.71875 C 1223.488281 822.496094 1219.640625 828.535156 1216.238281 834.855469 C 1211.875 842.988281 1208.324219 851.460938 1205.601562 860.285156 C 1202.417969 870.574219 1200.417969 881.082031 1199.550781 891.808594 C 1199.210938 895.988281 1199.039062 900.175781 1199 904.367188 C 1198.960938 908.140625 1199.097656 911.910156 1199.269531 915.667969 C 1199.390625 918.25 1199.769531 920.820312 1200.035156 923.390625 Z M 1200.027344 923.378906 " fill-opacity="1" fill-rule="nonzero"/></g></g></g><path fill="#00bf63" d="M 70.914062 -162.25 C 79.738281 -162.25 88.207031 -160.59375 96.164062 -156.710938 C 108.222656 -150.824219 116.382812 -141.402344 121.074219 -128.90625 C 123.171875 -123.320312 124.378906 -117.515625 125.34375 -111.660156 C 126.355469 -105.5625 127.035156 -99.402344 128.414062 -93.359375 C 129.785156 -87.34375 131.957031 -81.683594 135.652344 -76.6875 C 138.8125 -72.417969 142.722656 -68.914062 146.945312 -65.742188 C 151.289062 -62.46875 155.882812 -59.582031 160.445312 -56.644531 C 165.753906 -53.222656 171.070312 -49.800781 175.996094 -45.820312 C 181.878906 -41.070312 187.105469 -35.726562 191 -29.183594 C 196.351562 -20.167969 198.082031 -10.492188 196.234375 -0.179688 C 194.113281 11.660156 188.351562 21.453125 179.480469 29.488281 C 174.578125 33.933594 169.089844 37.523438 163.265625 40.621094 C 157.683594 43.589844 151.847656 46.015625 146.101562 48.632812 C 143.046875 50.019531 140.082031 51.566406 137.269531 53.402344 C 131.941406 56.894531 128.21875 61.640625 125.902344 67.542969 C 124.363281 71.464844 123.390625 75.542969 122.554688 79.65625 C 121.324219 85.71875 120.410156 91.84375 118.992188 97.875 C 117.441406 104.5 115.378906 110.953125 112.070312 116.9375 C 107.726562 124.792969 101.730469 130.972656 93.5625 134.882812 C 87.074219 137.988281 80.234375 139.261719 73.054688 138.699219 C 62.132812 137.839844 52.960938 133.257812 45.171875 125.710938 C 40.789062 121.460938 37.246094 116.546875 33.917969 111.464844 C 31.292969 107.457031 28.820312 103.347656 25.902344 99.539062 C 24.421875 97.617188 22.816406 95.816406 20.953125 94.257812 C 17 90.941406 12.371094 89.378906 7.292969 89.027344 C 2.738281 88.710938 -1.769531 89.148438 -6.257812 89.90625 C -13.621094 91.152344 -20.835938 93.074219 -28.101562 94.738281 C -33.804688 96.050781 -39.527344 97.25 -45.355469 97.835938 C -51.339844 98.441406 -57.304688 98.46875 -63.179688 96.917969 C -67.910156 95.667969 -72.125 93.480469 -75.441406 89.816406 C -79.257812 85.597656 -80.917969 80.53125 -81.121094 74.929688 C -81.339844 68.96875 -79.863281 63.339844 -77.675781 57.859375 C -74.992188 51.121094 -71.257812 44.96875 -67.199219 38.992188 C -63.140625 33.03125 -58.722656 27.332031 -54.550781 21.453125 C -52.015625 17.886719 -49.558594 14.285156 -47.4375 10.457031 C -45.621094 7.175781 -44.089844 3.792969 -43.402344 0.0742188 C -42.679688 -3.835938 -43.117188 -7.597656 -44.761719 -11.222656 C -46.230469 -14.464844 -48.351562 -17.261719 -50.675781 -19.929688 C -53.042969 -22.648438 -55.613281 -25.183594 -58.164062 -27.730469 C -61.640625 -31.210938 -65.140625 -34.671875 -68.277344 -38.476562 C -71.175781 -42 -73.722656 -45.738281 -75.472656 -49.972656 C -78.949219 -58.378906 -78.269531 -66.546875 -73.957031 -74.460938 C -70.722656 -80.386719 -66.046875 -85.03125 -60.644531 -88.972656 C -54.710938 -93.3125 -48.191406 -96.53125 -41.164062 -98.6875 C -38.5625 -99.488281 -35.847656 -99.78125 -33.148438 -100 C -26.277344 -100.542969 -19.660156 -102.058594 -13.492188 -105.222656 C -8.972656 -107.542969 -5.4375 -110.980469 -2.539062 -115.089844 C 0.875 -119.945312 4.050781 -124.964844 7.808594 -129.570312 C 18.636719 -142.835938 31.851562 -152.785156 48.179688 -158.347656 C 55.554688 -160.855469 63.113281 -162.242188 70.914062 -162.25 Z M 70.890625 -156.132812 C 62.09375 -156.160156 53.714844 -154.230469 45.636719 -150.890625 C 31.519531 -145.066406 20.160156 -135.6875 10.921875 -123.644531 C 8.132812 -120.003906 5.6875 -116.128906 3.125 -112.332031 C 0.808594 -108.910156 -1.769531 -105.707031 -5.058594 -103.15625 C -13.265625 -96.796875 -22.582031 -93.496094 -32.957031 -93.222656 C -35.898438 -93.148438 -38.789062 -92.71875 -41.601562 -91.867188 C -47.128906 -90.183594 -52.207031 -87.585938 -56.875 -84.191406 C -61.03125 -81.1875 -64.703125 -77.6875 -67.515625 -73.363281 C -69.671875 -70.046875 -71.113281 -66.449219 -71.476562 -62.476562 C -71.914062 -57.652344 -70.609375 -53.242188 -68.261719 -49.089844 C -65.933594 -44.953125 -62.886719 -41.378906 -59.640625 -37.949219 C -55.652344 -33.730469 -51.382812 -29.765625 -47.460938 -25.476562 C -45.027344 -22.808594 -42.726562 -20.042969 -40.871094 -16.929688 C -37.136719 -10.664062 -35.953125 -4.015625 -37.824219 3.113281 C -38.839844 7.003906 -40.515625 10.605469 -42.492188 14.082031 C -45.539062 19.433594 -49.136719 24.421875 -52.769531 29.382812 C -57.054688 35.230469 -61.429688 41.019531 -65.285156 47.179688 C -68.578125 52.4375 -71.484375 57.894531 -73.359375 63.84375 C -74.742188 68.214844 -75.480469 72.664062 -74.800781 77.253906 C -74.273438 80.796875 -72.863281 83.910156 -70.261719 86.425781 C -68.023438 88.605469 -65.3125 89.96875 -62.34375 90.835938 C -56.90625 92.410156 -51.359375 92.328125 -45.800781 91.753906 C -40.015625 91.160156 -34.339844 89.929688 -28.675781 88.621094 C -20.914062 86.816406 -13.210938 84.761719 -5.316406 83.589844 C -0.21875 82.839844 4.886719 82.484375 10.023438 83.191406 C 15.839844 83.992188 21.027344 86.199219 25.457031 90.113281 C 28.375 92.6875 30.742188 95.726562 32.953125 98.898438 C 36.03125 103.324219 38.761719 107.96875 41.875 112.371094 C 45.277344 117.171875 49.070312 121.601562 53.820312 125.136719 C 61.671875 130.988281 70.480469 133.625 80.234375 132.496094 C 89.8125 131.386719 97.519531 126.796875 103.390625 119.160156 C 107.316406 114.042969 109.769531 108.195312 111.59375 102.058594 C 113.59375 95.34375 114.679688 88.421875 115.96875 81.554688 C 116.957031 76.304688 118.066406 71.085938 119.953125 66.058594 C 122.824219 58.371094 127.644531 52.273438 134.613281 47.886719 C 137.742188 45.917969 141.039062 44.269531 144.394531 42.738281 C 149.027344 40.636719 153.71875 38.675781 158.265625 36.375 C 164.003906 33.476562 169.441406 30.136719 174.332031 25.9375 C 181.59375 19.6875 186.765625 12.089844 189.332031 2.8125 C 190.800781 -2.523438 191.261719 -7.9375 190.394531 -13.429688 C 189.46875 -19.296875 187.054688 -24.519531 183.613281 -29.304688 C 179.738281 -34.703125 174.875 -39.097656 169.585938 -43.0625 C 164.1875 -47.109375 158.4375 -50.644531 152.773438 -54.308594 C 147.1875 -57.933594 141.679688 -61.671875 136.808594 -66.261719 C 132.027344 -70.769531 128.195312 -75.941406 125.621094 -82.015625 C 123.457031 -87.125 122.214844 -92.476562 121.269531 -97.917969 C 120.277344 -103.683594 119.605469 -109.496094 118.480469 -115.238281 C 117.28125 -121.335938 115.585938 -127.269531 112.628906 -132.78125 C 108.066406 -141.289062 101.390625 -147.582031 92.609375 -151.609375 C 85.710938 -154.773438 78.433594 -156.132812 70.875 -156.101562 Z M 70.890625 -156.132812 " fill-opacity="1" fill-rule="nonzero"/><g clip-path="url(#c28409a3b7)"><g clip-path="url(#2648af99bf)"><g clip-path="url(#6a83e28a4c)"><path fill="#0c5f52" d="M 36.375 16.160156 C 44.917969 19.460938 53.273438 23.941406 61.046875 29.496094 C 70.914062 36.546875 78.945312 45.324219 85.417969 55.558594 C 87.808594 59.34375 89.960938 63.261719 91.730469 67.375 C 94.105469 72.878906 95.234375 78.636719 95.167969 84.628906 C 95.128906 88.324219 94.972656 92.011719 94.230469 95.648438 C 93.746094 98.023438 93.101562 100.355469 92.398438 102.667969 C 91.789062 104.667969 91.1875 106.675781 90.496094 108.65625 C 89.597656 111.226562 88.191406 113.542969 86.605469 115.753906 C 83.933594 119.476562 80.691406 122.667969 77.429688 125.84375 C 72.800781 130.34375 67.769531 134.371094 62.832031 138.507812 C 57.605469 142.894531 52.5 147.398438 48.195312 152.726562 C 45.324219 156.28125 42.867188 160.089844 40.871094 164.21875 C 37.941406 170.285156 36.46875 176.730469 35.667969 183.367188 C 34.863281 190.058594 34.71875 196.785156 34.550781 203.511719 C 34.359375 211.269531 34.167969 219.023438 33.003906 226.714844 C 32.257812 231.667969 31.191406 236.542969 29.4375 241.273438 C 27.332031 246.957031 24.53125 252.191406 20.292969 256.578125 C 15.488281 261.554688 9.636719 264.585938 2.839844 265.753906 C -2.699219 266.710938 -8.179688 266.25 -13.621094 264.933594 C -20.847656 263.183594 -27.351562 259.875 -33.472656 255.734375 C -39.300781 251.789062 -44.476562 247.078125 -49.453125 242.132812 C -53.753906 237.859375 -57.898438 233.417969 -62.316406 229.265625 C -67.707031 224.195312 -73.457031 219.613281 -79.929688 215.976562 C -83.148438 214.171875 -86.453125 212.542969 -89.839844 211.074219 C -92.4375 209.945312 -95.019531 208.796875 -97.679688 207.828125 C -102.457031 206.082031 -107.238281 204.359375 -112.019531 202.625 C -117.304688 200.703125 -122.492188 198.5625 -127.582031 196.179688 C -131.148438 194.511719 -134.632812 192.699219 -138.039062 190.726562 C -145.027344 186.675781 -151.445312 181.890625 -156.917969 175.914062 C -160.511719 171.992188 -163.582031 167.683594 -165.773438 162.816406 C -168.492188 156.78125 -169.710938 150.488281 -168.617188 143.863281 C -168.09375 140.679688 -167.058594 137.664062 -165.617188 134.78125 C -162.703125 128.941406 -158.527344 124.0625 -154.046875 119.40625 C -150 115.207031 -145.675781 111.292969 -141.484375 107.253906 C -136.460938 102.414062 -131.535156 97.476562 -127.117188 92.058594 C -123.222656 87.277344 -119.816406 82.160156 -116.730469 76.832031 C -113.769531 71.714844 -111.070312 66.464844 -108.253906 61.277344 C -104.75 54.820312 -101.054688 48.480469 -96.570312 42.632812 C -89.878906 33.90625 -81.957031 26.566406 -72.476562 20.941406 C -64.394531 16.152344 -55.746094 12.789062 -46.660156 10.515625 C -31.867188 6.816406 -16.882812 5.960938 -1.734375 7.386719 C 4.429688 7.972656 10.546875 8.863281 16.59375 10.1875 C 20.710938 11.097656 24.785156 12.183594 28.808594 13.476562 C 31.234375 14.253906 33.605469 15.152344 36.363281 16.171875 Z M -95.484375 202.328125 C -89.4375 204.652344 -83.910156 207.042969 -78.605469 209.910156 C -73.726562 212.550781 -69.164062 215.652344 -64.855469 219.140625 C -58.636719 224.1875 -53.117188 229.976562 -47.511719 235.667969 C -42.996094 240.253906 -38.378906 244.734375 -33.214844 248.605469 C -27.738281 252.710938 -21.898438 256.117188 -15.355469 258.25 C -11.785156 259.410156 -8.148438 260.167969 -4.402344 260.292969 C 4.910156 260.597656 12.601562 257.28125 18.320312 249.792969 C 21.835938 245.1875 23.957031 239.894531 25.433594 234.347656 C 26.9375 228.703125 27.664062 222.925781 28.074219 217.101562 C 28.421875 212.148438 28.519531 207.1875 28.652344 202.222656 C 28.828125 195.539062 29.027344 188.851562 29.828125 182.203125 C 30.726562 174.730469 32.570312 167.546875 35.945312 160.773438 C 38.578125 155.476562 41.972656 150.722656 45.878906 146.3125 C 50.273438 141.34375 55.296875 137.0625 60.382812 132.832031 C 65.773438 128.347656 71.183594 123.871094 76.09375 118.835938 C 79.421875 115.421875 82.128906 111.589844 84.042969 107.222656 C 85.460938 103.988281 86.847656 100.734375 87.691406 97.289062 C 88.285156 94.859375 88.90625 92.414062 88.960938 89.90625 C 89.070312 84.90625 89.191406 79.914062 87.96875 74.976562 C 87.453125 72.890625 86.851562 70.863281 85.964844 68.921875 C 83.53125 63.609375 80.574219 58.601562 77.148438 53.871094 C 73.210938 48.4375 68.769531 43.460938 63.675781 39.085938 C 59.347656 35.367188 54.679688 32.128906 49.761719 29.230469 C 45.90625 26.964844 41.925781 24.941406 37.847656 23.132812 C 32.332031 20.691406 26.601562 18.800781 20.769531 17.257812 C 15.425781 15.835938 10 14.785156 4.519531 14.039062 C -7.230469 12.433594 -18.988281 12.097656 -30.78125 13.566406 C -39.074219 14.597656 -47.1875 16.363281 -55.042969 19.25 C -61.464844 21.609375 -67.570312 24.578125 -73.242188 28.417969 C -82.851562 34.914062 -90.421875 43.34375 -96.628906 53.0625 C -100.101562 58.492188 -103.097656 64.199219 -106.117188 69.882812 C -108.660156 74.664062 -111.246094 79.421875 -114.101562 84.019531 C -118.980469 91.859375 -124.789062 98.949219 -131.269531 105.507812 C -136.089844 110.386719 -141.132812 115.027344 -146.058594 119.789062 C -149.542969 123.15625 -152.925781 126.625 -155.878906 130.476562 C -158.5625 133.976562 -160.851562 137.691406 -162.089844 141.992188 C -162.882812 144.75 -163.21875 147.535156 -163.011719 150.382812 C -162.648438 155.320312 -160.9375 159.816406 -158.429688 164.027344 C -155.449219 169.050781 -151.574219 173.316406 -147.15625 177.097656 C -139.574219 183.578125 -130.898438 188.253906 -121.847656 192.261719 C -117.832031 194.039062 -113.707031 195.542969 -109.609375 197.117188 C -104.785156 198.96875 -99.855469 200.53125 -95.488281 202.316406 Z M -95.484375 202.328125 " fill-opacity="1" fill-rule="nonzero"/></g></g></g></svg>