<svg xmlns="http://www.w3.org/2000/svg" xmlns:xlink="http://www.w3.org/1999/xlink" width="1920" zoomAndPan="magnify" viewBox="0 0 1440 809.999993" height="1080" preserveAspectRatio="xMidYMid meet" version="1.0"><defs><clipPath id="6bbb8eb25b"><path d="M 1308 0 L 1440 0 L 1440 145 L 1308 145 Z M 1308 0 " clip-rule="nonzero"/></clipPath><clipPath id="a2035c234c"><path d="M 1303.261719 -25.566406 L 1537.5625 -55.855469 L 1561.410156 128.609375 L 1327.109375 158.898438 Z M 1303.261719 -25.566406 " clip-rule="nonzero"/></clipPath><clipPath id="dd072830e6"><path d="M 1303.261719 -25.566406 L 1537.5625 -55.855469 L 1561.410156 128.609375 L 1327.109375 158.898438 Z M 1303.261719 -25.566406 " clip-rule="nonzero"/></clipPath><clipPath id="a6826a05f3"><path d="M 1487.835938 -22.78125 C 1485.847656 -22.523438 1483.976562 -22.179688 1482.117188 -21.738281 C 1468.621094 -18.378906 1454.359375 -20.167969 1442.519531 -27.417969 C 1433.980469 -32.574219 1423.664062 -35.074219 1412.941406 -33.6875 C 1406.390625 -32.84375 1400.214844 -30.628906 1394.890625 -27.316406 C 1388.90625 -23.617188 1381.371094 -23.347656 1375.113281 -26.476562 C 1366.476562 -30.8125 1356.476562 -32.445312 1346.226562 -30.515625 C 1323.175781 -26.121094 1306.070312 -4.628906 1309.074219 18.601562 C 1312.5625 45.605469 1331.441406 54.976562 1345.386719 58.21875 C 1353.8125 60.160156 1359.753906 67.871094 1359.667969 76.5625 C 1359.628906 82.523438 1359.84375 88.855469 1360.769531 93.679688 C 1366.625 124.921875 1395.523438 147.027344 1427.300781 144.53125 C 1454.882812 142.378906 1476.394531 122.945312 1483.082031 98.15625 C 1485.402344 89.578125 1492.777344 83.375 1501.625 82.332031 C 1501.726562 82.320312 1501.726562 82.320312 1501.824219 82.308594 C 1530.914062 78.546875 1551.402344 51.976562 1547.539062 22.898438 C 1543.605469 -5.964844 1516.710938 -26.613281 1487.835938 -22.78125 Z M 1487.835938 -22.78125 " clip-rule="nonzero"/></clipPath><linearGradient x1="-19.424076" gradientTransform="matrix(0.992794, -0.12835, 0.128353, 0.992814, 1303.438105, -24.9832)" y1="91.945" x2="132.091977" gradientUnits="userSpaceOnUse" y2="91.945" id="35e12f05b0"><stop stop-opacity="1" stop-color="rgb(0%, 74.899292%, 38.798523%)" offset="0"/><stop stop-opacity="1" stop-color="rgb(0%, 74.899292%, 38.798523%)" offset="0.125"/><stop stop-opacity="1" stop-color="rgb(0.111389%, 74.935913%, 38.807678%)" offset="0.132813"/><stop stop-opacity="1" stop-color="rgb(0.413513%, 75.036621%, 38.830566%)" offset="0.140625"/><stop stop-opacity="1" stop-color="rgb(0.793457%, 75.161743%, 38.861084%)" offset="0.148438"/><stop stop-opacity="1" stop-color="rgb(1.174927%, 75.288391%, 38.890076%)" offset="0.15625"/><stop stop-opacity="1" stop-color="rgb(1.554871%, 75.415039%, 38.920593%)" offset="0.164062"/><stop stop-opacity="1" stop-color="rgb(1.934814%, 75.540161%, 38.949585%)" offset="0.171875"/><stop stop-opacity="1" stop-color="rgb(2.314758%, 75.666809%, 38.980103%)" offset="0.179688"/><stop stop-opacity="1" stop-color="rgb(2.696228%, 75.793457%, 39.009094%)" offset="0.1875"/><stop stop-opacity="1" stop-color="rgb(3.076172%, 75.918579%, 39.038086%)" offset="0.195312"/><stop stop-opacity="1" stop-color="rgb(3.456116%, 76.045227%, 39.068604%)" offset="0.203125"/><stop stop-opacity="1" stop-color="rgb(3.837585%, 76.171875%, 39.097595%)" offset="0.210938"/><stop stop-opacity="1" stop-color="rgb(4.217529%, 76.296997%, 39.128113%)" offset="0.21875"/><stop stop-opacity="1" stop-color="rgb(4.597473%, 76.423645%, 39.157104%)" offset="0.226563"/><stop stop-opacity="1" stop-color="rgb(4.977417%, 76.550293%, 39.187622%)" offset="0.234375"/><stop stop-opacity="1" stop-color="rgb(5.358887%, 76.675415%, 39.216614%)" offset="0.242188"/><stop stop-opacity="1" stop-color="rgb(5.738831%, 76.802063%, 39.245605%)" offset="0.25"/><stop stop-opacity="1" stop-color="rgb(6.118774%, 76.928711%, 39.276123%)" offset="0.257813"/><stop stop-opacity="1" stop-color="rgb(6.500244%, 77.053833%, 39.305115%)" offset="0.265625"/><stop stop-opacity="1" stop-color="rgb(6.880188%, 77.180481%, 39.335632%)" offset="0.273438"/><stop stop-opacity="1" stop-color="rgb(7.260132%, 77.307129%, 39.364624%)" offset="0.28125"/><stop stop-opacity="1" stop-color="rgb(7.640076%, 77.432251%, 39.395142%)" offset="0.289062"/><stop stop-opacity="1" stop-color="rgb(8.021545%, 77.558899%, 39.424133%)" offset="0.296875"/><stop stop-opacity="1" stop-color="rgb(8.401489%, 77.685547%, 39.453125%)" offset="0.304688"/><stop stop-opacity="1" stop-color="rgb(8.781433%, 77.810669%, 39.483643%)" offset="0.3125"/><stop stop-opacity="1" stop-color="rgb(9.162903%, 77.937317%, 39.512634%)" offset="0.320312"/><stop stop-opacity="1" stop-color="rgb(9.542847%, 78.063965%, 39.543152%)" offset="0.328125"/><stop stop-opacity="1" stop-color="rgb(9.922791%, 78.189087%, 39.572144%)" offset="0.335938"/><stop stop-opacity="1" stop-color="rgb(10.302734%, 78.315735%, 39.602661%)" offset="0.34375"/><stop stop-opacity="1" stop-color="rgb(10.684204%, 78.440857%, 39.631653%)" offset="0.351562"/><stop stop-opacity="1" stop-color="rgb(11.064148%, 78.567505%, 39.660645%)" offset="0.359375"/><stop stop-opacity="1" stop-color="rgb(11.444092%, 78.694153%, 39.691162%)" offset="0.367188"/><stop stop-opacity="1" stop-color="rgb(11.825562%, 78.819275%, 39.720154%)" offset="0.375"/><stop stop-opacity="1" stop-color="rgb(12.205505%, 78.945923%, 39.750671%)" offset="0.382812"/><stop stop-opacity="1" stop-color="rgb(12.585449%, 79.072571%, 39.779663%)" offset="0.390625"/><stop stop-opacity="1" stop-color="rgb(12.965393%, 79.197693%, 39.810181%)" offset="0.398438"/><stop stop-opacity="1" stop-color="rgb(13.346863%, 79.324341%, 39.839172%)" offset="0.40625"/><stop stop-opacity="1" stop-color="rgb(13.726807%, 79.450989%, 39.868164%)" offset="0.414063"/><stop stop-opacity="1" stop-color="rgb(14.10675%, 79.576111%, 39.898682%)" offset="0.421875"/><stop stop-opacity="1" stop-color="rgb(14.48822%, 79.702759%, 39.927673%)" offset="0.429688"/><stop stop-opacity="1" stop-color="rgb(14.868164%, 79.829407%, 39.958191%)" offset="0.4375"/><stop stop-opacity="1" stop-color="rgb(15.248108%, 79.954529%, 39.987183%)" offset="0.445312"/><stop stop-opacity="1" stop-color="rgb(15.628052%, 80.081177%, 40.0177%)" offset="0.453125"/><stop stop-opacity="1" stop-color="rgb(16.009521%, 80.207825%, 40.046692%)" offset="0.460938"/><stop stop-opacity="1" stop-color="rgb(16.389465%, 80.332947%, 40.075684%)" offset="0.46875"/><stop stop-opacity="1" stop-color="rgb(16.769409%, 80.459595%, 40.106201%)" offset="0.476562"/><stop stop-opacity="1" stop-color="rgb(17.150879%, 80.586243%, 40.135193%)" offset="0.484375"/><stop stop-opacity="1" stop-color="rgb(17.530823%, 80.711365%, 40.16571%)" offset="0.492188"/><stop stop-opacity="1" stop-color="rgb(17.910767%, 80.838013%, 40.194702%)" offset="0.5"/><stop stop-opacity="1" stop-color="rgb(18.29071%, 80.964661%, 40.22522%)" offset="0.507813"/><stop stop-opacity="1" stop-color="rgb(18.67218%, 81.089783%, 40.254211%)" offset="0.515625"/><stop stop-opacity="1" stop-color="rgb(19.052124%, 81.216431%, 40.283203%)" offset="0.523438"/><stop stop-opacity="1" stop-color="rgb(19.432068%, 81.343079%, 40.313721%)" offset="0.53125"/><stop stop-opacity="1" stop-color="rgb(19.813538%, 81.468201%, 40.342712%)" offset="0.539063"/><stop stop-opacity="1" stop-color="rgb(20.193481%, 81.594849%, 40.37323%)" offset="0.546875"/><stop stop-opacity="1" stop-color="rgb(20.573425%, 81.721497%, 40.402222%)" offset="0.554688"/><stop stop-opacity="1" stop-color="rgb(20.953369%, 81.846619%, 40.432739%)" offset="0.5625"/><stop stop-opacity="1" stop-color="rgb(21.334839%, 81.973267%, 40.461731%)" offset="0.570313"/><stop stop-opacity="1" stop-color="rgb(21.714783%, 82.099915%, 40.490723%)" offset="0.578125"/><stop stop-opacity="1" stop-color="rgb(22.094727%, 82.225037%, 40.52124%)" offset="0.585938"/><stop stop-opacity="1" stop-color="rgb(22.476196%, 82.351685%, 40.550232%)" offset="0.59375"/><stop stop-opacity="1" stop-color="rgb(22.85614%, 82.476807%, 40.58075%)" offset="0.601562"/><stop stop-opacity="1" stop-color="rgb(23.236084%, 82.603455%, 40.609741%)" offset="0.609375"/><stop stop-opacity="1" stop-color="rgb(23.616028%, 82.730103%, 40.640259%)" offset="0.617187"/><stop stop-opacity="1" stop-color="rgb(23.997498%, 82.855225%, 40.66925%)" offset="0.625"/><stop stop-opacity="1" stop-color="rgb(24.377441%, 82.981873%, 40.698242%)" offset="0.632812"/><stop stop-opacity="1" stop-color="rgb(24.757385%, 83.108521%, 40.72876%)" offset="0.640625"/><stop stop-opacity="1" stop-color="rgb(25.138855%, 83.233643%, 40.757751%)" offset="0.648437"/><stop stop-opacity="1" stop-color="rgb(25.518799%, 83.360291%, 40.788269%)" offset="0.65625"/><stop stop-opacity="1" stop-color="rgb(25.898743%, 83.486938%, 40.817261%)" offset="0.664062"/><stop stop-opacity="1" stop-color="rgb(26.278687%, 83.612061%, 40.847778%)" offset="0.671875"/><stop stop-opacity="1" stop-color="rgb(26.660156%, 83.738708%, 40.87677%)" offset="0.679688"/><stop stop-opacity="1" stop-color="rgb(27.0401%, 83.865356%, 40.905762%)" offset="0.6875"/><stop stop-opacity="1" stop-color="rgb(27.420044%, 83.990479%, 40.936279%)" offset="0.695312"/><stop stop-opacity="1" stop-color="rgb(27.801514%, 84.117126%, 40.965271%)" offset="0.703125"/><stop stop-opacity="1" stop-color="rgb(28.181458%, 84.243774%, 40.995789%)" offset="0.710938"/><stop stop-opacity="1" stop-color="rgb(28.561401%, 84.368896%, 41.02478%)" offset="0.71875"/><stop stop-opacity="1" stop-color="rgb(28.941345%, 84.495544%, 41.055298%)" offset="0.726563"/><stop stop-opacity="1" stop-color="rgb(29.322815%, 84.622192%, 41.08429%)" offset="0.734375"/><stop stop-opacity="1" stop-color="rgb(29.702759%, 84.747314%, 41.113281%)" offset="0.742188"/><stop stop-opacity="1" stop-color="rgb(30.082703%, 84.873962%, 41.143799%)" offset="0.75"/><stop stop-opacity="1" stop-color="rgb(30.462646%, 85.00061%, 41.172791%)" offset="0.757813"/><stop stop-opacity="1" stop-color="rgb(30.844116%, 85.125732%, 41.203308%)" offset="0.765625"/><stop stop-opacity="1" stop-color="rgb(31.22406%, 85.25238%, 41.2323%)" offset="0.773438"/><stop stop-opacity="1" stop-color="rgb(31.604004%, 85.379028%, 41.262817%)" offset="0.78125"/><stop stop-opacity="1" stop-color="rgb(31.985474%, 85.50415%, 41.291809%)" offset="0.789062"/><stop stop-opacity="1" stop-color="rgb(32.365417%, 85.630798%, 41.320801%)" offset="0.796875"/><stop stop-opacity="1" stop-color="rgb(32.745361%, 85.757446%, 41.351318%)" offset="0.804688"/><stop stop-opacity="1" stop-color="rgb(33.125305%, 85.882568%, 41.38031%)" offset="0.8125"/><stop stop-opacity="1" stop-color="rgb(33.506775%, 86.009216%, 41.410828%)" offset="0.820312"/><stop stop-opacity="1" stop-color="rgb(33.886719%, 86.134338%, 41.439819%)" offset="0.828125"/><stop stop-opacity="1" stop-color="rgb(34.266663%, 86.260986%, 41.470337%)" offset="0.835937"/><stop stop-opacity="1" stop-color="rgb(34.648132%, 86.387634%, 41.499329%)" offset="0.84375"/><stop stop-opacity="1" stop-color="rgb(35.028076%, 86.512756%, 41.52832%)" offset="0.851562"/><stop stop-opacity="1" stop-color="rgb(35.40802%, 86.639404%, 41.558838%)" offset="0.859375"/><stop stop-opacity="1" stop-color="rgb(35.787964%, 86.766052%, 41.58783%)" offset="0.867188"/><stop stop-opacity="1" stop-color="rgb(36.169434%, 86.891174%, 41.618347%)" offset="0.875"/><stop stop-opacity="1" stop-color="rgb(36.549377%, 87.017822%, 41.647339%)" offset="0.882812"/><stop stop-opacity="1" stop-color="rgb(36.929321%, 87.14447%, 41.677856%)" offset="0.890625"/><stop stop-opacity="1" stop-color="rgb(37.310791%, 87.269592%, 41.706848%)" offset="0.898438"/><stop stop-opacity="1" stop-color="rgb(37.690735%, 87.39624%, 41.73584%)" offset="0.90625"/><stop stop-opacity="1" stop-color="rgb(38.070679%, 87.522888%, 41.766357%)" offset="0.914063"/><stop stop-opacity="1" stop-color="rgb(38.450623%, 87.64801%, 41.795349%)" offset="0.921875"/><stop stop-opacity="1" stop-color="rgb(38.832092%, 87.774658%, 41.825867%)" offset="0.929688"/><stop stop-opacity="1" stop-color="rgb(39.212036%, 87.901306%, 41.854858%)" offset="0.9375"/><stop stop-opacity="1" stop-color="rgb(39.59198%, 88.026428%, 41.885376%)" offset="0.945313"/><stop stop-opacity="1" stop-color="rgb(39.97345%, 88.153076%, 41.914368%)" offset="0.953125"/><stop stop-opacity="1" stop-color="rgb(40.353394%, 88.279724%, 41.943359%)" offset="0.960938"/><stop stop-opacity="1" stop-color="rgb(40.733337%, 88.404846%, 41.973877%)" offset="0.96875"/><stop stop-opacity="1" stop-color="rgb(41.113281%, 88.531494%, 42.002869%)" offset="0.976563"/><stop stop-opacity="1" stop-color="rgb(41.494751%, 88.658142%, 42.033386%)" offset="0.984375"/><stop stop-opacity="1" stop-color="rgb(41.874695%, 88.783264%, 42.062378%)" offset="0.992188"/><stop stop-opacity="1" stop-color="rgb(42.254639%, 88.909912%, 42.092896%)" offset="1"/></linearGradient><clipPath id="9330f86510"><path d="M 0 679.109375 L 132.371094 679.109375 L 132.371094 810 L 0 810 Z M 0 679.109375 " clip-rule="nonzero"/></clipPath><clipPath id="f0cafb0521"><path d="M 132.371094 818.234375 C 132.371094 820.511719 132.316406 822.789062 132.207031 825.0625 C 132.09375 827.335938 131.925781 829.605469 131.703125 831.871094 C 131.480469 834.136719 131.199219 836.398438 130.867188 838.648438 C 130.53125 840.902344 130.144531 843.144531 129.699219 845.378906 C 129.253906 847.609375 128.757812 849.832031 128.203125 852.039062 C 127.648438 854.25 127.042969 856.441406 126.382812 858.621094 C 125.722656 860.800781 125.007812 862.960938 124.238281 865.105469 C 123.472656 867.25 122.652344 869.375 121.78125 871.476562 C 120.910156 873.582031 119.988281 875.660156 119.015625 877.71875 C 118.042969 879.777344 117.019531 881.8125 115.945312 883.820312 C 114.871094 885.828125 113.75 887.808594 112.578125 889.761719 C 111.410156 891.714844 110.191406 893.636719 108.925781 895.53125 C 107.660156 897.421875 106.351562 899.285156 104.992188 901.113281 C 103.636719 902.941406 102.238281 904.734375 100.792969 906.496094 C 99.347656 908.257812 97.863281 909.980469 96.332031 911.667969 C 94.804688 913.355469 93.234375 915.003906 91.625 916.613281 C 90.015625 918.222656 88.367188 919.792969 86.679688 921.320312 C 84.992188 922.851562 83.269531 924.335938 81.507812 925.78125 C 79.746094 927.226562 77.953125 928.625 76.125 929.980469 C 74.296875 931.339844 72.433594 932.648438 70.542969 933.914062 C 68.648438 935.179688 66.726562 936.398438 64.773438 937.566406 C 62.820312 938.738281 60.839844 939.859375 58.832031 940.933594 C 56.824219 942.007812 54.789062 943.03125 52.730469 944.003906 C 50.671875 944.976562 48.59375 945.898438 46.488281 946.769531 C 44.386719 947.640625 42.261719 948.460938 40.117188 949.226562 C 37.972656 949.996094 35.8125 950.710938 33.632812 951.371094 C 31.453125 952.03125 29.261719 952.636719 27.050781 953.191406 C 24.84375 953.746094 22.621094 954.242188 20.390625 954.6875 C 18.15625 955.132812 15.914062 955.519531 13.660156 955.855469 C 11.410156 956.1875 9.152344 956.46875 6.882812 956.691406 C 4.617188 956.914062 2.347656 957.082031 0.0742188 957.195312 C -2.199219 957.304688 -4.476562 957.359375 -6.753906 957.359375 C -9.027344 957.359375 -11.304688 957.304688 -13.578125 957.195312 C -15.851562 957.082031 -18.121094 956.914062 -20.390625 956.691406 C -22.65625 956.46875 -24.914062 956.1875 -27.164062 955.855469 C -29.417969 955.519531 -31.660156 955.132812 -33.894531 954.6875 C -36.128906 954.242188 -38.347656 953.746094 -40.558594 953.191406 C -42.765625 952.636719 -44.960938 952.03125 -47.136719 951.371094 C -49.316406 950.710938 -51.476562 949.996094 -53.621094 949.226562 C -55.765625 948.460938 -57.890625 947.640625 -59.992188 946.769531 C -62.097656 945.898438 -64.175781 944.976562 -66.234375 944.003906 C -68.292969 943.03125 -70.328125 942.007812 -72.335938 940.933594 C -74.34375 939.859375 -76.324219 938.738281 -78.277344 937.566406 C -80.230469 936.398438 -82.152344 935.179688 -84.046875 933.914062 C -85.9375 932.648438 -87.800781 931.339844 -89.628906 929.980469 C -91.457031 928.625 -93.253906 927.226562 -95.011719 925.78125 C -96.773438 924.335938 -98.496094 922.851562 -100.183594 921.320312 C -101.871094 919.792969 -103.519531 918.222656 -105.128906 916.613281 C -106.738281 915.003906 -108.308594 913.355469 -109.835938 911.667969 C -111.367188 909.980469 -112.851562 908.257812 -114.296875 906.496094 C -115.742188 904.734375 -117.140625 902.941406 -118.5 901.113281 C -119.855469 899.285156 -121.164062 897.421875 -122.429688 895.53125 C -123.695312 893.636719 -124.914062 891.714844 -126.082031 889.761719 C -127.253906 887.808594 -128.375 885.828125 -129.449219 883.820312 C -130.523438 881.8125 -131.546875 879.777344 -132.519531 877.71875 C -133.492188 875.660156 -134.414062 873.582031 -135.285156 871.476562 C -136.15625 869.375 -136.976562 867.25 -137.746094 865.105469 C -138.511719 862.960938 -139.226562 860.800781 -139.886719 858.621094 C -140.546875 856.441406 -141.15625 854.25 -141.707031 852.039062 C -142.261719 849.832031 -142.757812 847.609375 -143.203125 845.378906 C -143.648438 843.144531 -144.039062 840.902344 -144.371094 838.648438 C -144.707031 836.398438 -144.984375 834.136719 -145.207031 831.871094 C -145.429688 829.605469 -145.597656 827.335938 -145.710938 825.0625 C -145.820312 822.789062 -145.878906 820.511719 -145.878906 818.234375 C -145.878906 815.960938 -145.820312 813.683594 -145.710938 811.410156 C -145.597656 809.136719 -145.429688 806.867188 -145.207031 804.597656 C -144.984375 802.332031 -144.707031 800.074219 -144.371094 797.820312 C -144.039062 795.570312 -143.648438 793.328125 -143.203125 791.09375 C -142.757812 788.859375 -142.261719 786.640625 -141.707031 784.429688 C -141.15625 782.222656 -140.546875 780.027344 -139.886719 777.851562 C -139.226562 775.671875 -138.511719 773.511719 -137.746094 771.367188 C -136.976562 769.222656 -136.15625 767.097656 -135.285156 764.996094 C -134.414062 762.890625 -133.492188 760.8125 -132.519531 758.753906 C -131.546875 756.695312 -130.523438 754.660156 -129.449219 752.652344 C -128.375 750.644531 -127.253906 748.664062 -126.082031 746.710938 C -124.914062 744.757812 -123.695312 742.835938 -122.429688 740.941406 C -121.164062 739.050781 -119.855469 737.1875 -118.5 735.359375 C -117.140625 733.53125 -115.742188 731.734375 -114.296875 729.976562 C -112.851562 728.214844 -111.367188 726.492188 -109.835938 724.804688 C -108.308594 723.117188 -106.738281 721.46875 -105.128906 719.859375 C -103.519531 718.25 -101.871094 716.679688 -100.183594 715.152344 C -98.496094 713.621094 -96.773438 712.136719 -95.011719 710.691406 C -93.253906 709.246094 -91.457031 707.847656 -89.628906 706.488281 C -87.800781 705.132812 -85.9375 703.824219 -84.046875 702.558594 C -82.152344 701.292969 -80.230469 700.074219 -78.277344 698.90625 C -76.324219 697.734375 -74.34375 696.613281 -72.335938 695.539062 C -70.328125 694.464844 -68.292969 693.441406 -66.234375 692.46875 C -64.175781 691.496094 -62.097656 690.574219 -59.992188 689.703125 C -57.890625 688.828125 -55.765625 688.011719 -53.621094 687.242188 C -51.476562 686.476562 -49.316406 685.761719 -47.136719 685.101562 C -44.960938 684.441406 -42.765625 683.832031 -40.558594 683.28125 C -38.347656 682.726562 -36.128906 682.226562 -33.894531 681.785156 C -31.660156 681.339844 -29.417969 680.949219 -27.164062 680.617188 C -24.914062 680.28125 -22.65625 680.003906 -20.390625 679.78125 C -18.121094 679.558594 -15.851562 679.390625 -13.578125 679.277344 C -11.304688 679.167969 -9.027344 679.109375 -6.753906 679.109375 C -4.476562 679.109375 -2.199219 679.167969 0.0742188 679.277344 C 2.347656 679.390625 4.617188 679.558594 6.882812 679.78125 C 9.152344 680.003906 11.410156 680.28125 13.660156 680.617188 C 15.914062 680.949219 18.15625 681.339844 20.390625 681.785156 C 22.621094 682.226562 24.84375 682.726562 27.050781 683.28125 C 29.261719 683.832031 31.453125 684.441406 33.632812 685.101562 C 35.8125 685.761719 37.972656 686.476562 40.117188 687.242188 C 42.261719 688.011719 44.386719 688.828125 46.488281 689.703125 C 48.59375 690.574219 50.671875 691.496094 52.730469 692.46875 C 54.789062 693.441406 56.824219 694.464844 58.832031 695.539062 C 60.839844 696.613281 62.820312 697.734375 64.773438 698.90625 C 66.726562 700.074219 68.648438 701.292969 70.542969 702.558594 C 72.433594 703.824219 74.296875 705.132812 76.125 706.488281 C 77.953125 707.847656 79.746094 709.246094 81.507812 710.691406 C 83.269531 712.136719 84.992188 713.621094 86.679688 715.152344 C 88.367188 716.679688 90.015625 718.25 91.625 719.859375 C 93.234375 721.46875 94.804688 723.117188 96.332031 724.804688 C 97.863281 726.492188 99.347656 728.214844 100.792969 729.976562 C 102.238281 731.734375 103.636719 733.53125 104.992188 735.359375 C 106.351562 737.1875 107.660156 739.050781 108.925781 740.941406 C 110.191406 742.835938 111.410156 744.757812 112.578125 746.710938 C 113.75 748.664062 114.871094 750.644531 115.945312 752.652344 C 117.019531 754.660156 118.042969 756.695312 119.015625 758.753906 C 119.988281 760.8125 120.910156 762.890625 121.78125 764.996094 C 122.652344 767.097656 123.472656 769.222656 124.238281 771.367188 C 125.007812 773.511719 125.722656 775.671875 126.382812 777.851562 C 127.042969 780.027344 127.648438 782.222656 128.203125 784.429688 C 128.757812 786.640625 129.253906 788.859375 129.699219 791.09375 C 130.144531 793.328125 130.53125 795.570312 130.867188 797.820312 C 131.199219 800.074219 131.480469 802.332031 131.703125 804.597656 C 131.925781 806.867188 132.09375 809.136719 132.207031 811.410156 C 132.316406 813.683594 132.371094 815.960938 132.371094 818.234375 Z M 132.371094 818.234375 " clip-rule="nonzero"/></clipPath><linearGradient x1="0.264716" gradientTransform="matrix(278.249998, 0, 0, 278.249998, -145.877083, 679.111034)" y1="0.26212" x2="0.740115" gradientUnits="userSpaceOnUse" y2="0.732859" id="04fa7552c3"><stop stop-opacity="1" stop-color="rgb(19.7052%, 81.433105%, 40.335083%)" offset="0"/><stop stop-opacity="1" stop-color="rgb(19.842529%, 81.478882%, 40.345764%)" offset="0.0078125"/><stop stop-opacity="1" stop-color="rgb(20.118713%, 81.570435%, 40.367126%)" offset="0.015625"/><stop stop-opacity="1" stop-color="rgb(20.396423%, 81.661987%, 40.388489%)" offset="0.0234375"/><stop stop-opacity="1" stop-color="rgb(20.672607%, 81.75354%, 40.409851%)" offset="0.03125"/><stop stop-opacity="1" stop-color="rgb(20.948792%, 81.845093%, 40.432739%)" offset="0.0390625"/><stop stop-opacity="1" stop-color="rgb(21.224976%, 81.936646%, 40.454102%)" offset="0.046875"/><stop stop-opacity="1" stop-color="rgb(21.50116%, 82.029724%, 40.475464%)" offset="0.0546875"/><stop stop-opacity="1" stop-color="rgb(21.77887%, 82.121277%, 40.496826%)" offset="0.0625"/><stop stop-opacity="1" stop-color="rgb(22.055054%, 82.21283%, 40.518188%)" offset="0.0703125"/><stop stop-opacity="1" stop-color="rgb(22.331238%, 82.304382%, 40.539551%)" offset="0.078125"/><stop stop-opacity="1" stop-color="rgb(22.607422%, 82.395935%, 40.560913%)" offset="0.0859375"/><stop stop-opacity="1" stop-color="rgb(22.883606%, 82.487488%, 40.582275%)" offset="0.09375"/><stop stop-opacity="1" stop-color="rgb(23.161316%, 82.579041%, 40.603638%)" offset="0.101562"/><stop stop-opacity="1" stop-color="rgb(23.4375%, 82.670593%, 40.626526%)" offset="0.109375"/><stop stop-opacity="1" stop-color="rgb(23.713684%, 82.762146%, 40.647888%)" offset="0.117187"/><stop stop-opacity="1" stop-color="rgb(23.989868%, 82.853699%, 40.66925%)" offset="0.125"/><stop stop-opacity="1" stop-color="rgb(24.266052%, 82.945251%, 40.690613%)" offset="0.132813"/><stop stop-opacity="1" stop-color="rgb(24.543762%, 83.036804%, 40.711975%)" offset="0.140625"/><stop stop-opacity="1" stop-color="rgb(24.819946%, 83.128357%, 40.733337%)" offset="0.148438"/><stop stop-opacity="1" stop-color="rgb(25.09613%, 83.221436%, 40.7547%)" offset="0.15625"/><stop stop-opacity="1" stop-color="rgb(25.372314%, 83.312988%, 40.776062%)" offset="0.164063"/><stop stop-opacity="1" stop-color="rgb(25.648499%, 83.404541%, 40.79895%)" offset="0.171875"/><stop stop-opacity="1" stop-color="rgb(25.924683%, 83.496094%, 40.820312%)" offset="0.179688"/><stop stop-opacity="1" stop-color="rgb(26.202393%, 83.587646%, 40.841675%)" offset="0.1875"/><stop stop-opacity="1" stop-color="rgb(26.478577%, 83.679199%, 40.863037%)" offset="0.195313"/><stop stop-opacity="1" stop-color="rgb(26.754761%, 83.770752%, 40.884399%)" offset="0.203125"/><stop stop-opacity="1" stop-color="rgb(27.030945%, 83.862305%, 40.905762%)" offset="0.210938"/><stop stop-opacity="1" stop-color="rgb(27.307129%, 83.953857%, 40.927124%)" offset="0.21875"/><stop stop-opacity="1" stop-color="rgb(27.584839%, 84.04541%, 40.948486%)" offset="0.226563"/><stop stop-opacity="1" stop-color="rgb(27.861023%, 84.136963%, 40.971375%)" offset="0.234375"/><stop stop-opacity="1" stop-color="rgb(28.137207%, 84.228516%, 40.992737%)" offset="0.242188"/><stop stop-opacity="1" stop-color="rgb(28.413391%, 84.321594%, 41.014099%)" offset="0.25"/><stop stop-opacity="1" stop-color="rgb(28.689575%, 84.413147%, 41.035461%)" offset="0.257813"/><stop stop-opacity="1" stop-color="rgb(28.967285%, 84.5047%, 41.056824%)" offset="0.265625"/><stop stop-opacity="1" stop-color="rgb(29.243469%, 84.596252%, 41.078186%)" offset="0.273438"/><stop stop-opacity="1" stop-color="rgb(29.519653%, 84.687805%, 41.099548%)" offset="0.28125"/><stop stop-opacity="1" stop-color="rgb(29.795837%, 84.779358%, 41.120911%)" offset="0.289063"/><stop stop-opacity="1" stop-color="rgb(30.072021%, 84.870911%, 41.143799%)" offset="0.296875"/><stop stop-opacity="1" stop-color="rgb(30.349731%, 84.962463%, 41.165161%)" offset="0.304688"/><stop stop-opacity="1" stop-color="rgb(30.625916%, 85.054016%, 41.186523%)" offset="0.3125"/><stop stop-opacity="1" stop-color="rgb(30.9021%, 85.145569%, 41.207886%)" offset="0.320312"/><stop stop-opacity="1" stop-color="rgb(31.178284%, 85.237122%, 41.229248%)" offset="0.328125"/><stop stop-opacity="1" stop-color="rgb(31.454468%, 85.328674%, 41.25061%)" offset="0.335938"/><stop stop-opacity="1" stop-color="rgb(31.732178%, 85.420227%, 41.271973%)" offset="0.34375"/><stop stop-opacity="1" stop-color="rgb(32.008362%, 85.513306%, 41.293335%)" offset="0.351562"/><stop stop-opacity="1" stop-color="rgb(32.284546%, 85.604858%, 41.316223%)" offset="0.359375"/><stop stop-opacity="1" stop-color="rgb(32.56073%, 85.696411%, 41.337585%)" offset="0.367188"/><stop stop-opacity="1" stop-color="rgb(32.836914%, 85.787964%, 41.358948%)" offset="0.375"/><stop stop-opacity="1" stop-color="rgb(33.114624%, 85.879517%, 41.38031%)" offset="0.382812"/><stop stop-opacity="1" stop-color="rgb(33.390808%, 85.971069%, 41.401672%)" offset="0.390625"/><stop stop-opacity="1" stop-color="rgb(33.666992%, 86.062622%, 41.423035%)" offset="0.398437"/><stop stop-opacity="1" stop-color="rgb(33.943176%, 86.154175%, 41.444397%)" offset="0.40625"/><stop stop-opacity="1" stop-color="rgb(34.21936%, 86.245728%, 41.465759%)" offset="0.414062"/><stop stop-opacity="1" stop-color="rgb(34.49707%, 86.33728%, 41.487122%)" offset="0.421875"/><stop stop-opacity="1" stop-color="rgb(34.773254%, 86.428833%, 41.51001%)" offset="0.429687"/><stop stop-opacity="1" stop-color="rgb(35.049438%, 86.520386%, 41.531372%)" offset="0.4375"/><stop stop-opacity="1" stop-color="rgb(35.325623%, 86.611938%, 41.552734%)" offset="0.445312"/><stop stop-opacity="1" stop-color="rgb(35.601807%, 86.705017%, 41.574097%)" offset="0.453125"/><stop stop-opacity="1" stop-color="rgb(35.877991%, 86.79657%, 41.595459%)" offset="0.460937"/><stop stop-opacity="1" stop-color="rgb(36.155701%, 86.888123%, 41.616821%)" offset="0.46875"/><stop stop-opacity="1" stop-color="rgb(36.431885%, 86.979675%, 41.638184%)" offset="0.476562"/><stop stop-opacity="1" stop-color="rgb(36.708069%, 87.071228%, 41.659546%)" offset="0.484375"/><stop stop-opacity="1" stop-color="rgb(36.984253%, 87.162781%, 41.682434%)" offset="0.492187"/><stop stop-opacity="1" stop-color="rgb(37.260437%, 87.254333%, 41.703796%)" offset="0.494719"/><stop stop-opacity="1" stop-color="rgb(37.399292%, 87.30011%, 41.714478%)" offset="0.5"/><stop stop-opacity="1" stop-color="rgb(37.538147%, 87.345886%, 41.725159%)" offset="0.505281"/><stop stop-opacity="1" stop-color="rgb(37.677002%, 87.391663%, 41.73584%)" offset="0.507813"/><stop stop-opacity="1" stop-color="rgb(37.814331%, 87.437439%, 41.746521%)" offset="0.515625"/><stop stop-opacity="1" stop-color="rgb(38.090515%, 87.528992%, 41.767883%)" offset="0.523438"/><stop stop-opacity="1" stop-color="rgb(38.366699%, 87.620544%, 41.789246%)" offset="0.53125"/><stop stop-opacity="1" stop-color="rgb(38.642883%, 87.712097%, 41.810608%)" offset="0.539063"/><stop stop-opacity="1" stop-color="rgb(38.920593%, 87.805176%, 41.83197%)" offset="0.546875"/><stop stop-opacity="1" stop-color="rgb(39.196777%, 87.896729%, 41.854858%)" offset="0.554688"/><stop stop-opacity="1" stop-color="rgb(39.472961%, 87.988281%, 41.876221%)" offset="0.5625"/><stop stop-opacity="1" stop-color="rgb(39.749146%, 88.079834%, 41.897583%)" offset="0.570313"/><stop stop-opacity="1" stop-color="rgb(40.02533%, 88.171387%, 41.918945%)" offset="0.578125"/><stop stop-opacity="1" stop-color="rgb(40.30304%, 88.262939%, 41.940308%)" offset="0.585938"/><stop stop-opacity="1" stop-color="rgb(40.579224%, 88.354492%, 41.96167%)" offset="0.59375"/><stop stop-opacity="1" stop-color="rgb(40.855408%, 88.446045%, 41.983032%)" offset="0.601562"/><stop stop-opacity="1" stop-color="rgb(41.131592%, 88.537598%, 42.004395%)" offset="0.609375"/><stop stop-opacity="1" stop-color="rgb(41.407776%, 88.62915%, 42.027283%)" offset="0.617188"/><stop stop-opacity="1" stop-color="rgb(41.685486%, 88.720703%, 42.048645%)" offset="0.625"/><stop stop-opacity="1" stop-color="rgb(41.96167%, 88.812256%, 42.070007%)" offset="0.632812"/><stop stop-opacity="1" stop-color="rgb(42.237854%, 88.903809%, 42.09137%)" offset="0.640625"/><stop stop-opacity="1" stop-color="rgb(42.514038%, 88.996887%, 42.112732%)" offset="0.648438"/><stop stop-opacity="1" stop-color="rgb(42.790222%, 89.08844%, 42.134094%)" offset="0.65625"/><stop stop-opacity="1" stop-color="rgb(43.067932%, 89.179993%, 42.155457%)" offset="0.664062"/><stop stop-opacity="1" stop-color="rgb(43.344116%, 89.271545%, 42.176819%)" offset="0.671875"/><stop stop-opacity="1" stop-color="rgb(43.6203%, 89.363098%, 42.199707%)" offset="0.679688"/><stop stop-opacity="1" stop-color="rgb(43.896484%, 89.454651%, 42.221069%)" offset="0.6875"/><stop stop-opacity="1" stop-color="rgb(44.172668%, 89.546204%, 42.242432%)" offset="0.695312"/><stop stop-opacity="1" stop-color="rgb(44.450378%, 89.637756%, 42.263794%)" offset="0.703125"/><stop stop-opacity="1" stop-color="rgb(44.726562%, 89.729309%, 42.285156%)" offset="0.710938"/><stop stop-opacity="1" stop-color="rgb(45.002747%, 89.820862%, 42.306519%)" offset="0.71875"/><stop stop-opacity="1" stop-color="rgb(45.278931%, 89.912415%, 42.327881%)" offset="0.726562"/><stop stop-opacity="1" stop-color="rgb(45.555115%, 90.003967%, 42.349243%)" offset="0.734375"/><stop stop-opacity="1" stop-color="rgb(45.832825%, 90.09552%, 42.372131%)" offset="0.742188"/><stop stop-opacity="1" stop-color="rgb(46.109009%, 90.188599%, 42.393494%)" offset="0.75"/><stop stop-opacity="1" stop-color="rgb(46.385193%, 90.280151%, 42.414856%)" offset="0.757812"/><stop stop-opacity="1" stop-color="rgb(46.661377%, 90.371704%, 42.436218%)" offset="0.765625"/><stop stop-opacity="1" stop-color="rgb(46.937561%, 90.463257%, 42.457581%)" offset="0.773437"/><stop stop-opacity="1" stop-color="rgb(47.213745%, 90.55481%, 42.478943%)" offset="0.78125"/><stop stop-opacity="1" stop-color="rgb(47.491455%, 90.646362%, 42.500305%)" offset="0.789062"/><stop stop-opacity="1" stop-color="rgb(47.767639%, 90.737915%, 42.521667%)" offset="0.796875"/><stop stop-opacity="1" stop-color="rgb(48.043823%, 90.829468%, 42.54303%)" offset="0.804687"/><stop stop-opacity="1" stop-color="rgb(48.320007%, 90.921021%, 42.565918%)" offset="0.8125"/><stop stop-opacity="1" stop-color="rgb(48.596191%, 91.012573%, 42.58728%)" offset="0.820312"/><stop stop-opacity="1" stop-color="rgb(48.873901%, 91.104126%, 42.608643%)" offset="0.828125"/><stop stop-opacity="1" stop-color="rgb(49.150085%, 91.195679%, 42.630005%)" offset="0.835937"/><stop stop-opacity="1" stop-color="rgb(49.42627%, 91.288757%, 42.651367%)" offset="0.84375"/><stop stop-opacity="1" stop-color="rgb(49.702454%, 91.38031%, 42.672729%)" offset="0.851562"/><stop stop-opacity="1" stop-color="rgb(49.978638%, 91.471863%, 42.694092%)" offset="0.859375"/><stop stop-opacity="1" stop-color="rgb(50.256348%, 91.563416%, 42.715454%)" offset="0.867187"/><stop stop-opacity="1" stop-color="rgb(50.532532%, 91.654968%, 42.738342%)" offset="0.875"/><stop stop-opacity="1" stop-color="rgb(50.808716%, 91.746521%, 42.759705%)" offset="0.882812"/><stop stop-opacity="1" stop-color="rgb(51.0849%, 91.838074%, 42.781067%)" offset="0.890625"/><stop stop-opacity="1" stop-color="rgb(51.361084%, 91.929626%, 42.802429%)" offset="0.898437"/><stop stop-opacity="1" stop-color="rgb(51.638794%, 92.021179%, 42.823792%)" offset="0.90625"/><stop stop-opacity="1" stop-color="rgb(51.914978%, 92.112732%, 42.845154%)" offset="0.914062"/><stop stop-opacity="1" stop-color="rgb(52.191162%, 92.204285%, 42.866516%)" offset="0.921875"/><stop stop-opacity="1" stop-color="rgb(52.467346%, 92.295837%, 42.887878%)" offset="0.929687"/><stop stop-opacity="1" stop-color="rgb(52.74353%, 92.38739%, 42.910767%)" offset="0.9375"/><stop stop-opacity="1" stop-color="rgb(53.02124%, 92.480469%, 42.932129%)" offset="0.945312"/><stop stop-opacity="1" stop-color="rgb(53.297424%, 92.572021%, 42.953491%)" offset="0.953125"/><stop stop-opacity="1" stop-color="rgb(53.573608%, 92.663574%, 42.974854%)" offset="0.960937"/><stop stop-opacity="1" stop-color="rgb(53.849792%, 92.755127%, 42.996216%)" offset="0.96875"/><stop stop-opacity="1" stop-color="rgb(54.125977%, 92.84668%, 43.017578%)" offset="0.976562"/><stop stop-opacity="1" stop-color="rgb(54.403687%, 92.938232%, 43.03894%)" offset="0.984375"/><stop stop-opacity="1" stop-color="rgb(54.679871%, 93.029785%, 43.060303%)" offset="0.992188"/><stop stop-opacity="1" stop-color="rgb(54.956055%, 93.121338%, 43.083191%)" offset="1"/></linearGradient></defs><g clip-path="url(#6bbb8eb25b)"><g clip-path="url(#a2035c234c)"><g clip-path="url(#dd072830e6)"><g clip-path="url(#a6826a05f3)"><path fill="url(#35e12f05b0)" d="M 1287.375 2.417969 L 1308.269531 164.054688 L 1458.695312 144.609375 L 1437.796875 -17.03125 Z M 1287.375 2.417969 " fill-rule="nonzero"/></g></g></g></g><g clip-path="url(#9330f86510)"><g clip-path="url(#f0cafb0521)"><path fill="url(#04fa7552c3)" d="M 0 679.109375 L 0 810 L 132.371094 810 L 132.371094 679.109375 Z M 0 679.109375 " fill-rule="nonzero"/></g></g></svg>