<svg xmlns="http://www.w3.org/2000/svg" xmlns:xlink="http://www.w3.org/1999/xlink" width="1920" zoomAndPan="magnify" viewBox="0 0 1440 809.999993" height="1080" preserveAspectRatio="xMidYMid meet" version="1.0"><defs><clipPath id="ccec064b8f"><path d="M 1222.808594 677 L 1440 677 L 1440 810 L 1222.808594 810 Z M 1222.808594 677 " clip-rule="nonzero"/></clipPath><clipPath id="d771bf707b"><path d="M 1470.066406 711.738281 C 1455.296875 711.277344 1441.296875 714.203125 1428.679688 719.742188 C 1418.0625 724.359375 1405.597656 720.511719 1399.597656 710.507812 C 1387.289062 690.648438 1365.285156 677.257812 1340.207031 677.257812 C 1323.898438 677.257812 1308.820312 682.953125 1296.972656 692.34375 C 1277.890625 707.582031 1268.660156 732.058594 1271.738281 756.378906 L 1274.816406 780.085938 C 1275.121094 783.007812 1273.121094 785.625 1270.199219 785.933594 C 1243.582031 788.703125 1222.808594 811.023438 1222.808594 838.421875 C 1222.808594 861.820312 1238.195312 881.832031 1259.273438 888.605469 C 1261.429688 889.222656 1263.121094 891.066406 1263.582031 893.222656 C 1271.277344 924.933594 1299.742188 948.332031 1333.746094 948.332031 C 1359.59375 948.332031 1382.210938 934.785156 1394.984375 914.3125 C 1403.90625 899.996094 1421.140625 893.222656 1437.140625 898.457031 C 1446.371094 901.535156 1456.375 903.074219 1466.683594 903.074219 C 1518.996094 903.074219 1561.464844 861.050781 1562.230469 809.023438 C 1563.308594 756.996094 1521.921875 713.433594 1470.066406 711.738281 Z M 1470.066406 711.738281 " clip-rule="nonzero"/></clipPath><linearGradient x1="0.00000198202" gradientTransform="matrix(1.538635, 0, 0, 1.539306, 1222.809326, 666.329357)" y1="95.099998" x2="141.157942" gradientUnits="userSpaceOnUse" y2="95.099998" id="ad06b3ccd5"><stop stop-opacity="1" stop-color="rgb(0%, 74.899292%, 38.798523%)" offset="0"/><stop stop-opacity="1" stop-color="rgb(0.187683%, 74.961853%, 38.813782%)" offset="0.0078125"/><stop stop-opacity="1" stop-color="rgb(0.566101%, 75.086975%, 38.842773%)" offset="0.015625"/><stop stop-opacity="1" stop-color="rgb(0.944519%, 75.212097%, 38.871765%)" offset="0.0234375"/><stop stop-opacity="1" stop-color="rgb(1.322937%, 75.337219%, 38.902283%)" offset="0.03125"/><stop stop-opacity="1" stop-color="rgb(1.701355%, 75.463867%, 38.931274%)" offset="0.0390625"/><stop stop-opacity="1" stop-color="rgb(2.078247%, 75.588989%, 38.960266%)" offset="0.046875"/><stop stop-opacity="1" stop-color="rgb(2.456665%, 75.714111%, 38.990784%)" offset="0.0546875"/><stop stop-opacity="1" stop-color="rgb(2.835083%, 75.839233%, 39.019775%)" offset="0.0625"/><stop stop-opacity="1" stop-color="rgb(3.213501%, 75.964355%, 39.048767%)" offset="0.0703125"/><stop stop-opacity="1" stop-color="rgb(3.591919%, 76.089478%, 39.079285%)" offset="0.078125"/><stop stop-opacity="1" stop-color="rgb(3.968811%, 76.216125%, 39.108276%)" offset="0.0859375"/><stop stop-opacity="1" stop-color="rgb(4.347229%, 76.341248%, 39.137268%)" offset="0.09375"/><stop stop-opacity="1" stop-color="rgb(4.725647%, 76.46637%, 39.167786%)" offset="0.101563"/><stop stop-opacity="1" stop-color="rgb(5.104065%, 76.591492%, 39.196777%)" offset="0.109375"/><stop stop-opacity="1" stop-color="rgb(5.482483%, 76.716614%, 39.225769%)" offset="0.117188"/><stop stop-opacity="1" stop-color="rgb(5.860901%, 76.843262%, 39.256287%)" offset="0.125"/><stop stop-opacity="1" stop-color="rgb(6.237793%, 76.968384%, 39.285278%)" offset="0.132813"/><stop stop-opacity="1" stop-color="rgb(6.616211%, 77.093506%, 39.31427%)" offset="0.140625"/><stop stop-opacity="1" stop-color="rgb(6.994629%, 77.218628%, 39.343262%)" offset="0.148438"/><stop stop-opacity="1" stop-color="rgb(7.373047%, 77.34375%, 39.373779%)" offset="0.15625"/><stop stop-opacity="1" stop-color="rgb(7.751465%, 77.468872%, 39.402771%)" offset="0.164063"/><stop stop-opacity="1" stop-color="rgb(8.128357%, 77.59552%, 39.431763%)" offset="0.171875"/><stop stop-opacity="1" stop-color="rgb(8.506775%, 77.720642%, 39.46228%)" offset="0.179688"/><stop stop-opacity="1" stop-color="rgb(8.885193%, 77.845764%, 39.491272%)" offset="0.1875"/><stop stop-opacity="1" stop-color="rgb(9.263611%, 77.970886%, 39.520264%)" offset="0.195313"/><stop stop-opacity="1" stop-color="rgb(9.642029%, 78.096008%, 39.550781%)" offset="0.203125"/><stop stop-opacity="1" stop-color="rgb(10.020447%, 78.22113%, 39.579773%)" offset="0.210938"/><stop stop-opacity="1" stop-color="rgb(10.397339%, 78.347778%, 39.608765%)" offset="0.21875"/><stop stop-opacity="1" stop-color="rgb(10.775757%, 78.4729%, 39.639282%)" offset="0.226562"/><stop stop-opacity="1" stop-color="rgb(11.154175%, 78.598022%, 39.668274%)" offset="0.234375"/><stop stop-opacity="1" stop-color="rgb(11.532593%, 78.723145%, 39.697266%)" offset="0.242188"/><stop stop-opacity="1" stop-color="rgb(11.911011%, 78.848267%, 39.727783%)" offset="0.25"/><stop stop-opacity="1" stop-color="rgb(12.287903%, 78.973389%, 39.756775%)" offset="0.257812"/><stop stop-opacity="1" stop-color="rgb(12.666321%, 79.100037%, 39.785767%)" offset="0.265625"/><stop stop-opacity="1" stop-color="rgb(13.044739%, 79.225159%, 39.814758%)" offset="0.273438"/><stop stop-opacity="1" stop-color="rgb(13.423157%, 79.350281%, 39.845276%)" offset="0.28125"/><stop stop-opacity="1" stop-color="rgb(13.801575%, 79.475403%, 39.874268%)" offset="0.289062"/><stop stop-opacity="1" stop-color="rgb(14.179993%, 79.600525%, 39.903259%)" offset="0.296875"/><stop stop-opacity="1" stop-color="rgb(14.556885%, 79.725647%, 39.933777%)" offset="0.304688"/><stop stop-opacity="1" stop-color="rgb(14.935303%, 79.852295%, 39.962769%)" offset="0.3125"/><stop stop-opacity="1" stop-color="rgb(15.313721%, 79.977417%, 39.99176%)" offset="0.320312"/><stop stop-opacity="1" stop-color="rgb(15.692139%, 80.102539%, 40.022278%)" offset="0.328125"/><stop stop-opacity="1" stop-color="rgb(16.070557%, 80.227661%, 40.05127%)" offset="0.335938"/><stop stop-opacity="1" stop-color="rgb(16.447449%, 80.352783%, 40.080261%)" offset="0.34375"/><stop stop-opacity="1" stop-color="rgb(16.825867%, 80.477905%, 40.110779%)" offset="0.351562"/><stop stop-opacity="1" stop-color="rgb(17.204285%, 80.604553%, 40.139771%)" offset="0.359375"/><stop stop-opacity="1" stop-color="rgb(17.582703%, 80.729675%, 40.168762%)" offset="0.367188"/><stop stop-opacity="1" stop-color="rgb(17.961121%, 80.854797%, 40.19928%)" offset="0.375"/><stop stop-opacity="1" stop-color="rgb(18.339539%, 80.979919%, 40.228271%)" offset="0.382812"/><stop stop-opacity="1" stop-color="rgb(18.716431%, 81.105042%, 40.257263%)" offset="0.390625"/><stop stop-opacity="1" stop-color="rgb(19.094849%, 81.230164%, 40.287781%)" offset="0.398438"/><stop stop-opacity="1" stop-color="rgb(19.473267%, 81.356812%, 40.316772%)" offset="0.40625"/><stop stop-opacity="1" stop-color="rgb(19.851685%, 81.481934%, 40.345764%)" offset="0.414063"/><stop stop-opacity="1" stop-color="rgb(20.230103%, 81.607056%, 40.374756%)" offset="0.421875"/><stop stop-opacity="1" stop-color="rgb(20.606995%, 81.732178%, 40.405273%)" offset="0.429688"/><stop stop-opacity="1" stop-color="rgb(20.985413%, 81.8573%, 40.434265%)" offset="0.4375"/><stop stop-opacity="1" stop-color="rgb(21.363831%, 81.982422%, 40.463257%)" offset="0.445312"/><stop stop-opacity="1" stop-color="rgb(21.742249%, 82.10907%, 40.493774%)" offset="0.453125"/><stop stop-opacity="1" stop-color="rgb(22.120667%, 82.234192%, 40.522766%)" offset="0.460937"/><stop stop-opacity="1" stop-color="rgb(22.499084%, 82.359314%, 40.551758%)" offset="0.46875"/><stop stop-opacity="1" stop-color="rgb(22.875977%, 82.484436%, 40.582275%)" offset="0.476562"/><stop stop-opacity="1" stop-color="rgb(23.254395%, 82.609558%, 40.611267%)" offset="0.484375"/><stop stop-opacity="1" stop-color="rgb(23.632812%, 82.73468%, 40.640259%)" offset="0.492188"/><stop stop-opacity="1" stop-color="rgb(24.01123%, 82.861328%, 40.670776%)" offset="0.5"/><stop stop-opacity="1" stop-color="rgb(24.389648%, 82.98645%, 40.699768%)" offset="0.507812"/><stop stop-opacity="1" stop-color="rgb(24.766541%, 83.111572%, 40.72876%)" offset="0.515625"/><stop stop-opacity="1" stop-color="rgb(25.144958%, 83.236694%, 40.759277%)" offset="0.523438"/><stop stop-opacity="1" stop-color="rgb(25.523376%, 83.361816%, 40.788269%)" offset="0.53125"/><stop stop-opacity="1" stop-color="rgb(25.901794%, 83.486938%, 40.817261%)" offset="0.539062"/><stop stop-opacity="1" stop-color="rgb(26.280212%, 83.613586%, 40.846252%)" offset="0.546875"/><stop stop-opacity="1" stop-color="rgb(26.65863%, 83.738708%, 40.87677%)" offset="0.554688"/><stop stop-opacity="1" stop-color="rgb(27.035522%, 83.863831%, 40.905762%)" offset="0.5625"/><stop stop-opacity="1" stop-color="rgb(27.41394%, 83.988953%, 40.934753%)" offset="0.570312"/><stop stop-opacity="1" stop-color="rgb(27.792358%, 84.114075%, 40.965271%)" offset="0.578125"/><stop stop-opacity="1" stop-color="rgb(28.170776%, 84.239197%, 40.994263%)" offset="0.585938"/><stop stop-opacity="1" stop-color="rgb(28.549194%, 84.365845%, 41.023254%)" offset="0.59375"/><stop stop-opacity="1" stop-color="rgb(28.926086%, 84.490967%, 41.053772%)" offset="0.601562"/><stop stop-opacity="1" stop-color="rgb(29.304504%, 84.616089%, 41.082764%)" offset="0.609375"/><stop stop-opacity="1" stop-color="rgb(29.682922%, 84.741211%, 41.111755%)" offset="0.617188"/><stop stop-opacity="1" stop-color="rgb(30.06134%, 84.866333%, 41.142273%)" offset="0.625"/><stop stop-opacity="1" stop-color="rgb(30.439758%, 84.991455%, 41.171265%)" offset="0.632812"/><stop stop-opacity="1" stop-color="rgb(30.81665%, 85.118103%, 41.200256%)" offset="0.640625"/><stop stop-opacity="1" stop-color="rgb(31.195068%, 85.243225%, 41.230774%)" offset="0.648438"/><stop stop-opacity="1" stop-color="rgb(31.573486%, 85.368347%, 41.259766%)" offset="0.65625"/><stop stop-opacity="1" stop-color="rgb(31.951904%, 85.493469%, 41.288757%)" offset="0.664062"/><stop stop-opacity="1" stop-color="rgb(32.330322%, 85.618591%, 41.319275%)" offset="0.671875"/><stop stop-opacity="1" stop-color="rgb(32.70874%, 85.745239%, 41.348267%)" offset="0.679688"/><stop stop-opacity="1" stop-color="rgb(33.085632%, 85.870361%, 41.377258%)" offset="0.6875"/><stop stop-opacity="1" stop-color="rgb(33.46405%, 85.995483%, 41.40625%)" offset="0.695312"/><stop stop-opacity="1" stop-color="rgb(33.842468%, 86.120605%, 41.436768%)" offset="0.703125"/><stop stop-opacity="1" stop-color="rgb(34.220886%, 86.245728%, 41.465759%)" offset="0.710938"/><stop stop-opacity="1" stop-color="rgb(34.599304%, 86.37085%, 41.494751%)" offset="0.71875"/><stop stop-opacity="1" stop-color="rgb(34.976196%, 86.497498%, 41.525269%)" offset="0.726562"/><stop stop-opacity="1" stop-color="rgb(35.354614%, 86.62262%, 41.55426%)" offset="0.734375"/><stop stop-opacity="1" stop-color="rgb(35.733032%, 86.747742%, 41.583252%)" offset="0.742188"/><stop stop-opacity="1" stop-color="rgb(36.11145%, 86.872864%, 41.61377%)" offset="0.75"/><stop stop-opacity="1" stop-color="rgb(36.489868%, 86.997986%, 41.642761%)" offset="0.757812"/><stop stop-opacity="1" stop-color="rgb(36.868286%, 87.123108%, 41.671753%)" offset="0.765625"/><stop stop-opacity="1" stop-color="rgb(37.245178%, 87.249756%, 41.702271%)" offset="0.773438"/><stop stop-opacity="1" stop-color="rgb(37.623596%, 87.374878%, 41.731262%)" offset="0.78125"/><stop stop-opacity="1" stop-color="rgb(38.002014%, 87.5%, 41.760254%)" offset="0.789062"/><stop stop-opacity="1" stop-color="rgb(38.380432%, 87.625122%, 41.790771%)" offset="0.796875"/><stop stop-opacity="1" stop-color="rgb(38.75885%, 87.750244%, 41.819763%)" offset="0.804687"/><stop stop-opacity="1" stop-color="rgb(39.135742%, 87.875366%, 41.848755%)" offset="0.8125"/><stop stop-opacity="1" stop-color="rgb(39.51416%, 88.002014%, 41.879272%)" offset="0.820312"/><stop stop-opacity="1" stop-color="rgb(39.892578%, 88.127136%, 41.908264%)" offset="0.828125"/><stop stop-opacity="1" stop-color="rgb(40.270996%, 88.252258%, 41.937256%)" offset="0.835938"/><stop stop-opacity="1" stop-color="rgb(40.649414%, 88.37738%, 41.966248%)" offset="0.84375"/><stop stop-opacity="1" stop-color="rgb(41.027832%, 88.502502%, 41.996765%)" offset="0.851562"/><stop stop-opacity="1" stop-color="rgb(41.404724%, 88.627625%, 42.025757%)" offset="0.859375"/><stop stop-opacity="1" stop-color="rgb(41.783142%, 88.754272%, 42.054749%)" offset="0.867188"/><stop stop-opacity="1" stop-color="rgb(42.16156%, 88.879395%, 42.085266%)" offset="0.875"/><stop stop-opacity="1" stop-color="rgb(42.539978%, 89.004517%, 42.114258%)" offset="0.882812"/><stop stop-opacity="1" stop-color="rgb(42.918396%, 89.129639%, 42.14325%)" offset="0.890625"/><stop stop-opacity="1" stop-color="rgb(43.295288%, 89.254761%, 42.173767%)" offset="0.898438"/><stop stop-opacity="1" stop-color="rgb(43.673706%, 89.379883%, 42.202759%)" offset="0.90625"/><stop stop-opacity="1" stop-color="rgb(44.052124%, 89.506531%, 42.23175%)" offset="0.914062"/><stop stop-opacity="1" stop-color="rgb(44.430542%, 89.631653%, 42.262268%)" offset="0.921875"/><stop stop-opacity="1" stop-color="rgb(44.80896%, 89.756775%, 42.29126%)" offset="0.929688"/><stop stop-opacity="1" stop-color="rgb(45.187378%, 89.881897%, 42.320251%)" offset="0.9375"/><stop stop-opacity="1" stop-color="rgb(45.56427%, 90.007019%, 42.350769%)" offset="0.945313"/><stop stop-opacity="1" stop-color="rgb(45.942688%, 90.132141%, 42.379761%)" offset="0.953125"/><stop stop-opacity="1" stop-color="rgb(46.321106%, 90.258789%, 42.408752%)" offset="0.960938"/><stop stop-opacity="1" stop-color="rgb(46.699524%, 90.383911%, 42.437744%)" offset="0.96875"/><stop stop-opacity="1" stop-color="rgb(47.077942%, 90.509033%, 42.468262%)" offset="0.976563"/><stop stop-opacity="1" stop-color="rgb(47.454834%, 90.634155%, 42.497253%)" offset="0.984375"/><stop stop-opacity="1" stop-color="rgb(47.833252%, 90.759277%, 42.526245%)" offset="0.992188"/><stop stop-opacity="1" stop-color="rgb(48.21167%, 90.884399%, 42.556763%)" offset="1"/></linearGradient><clipPath id="8be3cf9be9"><path d="M 1408 666.175781 L 1440 666.175781 L 1440 702 L 1408 702 Z M 1408 666.175781 " clip-rule="nonzero"/></clipPath><clipPath id="2c6671e0ed"><path d="M 1443.601562 683.722656 C 1443.601562 684.292969 1443.574219 684.863281 1443.519531 685.429688 C 1443.464844 685.996094 1443.378906 686.558594 1443.269531 687.117188 C 1443.160156 687.675781 1443.019531 688.226562 1442.855469 688.773438 C 1442.691406 689.316406 1442.496094 689.855469 1442.28125 690.378906 C 1442.0625 690.90625 1441.820312 691.421875 1441.550781 691.921875 C 1441.28125 692.425781 1440.988281 692.914062 1440.671875 693.386719 C 1440.355469 693.859375 1440.019531 694.316406 1439.65625 694.757812 C 1439.296875 695.199219 1438.914062 695.621094 1438.511719 696.023438 C 1438.109375 696.425781 1437.6875 696.808594 1437.246094 697.167969 C 1436.808594 697.53125 1436.351562 697.871094 1435.875 698.1875 C 1435.402344 698.503906 1434.914062 698.796875 1434.414062 699.0625 C 1433.910156 699.332031 1433.398438 699.574219 1432.871094 699.792969 C 1432.34375 700.011719 1431.808594 700.203125 1431.265625 700.367188 C 1430.71875 700.535156 1430.167969 700.671875 1429.609375 700.785156 C 1429.050781 700.894531 1428.488281 700.976562 1427.921875 701.035156 C 1427.355469 701.089844 1426.785156 701.117188 1426.21875 701.117188 C 1425.648438 701.117188 1425.078125 701.089844 1424.511719 701.035156 C 1423.945312 700.976562 1423.382812 700.894531 1422.824219 700.785156 C 1422.265625 700.671875 1421.714844 700.535156 1421.167969 700.367188 C 1420.625 700.203125 1420.089844 700.011719 1419.5625 699.792969 C 1419.039062 699.574219 1418.523438 699.332031 1418.019531 699.0625 C 1417.519531 698.796875 1417.03125 698.503906 1416.558594 698.1875 C 1416.082031 697.871094 1415.628906 697.53125 1415.1875 697.167969 C 1414.746094 696.808594 1414.324219 696.425781 1413.921875 696.023438 C 1413.519531 695.621094 1413.136719 695.199219 1412.777344 694.757812 C 1412.414062 694.316406 1412.078125 693.859375 1411.761719 693.386719 C 1411.445312 692.914062 1411.152344 692.425781 1410.882812 691.921875 C 1410.613281 691.421875 1410.371094 690.90625 1410.152344 690.378906 C 1409.9375 689.855469 1409.746094 689.316406 1409.578125 688.773438 C 1409.414062 688.226562 1409.277344 687.675781 1409.164062 687.117188 C 1409.054688 686.558594 1408.96875 685.996094 1408.914062 685.429688 C 1408.859375 684.863281 1408.832031 684.292969 1408.832031 683.722656 C 1408.832031 683.152344 1408.859375 682.585938 1408.914062 682.019531 C 1408.96875 681.453125 1409.054688 680.890625 1409.164062 680.328125 C 1409.277344 679.769531 1409.414062 679.21875 1409.578125 678.675781 C 1409.746094 678.128906 1409.9375 677.59375 1410.152344 677.066406 C 1410.371094 676.539062 1410.613281 676.027344 1410.882812 675.523438 C 1411.152344 675.023438 1411.445312 674.535156 1411.761719 674.058594 C 1412.078125 673.585938 1412.414062 673.128906 1412.777344 672.6875 C 1413.136719 672.25 1413.519531 671.828125 1413.921875 671.425781 C 1414.324219 671.019531 1414.746094 670.640625 1415.1875 670.277344 C 1415.628906 669.917969 1416.082031 669.578125 1416.558594 669.261719 C 1417.03125 668.945312 1417.519531 668.652344 1418.019531 668.382812 C 1418.523438 668.113281 1419.039062 667.871094 1419.5625 667.652344 C 1420.089844 667.433594 1420.625 667.242188 1421.167969 667.078125 C 1421.714844 666.914062 1422.265625 666.773438 1422.824219 666.664062 C 1423.382812 666.550781 1423.945312 666.46875 1424.511719 666.414062 C 1425.078125 666.355469 1425.648438 666.328125 1426.21875 666.328125 C 1426.785156 666.328125 1427.355469 666.355469 1427.921875 666.414062 C 1428.488281 666.46875 1429.050781 666.550781 1429.609375 666.664062 C 1430.167969 666.773438 1430.71875 666.914062 1431.265625 667.078125 C 1431.808594 667.242188 1432.34375 667.433594 1432.871094 667.652344 C 1433.398438 667.871094 1433.910156 668.113281 1434.414062 668.382812 C 1434.914062 668.652344 1435.402344 668.945312 1435.875 669.261719 C 1436.351562 669.578125 1436.808594 669.917969 1437.246094 670.277344 C 1437.6875 670.640625 1438.109375 671.019531 1438.511719 671.425781 C 1438.914062 671.828125 1439.296875 672.25 1439.65625 672.6875 C 1440.019531 673.128906 1440.355469 673.585938 1440.671875 674.058594 C 1440.988281 674.535156 1441.28125 675.023438 1441.550781 675.523438 C 1441.820312 676.027344 1442.0625 676.539062 1442.28125 677.066406 C 1442.496094 677.59375 1442.691406 678.128906 1442.855469 678.675781 C 1443.019531 679.21875 1443.160156 679.769531 1443.269531 680.328125 C 1443.378906 680.890625 1443.464844 681.453125 1443.519531 682.019531 C 1443.574219 682.585938 1443.601562 683.152344 1443.601562 683.722656 Z M 1443.601562 683.722656 " clip-rule="nonzero"/></clipPath><linearGradient x1="120.899991" gradientTransform="matrix(1.538635, 0, 0, 1.539306, 1222.809326, 666.329357)" y1="95.099998" x2="141.157942" gradientUnits="userSpaceOnUse" y2="95.099998" id="ea36cd61a7"><stop stop-opacity="1" stop-color="rgb(41.455078%, 88.644409%, 42.030334%)" offset="0"/><stop stop-opacity="1" stop-color="rgb(41.563416%, 88.679504%, 42.037964%)" offset="0.03125"/><stop stop-opacity="1" stop-color="rgb(41.78009%, 88.752747%, 42.054749%)" offset="0.0625"/><stop stop-opacity="1" stop-color="rgb(41.996765%, 88.824463%, 42.071533%)" offset="0.09375"/><stop stop-opacity="1" stop-color="rgb(42.214966%, 88.896179%, 42.088318%)" offset="0.125"/><stop stop-opacity="1" stop-color="rgb(42.431641%, 88.967896%, 42.105103%)" offset="0.15625"/><stop stop-opacity="1" stop-color="rgb(42.648315%, 89.039612%, 42.121887%)" offset="0.1875"/><stop stop-opacity="1" stop-color="rgb(42.86499%, 89.111328%, 42.140198%)" offset="0.21875"/><stop stop-opacity="1" stop-color="rgb(43.083191%, 89.18457%, 42.156982%)" offset="0.25"/><stop stop-opacity="1" stop-color="rgb(43.299866%, 89.256287%, 42.173767%)" offset="0.28125"/><stop stop-opacity="1" stop-color="rgb(43.516541%, 89.328003%, 42.190552%)" offset="0.3125"/><stop stop-opacity="1" stop-color="rgb(43.733215%, 89.399719%, 42.207336%)" offset="0.34375"/><stop stop-opacity="1" stop-color="rgb(43.951416%, 89.471436%, 42.224121%)" offset="0.375"/><stop stop-opacity="1" stop-color="rgb(44.168091%, 89.543152%, 42.240906%)" offset="0.40625"/><stop stop-opacity="1" stop-color="rgb(44.384766%, 89.616394%, 42.25769%)" offset="0.4375"/><stop stop-opacity="1" stop-color="rgb(44.60144%, 89.68811%, 42.274475%)" offset="0.46875"/><stop stop-opacity="1" stop-color="rgb(44.819641%, 89.759827%, 42.29126%)" offset="0.5"/><stop stop-opacity="1" stop-color="rgb(45.036316%, 89.831543%, 42.308044%)" offset="0.53125"/><stop stop-opacity="1" stop-color="rgb(45.252991%, 89.903259%, 42.326355%)" offset="0.5625"/><stop stop-opacity="1" stop-color="rgb(45.469666%, 89.974976%, 42.34314%)" offset="0.59375"/><stop stop-opacity="1" stop-color="rgb(45.687866%, 90.048218%, 42.359924%)" offset="0.625"/><stop stop-opacity="1" stop-color="rgb(45.904541%, 90.119934%, 42.376709%)" offset="0.65625"/><stop stop-opacity="1" stop-color="rgb(46.121216%, 90.19165%, 42.393494%)" offset="0.6875"/><stop stop-opacity="1" stop-color="rgb(46.337891%, 90.263367%, 42.410278%)" offset="0.71875"/><stop stop-opacity="1" stop-color="rgb(46.556091%, 90.335083%, 42.427063%)" offset="0.75"/><stop stop-opacity="1" stop-color="rgb(46.772766%, 90.406799%, 42.443848%)" offset="0.78125"/><stop stop-opacity="1" stop-color="rgb(46.989441%, 90.480042%, 42.460632%)" offset="0.8125"/><stop stop-opacity="1" stop-color="rgb(47.207642%, 90.551758%, 42.477417%)" offset="0.84375"/><stop stop-opacity="1" stop-color="rgb(47.424316%, 90.623474%, 42.494202%)" offset="0.875"/><stop stop-opacity="1" stop-color="rgb(47.640991%, 90.69519%, 42.510986%)" offset="0.90625"/><stop stop-opacity="1" stop-color="rgb(47.857666%, 90.766907%, 42.529297%)" offset="0.9375"/><stop stop-opacity="1" stop-color="rgb(48.075867%, 90.838623%, 42.546082%)" offset="0.96875"/><stop stop-opacity="1" stop-color="rgb(48.292542%, 90.911865%, 42.562866%)" offset="1"/></linearGradient><clipPath id="3e84ab312c"><path d="M 1230 760 L 1253 760 L 1253 784 L 1230 784 Z M 1230 760 " clip-rule="nonzero"/></clipPath><clipPath id="00f98ac1ed"><path d="M 1252.660156 772.078125 C 1252.660156 772.816406 1252.585938 773.546875 1252.441406 774.273438 C 1252.300781 774.996094 1252.085938 775.699219 1251.804688 776.378906 C 1251.523438 777.0625 1251.175781 777.710938 1250.765625 778.324219 C 1250.355469 778.9375 1249.890625 779.503906 1249.367188 780.023438 C 1248.847656 780.546875 1248.28125 781.011719 1247.667969 781.421875 C 1247.054688 781.832031 1246.40625 782.179688 1245.726562 782.460938 C 1245.042969 782.742188 1244.339844 782.957031 1243.617188 783.101562 C 1242.894531 783.246094 1242.164062 783.316406 1241.425781 783.316406 C 1240.6875 783.316406 1239.957031 783.246094 1239.234375 783.101562 C 1238.511719 782.957031 1237.808594 782.742188 1237.128906 782.460938 C 1236.445312 782.179688 1235.800781 781.832031 1235.1875 781.421875 C 1234.574219 781.011719 1234.007812 780.546875 1233.484375 780.023438 C 1232.964844 779.503906 1232.496094 778.9375 1232.085938 778.324219 C 1231.679688 777.710938 1231.332031 777.0625 1231.050781 776.378906 C 1230.765625 775.699219 1230.554688 774.996094 1230.410156 774.273438 C 1230.265625 773.546875 1230.195312 772.816406 1230.195312 772.078125 C 1230.195312 771.34375 1230.265625 770.609375 1230.410156 769.886719 C 1230.554688 769.164062 1230.765625 768.460938 1231.050781 767.78125 C 1231.332031 767.097656 1231.679688 766.449219 1232.085938 765.835938 C 1232.496094 765.222656 1232.964844 764.65625 1233.484375 764.132812 C 1234.007812 763.613281 1234.574219 763.144531 1235.1875 762.738281 C 1235.800781 762.328125 1236.445312 761.980469 1237.128906 761.699219 C 1237.808594 761.414062 1238.511719 761.203125 1239.234375 761.058594 C 1239.957031 760.914062 1240.6875 760.84375 1241.425781 760.84375 C 1242.164062 760.84375 1242.894531 760.914062 1243.617188 761.058594 C 1244.339844 761.203125 1245.042969 761.414062 1245.726562 761.699219 C 1246.40625 761.980469 1247.054688 762.328125 1247.667969 762.738281 C 1248.28125 763.144531 1248.847656 763.613281 1249.367188 764.132812 C 1249.890625 764.65625 1250.355469 765.222656 1250.765625 765.835938 C 1251.175781 766.449219 1251.523438 767.097656 1251.804688 767.78125 C 1252.085938 768.460938 1252.300781 769.164062 1252.441406 769.886719 C 1252.585938 770.609375 1252.660156 771.34375 1252.660156 772.078125 Z M 1252.660156 772.078125 " clip-rule="nonzero"/></clipPath><linearGradient x1="4.800002" gradientTransform="matrix(1.538635, 0, 0, 1.539306, 1222.809326, 666.329357)" y1="95.099998" x2="19.400003" gradientUnits="userSpaceOnUse" y2="95.099998" id="350d2615c3"><stop stop-opacity="1" stop-color="rgb(1.644897%, 75.445557%, 38.928223%)" offset="0"/><stop stop-opacity="1" stop-color="rgb(1.800537%, 75.497437%, 38.94043%)" offset="0.0625"/><stop stop-opacity="1" stop-color="rgb(2.113342%, 75.601196%, 38.964844%)" offset="0.125"/><stop stop-opacity="1" stop-color="rgb(2.426147%, 75.704956%, 38.987732%)" offset="0.1875"/><stop stop-opacity="1" stop-color="rgb(2.738953%, 75.808716%, 39.012146%)" offset="0.25"/><stop stop-opacity="1" stop-color="rgb(3.051758%, 75.912476%, 39.03656%)" offset="0.3125"/><stop stop-opacity="1" stop-color="rgb(3.364563%, 76.016235%, 39.060974%)" offset="0.375"/><stop stop-opacity="1" stop-color="rgb(3.678894%, 76.119995%, 39.085388%)" offset="0.4375"/><stop stop-opacity="1" stop-color="rgb(3.991699%, 76.223755%, 39.109802%)" offset="0.5"/><stop stop-opacity="1" stop-color="rgb(4.304504%, 76.327515%, 39.134216%)" offset="0.5625"/><stop stop-opacity="1" stop-color="rgb(4.61731%, 76.431274%, 39.15863%)" offset="0.625"/><stop stop-opacity="1" stop-color="rgb(4.930115%, 76.535034%, 39.183044%)" offset="0.6875"/><stop stop-opacity="1" stop-color="rgb(5.24292%, 76.637268%, 39.207458%)" offset="0.75"/><stop stop-opacity="1" stop-color="rgb(5.555725%, 76.741028%, 39.231873%)" offset="0.8125"/><stop stop-opacity="1" stop-color="rgb(5.86853%, 76.844788%, 39.256287%)" offset="0.875"/><stop stop-opacity="1" stop-color="rgb(6.181335%, 76.948547%, 39.280701%)" offset="0.9375"/><stop stop-opacity="1" stop-color="rgb(6.494141%, 77.052307%, 39.305115%)" offset="1"/></linearGradient><clipPath id="9a51686156"><path d="M 0 0 L 80 0 L 80 184 L 0 184 Z M 0 0 " clip-rule="nonzero"/></clipPath><clipPath id="e71a581da1"><path d="M 47.792969 20.058594 C 49.984375 13.945312 51.082031 7.199219 50.925781 0.296875 C 50.613281 -30.128906 26.011719 -55.382812 -4.230469 -56.636719 C -22.089844 -57.421875 -38.386719 -49.890625 -49.511719 -37.816406 C -59.695312 -26.679688 -76.617188 -24.953125 -89.308594 -32.953125 C -106.390625 -43.773438 -126.757812 -49.578125 -148.695312 -48.636719 C -200.714844 -46.128906 -242.863281 -3.9375 -245.371094 48.136719 C -248.191406 106.636719 -201.496094 154.945312 -143.679688 154.945312 C -126.914062 154.945312 -110.933594 150.867188 -96.988281 143.652344 C -83.199219 136.4375 -66.433594 140.203125 -57.1875 152.75 C -40.582031 175.335938 -11.75 188.351562 19.429688 182.078125 C 46.222656 176.746094 73.019531 149.769531 78.34375 122.792969 C 83.671875 95.03125 73.957031 69.152344 55.9375 52.214844 C 47.164062 44.214844 43.875 31.511719 47.792969 20.058594 Z M -41.675781 47.039062 C -41.832031 47.195312 -41.832031 47.195312 -41.992188 47.351562 C -41.992188 47.195312 -41.992188 47.039062 -41.992188 46.722656 C -41.992188 46.878906 -41.832031 47.039062 -41.675781 47.039062 Z M -41.675781 47.039062 " clip-rule="nonzero"/></clipPath><linearGradient x1="156.698928" gradientTransform="matrix(1.56687, 0, 0, 1.568433, -245.526912, -87.534039)" y1="96.306999" x2="210.100003" gradientUnits="userSpaceOnUse" y2="96.306999" id="d7d3725d99"><stop stop-opacity="1" stop-color="rgb(18.460083%, 81.021118%, 40.237427%)" offset="0"/><stop stop-opacity="1" stop-color="rgb(18.307495%, 80.969238%, 40.22522%)" offset="0.015625"/><stop stop-opacity="1" stop-color="rgb(18.002319%, 80.86853%, 40.202332%)" offset="0.03125"/><stop stop-opacity="1" stop-color="rgb(17.698669%, 80.767822%, 40.177917%)" offset="0.046875"/><stop stop-opacity="1" stop-color="rgb(17.393494%, 80.667114%, 40.155029%)" offset="0.0625"/><stop stop-opacity="1" stop-color="rgb(17.088318%, 80.56488%, 40.130615%)" offset="0.078125"/><stop stop-opacity="1" stop-color="rgb(16.783142%, 80.464172%, 40.107727%)" offset="0.09375"/><stop stop-opacity="1" stop-color="rgb(16.479492%, 80.363464%, 40.083313%)" offset="0.109375"/><stop stop-opacity="1" stop-color="rgb(16.174316%, 80.262756%, 40.058899%)" offset="0.125"/><stop stop-opacity="1" stop-color="rgb(15.869141%, 80.160522%, 40.036011%)" offset="0.140625"/><stop stop-opacity="1" stop-color="rgb(15.563965%, 80.059814%, 40.011597%)" offset="0.15625"/><stop stop-opacity="1" stop-color="rgb(15.260315%, 79.959106%, 39.988708%)" offset="0.171875"/><stop stop-opacity="1" stop-color="rgb(14.955139%, 79.858398%, 39.964294%)" offset="0.1875"/><stop stop-opacity="1" stop-color="rgb(14.649963%, 79.75769%, 39.941406%)" offset="0.203125"/><stop stop-opacity="1" stop-color="rgb(14.346313%, 79.655457%, 39.916992%)" offset="0.21875"/><stop stop-opacity="1" stop-color="rgb(14.041138%, 79.554749%, 39.892578%)" offset="0.234375"/><stop stop-opacity="1" stop-color="rgb(13.735962%, 79.454041%, 39.86969%)" offset="0.25"/><stop stop-opacity="1" stop-color="rgb(13.430786%, 79.353333%, 39.845276%)" offset="0.265625"/><stop stop-opacity="1" stop-color="rgb(13.127136%, 79.251099%, 39.822388%)" offset="0.28125"/><stop stop-opacity="1" stop-color="rgb(12.82196%, 79.150391%, 39.797974%)" offset="0.296875"/><stop stop-opacity="1" stop-color="rgb(12.516785%, 79.049683%, 39.775085%)" offset="0.3125"/><stop stop-opacity="1" stop-color="rgb(12.211609%, 78.948975%, 39.750671%)" offset="0.328125"/><stop stop-opacity="1" stop-color="rgb(11.907959%, 78.846741%, 39.727783%)" offset="0.34375"/><stop stop-opacity="1" stop-color="rgb(11.602783%, 78.746033%, 39.703369%)" offset="0.359375"/><stop stop-opacity="1" stop-color="rgb(11.297607%, 78.645325%, 39.678955%)" offset="0.375"/><stop stop-opacity="1" stop-color="rgb(10.992432%, 78.544617%, 39.656067%)" offset="0.390625"/><stop stop-opacity="1" stop-color="rgb(10.688782%, 78.443909%, 39.631653%)" offset="0.40625"/><stop stop-opacity="1" stop-color="rgb(10.383606%, 78.341675%, 39.608765%)" offset="0.421875"/><stop stop-opacity="1" stop-color="rgb(10.07843%, 78.240967%, 39.584351%)" offset="0.4375"/><stop stop-opacity="1" stop-color="rgb(9.773254%, 78.140259%, 39.561462%)" offset="0.453125"/><stop stop-opacity="1" stop-color="rgb(9.469604%, 78.039551%, 39.537048%)" offset="0.46875"/><stop stop-opacity="1" stop-color="rgb(9.164429%, 77.937317%, 39.512634%)" offset="0.484375"/><stop stop-opacity="1" stop-color="rgb(8.859253%, 77.836609%, 39.489746%)" offset="0.5"/><stop stop-opacity="1" stop-color="rgb(8.554077%, 77.735901%, 39.465332%)" offset="0.515625"/><stop stop-opacity="1" stop-color="rgb(8.250427%, 77.635193%, 39.442444%)" offset="0.53125"/><stop stop-opacity="1" stop-color="rgb(7.945251%, 77.534485%, 39.41803%)" offset="0.546875"/><stop stop-opacity="1" stop-color="rgb(7.640076%, 77.432251%, 39.395142%)" offset="0.5625"/><stop stop-opacity="1" stop-color="rgb(7.3349%, 77.331543%, 39.370728%)" offset="0.578125"/><stop stop-opacity="1" stop-color="rgb(7.03125%, 77.230835%, 39.346313%)" offset="0.59375"/><stop stop-opacity="1" stop-color="rgb(6.726074%, 77.130127%, 39.323425%)" offset="0.609375"/><stop stop-opacity="1" stop-color="rgb(6.420898%, 77.027893%, 39.299011%)" offset="0.625"/><stop stop-opacity="1" stop-color="rgb(6.115723%, 76.927185%, 39.276123%)" offset="0.640625"/><stop stop-opacity="1" stop-color="rgb(5.812073%, 76.826477%, 39.251709%)" offset="0.65625"/><stop stop-opacity="1" stop-color="rgb(5.506897%, 76.725769%, 39.228821%)" offset="0.671875"/><stop stop-opacity="1" stop-color="rgb(5.201721%, 76.623535%, 39.204407%)" offset="0.6875"/><stop stop-opacity="1" stop-color="rgb(4.896545%, 76.522827%, 39.179993%)" offset="0.703125"/><stop stop-opacity="1" stop-color="rgb(4.592896%, 76.422119%, 39.157104%)" offset="0.71875"/><stop stop-opacity="1" stop-color="rgb(4.28772%, 76.321411%, 39.13269%)" offset="0.734375"/><stop stop-opacity="1" stop-color="rgb(3.982544%, 76.220703%, 39.109802%)" offset="0.75"/><stop stop-opacity="1" stop-color="rgb(3.677368%, 76.118469%, 39.085388%)" offset="0.765625"/><stop stop-opacity="1" stop-color="rgb(3.373718%, 76.017761%, 39.0625%)" offset="0.78125"/><stop stop-opacity="1" stop-color="rgb(3.068542%, 75.917053%, 39.038086%)" offset="0.796875"/><stop stop-opacity="1" stop-color="rgb(2.763367%, 75.816345%, 39.013672%)" offset="0.8125"/><stop stop-opacity="1" stop-color="rgb(2.458191%, 75.714111%, 38.990784%)" offset="0.828125"/><stop stop-opacity="1" stop-color="rgb(2.154541%, 75.613403%, 38.96637%)" offset="0.84375"/><stop stop-opacity="1" stop-color="rgb(1.849365%, 75.512695%, 38.943481%)" offset="0.859375"/><stop stop-opacity="1" stop-color="rgb(1.544189%, 75.411987%, 38.919067%)" offset="0.875"/><stop stop-opacity="1" stop-color="rgb(1.239014%, 75.309753%, 38.896179%)" offset="0.890625"/><stop stop-opacity="1" stop-color="rgb(0.935364%, 75.209045%, 38.871765%)" offset="0.90625"/><stop stop-opacity="1" stop-color="rgb(0.630188%, 75.108337%, 38.847351%)" offset="0.921875"/><stop stop-opacity="1" stop-color="rgb(0.325012%, 75.007629%, 38.824463%)" offset="0.9375"/><stop stop-opacity="1" stop-color="rgb(0.0869751%, 74.928284%, 38.804626%)" offset="1"/></linearGradient><clipPath id="789bb144a7"><path d="M 60 0 L 110.308594 0 L 110.308594 48 L 60 48 Z M 60 0 " clip-rule="nonzero"/></clipPath><clipPath id="bc280de570"><path d="M 110.308594 22.257812 C 110.308594 23.078125 110.269531 23.898438 110.1875 24.714844 C 110.109375 25.535156 109.988281 26.347656 109.828125 27.152344 C 109.667969 27.957031 109.46875 28.753906 109.230469 29.539062 C 108.992188 30.328125 108.714844 31.101562 108.402344 31.859375 C 108.085938 32.617188 107.734375 33.359375 107.347656 34.085938 C 106.960938 34.8125 106.539062 35.515625 106.085938 36.199219 C 105.628906 36.882812 105.140625 37.539062 104.617188 38.175781 C 104.097656 38.8125 103.546875 39.417969 102.964844 40 C 102.386719 40.582031 101.777344 41.132812 101.144531 41.65625 C 100.507812 42.175781 99.851562 42.664062 99.167969 43.121094 C 98.484375 43.578125 97.78125 44 97.058594 44.386719 C 96.332031 44.777344 95.59375 45.125 94.832031 45.441406 C 94.074219 45.753906 93.300781 46.03125 92.515625 46.269531 C 91.730469 46.507812 90.9375 46.707031 90.128906 46.867188 C 89.324219 47.03125 88.515625 47.148438 87.695312 47.230469 C 86.878906 47.3125 86.058594 47.351562 85.238281 47.351562 C 84.417969 47.351562 83.597656 47.3125 82.78125 47.230469 C 81.964844 47.148438 81.152344 47.03125 80.347656 46.867188 C 79.542969 46.707031 78.746094 46.507812 77.960938 46.269531 C 77.175781 46.03125 76.402344 45.753906 75.644531 45.441406 C 74.886719 45.125 74.144531 44.777344 73.421875 44.386719 C 72.699219 44 71.992188 43.578125 71.3125 43.121094 C 70.628906 42.664062 69.96875 42.175781 69.335938 41.65625 C 68.699219 41.132812 68.09375 40.582031 67.511719 40 C 66.933594 39.417969 66.382812 38.8125 65.859375 38.175781 C 65.339844 37.539062 64.851562 36.882812 64.394531 36.199219 C 63.9375 35.515625 63.515625 34.8125 63.128906 34.085938 C 62.742188 33.359375 62.390625 32.617188 62.078125 31.859375 C 61.761719 31.101562 61.488281 30.328125 61.25 29.539062 C 61.011719 28.753906 60.8125 27.957031 60.652344 27.152344 C 60.492188 26.347656 60.371094 25.535156 60.289062 24.714844 C 60.210938 23.898438 60.167969 23.078125 60.167969 22.257812 C 60.167969 21.433594 60.210938 20.613281 60.289062 19.796875 C 60.371094 18.980469 60.492188 18.167969 60.652344 17.359375 C 60.8125 16.554688 61.011719 15.757812 61.25 14.972656 C 61.488281 14.183594 61.761719 13.414062 62.078125 12.652344 C 62.390625 11.894531 62.742188 11.152344 63.128906 10.425781 C 63.515625 9.703125 63.9375 8.996094 64.394531 8.3125 C 64.851562 7.632812 65.339844 6.972656 65.859375 6.335938 C 66.382812 5.699219 66.933594 5.09375 67.511719 4.511719 C 68.09375 3.929688 68.699219 3.378906 69.335938 2.859375 C 69.96875 2.335938 70.628906 1.847656 71.3125 1.390625 C 71.992188 0.933594 72.699219 0.511719 73.421875 0.125 C 74.144531 -0.261719 74.886719 -0.613281 75.644531 -0.929688 C 76.402344 -1.242188 77.175781 -1.519531 77.960938 -1.757812 C 78.746094 -1.996094 79.542969 -2.195312 80.347656 -2.355469 C 81.152344 -2.515625 81.964844 -2.636719 82.78125 -2.71875 C 83.597656 -2.796875 84.417969 -2.839844 85.238281 -2.839844 C 86.058594 -2.839844 86.878906 -2.796875 87.695312 -2.71875 C 88.515625 -2.636719 89.324219 -2.515625 90.128906 -2.355469 C 90.9375 -2.195312 91.730469 -1.996094 92.515625 -1.757812 C 93.300781 -1.519531 94.074219 -1.242188 94.832031 -0.929688 C 95.59375 -0.613281 96.332031 -0.261719 97.058594 0.125 C 97.78125 0.511719 98.484375 0.933594 99.167969 1.390625 C 99.851562 1.847656 100.507812 2.335938 101.144531 2.859375 C 101.777344 3.378906 102.386719 3.929688 102.964844 4.511719 C 103.546875 5.09375 104.097656 5.699219 104.617188 6.335938 C 105.140625 6.972656 105.628906 7.632812 106.085938 8.3125 C 106.539062 8.996094 106.960938 9.703125 107.347656 10.425781 C 107.734375 11.152344 108.085938 11.894531 108.402344 12.652344 C 108.714844 13.414062 108.992188 14.183594 109.230469 14.972656 C 109.46875 15.757812 109.667969 16.554688 109.828125 17.359375 C 109.988281 18.167969 110.109375 18.980469 110.1875 19.796875 C 110.269531 20.613281 110.308594 21.433594 110.308594 22.257812 Z M 110.308594 22.257812 " clip-rule="nonzero"/></clipPath><linearGradient x1="195.100004" gradientTransform="matrix(1.56687, 0, 0, 1.568433, -245.526912, -87.534039)" y1="96.306999" x2="227.100002" gradientUnits="userSpaceOnUse" y2="96.306999" id="c5025a26eb"><stop stop-opacity="1" stop-color="rgb(4.432678%, 76.368713%, 39.144897%)" offset="0"/><stop stop-opacity="1" stop-color="rgb(4.249573%, 76.307678%, 39.129639%)" offset="0.03125"/><stop stop-opacity="1" stop-color="rgb(3.884888%, 76.187134%, 39.102173%)" offset="0.0625"/><stop stop-opacity="1" stop-color="rgb(3.520203%, 76.066589%, 39.073181%)" offset="0.09375"/><stop stop-opacity="1" stop-color="rgb(3.153992%, 75.944519%, 39.044189%)" offset="0.125"/><stop stop-opacity="1" stop-color="rgb(2.789307%, 75.823975%, 39.016724%)" offset="0.15625"/><stop stop-opacity="1" stop-color="rgb(2.423096%, 75.70343%, 38.987732%)" offset="0.1875"/><stop stop-opacity="1" stop-color="rgb(2.058411%, 75.58136%, 38.95874%)" offset="0.21875"/><stop stop-opacity="1" stop-color="rgb(1.693726%, 75.460815%, 38.931274%)" offset="0.25"/><stop stop-opacity="1" stop-color="rgb(1.327515%, 75.338745%, 38.902283%)" offset="0.28125"/><stop stop-opacity="1" stop-color="rgb(0.96283%, 75.218201%, 38.873291%)" offset="0.3125"/><stop stop-opacity="1" stop-color="rgb(0.596619%, 75.097656%, 38.845825%)" offset="0.34375"/><stop stop-opacity="1" stop-color="rgb(0.231934%, 74.975586%, 38.816833%)" offset="0.375"/><stop stop-opacity="1" stop-color="rgb(0.0244141%, 74.906921%, 38.800049%)" offset="0.5"/><stop stop-opacity="1" stop-color="rgb(0%, 74.899292%, 38.798523%)" offset="1"/></linearGradient></defs><g clip-path="url(#ccec064b8f)"><g clip-path="url(#d771bf707b)"><path fill="url(#ad06b3ccd5)" d="M 1222.808594 677.257812 L 1222.808594 810 L 1440 810 L 1440 677.257812 Z M 1222.808594 677.257812 " fill-rule="nonzero"/></g></g><g clip-path="url(#8be3cf9be9)"><g clip-path="url(#2c6671e0ed)"><path fill="url(#ea36cd61a7)" d="M 1408.832031 666.328125 L 1408.832031 701.117188 L 1440 701.117188 L 1440 666.328125 Z M 1408.832031 666.328125 " fill-rule="nonzero"/></g></g><g clip-path="url(#3e84ab312c)"><g clip-path="url(#00f98ac1ed)"><path fill="url(#350d2615c3)" d="M 1230.195312 760.84375 L 1230.195312 783.316406 L 1252.660156 783.316406 L 1252.660156 760.84375 Z M 1230.195312 760.84375 " fill-rule="nonzero"/></g></g><g clip-path="url(#9a51686156)"><g clip-path="url(#e71a581da1)"><path fill="url(#d7d3725d99)" d="M 0 0 L 0 188.351562 L 83.671875 188.351562 L 83.671875 0 Z M 0 0 " fill-rule="nonzero"/></g></g><g clip-path="url(#789bb144a7)"><g clip-path="url(#bc280de570)"><path fill="url(#c5025a26eb)" d="M 60.167969 0 L 60.167969 47.351562 L 110.308594 47.351562 L 110.308594 0 Z M 60.167969 0 " fill-rule="nonzero"/></g></g></svg>