<svg xmlns="http://www.w3.org/2000/svg" xmlns:xlink="http://www.w3.org/1999/xlink" width="1920" zoomAndPan="magnify" viewBox="0 0 1440 809.999993" height="1080" preserveAspectRatio="xMidYMid meet" version="1.0"><defs><clipPath id="f813cc1a67"><path d="M 1177 713 L 1419 713 L 1419 810 L 1177 810 Z M 1177 713 " clip-rule="nonzero"/></clipPath><clipPath id="11277d849c"><path d="M 1479.082031 895.589844 L 1277.191406 1004.71875 L 1157.714844 783.695312 L 1359.609375 674.5625 Z M 1479.082031 895.589844 " clip-rule="nonzero"/></clipPath><clipPath id="29f53887b4"><path d="M 1479.082031 895.589844 L 1277.191406 1004.71875 L 1157.714844 783.695312 L 1359.609375 674.5625 Z M 1479.082031 895.589844 " clip-rule="nonzero"/></clipPath><clipPath id="8278fd5f6b"><path d="M 1285 621 L 1440 621 L 1440 810 L 1285 810 Z M 1285 621 " clip-rule="nonzero"/></clipPath><clipPath id="fb597cae67"><path d="M 1503.347656 842.90625 L 1275.472656 815.660156 L 1300.851562 603.421875 L 1528.726562 630.667969 Z M 1503.347656 842.90625 " clip-rule="nonzero"/></clipPath><clipPath id="735a6d906f"><path d="M 1503.347656 842.90625 L 1275.472656 815.660156 L 1300.851562 603.421875 L 1528.726562 630.667969 Z M 1503.347656 842.90625 " clip-rule="nonzero"/></clipPath><clipPath id="a3e831c373"><path d="M 0 0 L 37 0 L 37 308.382812 L 0 308.382812 Z M 0 0 " clip-rule="nonzero"/></clipPath></defs><g clip-path="url(#f813cc1a67)"><g clip-path="url(#11277d849c)"><g clip-path="url(#29f53887b4)"><path fill="#0c5f52" d="M 1351.097656 964.539062 C 1343.054688 968.917969 1334.234375 972.394531 1324.96875 974.734375 C 1313.207031 977.699219 1301.324219 978.148438 1289.328125 976.464844 C 1284.898438 975.84375 1280.515625 974.949219 1276.230469 973.640625 C 1270.496094 971.890625 1265.378906 969.03125 1260.851562 965.101562 C 1258.058594 962.683594 1255.347656 960.179688 1253.050781 957.261719 C 1251.554688 955.355469 1250.191406 953.355469 1248.882812 951.320312 C 1247.75 949.566406 1246.609375 947.808594 1245.546875 946 C 1244.167969 943.652344 1243.308594 941.085938 1242.648438 938.445312 C 1241.539062 934 1241.199219 929.460938 1240.886719 924.917969 C 1240.445312 918.480469 1240.632812 912.035156 1240.667969 905.59375 C 1240.703125 898.773438 1240.566406 891.964844 1239.289062 885.238281 C 1238.433594 880.746094 1237.117188 876.410156 1235.257812 872.21875 C 1232.527344 866.058594 1228.566406 860.769531 1224.019531 855.863281 C 1219.4375 850.925781 1214.398438 846.464844 1209.375 841.984375 C 1203.585938 836.820312 1197.796875 831.660156 1192.679688 825.800781 C 1189.382812 822.027344 1186.355469 818.0625 1183.882812 813.664062 C 1180.910156 808.382812 1178.730469 802.859375 1178.121094 796.792969 C 1177.433594 789.910156 1178.90625 783.484375 1182.410156 777.542969 C 1185.265625 772.699219 1189.160156 768.816406 1193.683594 765.519531 C 1199.691406 761.136719 1206.421875 758.320312 1213.539062 756.328125 C 1220.316406 754.4375 1227.257812 753.53125 1234.246094 752.933594 C 1240.289062 752.417969 1246.355469 752.128906 1252.378906 751.445312 C 1259.734375 750.609375 1266.945312 749.191406 1273.90625 746.601562 C 1277.367188 745.316406 1280.746094 743.851562 1284.058594 742.21875 C 1286.59375 740.964844 1289.144531 739.738281 1291.601562 738.335938 C 1296.023438 735.824219 1300.429688 733.289062 1304.84375 730.765625 C 1309.726562 727.976562 1314.714844 725.402344 1319.824219 723.0625 C 1323.40625 721.421875 1327.039062 719.9375 1330.746094 718.613281 C 1338.355469 715.90625 1346.15625 714.105469 1354.253906 713.792969 C 1359.570312 713.589844 1364.839844 714.03125 1369.96875 715.511719 C 1376.332031 717.339844 1381.917969 720.476562 1386.265625 725.601562 C 1388.355469 728.058594 1389.988281 730.796875 1391.253906 733.761719 C 1393.820312 739.757812 1394.84375 746.097656 1395.496094 752.53125 C 1396.085938 758.332031 1396.273438 764.160156 1396.640625 769.96875 C 1397.085938 776.933594 1397.664062 783.882812 1398.941406 790.753906 C 1400.066406 796.816406 1401.769531 802.722656 1403.835938 808.527344 C 1405.824219 814.089844 1408.082031 819.546875 1410.21875 825.050781 C 1412.878906 831.898438 1415.320312 838.816406 1416.882812 846.019531 C 1419.214844 856.765625 1419.6875 867.554688 1417.84375 878.425781 C 1416.269531 887.683594 1413.242188 896.457031 1409.101562 904.855469 C 1402.355469 918.53125 1393.320312 930.511719 1382.433594 941.148438 C 1378.003906 945.46875 1373.363281 949.558594 1368.445312 953.3125 C 1365.089844 955.867188 1361.625 958.273438 1358.035156 960.507812 C 1355.875 961.851562 1353.65625 963.078125 1351.09375 964.523438 Z M 1294.378906 743.566406 C 1288.695312 746.679688 1283.296875 749.347656 1277.675781 751.539062 C 1272.507812 753.550781 1267.191406 755.027344 1261.746094 756.054688 C 1253.871094 757.539062 1245.890625 758.003906 1237.921875 758.597656 C 1231.503906 759.074219 1225.101562 759.703125 1218.808594 761.136719 C 1212.136719 762.65625 1205.757812 764.910156 1199.902344 768.519531 C 1196.707031 770.488281 1193.777344 772.777344 1191.261719 775.554688 C 1185.003906 782.457031 1182.558594 790.46875 1184.574219 799.671875 C 1185.8125 805.335938 1188.476562 810.375 1191.753906 815.089844 C 1195.085938 819.886719 1199.023438 824.175781 1203.199219 828.253906 C 1206.753906 831.726562 1210.472656 835.007812 1214.175781 838.320312 C 1219.160156 842.777344 1224.128906 847.253906 1228.683594 852.164062 C 1233.800781 857.683594 1238.089844 863.734375 1241.074219 870.6875 C 1243.410156 876.121094 1244.839844 881.785156 1245.679688 887.617188 C 1246.625 894.179688 1246.644531 900.785156 1246.582031 907.394531 C 1246.515625 914.410156 1246.429688 921.429688 1247.097656 928.429688 C 1247.546875 933.179688 1248.71875 937.722656 1250.8125 942.007812 C 1252.363281 945.175781 1253.949219 948.339844 1256.03125 951.210938 C 1257.5 953.238281 1258.964844 955.292969 1260.839844 956.957031 C 1264.582031 960.269531 1268.3125 963.59375 1272.867188 965.855469 C 1274.792969 966.808594 1276.730469 967.664062 1278.78125 968.238281 C 1284.410156 969.824219 1290.140625 970.804688 1295.964844 971.25 C 1302.652344 971.761719 1309.324219 971.59375 1315.953125 970.535156 C 1321.589844 969.640625 1327.078125 968.175781 1332.472656 966.296875 C 1336.691406 964.820312 1340.808594 963.09375 1344.824219 961.152344 C 1350.257812 958.527344 1355.402344 955.378906 1360.351562 951.929688 C 1364.894531 948.769531 1369.203125 945.3125 1373.316406 941.613281 C 1382.136719 933.691406 1390 924.941406 1396.507812 914.996094 C 1401.082031 908.003906 1404.980469 900.671875 1407.859375 892.8125 C 1410.214844 886.390625 1411.898438 879.8125 1412.640625 873.003906 C 1413.898438 861.476562 1412.363281 850.25 1408.964844 839.226562 C 1407.074219 833.070312 1404.65625 827.09375 1402.273438 821.113281 C 1400.269531 816.082031 1398.3125 811.035156 1396.65625 805.882812 C 1393.828125 797.089844 1392.179688 788.074219 1391.367188 778.886719 C 1390.761719 772.058594 1390.484375 765.207031 1390.039062 758.371094 C 1389.726562 753.535156 1389.265625 748.714844 1388.238281 743.972656 C 1387.300781 739.660156 1385.949219 735.511719 1383.472656 731.789062 C 1381.878906 729.402344 1379.972656 727.339844 1377.667969 725.65625 C 1373.667969 722.742188 1369.132812 721.136719 1364.296875 720.328125 C 1358.539062 719.355469 1352.78125 719.546875 1347.035156 720.476562 C 1337.191406 722.066406 1328.015625 725.660156 1319.105469 729.972656 C 1315.152344 731.882812 1311.335938 734.058594 1307.488281 736.164062 C 1302.953125 738.648438 1298.574219 741.394531 1294.386719 743.574219 Z M 1294.378906 743.566406 " fill-opacity="1" fill-rule="nonzero"/></g></g></g><g clip-path="url(#8278fd5f6b)"><g clip-path="url(#fb597cae67)"><g clip-path="url(#735a6d906f)"><path fill="#00bf63" d="M 1517.105469 720.027344 C 1516.421875 732.3125 1513.96875 743.816406 1509.707031 754.9375 C 1505.203125 766.679688 1498.898438 777.355469 1490.8125 786.972656 C 1483.375 795.824219 1474.71875 803.265625 1464.859375 809.304688 C 1452.542969 816.847656 1439.28125 822.027344 1425.214844 825.195312 C 1418.675781 826.667969 1412.0625 827.652344 1405.390625 828.175781 C 1400.105469 828.59375 1394.808594 828.726562 1389.5 828.570312 C 1386.402344 828.480469 1383.3125 828.285156 1380.230469 828.011719 C 1374.273438 827.480469 1368.375 826.527344 1362.542969 825.179688 C 1353.671875 823.136719 1345.097656 820.238281 1336.875 816.316406 C 1324.085938 810.226562 1313.035156 801.898438 1304.046875 790.910156 C 1296.949219 782.21875 1291.566406 772.574219 1288.289062 761.800781 C 1286.671875 756.5 1285.65625 751.085938 1285.414062 745.554688 C 1285.027344 736.640625 1286.816406 728.207031 1291.28125 720.425781 C 1295.121094 713.75 1300.503906 708.632812 1307.152344 704.808594 C 1313.113281 701.378906 1319.554688 699.296875 1326.308594 698.144531 C 1334.296875 696.777344 1342.316406 696.917969 1350.355469 697.765625 C 1357.976562 698.566406 1365.480469 700.011719 1372.9375 701.714844 C 1378.386719 702.960938 1383.75 704.496094 1389.125 706.023438 C 1392.445312 706.964844 1395.785156 707.835938 1399.277344 707.921875 C 1399.855469 707.9375 1400.40625 707.882812 1400.953125 707.695312 C 1403.628906 706.773438 1405.730469 705.1875 1407.328125 702.785156 C 1410.070312 698.648438 1410.960938 694.097656 1410.785156 689.265625 C 1410.660156 685.769531 1410.070312 682.332031 1409.261719 678.9375 C 1408.804688 676.988281 1408.628906 675.007812 1408.515625 673.023438 C 1408.207031 667.582031 1407.96875 662.144531 1408.460938 656.699219 C 1409.058594 650.144531 1410.5625 643.851562 1413.863281 638.082031 C 1417.523438 631.695312 1422.667969 626.960938 1429.5 624.128906 C 1433.152344 622.617188 1436.976562 621.84375 1440.921875 621.65625 C 1449.636719 621.238281 1457.769531 623.441406 1465.558594 627.144531 C 1473.078125 630.722656 1479.777344 635.511719 1485.816406 641.222656 C 1496.660156 651.488281 1504.730469 663.648438 1510.226562 677.527344 C 1513.300781 685.300781 1515.296875 693.367188 1516.355469 701.664062 C 1517.152344 707.898438 1517.34375 714.144531 1517.101562 720.019531 Z M 1511.890625 720.097656 C 1511.933594 719.25 1511.992188 718.394531 1512.015625 717.539062 C 1512.1875 712.125 1511.894531 706.722656 1511.15625 701.355469 C 1509.710938 690.871094 1506.664062 680.875 1501.890625 671.414062 C 1496.675781 661.078125 1489.902344 651.902344 1481.351562 644.074219 C 1475.292969 638.53125 1468.597656 633.9375 1461.011719 630.722656 C 1454.167969 627.824219 1447.089844 626.203125 1439.597656 626.902344 C 1436.308594 627.210938 1433.144531 628.015625 1430.164062 629.441406 C 1424.058594 632.367188 1419.808594 637.085938 1417.011719 643.183594 C 1414.964844 647.636719 1414.019531 652.367188 1413.566406 657.214844 C 1413.0625 662.585938 1413.347656 667.957031 1413.875 673.3125 C 1414.0625 675.222656 1414.273438 677.136719 1414.554688 679.03125 C 1414.773438 680.503906 1415.15625 681.957031 1415.355469 683.441406 C 1415.78125 686.546875 1416.050781 689.648438 1415.84375 692.800781 C 1415.566406 697.085938 1414.324219 701.003906 1412.160156 704.707031 C 1409.914062 708.546875 1406.71875 711.089844 1402.570312 712.609375 C 1400.6875 713.300781 1398.828125 713.40625 1396.910156 713.082031 C 1394.28125 712.640625 1391.671875 712.078125 1389.101562 711.347656 C 1380.621094 708.933594 1372.121094 706.597656 1363.441406 704.960938 C 1357.917969 703.914062 1352.363281 703.035156 1346.757812 702.574219 C 1342.320312 702.214844 1337.871094 702.15625 1333.425781 702.472656 C 1328.25 702.84375 1323.191406 703.773438 1318.285156 705.433594 C 1311.675781 707.660156 1305.757812 711.023438 1300.902344 716.113281 C 1295.066406 722.230469 1291.855469 729.582031 1290.835938 737.917969 C 1290.007812 744.722656 1290.78125 751.410156 1292.542969 758 C 1295.664062 769.699219 1301.441406 779.984375 1309.257812 789.160156 C 1317.902344 799.308594 1328.488281 806.863281 1340.558594 812.394531 C 1353.597656 818.371094 1367.328125 821.71875 1381.578125 822.996094 C 1386.785156 823.460938 1392.019531 823.601562 1397.257812 823.460938 C 1403.167969 823.296875 1409.042969 822.8125 1414.886719 821.925781 C 1428.863281 819.816406 1442.171875 815.613281 1454.75 809.144531 C 1463.148438 804.820312 1470.882812 799.539062 1477.839844 793.125 C 1487.753906 783.996094 1495.578125 773.324219 1501.425781 761.199219 C 1507.683594 748.214844 1511.152344 734.503906 1511.894531 720.109375 Z M 1511.890625 720.097656 " fill-opacity="1" fill-rule="nonzero"/></g></g></g><path fill="#00bf63" d="M 13.664062 -194.941406 C 23.152344 -194.941406 32.257812 -193.160156 40.8125 -188.988281 C 53.777344 -182.660156 62.550781 -172.535156 67.59375 -159.105469 C 69.851562 -153.105469 71.148438 -146.867188 72.183594 -140.574219 C 73.269531 -134.019531 74 -127.402344 75.484375 -120.90625 C 76.960938 -114.441406 79.296875 -108.359375 83.269531 -102.988281 C 86.667969 -98.40625 90.867188 -94.636719 95.40625 -91.226562 C 100.078125 -87.714844 105.015625 -84.609375 109.921875 -81.453125 C 115.628906 -77.773438 121.347656 -74.097656 126.640625 -69.820312 C 132.964844 -64.71875 138.585938 -58.972656 142.769531 -51.945312 C 148.527344 -42.253906 150.382812 -31.855469 148.398438 -20.773438 C 146.117188 -8.050781 139.921875 2.472656 130.386719 11.105469 C 125.117188 15.886719 119.214844 19.742188 112.953125 23.070312 C 106.953125 26.261719 100.679688 28.871094 94.5 31.679688 C 91.214844 33.171875 88.027344 34.832031 85.003906 36.808594 C 79.28125 40.558594 75.273438 45.660156 72.785156 52.003906 C 71.128906 56.214844 70.085938 60.597656 69.183594 65.019531 C 67.863281 71.53125 66.882812 78.117188 65.359375 84.597656 C 63.6875 91.71875 61.472656 98.652344 57.914062 105.082031 C 53.242188 113.523438 46.796875 120.164062 38.015625 124.371094 C 31.042969 127.707031 23.6875 129.074219 15.96875 128.46875 C 4.226562 127.542969 -5.632812 122.621094 -14.007812 114.511719 C -18.71875 109.941406 -22.53125 104.660156 -26.105469 99.203125 C -28.929688 94.894531 -31.589844 90.480469 -34.726562 86.386719 C -36.316406 84.324219 -38.042969 82.386719 -40.046875 80.710938 C -44.292969 77.144531 -49.273438 75.46875 -54.730469 75.089844 C -59.628906 74.75 -64.476562 75.21875 -69.300781 76.035156 C -77.214844 77.375 -84.976562 79.4375 -92.78125 81.230469 C -98.914062 82.636719 -105.066406 83.925781 -111.335938 84.558594 C -117.765625 85.207031 -124.179688 85.238281 -130.496094 83.570312 C -135.578125 82.226562 -140.113281 79.875 -143.679688 75.9375 C -147.785156 71.402344 -149.566406 65.960938 -149.785156 59.941406 C -150.019531 53.535156 -148.433594 47.484375 -146.082031 41.59375 C -143.195312 34.355469 -139.179688 27.746094 -134.816406 21.320312 C -130.457031 14.914062 -125.703125 8.789062 -121.21875 2.472656 C -118.496094 -1.359375 -115.851562 -5.230469 -113.574219 -9.34375 C -111.621094 -12.867188 -109.972656 -16.507812 -109.234375 -20.5 C -108.457031 -24.703125 -108.925781 -28.746094 -110.695312 -32.640625 C -112.277344 -36.125 -114.554688 -39.128906 -117.050781 -41.996094 C -119.597656 -44.921875 -122.363281 -47.640625 -125.105469 -50.378906 C -128.839844 -54.121094 -132.605469 -57.839844 -135.976562 -61.929688 C -139.089844 -65.714844 -141.832031 -69.730469 -143.710938 -74.285156 C -147.449219 -83.316406 -146.722656 -92.09375 -142.082031 -100.601562 C -138.605469 -106.964844 -133.578125 -111.957031 -127.769531 -116.191406 C -121.390625 -120.859375 -114.382812 -124.316406 -106.828125 -126.632812 C -104.03125 -127.492188 -101.109375 -127.808594 -98.207031 -128.042969 C -90.820312 -128.625 -83.710938 -130.253906 -77.078125 -133.65625 C -72.21875 -136.152344 -68.417969 -139.84375 -65.304688 -144.257812 C -61.628906 -149.476562 -58.214844 -154.871094 -54.179688 -159.820312 C -42.535156 -174.074219 -28.328125 -184.765625 -10.773438 -190.746094 C -2.84375 -193.441406 5.28125 -194.933594 13.664062 -194.941406 Z M 13.640625 -188.363281 C 4.1875 -188.394531 -4.820312 -186.324219 -13.507812 -182.734375 C -28.683594 -176.472656 -40.898438 -166.394531 -50.828125 -153.453125 C -53.828125 -149.539062 -56.457031 -145.375 -59.214844 -141.292969 C -61.703125 -137.617188 -64.476562 -134.175781 -68.011719 -131.4375 C -76.832031 -124.601562 -86.847656 -121.050781 -98.003906 -120.761719 C -101.167969 -120.679688 -104.273438 -120.21875 -107.296875 -119.304688 C -113.242188 -117.496094 -118.699219 -114.703125 -123.71875 -111.058594 C -128.183594 -107.824219 -132.132812 -104.066406 -135.160156 -99.417969 C -137.476562 -95.851562 -139.027344 -91.988281 -139.414062 -87.722656 C -139.886719 -82.535156 -138.484375 -77.796875 -135.960938 -73.335938 C -133.457031 -68.886719 -130.179688 -65.050781 -126.691406 -61.363281 C -122.402344 -56.828125 -117.8125 -52.566406 -113.597656 -47.957031 C -110.980469 -45.089844 -108.503906 -42.117188 -106.511719 -38.773438 C -102.496094 -32.042969 -101.222656 -24.898438 -103.234375 -17.234375 C -104.328125 -13.054688 -106.128906 -9.183594 -108.253906 -5.449219 C -111.53125 0.300781 -115.398438 5.664062 -119.304688 10.992188 C -123.910156 17.277344 -128.613281 23.5 -132.757812 30.117188 C -136.300781 35.773438 -139.421875 41.636719 -141.441406 48.027344 C -142.925781 52.726562 -143.722656 57.503906 -142.992188 62.4375 C -142.421875 66.242188 -140.90625 69.589844 -138.109375 72.292969 C -135.703125 74.636719 -132.789062 76.101562 -129.597656 77.03125 C -123.75 78.726562 -117.789062 78.636719 -111.8125 78.019531 C -105.59375 77.382812 -99.488281 76.0625 -93.398438 74.652344 C -85.054688 72.714844 -76.777344 70.503906 -68.289062 69.25 C -62.804688 68.4375 -57.316406 68.058594 -51.792969 68.820312 C -45.542969 69.679688 -39.964844 72.050781 -35.203125 76.253906 C -32.066406 79.027344 -29.519531 82.289062 -27.144531 85.699219 C -23.835938 90.453125 -20.902344 95.445312 -17.550781 100.175781 C -13.894531 105.335938 -9.816406 110.097656 -4.707031 113.894531 C 3.734375 120.183594 13.203125 123.015625 23.6875 121.800781 C 33.984375 120.609375 42.273438 115.679688 48.582031 107.472656 C 52.804688 101.972656 55.441406 95.6875 57.402344 89.09375 C 59.550781 81.875 60.71875 74.441406 62.105469 67.0625 C 63.167969 61.417969 64.359375 55.8125 66.386719 50.410156 C 69.476562 42.144531 74.65625 35.59375 82.148438 30.878906 C 85.515625 28.765625 89.058594 26.992188 92.667969 25.347656 C 97.644531 23.085938 102.6875 20.980469 107.578125 18.511719 C 113.75 15.390625 119.59375 11.804688 124.851562 7.292969 C 132.660156 0.578125 138.222656 -7.585938 140.976562 -17.558594 C 142.558594 -23.292969 143.054688 -29.109375 142.121094 -35.015625 C 141.125 -41.316406 138.527344 -46.929688 134.832031 -52.074219 C 130.664062 -57.871094 125.433594 -62.59375 119.75 -66.855469 C 113.945312 -71.207031 107.765625 -75.003906 101.675781 -78.941406 C 95.667969 -82.835938 89.746094 -86.855469 84.511719 -91.789062 C 79.367188 -96.632812 75.25 -102.1875 72.484375 -108.714844 C 70.15625 -114.207031 68.820312 -119.960938 67.804688 -125.808594 C 66.734375 -132.003906 66.015625 -138.25 64.804688 -144.421875 C 63.515625 -150.972656 61.691406 -157.347656 58.515625 -163.269531 C 53.609375 -172.414062 46.433594 -179.179688 36.992188 -183.503906 C 29.574219 -186.90625 21.75 -188.363281 13.625 -188.332031 Z M 13.640625 -188.363281 " fill-opacity="1" fill-rule="nonzero"/><g clip-path="url(#a3e831c373)"><path fill="#0c5f52" d="M -280.046875 162.226562 C -280.140625 159.296875 -279.910156 155.585938 -279.703125 151.886719 C -279.242188 143.527344 -278.273438 135.234375 -276.734375 126.992188 C -274.648438 115.78125 -271.570312 104.859375 -267.363281 94.277344 C -263.328125 84.121094 -258.335938 74.449219 -252.375 65.273438 C -247.4375 57.675781 -241.953125 50.511719 -235.917969 43.742188 C -231.882812 39.226562 -227.640625 34.921875 -223.148438 30.867188 C -217.527344 25.785156 -211.605469 21.085938 -205.371094 16.765625 C -197.960938 11.628906 -190.222656 7.050781 -182.140625 3.066406 C -171.617188 -2.128906 -160.695312 -6.3125 -149.367188 -9.421875 C -143.074219 -11.148438 -136.707031 -12.53125 -130.273438 -13.558594 C -126.757812 -14.121094 -123.214844 -14.511719 -119.65625 -14.84375 C -114.71875 -15.304688 -109.765625 -15.578125 -104.824219 -15.539062 C -99.496094 -15.488281 -94.179688 -15.164062 -88.867188 -14.574219 C -78.226562 -13.382812 -67.867188 -11.019531 -57.789062 -7.449219 C -47.964844 -3.964844 -38.667969 0.597656 -29.894531 6.222656 C -22.816406 10.753906 -16.238281 15.917969 -10.0625 21.609375 C -2.714844 28.394531 3.726562 35.941406 9.457031 44.109375 C 14.148438 50.789062 18.152344 57.867188 21.605469 65.257812 C 25.40625 73.375 28.414062 81.78125 30.785156 90.425781 C 32.570312 96.949219 33.945312 103.550781 34.972656 110.222656 C 35.539062 113.878906 35.929688 117.570312 36.253906 121.269531 C 36.566406 124.871094 36.71875 128.480469 36.851562 132.09375 C 36.925781 134.136719 37.058594 136.1875 36.972656 138.222656 C 36.734375 143.496094 36.542969 148.761719 35.992188 154.019531 C 35.109375 162.457031 33.558594 170.757812 31.421875 178.957031 C 29.3125 187.070312 26.582031 194.984375 23.296875 202.699219 C 18.902344 213.019531 13.542969 222.816406 7.175781 232.058594 C 3.472656 237.4375 -0.546875 242.566406 -4.824219 247.496094 C -8.382812 251.601562 -12.15625 255.503906 -16.121094 259.226562 C -24.582031 267.164062 -33.792969 274.136719 -43.753906 280.109375 C -48.777344 283.125 -53.902344 285.964844 -59.191406 288.5 C -72.753906 295.023438 -86.863281 299.984375 -101.566406 303.246094 C -107.746094 304.613281 -113.96875 305.703125 -120.242188 306.539062 C -123.492188 306.96875 -126.765625 307.285156 -130.035156 307.53125 C -134.023438 307.835938 -138.027344 307.90625 -142.015625 308.144531 C -147.082031 308.445312 -152.121094 308.207031 -157.152344 307.953125 C -167.996094 307.398438 -178.726562 305.933594 -189.289062 303.300781 C -198.890625 300.914062 -208.167969 297.65625 -217.003906 293.210938 C -224.558594 289.414062 -231.660156 284.882812 -238.242188 279.578125 C -243.746094 275.140625 -248.792969 270.226562 -253.058594 264.570312 C -255.613281 261.183594 -257.714844 257.5 -259.730469 253.769531 C -261.855469 249.835938 -263.910156 245.859375 -265.972656 241.890625 C -268.757812 236.527344 -270.40625 230.769531 -271.75 224.917969 C -272.644531 221.027344 -273.574219 217.140625 -274.464844 213.25 C -275.191406 210.09375 -275.484375 206.871094 -276.082031 203.691406 C -277.078125 198.410156 -277.953125 193.113281 -278.558594 187.777344 C -279.003906 183.90625 -279.355469 180.023438 -279.5625 176.128906 C -279.792969 171.753906 -280.023438 167.386719 -280.039062 162.21875 Z M -272.945312 163.117188 C -272.945312 166.632812 -272.992188 170.15625 -272.785156 173.675781 C -272.515625 178.328125 -272.117188 182.964844 -271.601562 187.59375 C -270.914062 193.742188 -269.824219 199.820312 -268.535156 205.863281 C -266.6875 214.515625 -264.253906 223.015625 -261.378906 231.390625 C -258.824219 238.835938 -255.671875 246.023438 -252.167969 253.046875 C -248.703125 259.988281 -243.601562 265.691406 -237.84375 270.855469 C -231.101562 276.90625 -223.640625 281.875 -215.679688 286.140625 C -207.578125 290.472656 -199.003906 293.597656 -190.15625 296 C -185.152344 297.359375 -180.070312 298.402344 -174.953125 299.191406 C -171.519531 299.714844 -168.082031 300.160156 -164.617188 300.46875 C -160.925781 300.796875 -157.222656 301.160156 -153.511719 301.21875 C -147.652344 301.3125 -141.792969 301.382812 -135.933594 301.035156 C -132.75 300.84375 -129.566406 300.628906 -126.398438 300.320312 C -121.8125 299.859375 -117.25 299.207031 -112.695312 298.433594 C -104.097656 296.980469 -95.644531 294.964844 -87.332031 292.335938 C -73.980469 288.109375 -61.269531 282.425781 -49.183594 275.363281 C -37.824219 268.722656 -27.464844 260.769531 -18.054688 251.582031 C -15.570312 249.148438 -13.238281 246.574219 -10.90625 243.996094 C -6.65625 239.296875 -2.769531 234.300781 0.859375 229.117188 C 6.519531 221.019531 11.371094 212.464844 15.445312 203.460938 C 19.242188 195.078125 22.332031 186.441406 24.671875 177.550781 C 26.414062 170.925781 27.761719 164.230469 28.636719 157.421875 C 29.242188 152.707031 29.726562 147.972656 29.894531 143.226562 C 30.171875 135.328125 30.015625 127.4375 29.171875 119.566406 C 28.628906 114.507812 27.96875 109.464844 26.988281 104.480469 C 25.261719 95.652344 22.890625 86.992188 19.71875 78.554688 C 16.144531 69.027344 11.632812 59.976562 6.089844 51.441406 C -0.984375 40.546875 -9.527344 30.9375 -19.417969 22.523438 C -26.070312 16.855469 -33.230469 11.90625 -40.886719 7.699219 C -50.734375 2.285156 -61.109375 -1.835938 -72.03125 -4.546875 C -77.15625 -5.820312 -82.339844 -6.757812 -87.578125 -7.449219 C -91.496094 -7.957031 -95.429688 -8.347656 -99.371094 -8.46875 C -106.796875 -8.707031 -114.21875 -8.554688 -121.621094 -7.710938 C -125.871094 -7.226562 -130.117188 -6.660156 -134.3125 -5.851562 C -143.570312 -4.054688 -152.636719 -1.539062 -161.507812 1.71875 C -173.671875 6.191406 -185.207031 11.90625 -196.113281 18.890625 C -208.570312 26.867188 -219.796875 36.308594 -229.765625 47.242188 C -235.195312 53.199219 -240.175781 59.5 -244.699219 66.164062 C -250.503906 74.742188 -255.4375 83.792969 -259.492188 93.328125 C -264.21875 104.449219 -267.660156 115.949219 -269.855469 127.820312 C -270.714844 132.449219 -271.386719 137.101562 -271.910156 141.777344 C -272.386719 145.984375 -272.667969 150.207031 -272.90625 154.421875 C -273.066406 157.320312 -272.9375 160.230469 -272.9375 163.132812 Z M -272.945312 163.117188 " fill-opacity="1" fill-rule="nonzero"/></g></svg>