<svg xmlns="http://www.w3.org/2000/svg" xmlns:xlink="http://www.w3.org/1999/xlink" width="1600" zoomAndPan="magnify" viewBox="0 0 1200 675.000002" height="900" preserveAspectRatio="xMidYMid meet" version="1.0"><defs><g/><clipPath id="9dcec8db6c"><path d="M 68.289062 258.378906 L 250.269531 258.378906 L 250.269531 419.390625 L 68.289062 419.390625 Z M 68.289062 258.378906 " clip-rule="nonzero"/></clipPath><clipPath id="fae697e07a"><path d="M 950 254.78125 L 1131.949219 254.78125 L 1131.949219 415.792969 L 950 415.792969 Z M 950 254.78125 " clip-rule="nonzero"/></clipPath></defs><path fill="#fcb63a" d="M 190.289062 341.183594 L 147.855469 364.589844 L 130.234375 417.511719 L 130.269531 417.511719 L 112.648438 364.589844 L 70.214844 341.183594 L 70.214844 341.03125 L 112.648438 317.625 L 130.269531 264.703125 L 130.234375 264.703125 L 147.855469 317.625 L 190.289062 341.03125 M 190.289062 341.183594 L 147.855469 364.589844 L 130.234375 417.511719 L 130.269531 417.511719 L 112.648438 364.589844 L 70.214844 341.183594 L 70.214844 341.03125 L 112.648438 317.625 L 130.269531 264.703125 L 130.234375 264.703125 L 147.855469 317.625 L 190.289062 341.03125 " fill-opacity="1" fill-rule="nonzero"/><path fill="#e24b5e" d="M 248.347656 373.808594 L 224.101562 360.433594 L 214.03125 330.191406 L 214.050781 330.191406 L 203.984375 360.433594 L 179.734375 373.808594 L 179.734375 373.894531 L 203.984375 387.269531 L 214.050781 417.511719 L 214.03125 417.511719 L 224.101562 387.269531 L 248.347656 373.894531 M 248.347656 373.808594 L 224.101562 360.433594 L 214.03125 330.191406 L 214.050781 330.191406 L 203.984375 360.433594 L 179.734375 373.808594 L 179.734375 373.894531 L 203.984375 387.269531 L 214.050781 417.511719 L 214.03125 417.511719 L 224.101562 387.269531 L 248.347656 373.894531 " fill-opacity="1" fill-rule="nonzero"/><path fill="#25a9e0" d="M 219.292969 284.804688 L 205.761719 277.339844 L 200.144531 260.464844 L 200.15625 260.464844 L 194.539062 277.339844 L 181.007812 284.804688 L 181.007812 284.851562 L 194.539062 292.316406 L 200.15625 309.191406 L 200.144531 309.191406 L 205.761719 292.316406 L 219.292969 284.851562 M 219.292969 284.804688 L 205.761719 277.339844 L 200.144531 260.464844 L 200.15625 260.464844 L 194.539062 277.339844 L 181.007812 284.804688 L 181.007812 284.851562 L 194.539062 292.316406 L 200.15625 309.191406 L 200.144531 309.191406 L 205.761719 292.316406 L 219.292969 284.851562 " fill-opacity="1" fill-rule="nonzero"/><g clip-path="url(#9dcec8db6c)"><path fill="#000000" d="M 180.195312 286.285156 L 193.085938 293.394531 L 198.417969 309.417969 C 198.476562 309.652344 198.578125 309.878906 198.722656 310.078125 C 199.078125 310.566406 199.648438 310.859375 200.253906 310.859375 C 200.855469 310.859375 201.421875 310.566406 201.777344 310.078125 C 201.929688 309.867188 202.03125 309.632812 202.085938 309.386719 L 207.410156 293.394531 L 220.296875 286.285156 C 220.925781 285.941406 221.277344 285.289062 221.269531 284.617188 C 221.277344 283.949219 220.925781 283.296875 220.296875 282.949219 L 207.410156 275.839844 L 202.074219 259.816406 C 202.019531 259.582031 201.917969 259.359375 201.769531 259.15625 C 201.417969 258.667969 200.847656 258.378906 200.242188 258.378906 C 199.636719 258.378906 199.070312 258.667969 198.71875 259.15625 C 198.566406 259.367188 198.460938 259.601562 198.40625 259.847656 L 193.085938 275.839844 L 180.195312 282.949219 C 179.597656 283.277344 179.226562 283.957031 179.226562 284.640625 C 179.226562 285.328125 179.597656 285.957031 180.195312 286.285156 Z M 195.542969 278.773438 C 195.957031 278.546875 196.269531 278.171875 196.417969 277.722656 L 200.246094 266.21875 L 204.078125 277.722656 C 204.226562 278.171875 204.539062 278.546875 204.953125 278.773438 L 215.546875 284.617188 L 204.953125 290.460938 C 204.539062 290.6875 204.226562 291.0625 204.078125 291.511719 L 200.246094 303.015625 L 196.417969 291.511719 C 196.269531 291.0625 195.957031 290.6875 195.542969 290.460938 L 184.949219 284.617188 Z M 192.167969 341.105469 C 192.195312 340.417969 191.839844 339.742188 191.199219 339.386719 L 149.40625 316.335938 L 132.113281 264.394531 C 132.0625 264.113281 131.949219 263.84375 131.777344 263.605469 C 131.421875 263.113281 130.839844 262.824219 130.234375 262.824219 C 129.632812 262.824219 129.066406 263.113281 128.710938 263.605469 C 128.53125 263.855469 128.417969 264.144531 128.375 264.441406 L 111.097656 316.335938 L 69.308594 339.386719 C 68.707031 339.71875 68.335938 340.347656 68.335938 341.03125 L 68.335938 341.183594 C 68.335938 341.867188 68.707031 342.5 69.308594 342.828125 L 111.097656 365.878906 L 128.390625 417.820312 C 128.441406 418.101562 128.554688 418.375 128.726562 418.609375 C 129.082031 419.101562 129.664062 419.390625 130.269531 419.390625 C 130.871094 419.390625 131.441406 419.101562 131.792969 418.609375 C 131.972656 418.359375 132.085938 418.070312 132.128906 417.773438 L 149.40625 365.878906 L 191.199219 342.828125 C 191.839844 342.472656 192.195312 341.796875 192.167969 341.105469 Z M 146.949219 362.945312 C 146.535156 363.171875 146.222656 363.546875 146.074219 363.996094 L 130.253906 411.515625 L 114.433594 363.996094 C 114.285156 363.546875 113.972656 363.171875 113.558594 362.945312 L 73.964844 341.105469 L 113.558594 319.269531 C 113.972656 319.042969 114.285156 318.667969 114.433594 318.21875 L 130.253906 270.699219 L 146.074219 318.21875 C 146.222656 318.667969 146.535156 319.042969 146.949219 319.269531 L 186.539062 341.109375 Z M 249.257812 372.164062 L 225.652344 359.144531 L 215.882812 329.804688 C 215.828125 329.550781 215.722656 329.308594 215.566406 329.09375 C 215.210938 328.601562 214.636719 328.3125 214.03125 328.3125 C 213.429688 328.3125 212.863281 328.601562 212.507812 329.09375 C 212.34375 329.320312 212.234375 329.578125 212.183594 329.847656 L 202.433594 359.144531 L 178.828125 372.164062 C 178.226562 372.492188 177.855469 373.125 177.855469 373.808594 L 177.855469 373.894531 C 177.855469 374.578125 178.226562 375.210938 178.828125 375.539062 L 202.433594 388.558594 L 212.199219 417.898438 C 212.253906 418.152344 212.363281 418.394531 212.515625 418.609375 C 212.871094 419.101562 213.445312 419.390625 214.050781 419.390625 C 214.65625 419.390625 215.222656 419.101562 215.574219 418.609375 C 215.738281 418.382812 215.847656 418.125 215.898438 417.859375 L 225.652344 388.558594 L 249.257812 375.539062 C 249.890625 375.191406 250.242188 374.527344 250.226562 373.851562 C 250.242188 373.175781 249.890625 372.511719 249.257812 372.164062 Z M 223.191406 385.625 C 222.78125 385.855469 222.46875 386.230469 222.316406 386.675781 L 214.042969 411.535156 L 205.765625 386.675781 C 205.617188 386.230469 205.304688 385.855469 204.890625 385.625 L 183.546875 373.851562 L 204.890625 362.078125 C 205.304688 361.851562 205.617188 361.476562 205.765625 361.027344 L 214.042969 336.167969 L 222.316406 361.027344 C 222.46875 361.476562 222.78125 361.851562 223.191406 362.078125 L 244.539062 373.851562 Z M 223.191406 385.625 " fill-opacity="1" fill-rule="nonzero"/></g><g fill="#000000" fill-opacity="1"><g transform="translate(308.251162, 387.634881)"><g><path d="M 26.9375 1.3125 C 22.507812 1.3125 18.664062 0.5 15.40625 -1.125 C 12.144531 -2.757812 9.640625 -5.148438 7.890625 -8.296875 C 6.140625 -11.453125 5.265625 -15.242188 5.265625 -19.671875 C 5.265625 -23.765625 6.140625 -27.195312 7.890625 -29.96875 C 9.640625 -32.75 12.351562 -35.023438 16.03125 -36.796875 C 19.707031 -38.578125 24.507812 -39.945312 30.4375 -40.90625 C 34.570312 -41.570312 37.710938 -42.300781 39.859375 -43.09375 C 42.015625 -43.882812 43.46875 -44.78125 44.21875 -45.78125 C 44.96875 -46.789062 45.34375 -48.066406 45.34375 -49.609375 C 45.34375 -51.816406 44.570312 -53.503906 43.03125 -54.671875 C 41.488281 -55.847656 38.921875 -56.4375 35.328125 -56.4375 C 31.484375 -56.4375 27.828125 -55.578125 24.359375 -53.859375 C 20.898438 -52.148438 17.894531 -49.898438 15.34375 -47.109375 L 14.09375 -47.109375 L 6.828125 -58.0625 C 10.335938 -61.945312 14.617188 -64.972656 19.671875 -67.140625 C 24.722656 -69.316406 30.234375 -70.40625 36.203125 -70.40625 C 45.347656 -70.40625 51.96875 -68.460938 56.0625 -64.578125 C 60.15625 -60.691406 62.203125 -55.179688 62.203125 -48.046875 L 62.203125 -18.046875 C 62.203125 -14.953125 63.554688 -13.40625 66.265625 -13.40625 C 67.316406 -13.40625 68.34375 -13.59375 69.34375 -13.96875 L 70.21875 -13.71875 L 71.46875 -1.625 C 70.507812 -1 69.171875 -0.488281 67.453125 -0.09375 C 65.742188 0.300781 63.867188 0.5 61.828125 0.5 C 57.691406 0.5 54.460938 -0.289062 52.140625 -1.875 C 49.828125 -3.46875 48.171875 -5.953125 47.171875 -9.328125 L 45.84375 -9.453125 C 42.46875 -2.273438 36.164062 1.3125 26.9375 1.3125 Z M 32.453125 -11.65625 C 36.453125 -11.65625 39.648438 -13 42.046875 -15.6875 C 44.453125 -18.382812 45.65625 -22.132812 45.65625 -26.9375 L 45.65625 -33.953125 L 44.46875 -34.203125 C 43.425781 -33.367188 42.054688 -32.664062 40.359375 -32.09375 C 38.671875 -31.53125 36.242188 -30.976562 33.078125 -30.4375 C 29.316406 -29.8125 26.609375 -28.734375 24.953125 -27.203125 C 23.304688 -25.679688 22.484375 -23.523438 22.484375 -20.734375 C 22.484375 -17.765625 23.359375 -15.507812 25.109375 -13.96875 C 26.867188 -12.425781 29.316406 -11.65625 32.453125 -11.65625 Z M 32.453125 -11.65625 "/></g></g><g transform="translate(381.099906, 387.634881)"><g><path d="M 68.28125 -30.625 L 23.859375 -30.625 C 24.359375 -24.613281 26.070312 -20.238281 29 -17.5 C 31.925781 -14.769531 35.914062 -13.40625 40.96875 -13.40625 C 44.9375 -13.40625 48.148438 -14.144531 50.609375 -15.625 C 53.078125 -17.113281 55.0625 -19.359375 56.5625 -22.359375 L 57.875 -22.359375 L 69.40625 -14.96875 C 67.144531 -10.125 63.738281 -6.195312 59.1875 -3.1875 C 54.632812 -0.1875 48.5625 1.3125 40.96875 1.3125 C 33.820312 1.3125 27.648438 -0.0390625 22.453125 -2.75 C 17.253906 -5.46875 13.242188 -9.507812 10.421875 -14.875 C 7.609375 -20.238281 6.203125 -26.785156 6.203125 -34.515625 C 6.203125 -42.359375 7.679688 -48.972656 10.640625 -54.359375 C 13.609375 -59.753906 17.617188 -63.773438 22.671875 -66.421875 C 27.722656 -69.078125 33.40625 -70.40625 39.71875 -70.40625 C 49.488281 -70.40625 56.972656 -67.816406 62.171875 -62.640625 C 67.367188 -57.460938 69.96875 -49.863281 69.96875 -39.84375 C 69.96875 -36.207031 69.84375 -33.382812 69.59375 -31.375 Z M 53.359375 -41.84375 C 53.191406 -47.101562 51.96875 -50.929688 49.6875 -53.328125 C 47.414062 -55.734375 44.09375 -56.9375 39.71875 -56.9375 C 30.945312 -56.9375 25.785156 -51.90625 24.234375 -41.84375 Z M 53.359375 -41.84375 "/></g></g><g transform="translate(456.203642, 387.634881)"><g><path d="M 32.328125 1.3125 C 27.609375 1.3125 23.285156 0.757812 19.359375 -0.34375 C 15.429688 -1.445312 12.078125 -2.96875 9.296875 -4.90625 C 6.523438 -6.851562 4.46875 -9.082031 3.125 -11.59375 L 12.78125 -21.984375 L 14.09375 -21.984375 C 16.382812 -18.890625 19.097656 -16.570312 22.234375 -15.03125 C 25.367188 -13.488281 28.773438 -12.71875 32.453125 -12.71875 C 35.828125 -12.71875 38.367188 -13.320312 40.078125 -14.53125 C 41.796875 -15.738281 42.65625 -17.472656 42.65625 -19.734375 C 42.65625 -21.484375 42.035156 -22.953125 40.796875 -24.140625 C 39.566406 -25.335938 37.578125 -26.269531 34.828125 -26.9375 L 25.6875 -29.125 C 18.832031 -30.75 13.828125 -33.242188 10.671875 -36.609375 C 7.523438 -39.972656 5.953125 -44.242188 5.953125 -49.421875 C 5.953125 -53.722656 7.046875 -57.457031 9.234375 -60.625 C 11.429688 -63.800781 14.519531 -66.222656 18.5 -67.890625 C 22.488281 -69.566406 27.140625 -70.40625 32.453125 -70.40625 C 38.671875 -70.40625 43.828125 -69.503906 47.921875 -67.703125 C 52.015625 -65.910156 55.207031 -63.507812 57.5 -60.5 L 48.234375 -50.484375 L 46.984375 -50.484375 C 45.054688 -52.660156 42.890625 -54.25 40.484375 -55.25 C 38.085938 -56.25 35.410156 -56.75 32.453125 -56.75 C 25.597656 -56.75 22.171875 -54.617188 22.171875 -50.359375 C 22.171875 -48.566406 22.804688 -47.101562 24.078125 -45.96875 C 25.359375 -44.84375 27.601562 -43.925781 30.8125 -43.21875 L 39.34375 -41.34375 C 46.351562 -39.832031 51.472656 -37.414062 54.703125 -34.09375 C 57.941406 -30.78125 59.5625 -26.328125 59.5625 -20.734375 C 59.5625 -16.347656 58.472656 -12.484375 56.296875 -9.140625 C 54.128906 -5.804688 51 -3.226562 46.90625 -1.40625 C 42.820312 0.40625 37.960938 1.3125 32.328125 1.3125 Z M 32.328125 1.3125 "/></g></g><g transform="translate(519.907145, 387.634881)"><g><path d="M 47.671875 -16.46875 L 52.171875 -3.640625 C 50.296875 -2.085938 47.9375 -0.875 45.09375 0 C 42.257812 0.875 39.046875 1.3125 35.453125 1.3125 C 27.972656 1.3125 22.289062 -0.722656 18.40625 -4.796875 C 14.53125 -8.867188 12.59375 -14.785156 12.59375 -22.546875 L 12.59375 -55.375 L 2.0625 -55.375 L 2.0625 -69.15625 L 12.59375 -69.15625 L 12.59375 -82.625 L 29.9375 -85.4375 L 29.9375 -69.15625 L 49.546875 -69.15625 L 49.546875 -55.375 L 29.9375 -55.375 L 29.9375 -23.796875 C 29.9375 -20.378906 30.644531 -17.882812 32.0625 -16.3125 C 33.488281 -14.75 35.554688 -13.96875 38.265625 -13.96875 C 41.359375 -13.96875 44.054688 -14.800781 46.359375 -16.46875 Z M 47.671875 -16.46875 "/></g></g><g transform="translate(573.588464, 387.634881)"><g><path d="M 9.953125 0 L 9.953125 -96.84375 L 27.3125 -96.84375 L 27.3125 -60.0625 L 28.625 -59.8125 C 30.925781 -63.195312 33.742188 -65.804688 37.078125 -67.640625 C 40.421875 -69.484375 44.453125 -70.40625 49.171875 -70.40625 C 64.410156 -70.40625 72.03125 -61.757812 72.03125 -44.46875 L 72.03125 0 L 54.6875 0 L 54.6875 -42.28125 C 54.6875 -47 53.742188 -50.421875 51.859375 -52.546875 C 49.984375 -54.679688 47.0625 -55.75 43.09375 -55.75 C 38.25 -55.75 34.40625 -54.128906 31.5625 -50.890625 C 28.726562 -47.648438 27.3125 -42.609375 27.3125 -35.765625 L 27.3125 0 Z M 9.953125 0 "/></g></g><g transform="translate(654.517594, 387.634881)"><g><path d="M 68.28125 -30.625 L 23.859375 -30.625 C 24.359375 -24.613281 26.070312 -20.238281 29 -17.5 C 31.925781 -14.769531 35.914062 -13.40625 40.96875 -13.40625 C 44.9375 -13.40625 48.148438 -14.144531 50.609375 -15.625 C 53.078125 -17.113281 55.0625 -19.359375 56.5625 -22.359375 L 57.875 -22.359375 L 69.40625 -14.96875 C 67.144531 -10.125 63.738281 -6.195312 59.1875 -3.1875 C 54.632812 -0.1875 48.5625 1.3125 40.96875 1.3125 C 33.820312 1.3125 27.648438 -0.0390625 22.453125 -2.75 C 17.253906 -5.46875 13.242188 -9.507812 10.421875 -14.875 C 7.609375 -20.238281 6.203125 -26.785156 6.203125 -34.515625 C 6.203125 -42.359375 7.679688 -48.972656 10.640625 -54.359375 C 13.609375 -59.753906 17.617188 -63.773438 22.671875 -66.421875 C 27.722656 -69.078125 33.40625 -70.40625 39.71875 -70.40625 C 49.488281 -70.40625 56.972656 -67.816406 62.171875 -62.640625 C 67.367188 -57.460938 69.96875 -49.863281 69.96875 -39.84375 C 69.96875 -36.207031 69.84375 -33.382812 69.59375 -31.375 Z M 53.359375 -41.84375 C 53.191406 -47.101562 51.96875 -50.929688 49.6875 -53.328125 C 47.414062 -55.734375 44.09375 -56.9375 39.71875 -56.9375 C 30.945312 -56.9375 25.785156 -51.90625 24.234375 -41.84375 Z M 53.359375 -41.84375 "/></g></g><g transform="translate(729.62133, 387.634881)"><g><path d="M 47.671875 -16.46875 L 52.171875 -3.640625 C 50.296875 -2.085938 47.9375 -0.875 45.09375 0 C 42.257812 0.875 39.046875 1.3125 35.453125 1.3125 C 27.972656 1.3125 22.289062 -0.722656 18.40625 -4.796875 C 14.53125 -8.867188 12.59375 -14.785156 12.59375 -22.546875 L 12.59375 -55.375 L 2.0625 -55.375 L 2.0625 -69.15625 L 12.59375 -69.15625 L 12.59375 -82.625 L 29.9375 -85.4375 L 29.9375 -69.15625 L 49.546875 -69.15625 L 49.546875 -55.375 L 29.9375 -55.375 L 29.9375 -23.796875 C 29.9375 -20.378906 30.644531 -17.882812 32.0625 -16.3125 C 33.488281 -14.75 35.554688 -13.96875 38.265625 -13.96875 C 41.359375 -13.96875 44.054688 -14.800781 46.359375 -16.46875 Z M 47.671875 -16.46875 "/></g></g><g transform="translate(783.302649, 387.634881)"><g><path d="M 18.609375 -77.359375 C 15.472656 -77.359375 12.921875 -78.304688 10.953125 -80.203125 C 8.992188 -82.109375 8.015625 -84.5625 8.015625 -87.5625 C 8.015625 -90.53125 8.992188 -92.960938 10.953125 -94.859375 C 12.921875 -96.765625 15.472656 -97.71875 18.609375 -97.71875 C 20.691406 -97.71875 22.546875 -97.273438 24.171875 -96.390625 C 25.804688 -95.515625 27.070312 -94.316406 27.96875 -92.796875 C 28.863281 -91.273438 29.3125 -89.53125 29.3125 -87.5625 C 29.3125 -85.601562 28.863281 -83.847656 27.96875 -82.296875 C 27.070312 -80.753906 25.804688 -79.546875 24.171875 -78.671875 C 22.546875 -77.796875 20.691406 -77.359375 18.609375 -77.359375 Z M 9.953125 0 L 9.953125 -69.09375 L 27.3125 -69.09375 L 27.3125 0 Z M 9.953125 0 "/></g></g><g transform="translate(820.510004, 387.634881)"><g><path d="M 40.28125 1.3125 C 33.59375 1.3125 27.679688 -0.0703125 22.546875 -2.84375 C 17.410156 -5.625 13.398438 -9.707031 10.515625 -15.09375 C 7.640625 -20.476562 6.203125 -26.953125 6.203125 -34.515625 C 6.203125 -42.109375 7.640625 -48.597656 10.515625 -53.984375 C 13.398438 -59.378906 17.390625 -63.460938 22.484375 -66.234375 C 27.578125 -69.015625 33.40625 -70.40625 39.96875 -70.40625 C 54.539062 -70.40625 63.875 -65.125 67.96875 -54.5625 L 56.0625 -46.03125 L 54.75 -46.03125 C 53.320312 -49.289062 51.46875 -51.710938 49.1875 -53.296875 C 46.914062 -54.890625 43.84375 -55.6875 39.96875 -55.6875 C 34.957031 -55.6875 31.050781 -53.953125 28.25 -50.484375 C 25.445312 -47.015625 24.046875 -41.691406 24.046875 -34.515625 C 24.046875 -27.410156 25.46875 -22.113281 28.3125 -18.625 C 31.15625 -15.144531 35.144531 -13.40625 40.28125 -13.40625 C 44.03125 -13.40625 47.210938 -14.414062 49.828125 -16.4375 C 52.441406 -18.46875 54.3125 -21.382812 55.4375 -25.1875 L 56.75 -25.3125 L 69.09375 -18.546875 C 67.332031 -12.691406 64.082031 -7.914062 59.34375 -4.21875 C 54.601562 -0.53125 48.25 1.3125 40.28125 1.3125 Z M 40.28125 1.3125 "/></g></g></g><path fill="#fcb63a" d="M 1071.96875 337.585938 L 1029.535156 360.992188 L 1011.914062 413.914062 L 1011.949219 413.914062 L 994.328125 360.992188 L 951.894531 337.585938 L 951.894531 337.433594 L 994.328125 314.027344 L 1011.949219 261.105469 L 1011.914062 261.105469 L 1029.535156 314.027344 L 1071.96875 337.433594 M 1071.96875 337.585938 L 1029.535156 360.992188 L 1011.914062 413.914062 L 1011.949219 413.914062 L 994.328125 360.992188 L 951.894531 337.585938 L 951.894531 337.433594 L 994.328125 314.027344 L 1011.949219 261.105469 L 1011.914062 261.105469 L 1029.535156 314.027344 L 1071.96875 337.433594 " fill-opacity="1" fill-rule="nonzero"/><path fill="#e24b5e" d="M 1130.027344 370.210938 L 1105.78125 356.835938 L 1095.710938 326.59375 L 1095.730469 326.59375 L 1085.664062 356.835938 L 1061.414062 370.210938 L 1061.414062 370.296875 L 1085.664062 383.671875 L 1095.730469 413.914062 L 1095.710938 413.914062 L 1105.78125 383.671875 L 1130.027344 370.296875 M 1130.027344 370.210938 L 1105.78125 356.835938 L 1095.710938 326.59375 L 1095.730469 326.59375 L 1085.664062 356.835938 L 1061.414062 370.210938 L 1061.414062 370.296875 L 1085.664062 383.671875 L 1095.730469 413.914062 L 1095.710938 413.914062 L 1105.78125 383.671875 L 1130.027344 370.296875 " fill-opacity="1" fill-rule="nonzero"/><path fill="#25a9e0" d="M 1100.972656 281.207031 L 1087.441406 273.742188 L 1081.824219 256.867188 L 1081.835938 256.867188 L 1076.21875 273.742188 L 1062.6875 281.207031 L 1062.6875 281.253906 L 1076.21875 288.71875 L 1081.835938 305.59375 L 1081.824219 305.59375 L 1087.441406 288.71875 L 1100.972656 281.253906 M 1100.972656 281.207031 L 1087.441406 273.742188 L 1081.824219 256.867188 L 1081.835938 256.867188 L 1076.21875 273.742188 L 1062.6875 281.207031 L 1062.6875 281.253906 L 1076.21875 288.71875 L 1081.835938 305.59375 L 1081.824219 305.59375 L 1087.441406 288.71875 L 1100.972656 281.253906 " fill-opacity="1" fill-rule="nonzero"/><g clip-path="url(#fae697e07a)"><path fill="#000000" d="M 1061.875 282.6875 L 1074.765625 289.796875 L 1080.097656 305.820312 C 1080.15625 306.054688 1080.257812 306.28125 1080.402344 306.480469 C 1080.757812 306.96875 1081.328125 307.261719 1081.933594 307.261719 C 1082.535156 307.261719 1083.101562 306.96875 1083.457031 306.480469 C 1083.609375 306.269531 1083.710938 306.035156 1083.765625 305.789062 L 1089.089844 289.796875 L 1101.976562 282.6875 C 1102.605469 282.34375 1102.957031 281.691406 1102.949219 281.019531 C 1102.957031 280.351562 1102.605469 279.699219 1101.976562 279.351562 L 1089.089844 272.242188 L 1083.753906 256.21875 C 1083.699219 255.984375 1083.59375 255.761719 1083.449219 255.558594 C 1083.097656 255.070312 1082.527344 254.78125 1081.921875 254.78125 C 1081.316406 254.78125 1080.75 255.070312 1080.398438 255.558594 C 1080.246094 255.769531 1080.140625 256.003906 1080.085938 256.25 L 1074.765625 272.242188 L 1061.875 279.351562 C 1061.277344 279.679688 1060.90625 280.359375 1060.90625 281.042969 C 1060.90625 281.730469 1061.277344 282.359375 1061.875 282.6875 Z M 1077.222656 275.175781 C 1077.636719 274.949219 1077.949219 274.574219 1078.097656 274.125 L 1081.925781 262.621094 L 1085.757812 274.125 C 1085.90625 274.574219 1086.21875 274.949219 1086.632812 275.175781 L 1097.222656 281.019531 L 1086.632812 286.863281 C 1086.21875 287.089844 1085.90625 287.464844 1085.757812 287.914062 L 1081.925781 299.417969 L 1078.097656 287.914062 C 1077.949219 287.464844 1077.636719 287.089844 1077.222656 286.863281 L 1066.628906 281.019531 Z M 1073.847656 337.511719 C 1073.875 336.820312 1073.519531 336.144531 1072.875 335.789062 L 1031.085938 312.738281 L 1013.792969 260.796875 C 1013.742188 260.515625 1013.628906 260.246094 1013.457031 260.007812 C 1013.101562 259.515625 1012.519531 259.226562 1011.914062 259.226562 C 1011.3125 259.226562 1010.746094 259.515625 1010.390625 260.007812 C 1010.210938 260.257812 1010.097656 260.546875 1010.054688 260.84375 L 992.777344 312.738281 L 950.988281 335.789062 C 950.386719 336.121094 950.015625 336.75 950.015625 337.433594 L 950.015625 337.585938 C 950.015625 338.269531 950.386719 338.902344 950.988281 339.230469 L 992.777344 362.28125 L 1010.070312 414.222656 C 1010.121094 414.503906 1010.234375 414.777344 1010.40625 415.011719 C 1010.761719 415.503906 1011.34375 415.792969 1011.949219 415.792969 C 1012.550781 415.792969 1013.121094 415.503906 1013.472656 415.011719 C 1013.652344 414.761719 1013.765625 414.472656 1013.808594 414.175781 L 1031.085938 362.28125 L 1072.878906 339.230469 C 1073.519531 338.875 1073.875 338.199219 1073.847656 337.511719 Z M 1028.625 359.347656 C 1028.214844 359.574219 1027.902344 359.949219 1027.75 360.398438 L 1011.933594 407.917969 L 996.113281 360.398438 C 995.960938 359.949219 995.648438 359.574219 995.238281 359.347656 L 955.644531 337.511719 L 995.238281 315.671875 C 995.648438 315.445312 995.960938 315.070312 996.113281 314.621094 L 1011.933594 267.101562 L 1027.75 314.621094 C 1027.902344 315.070312 1028.214844 315.445312 1028.628906 315.671875 L 1068.21875 337.511719 Z M 1130.9375 368.566406 L 1107.332031 355.546875 L 1097.5625 326.207031 C 1097.507812 325.953125 1097.402344 325.710938 1097.246094 325.496094 C 1096.890625 325.003906 1096.316406 324.714844 1095.710938 324.714844 C 1095.109375 324.714844 1094.542969 325.003906 1094.1875 325.496094 C 1094.023438 325.722656 1093.914062 325.980469 1093.863281 326.25 L 1084.113281 355.546875 L 1060.507812 368.566406 C 1059.90625 368.894531 1059.535156 369.527344 1059.535156 370.210938 L 1059.535156 370.296875 C 1059.535156 370.980469 1059.90625 371.613281 1060.507812 371.941406 L 1084.113281 384.960938 L 1093.878906 414.300781 C 1093.933594 414.554688 1094.042969 414.796875 1094.195312 415.011719 C 1094.550781 415.503906 1095.125 415.792969 1095.730469 415.792969 C 1096.335938 415.792969 1096.902344 415.503906 1097.253906 415.011719 C 1097.417969 414.785156 1097.527344 414.527344 1097.578125 414.261719 L 1107.332031 384.960938 L 1130.9375 371.941406 C 1131.570312 371.59375 1131.921875 370.929688 1131.90625 370.253906 C 1131.921875 369.578125 1131.570312 368.914062 1130.9375 368.566406 Z M 1104.871094 382.027344 C 1104.457031 382.257812 1104.144531 382.632812 1103.996094 383.078125 L 1095.722656 407.9375 L 1087.445312 383.078125 C 1087.296875 382.632812 1086.984375 382.257812 1086.570312 382.027344 L 1065.222656 370.253906 L 1086.570312 358.480469 C 1086.984375 358.253906 1087.296875 357.878906 1087.445312 357.429688 L 1095.722656 332.570312 L 1103.996094 357.429688 C 1104.144531 357.878906 1104.457031 358.253906 1104.871094 358.480469 L 1126.21875 370.253906 Z M 1104.871094 382.027344 " fill-opacity="1" fill-rule="nonzero"/></g></svg>