<svg xmlns="http://www.w3.org/2000/svg" xmlns:xlink="http://www.w3.org/1999/xlink" width="1600" zoomAndPan="magnify" viewBox="0 0 1200 675.000002" height="900" preserveAspectRatio="xMidYMid meet" version="1.0"><path stroke-linecap="butt" transform="matrix(0.749213, 0, 0, 0.748891, 178.73637, 473.8674)" fill="none" stroke-linejoin="miter" d="M 0.00255048 32.500921 L 435.819427 32.500921 " stroke="#000000" stroke-width="65" stroke-opacity="1" stroke-miterlimit="4"/><path stroke-linecap="butt" transform="matrix(0.000000000000001042, -0.748067, 0.748891, 0.000000000000001044, 178.82773, 643.961378)" fill="none" stroke-linejoin="miter" d="M 0.000589096 32.501732 L 227.253081 32.501732 " stroke="#000000" stroke-width="65" stroke-opacity="1" stroke-miterlimit="4"/><path stroke-linecap="butt" transform="matrix(0.977419, 0, 0, 0.977282, 460.284351, 352.449567)" fill="none" stroke-linejoin="miter" d="M 0.000824301 25.001233 L 333.967988 25.001233 " stroke="#000000" stroke-width="50" stroke-opacity="1" stroke-miterlimit="4"/><path stroke-linecap="butt" transform="matrix(0.000000000000001578, -0.976492, 0.977282, 0.000000000000001579, 460.28217, 522.636204)" fill="none" stroke-linejoin="miter" d="M -0.00052726 25.000648 L 174.143978 25.000648 " stroke="#000000" stroke-width="50" stroke-opacity="1" stroke-miterlimit="4"/><path stroke-linecap="butt" transform="matrix(0.748735, 0, 0, 0.748891, 739.614517, 231.030473)" fill="none" stroke-linejoin="miter" d="M -0.00165081 32.502242 L 376.085846 32.502242 " stroke="#000000" stroke-width="65" stroke-opacity="1" stroke-miterlimit="4"/><path stroke-linecap="butt" transform="matrix(0.000000000000001375, -0.748067, 0.748891, 0.000000000000001376, 739.705918, 401.124497)" fill="none" stroke-linejoin="miter" d="M -0.000672216 32.497476 L 227.257042 32.497476 " stroke="#000000" stroke-width="65" stroke-opacity="1" stroke-miterlimit="4"/></svg>