<svg xmlns="http://www.w3.org/2000/svg" xmlns:xlink="http://www.w3.org/1999/xlink" width="1600" zoomAndPan="magnify" viewBox="0 0 1200 675.000002" height="900" preserveAspectRatio="xMidYMid meet" version="1.0"><defs><clipPath id="c3bde8cf18"><path d="M 0.886719 0 L 1199.113281 0 L 1199.113281 674 L 0.886719 674 Z M 0.886719 0 " clip-rule="nonzero"/></clipPath><clipPath id="2d66b352b3"><path d="M 185 142.421875 L 1015.421875 142.421875 L 1015.421875 531.847656 L 185 531.847656 Z M 185 142.421875 " clip-rule="nonzero"/></clipPath><clipPath id="a33055ab0c"><path d="M 234.980469 192.253906 L 756.929688 192.253906 L 756.929688 486.824219 L 234.980469 486.824219 Z M 234.980469 192.253906 " clip-rule="nonzero"/></clipPath></defs><g clip-path="url(#c3bde8cf18)"><path fill="#ffffff" d="M 0.886719 0 L 1199.113281 0 L 1199.113281 674 L 0.886719 674 Z M 0.886719 0 " fill-opacity="1" fill-rule="nonzero"/><path fill="#ffffff" d="M 0.886719 0 L 1199.113281 0 L 1199.113281 674 L 0.886719 674 Z M 0.886719 0 " fill-opacity="1" fill-rule="nonzero"/></g><g clip-path="url(#2d66b352b3)"><path fill="#696667" d="M 887.15625 531.859375 L 250.933594 531.859375 C 249.859375 531.859375 248.785156 531.832031 247.710938 531.777344 C 246.636719 531.722656 245.566406 531.640625 244.496094 531.535156 C 243.425781 531.429688 242.359375 531.296875 241.296875 531.136719 C 240.234375 530.980469 239.175781 530.796875 238.121094 530.585938 C 237.066406 530.375 236.019531 530.136719 234.976562 529.875 C 233.933594 529.613281 232.898438 529.324219 231.871094 529.011719 C 230.84375 528.699219 229.824219 528.363281 228.8125 528 C 227.800781 527.636719 226.796875 527.25 225.804688 526.835938 C 224.8125 526.425781 223.828125 525.988281 222.859375 525.527344 C 221.886719 525.070312 220.925781 524.585938 219.980469 524.078125 C 219.03125 523.570312 218.097656 523.039062 217.175781 522.488281 C 216.253906 521.933594 215.347656 521.359375 214.453125 520.761719 C 213.558594 520.164062 212.679688 519.546875 211.816406 518.90625 C 210.953125 518.265625 210.109375 517.601562 209.277344 516.921875 C 208.445312 516.238281 207.632812 515.535156 206.835938 514.8125 C 206.039062 514.089844 205.261719 513.351562 204.5 512.589844 C 203.742188 511.828125 203 511.050781 202.277344 510.253906 C 201.558594 509.457031 200.855469 508.644531 200.171875 507.8125 C 199.492188 506.984375 198.828125 506.136719 198.1875 505.273438 C 197.550781 504.410156 196.929688 503.53125 196.332031 502.636719 C 195.734375 501.742188 195.160156 500.835938 194.605469 499.914062 C 194.054688 498.992188 193.523438 498.054688 193.015625 497.109375 C 192.511719 496.160156 192.027344 495.199219 191.566406 494.226562 C 191.105469 493.257812 190.671875 492.273438 190.257812 491.28125 C 189.847656 490.289062 189.460938 489.285156 189.097656 488.273438 C 188.734375 487.261719 188.394531 486.242188 188.082031 485.210938 C 187.769531 484.183594 187.484375 483.148438 187.222656 482.105469 C 186.960938 481.0625 186.722656 480.015625 186.511719 478.960938 C 186.300781 477.90625 186.117188 476.847656 185.957031 475.785156 C 185.800781 474.71875 185.667969 473.652344 185.5625 472.582031 C 185.453125 471.515625 185.375 470.441406 185.320312 469.367188 C 185.265625 468.292969 185.238281 467.21875 185.238281 466.144531 L 185.238281 208.136719 C 185.238281 207.0625 185.265625 205.988281 185.320312 204.914062 C 185.375 203.839844 185.453125 202.769531 185.5625 201.699219 C 185.667969 200.628906 185.800781 199.5625 185.957031 198.5 C 186.117188 197.4375 186.300781 196.378906 186.511719 195.324219 C 186.722656 194.269531 186.960938 193.21875 187.222656 192.175781 C 187.484375 191.132812 187.769531 190.097656 188.082031 189.070312 C 188.394531 188.042969 188.734375 187.019531 189.097656 186.007812 C 189.460938 184.996094 189.847656 183.996094 190.257812 183 C 190.671875 182.007812 191.105469 181.027344 191.566406 180.054688 C 192.027344 179.082031 192.511719 178.121094 193.015625 177.175781 C 193.523438 176.226562 194.054688 175.292969 194.605469 174.371094 C 195.160156 173.449219 195.734375 172.539062 196.332031 171.648438 C 196.929688 170.753906 197.550781 169.875 198.1875 169.011719 C 198.828125 168.148438 199.492188 167.300781 200.171875 166.46875 C 200.855469 165.636719 201.558594 164.824219 202.277344 164.027344 C 203 163.230469 203.742188 162.453125 204.5 161.691406 C 205.261719 160.933594 206.039062 160.191406 206.835938 159.46875 C 207.632812 158.746094 208.445312 158.042969 209.277344 157.363281 C 210.109375 156.679688 210.953125 156.019531 211.816406 155.378906 C 212.679688 154.738281 213.558594 154.117188 214.453125 153.519531 C 215.347656 152.921875 216.253906 152.347656 217.175781 151.796875 C 218.097656 151.242188 219.03125 150.710938 219.980469 150.203125 C 220.925781 149.699219 221.886719 149.214844 222.859375 148.753906 C 223.828125 148.292969 224.8125 147.855469 225.804688 147.445312 C 226.796875 147.035156 227.800781 146.644531 228.8125 146.28125 C 229.824219 145.921875 230.84375 145.582031 231.871094 145.269531 C 232.898438 144.957031 233.933594 144.667969 234.976562 144.40625 C 236.019531 144.144531 237.066406 143.910156 238.121094 143.699219 C 239.175781 143.488281 240.234375 143.304688 241.296875 143.144531 C 242.359375 142.984375 243.425781 142.851562 244.496094 142.746094 C 245.566406 142.640625 246.636719 142.558594 247.710938 142.503906 C 248.785156 142.453125 249.859375 142.425781 250.933594 142.421875 L 887.15625 142.421875 C 888.230469 142.425781 889.304688 142.453125 890.378906 142.503906 C 891.449219 142.558594 892.523438 142.640625 893.59375 142.746094 C 894.660156 142.851562 895.726562 142.984375 896.789062 143.144531 C 897.855469 143.304688 898.914062 143.488281 899.964844 143.699219 C 901.019531 143.910156 902.070312 144.144531 903.109375 144.40625 C 904.152344 144.667969 905.1875 144.957031 906.21875 145.269531 C 907.246094 145.582031 908.265625 145.921875 909.277344 146.28125 C 910.289062 146.644531 911.292969 147.035156 912.285156 147.445312 C 913.277344 147.855469 914.257812 148.292969 915.230469 148.753906 C 916.203125 149.214844 917.160156 149.699219 918.109375 150.203125 C 919.054688 150.710938 919.992188 151.242188 920.914062 151.796875 C 921.835938 152.347656 922.742188 152.921875 923.636719 153.519531 C 924.53125 154.117188 925.40625 154.738281 926.269531 155.378906 C 927.132812 156.019531 927.980469 156.679688 928.8125 157.363281 C 929.640625 158.042969 930.457031 158.746094 931.253906 159.46875 C 932.046875 160.191406 932.828125 160.933594 933.585938 161.691406 C 934.347656 162.453125 935.085938 163.230469 935.808594 164.027344 C 936.53125 164.824219 937.234375 165.636719 937.914062 166.46875 C 938.597656 167.300781 939.257812 168.148438 939.898438 169.011719 C 940.539062 169.875 941.160156 170.753906 941.753906 171.648438 C 942.351562 172.539062 942.929688 173.449219 943.480469 174.371094 C 944.035156 175.292969 944.5625 176.226562 945.070312 177.175781 C 945.578125 178.125 946.0625 179.082031 946.523438 180.054688 C 946.980469 181.027344 947.417969 182.007812 947.828125 183 C 948.242188 183.996094 948.628906 184.996094 948.992188 186.007812 C 949.355469 187.023438 949.691406 188.042969 950.003906 189.070312 C 950.316406 190.097656 950.605469 191.132812 950.867188 192.175781 C 951.128906 193.21875 951.363281 194.269531 951.574219 195.324219 C 951.785156 196.378906 951.96875 197.4375 952.128906 198.5 C 952.289062 199.5625 952.421875 200.628906 952.527344 201.699219 C 952.632812 202.769531 952.714844 203.839844 952.765625 204.914062 C 952.820312 205.988281 952.847656 207.0625 952.851562 208.136719 L 952.851562 236.855469 L 976.550781 236.855469 C 977.8125 236.855469 979.074219 236.921875 980.328125 237.046875 C 981.585938 237.171875 982.832031 237.355469 984.070312 237.605469 C 985.308594 237.851562 986.53125 238.160156 987.738281 238.527344 C 988.945312 238.894531 990.132812 239.320312 991.296875 239.804688 C 992.464844 240.285156 993.605469 240.828125 994.714844 241.421875 C 995.828125 242.019531 996.910156 242.667969 997.960938 243.367188 C 999.007812 244.070312 1000.023438 244.820312 1000.996094 245.621094 C 1001.972656 246.421875 1002.90625 247.269531 1003.800781 248.164062 C 1004.691406 249.054688 1005.539062 249.992188 1006.339844 250.964844 C 1007.140625 251.941406 1007.890625 252.957031 1008.59375 254.003906 C 1009.292969 255.054688 1009.941406 256.136719 1010.539062 257.25 C 1011.132812 258.363281 1011.671875 259.503906 1012.15625 260.667969 C 1012.640625 261.835938 1013.066406 263.023438 1013.433594 264.230469 C 1013.800781 265.4375 1014.109375 266.660156 1014.355469 267.898438 C 1014.601562 269.136719 1014.789062 270.382812 1014.914062 271.640625 C 1015.039062 272.898438 1015.101562 274.15625 1015.105469 275.417969 L 1015.105469 398.859375 C 1015.101562 400.125 1015.039062 401.382812 1014.914062 402.640625 C 1014.789062 403.894531 1014.601562 405.144531 1014.355469 406.382812 C 1014.109375 407.621094 1013.800781 408.84375 1013.433594 410.050781 C 1013.066406 411.257812 1012.640625 412.445312 1012.15625 413.613281 C 1011.675781 414.777344 1011.136719 415.917969 1010.539062 417.03125 C 1009.945312 418.144531 1009.296875 419.226562 1008.59375 420.277344 C 1007.890625 421.324219 1007.140625 422.339844 1006.339844 423.316406 C 1005.539062 424.289062 1004.691406 425.226562 1003.800781 426.117188 C 1002.90625 427.011719 1001.972656 427.859375 1000.996094 428.660156 C 1000.023438 429.460938 999.011719 430.210938 997.960938 430.914062 C 996.910156 431.617188 995.832031 432.265625 994.71875 432.859375 C 993.605469 433.457031 992.464844 433.996094 991.300781 434.480469 C 990.132812 434.964844 988.945312 435.390625 987.738281 435.757812 C 986.53125 436.125 985.308594 436.429688 984.070312 436.679688 C 982.832031 436.925781 981.585938 437.113281 980.328125 437.238281 C 979.074219 437.363281 977.8125 437.425781 976.550781 437.425781 L 952.851562 437.425781 L 952.851562 466.144531 C 952.847656 467.21875 952.820312 468.292969 952.765625 469.367188 C 952.714844 470.441406 952.632812 471.515625 952.527344 472.582031 C 952.421875 473.652344 952.289062 474.71875 952.128906 475.785156 C 951.96875 476.847656 951.785156 477.90625 951.574219 478.960938 C 951.363281 480.015625 951.128906 481.0625 950.867188 482.105469 C 950.605469 483.148438 950.316406 484.183594 950.003906 485.210938 C 949.691406 486.242188 949.355469 487.261719 948.992188 488.273438 C 948.628906 489.285156 948.242188 490.289062 947.828125 491.28125 C 947.417969 492.273438 946.980469 493.257812 946.523438 494.226562 C 946.0625 495.199219 945.578125 496.160156 945.070312 497.109375 C 944.5625 498.054688 944.035156 498.992188 943.480469 499.914062 C 942.929688 500.835938 942.351562 501.742188 941.753906 502.636719 C 941.160156 503.53125 940.539062 504.410156 939.898438 505.273438 C 939.257812 506.136719 938.597656 506.984375 937.914062 507.8125 C 937.234375 508.644531 936.53125 509.457031 935.808594 510.253906 C 935.085938 511.050781 934.347656 511.828125 933.585938 512.589844 C 932.828125 513.351562 932.046875 514.089844 931.253906 514.8125 C 930.457031 515.535156 929.640625 516.238281 928.8125 516.921875 C 927.980469 517.601562 927.132812 518.265625 926.269531 518.90625 C 925.40625 519.546875 924.527344 520.164062 923.636719 520.761719 C 922.742188 521.359375 921.835938 521.933594 920.914062 522.488281 C 919.992188 523.039062 919.054688 523.570312 918.109375 524.078125 C 917.160156 524.585938 916.203125 525.070312 915.230469 525.527344 C 914.257812 525.988281 913.277344 526.425781 912.285156 526.835938 C 911.292969 527.25 910.289062 527.636719 909.277344 528 C 908.265625 528.363281 907.246094 528.699219 906.21875 529.011719 C 905.1875 529.324219 904.152344 529.613281 903.109375 529.875 C 902.070312 530.136719 901.019531 530.375 899.964844 530.585938 C 898.914062 530.796875 897.855469 530.980469 896.789062 531.136719 C 895.726562 531.296875 894.660156 531.429688 893.59375 531.535156 C 892.523438 531.640625 891.449219 531.722656 890.378906 531.777344 C 889.304688 531.832031 888.230469 531.859375 887.15625 531.859375 Z M 250.933594 168.65625 C 249.640625 168.65625 248.351562 168.722656 247.066406 168.851562 C 245.78125 168.976562 244.503906 169.167969 243.234375 169.421875 C 241.96875 169.675781 240.71875 169.988281 239.480469 170.367188 C 238.246094 170.742188 237.03125 171.179688 235.835938 171.671875 C 234.640625 172.167969 233.476562 172.722656 232.335938 173.332031 C 231.195312 173.941406 230.089844 174.605469 229.015625 175.324219 C 227.941406 176.042969 226.90625 176.8125 225.90625 177.632812 C 224.90625 178.453125 223.949219 179.320312 223.035156 180.234375 C 222.125 181.148438 221.257812 182.105469 220.4375 183.101562 C 219.617188 184.101562 218.847656 185.140625 218.128906 186.214844 C 217.410156 187.289062 216.746094 188.394531 216.136719 189.535156 C 215.527344 190.675781 214.976562 191.84375 214.480469 193.035156 C 213.984375 194.230469 213.550781 195.445312 213.171875 196.683594 C 212.796875 197.917969 212.480469 199.171875 212.230469 200.4375 C 211.976562 201.707031 211.785156 202.984375 211.65625 204.269531 C 211.53125 205.554688 211.464844 206.84375 211.464844 208.136719 L 211.464844 466.144531 C 211.464844 467.4375 211.53125 468.726562 211.65625 470.011719 C 211.785156 471.300781 211.976562 472.578125 212.230469 473.84375 C 212.480469 475.113281 212.796875 476.363281 213.171875 477.601562 C 213.550781 478.835938 213.984375 480.054688 214.480469 481.246094 C 214.976562 482.441406 215.527344 483.609375 216.136719 484.746094 C 216.746094 485.886719 217.410156 486.996094 218.128906 488.070312 C 218.847656 489.144531 219.617188 490.179688 220.4375 491.179688 C 221.257812 492.179688 222.125 493.136719 223.039062 494.050781 C 223.949219 494.964844 224.90625 495.832031 225.90625 496.652344 C 226.90625 497.46875 227.941406 498.238281 229.015625 498.957031 C 230.089844 499.675781 231.195312 500.339844 232.335938 500.949219 C 233.476562 501.5625 234.640625 502.113281 235.835938 502.609375 C 237.03125 503.105469 238.246094 503.539062 239.480469 503.914062 C 240.71875 504.292969 241.96875 504.605469 243.238281 504.859375 C 244.503906 505.113281 245.78125 505.304688 247.066406 505.433594 C 248.351562 505.558594 249.640625 505.625 250.933594 505.625 L 887.15625 505.625 C 888.449219 505.625 889.738281 505.558594 891.023438 505.433594 C 892.308594 505.304688 893.585938 505.113281 894.851562 504.859375 C 896.121094 504.605469 897.371094 504.292969 898.609375 503.917969 C 899.84375 503.539062 901.058594 503.105469 902.253906 502.609375 C 903.445312 502.113281 904.613281 501.5625 905.75 500.949219 C 906.890625 500.339844 908 499.675781 909.074219 498.957031 C 910.148438 498.238281 911.183594 497.46875 912.183594 496.652344 C 913.179688 495.832031 914.136719 494.964844 915.050781 494.050781 C 915.964844 493.136719 916.832031 492.179688 917.652344 491.179688 C 918.472656 490.179688 919.242188 489.144531 919.960938 488.070312 C 920.675781 486.996094 921.339844 485.886719 921.949219 484.746094 C 922.5625 483.609375 923.113281 482.441406 923.609375 481.246094 C 924.101562 480.050781 924.539062 478.835938 924.914062 477.601562 C 925.292969 476.363281 925.605469 475.113281 925.859375 473.84375 C 926.113281 472.578125 926.300781 471.300781 926.429688 470.011719 C 926.558594 468.726562 926.625 467.4375 926.625 466.144531 L 926.625 411.195312 L 976.550781 411.195312 C 977.359375 411.195312 978.160156 411.113281 978.953125 410.953125 C 979.746094 410.796875 980.519531 410.5625 981.265625 410.25 C 982.011719 409.941406 982.722656 409.5625 983.394531 409.109375 C 984.066406 408.660156 984.691406 408.148438 985.261719 407.578125 C 985.835938 407.003906 986.34375 406.382812 986.792969 405.707031 C 987.246094 405.035156 987.625 404.324219 987.933594 403.578125 C 988.246094 402.832031 988.480469 402.058594 988.636719 401.265625 C 988.796875 400.472656 988.875 399.671875 988.875 398.859375 L 988.875 275.417969 C 988.875 274.609375 988.796875 273.808594 988.636719 273.015625 C 988.476562 272.222656 988.242188 271.449219 987.933594 270.703125 C 987.625 269.957031 987.242188 269.246094 986.792969 268.574219 C 986.34375 267.898438 985.832031 267.277344 985.261719 266.703125 C 984.6875 266.132812 984.066406 265.621094 983.394531 265.171875 C 982.722656 264.722656 982.011719 264.339844 981.265625 264.03125 C 980.515625 263.722656 979.746094 263.488281 978.953125 263.328125 C 978.160156 263.167969 977.359375 263.089844 976.550781 263.089844 L 926.625 263.089844 L 926.625 208.136719 C 926.625 206.84375 926.558594 205.554688 926.429688 204.269531 C 926.300781 202.984375 926.113281 201.707031 925.859375 200.4375 C 925.605469 199.171875 925.292969 197.917969 924.914062 196.683594 C 924.539062 195.445312 924.101562 194.230469 923.609375 193.035156 C 923.113281 191.84375 922.5625 190.675781 921.949219 189.535156 C 921.339844 188.394531 920.675781 187.289062 919.960938 186.214844 C 919.242188 185.140625 918.472656 184.101562 917.652344 183.101562 C 916.832031 182.105469 915.964844 181.148438 915.050781 180.234375 C 914.136719 179.320312 913.179688 178.453125 912.183594 177.632812 C 911.183594 176.8125 910.148438 176.042969 909.074219 175.324219 C 908 174.605469 906.890625 173.941406 905.75 173.332031 C 904.613281 172.722656 903.445312 172.167969 902.253906 171.671875 C 901.058594 171.179688 899.84375 170.742188 898.609375 170.367188 C 897.371094 169.992188 896.121094 169.675781 894.851562 169.421875 C 893.585938 169.167969 892.308594 168.976562 891.023438 168.851562 C 889.738281 168.722656 888.449219 168.65625 887.15625 168.65625 Z M 250.933594 168.65625 " fill-opacity="1" fill-rule="nonzero"/></g><path fill="#7cde47" d="M 734.417969 200.660156 L 262.0625 200.660156 C 261.453125 200.660156 260.847656 200.691406 260.242188 200.75 C 259.632812 200.8125 259.03125 200.902344 258.433594 201.019531 C 257.839844 201.140625 257.246094 201.289062 256.664062 201.464844 C 256.082031 201.644531 255.507812 201.847656 254.945312 202.082031 C 254.382812 202.316406 253.835938 202.574219 253.296875 202.863281 C 252.761719 203.152344 252.238281 203.464844 251.730469 203.804688 C 251.226562 204.140625 250.738281 204.503906 250.265625 204.890625 C 249.796875 205.277344 249.34375 205.6875 248.914062 206.117188 C 248.484375 206.546875 248.074219 207 247.6875 207.46875 C 247.300781 207.941406 246.9375 208.429688 246.601562 208.9375 C 246.261719 209.441406 245.949219 209.964844 245.660156 210.5 C 245.375 211.039062 245.113281 211.589844 244.878906 212.152344 C 244.648438 212.714844 244.441406 213.289062 244.265625 213.871094 C 244.085938 214.453125 243.9375 215.042969 243.820312 215.640625 C 243.699219 216.238281 243.609375 216.839844 243.550781 217.449219 C 243.488281 218.054688 243.460938 218.660156 243.457031 219.269531 L 243.457031 455.015625 C 243.460938 455.625 243.488281 456.230469 243.550781 456.839844 C 243.609375 457.445312 243.699219 458.046875 243.820312 458.644531 C 243.9375 459.242188 244.085938 459.832031 244.265625 460.414062 C 244.441406 461 244.648438 461.570312 244.878906 462.132812 C 245.113281 462.695312 245.375 463.246094 245.660156 463.785156 C 245.949219 464.320312 246.261719 464.84375 246.601562 465.351562 C 246.9375 465.855469 247.300781 466.34375 247.6875 466.816406 C 248.074219 467.285156 248.484375 467.738281 248.914062 468.167969 C 249.34375 468.597656 249.796875 469.007812 250.265625 469.394531 C 250.738281 469.78125 251.226562 470.144531 251.730469 470.484375 C 252.238281 470.820312 252.761719 471.132812 253.296875 471.421875 C 253.835938 471.710938 254.382812 471.96875 254.949219 472.203125 C 255.511719 472.4375 256.082031 472.640625 256.664062 472.820312 C 257.25 472.996094 257.839844 473.144531 258.4375 473.265625 C 259.035156 473.382812 259.636719 473.472656 260.242188 473.535156 C 260.847656 473.59375 261.453125 473.625 262.0625 473.625 L 734.417969 473.625 Z M 734.417969 200.660156 " fill-opacity="1" fill-rule="nonzero"/><g clip-path="url(#a33055ab0c)"><path fill="#ffffff" d="M 234.980469 192.253906 L 756.929688 192.253906 L 756.929688 486.824219 L 234.980469 486.824219 Z M 234.980469 192.253906 " fill-opacity="1" fill-rule="nonzero"/></g></svg>