<svg xmlns="http://www.w3.org/2000/svg" xmlns:xlink="http://www.w3.org/1999/xlink" width="1600" zoomAndPan="magnify" viewBox="0 0 1200 675.000002" height="900" preserveAspectRatio="xMidYMid meet" version="1.0"><defs><g/><clipPath id="09a96e5a17"><path d="M 51.800781 228.679688 L 234.453125 228.679688 L 234.453125 409.507812 L 51.800781 409.507812 Z M 51.800781 228.679688 " clip-rule="nonzero"/></clipPath><clipPath id="6d4ba09dc1"><path d="M 47.234375 234 L 231 234 L 231 415.902344 L 47.234375 415.902344 Z M 47.234375 234 " clip-rule="nonzero"/></clipPath><clipPath id="93900da204"><path d="M 318.15625 228.679688 L 500.808594 228.679688 L 500.808594 409.507812 L 318.15625 409.507812 Z M 318.15625 228.679688 " clip-rule="nonzero"/></clipPath><clipPath id="6f623a6f48"><path d="M 313.589844 234 L 497.617188 234 L 497.617188 415.902344 L 313.589844 415.902344 Z M 313.589844 234 " clip-rule="nonzero"/></clipPath><clipPath id="3f5f2c8179"><path d="M 364.3125 277.035156 L 456.820312 277.035156 L 456.820312 368.597656 L 364.3125 368.597656 Z M 364.3125 277.035156 " clip-rule="nonzero"/></clipPath><clipPath id="cf143a9991"><path d="M 251.335938 299.597656 L 297 299.597656 L 297 345 L 251.335938 345 Z M 251.335938 299.597656 " clip-rule="nonzero"/></clipPath></defs><g clip-path="url(#09a96e5a17)"><path fill="#f6f6f6" d="M 217.195312 228.679688 L 64.488281 228.679688 C 59.546875 228.679688 55.09375 230.785156 51.945312 234.132812 L 74.394531 256.089844 C 71.980469 258.570312 70.484375 261.953125 70.484375 265.691406 L 70.484375 378.902344 C 70.484375 386.492188 76.640625 392.65625 84.238281 392.65625 L 197.449219 392.65625 C 201.933594 392.65625 205.90625 390.496094 208.421875 387.171875 L 230.875 409.132812 C 233.109375 406.222656 234.457031 402.59375 234.457031 398.652344 L 234.457031 245.941406 C 234.457031 236.425781 226.714844 228.679688 217.195312 228.679688 " fill-opacity="1" fill-rule="nonzero"/></g><g clip-path="url(#6d4ba09dc1)"><path fill="#d0d0d0" d="M 83.644531 252.394531 L 197.476562 252.394531 C 204.386719 252.394531 210.011719 258.015625 210.011719 264.929688 L 210.011719 378.761719 C 210.011719 385.667969 204.386719 391.289062 197.476562 391.289062 L 83.644531 391.289062 C 76.734375 391.289062 71.113281 385.667969 71.113281 378.761719 L 71.113281 264.929688 C 71.113281 258.015625 76.734375 252.394531 83.644531 252.394531 Z M 209.363281 388.089844 C 211.390625 385.519531 212.609375 382.28125 212.609375 378.761719 L 212.609375 264.929688 C 212.609375 256.585938 205.820312 249.792969 197.476562 249.792969 L 83.644531 249.792969 C 79.359375 249.792969 75.492188 251.59375 72.738281 254.46875 L 51.945312 234.132812 C 49.035156 237.222656 47.234375 241.371094 47.234375 245.941406 L 47.234375 398.652344 C 47.234375 408.164062 54.984375 415.910156 64.488281 415.910156 L 217.195312 415.910156 C 222.769531 415.910156 227.71875 413.242188 230.875 409.132812 L 209.363281 388.089844 " fill-opacity="1" fill-rule="nonzero"/></g><path fill="#94969a" d="M 119.105469 317.867188 C 121.980469 317.867188 123.957031 318.523438 125.210938 319.242188 L 126.40625 315.171875 C 124.972656 314.453125 122.21875 313.675781 119.105469 313.675781 C 109.652344 313.675781 103.550781 320.144531 103.550781 329.054688 C 103.550781 337.910156 109.230469 343.832031 117.96875 343.832031 C 121.863281 343.832031 124.914062 342.878906 126.285156 342.160156 L 125.386719 338.210938 C 123.898438 338.867188 121.921875 339.648438 118.925781 339.648438 C 113.183594 339.648438 108.875 335.519531 108.875 328.820312 C 108.875 322.773438 112.464844 317.867188 119.105469 317.867188 " fill-opacity="1" fill-rule="nonzero"/><path fill="#94969a" d="M 139.582031 305.957031 L 134.4375 307.332031 L 134.4375 314.28125 L 129.945312 314.28125 L 129.945312 318.285156 L 134.4375 318.285156 L 134.4375 334.082031 C 134.4375 337.496094 134.976562 340.066406 136.472656 341.625 C 137.730469 343.054688 139.699219 343.832031 142.15625 343.832031 C 144.191406 343.832031 145.804688 343.535156 146.820312 343.121094 L 146.582031 339.167969 C 145.925781 339.347656 144.910156 339.523438 143.527344 339.523438 C 140.601562 339.523438 139.582031 337.496094 139.582031 333.898438 L 139.582031 318.285156 L 147.121094 318.285156 L 147.121094 314.28125 L 139.582031 314.28125 L 139.582031 305.957031 " fill-opacity="1" fill-rule="nonzero"/><path fill="#94969a" d="M 157.847656 319.960938 L 157.609375 319.960938 L 157.425781 314.28125 L 152.820312 314.28125 C 153 316.96875 153.058594 319.902344 153.058594 323.3125 L 153.058594 343.238281 L 158.269531 343.238281 L 158.269531 327.800781 C 158.269531 326.902344 158.386719 326.066406 158.5 325.347656 C 159.21875 321.394531 161.859375 318.582031 165.566406 318.582031 C 166.285156 318.582031 166.820312 318.648438 167.359375 318.761719 L 167.359375 313.796875 C 166.878906 313.675781 166.464844 313.617188 165.863281 313.617188 C 162.332031 313.617188 159.164062 316.074219 157.847656 319.960938 " fill-opacity="1" fill-rule="nonzero"/><path fill="#94969a" d="M 172.875 300.753906 L 172.875 343.238281 L 178.140625 343.238281 L 178.140625 300.753906 L 172.875 300.753906 " fill-opacity="1" fill-rule="nonzero"/><g clip-path="url(#93900da204)"><path fill="#f6f6f6" d="M 483.546875 228.679688 L 330.839844 228.679688 C 325.898438 228.679688 321.445312 230.785156 318.296875 234.132812 L 340.75 256.089844 C 338.332031 258.570312 336.835938 261.953125 336.835938 265.691406 L 336.835938 378.902344 C 336.835938 386.492188 342.992188 392.65625 350.59375 392.65625 L 463.800781 392.65625 C 468.289062 392.65625 472.261719 390.496094 474.773438 387.171875 L 497.230469 409.132812 C 499.464844 406.222656 500.808594 402.59375 500.808594 398.652344 L 500.808594 245.941406 C 500.808594 236.425781 493.066406 228.679688 483.546875 228.679688 " fill-opacity="1" fill-rule="nonzero"/></g><g clip-path="url(#6f623a6f48)"><path fill="#d0d0d0" d="M 349.996094 252.394531 L 463.828125 252.394531 C 470.742188 252.394531 476.363281 258.015625 476.363281 264.929688 L 476.363281 378.761719 C 476.363281 385.667969 470.742188 391.289062 463.828125 391.289062 L 349.996094 391.289062 C 343.085938 391.289062 337.46875 385.667969 337.46875 378.761719 L 337.46875 264.929688 C 337.46875 258.015625 343.085938 252.394531 349.996094 252.394531 Z M 475.71875 388.089844 C 477.742188 385.519531 478.964844 382.28125 478.964844 378.761719 L 478.964844 264.929688 C 478.964844 256.585938 472.175781 249.792969 463.828125 249.792969 L 349.996094 249.792969 C 345.710938 249.792969 341.847656 251.59375 339.089844 254.46875 L 318.296875 234.132812 C 315.386719 237.222656 313.589844 241.371094 313.589844 245.941406 L 313.589844 398.652344 C 313.589844 408.164062 321.335938 415.910156 330.839844 415.910156 L 483.546875 415.910156 C 489.121094 415.910156 494.070312 413.242188 497.230469 409.132812 L 475.71875 388.089844 " fill-opacity="1" fill-rule="nonzero"/></g><path fill="#94969a" d="M 385.460938 317.867188 C 388.332031 317.867188 390.308594 318.523438 391.566406 319.242188 L 392.757812 315.171875 C 391.324219 314.453125 388.570312 313.675781 385.460938 313.675781 C 376.007812 313.675781 369.90625 320.144531 369.90625 329.054688 C 369.90625 337.910156 375.585938 343.832031 384.320312 343.832031 C 388.214844 343.832031 391.265625 342.878906 392.640625 342.160156 L 391.738281 338.210938 C 390.25 338.867188 388.273438 339.648438 385.28125 339.648438 C 379.539062 339.648438 375.230469 335.519531 375.230469 328.820312 C 375.230469 322.773438 378.820312 317.867188 385.460938 317.867188 " fill-opacity="1" fill-rule="nonzero"/><path fill="#94969a" d="M 405.9375 305.957031 L 400.792969 307.332031 L 400.792969 314.28125 L 396.300781 314.28125 L 396.300781 318.285156 L 400.792969 318.285156 L 400.792969 334.082031 C 400.792969 337.496094 401.328125 340.066406 402.824219 341.625 C 404.082031 343.054688 406.050781 343.832031 408.507812 343.832031 C 410.542969 343.832031 412.15625 343.535156 413.171875 343.121094 L 412.933594 339.167969 C 412.28125 339.347656 411.261719 339.523438 409.882812 339.523438 C 406.953125 339.523438 405.9375 337.496094 405.9375 333.898438 L 405.9375 318.285156 L 413.472656 318.285156 L 413.472656 314.28125 L 405.9375 314.28125 L 405.9375 305.957031 " fill-opacity="1" fill-rule="nonzero"/><path fill="#94969a" d="M 424.199219 319.960938 L 423.960938 319.960938 L 423.78125 314.28125 L 419.171875 314.28125 C 419.355469 316.96875 419.414062 319.902344 419.414062 323.3125 L 419.414062 343.238281 L 424.621094 343.238281 L 424.621094 327.800781 C 424.621094 326.902344 424.738281 326.066406 424.855469 325.347656 C 425.574219 321.394531 428.210938 318.582031 431.917969 318.582031 C 432.636719 318.582031 433.175781 318.648438 433.714844 318.761719 L 433.714844 313.796875 C 433.234375 313.675781 432.820312 313.617188 432.214844 313.617188 C 428.683594 313.617188 425.515625 316.074219 424.199219 319.960938 " fill-opacity="1" fill-rule="nonzero"/><path fill="#94969a" d="M 439.226562 300.753906 L 439.226562 343.238281 L 444.496094 343.238281 L 444.496094 300.753906 L 439.226562 300.753906 " fill-opacity="1" fill-rule="nonzero"/><g clip-path="url(#3f5f2c8179)"><path fill="#f6f6f6" d="M 364.3125 277.035156 L 456.820312 277.035156 L 456.820312 368.597656 L 364.3125 368.597656 Z M 364.3125 277.035156 " fill-opacity="1" fill-rule="nonzero"/></g><g fill="#94969a" fill-opacity="1"><g transform="translate(396.993194, 341.439503)"><g><path d="M 9.203125 -34.203125 L 9.203125 -3.328125 L 25.671875 -3.328125 L 25.671875 0 L 5.171875 0 L 5.171875 -34.203125 Z M 9.203125 -34.203125 "/></g></g></g><g clip-path="url(#cf143a9991)"><path fill="#94969a" d="M 274.121094 299.546875 C 273.621094 299.554688 273.140625 299.65625 272.679688 299.855469 C 272.222656 300.054688 271.816406 300.332031 271.46875 300.691406 C 271.121094 301.050781 270.851562 301.460938 270.667969 301.925781 C 270.484375 302.390625 270.394531 302.875 270.398438 303.375 L 270.398438 318.476562 L 255.296875 318.476562 C 254.792969 318.46875 254.304688 318.558594 253.835938 318.75 C 253.367188 318.9375 252.953125 319.207031 252.59375 319.5625 C 252.234375 319.917969 251.957031 320.328125 251.761719 320.792969 C 251.566406 321.261719 251.46875 321.746094 251.46875 322.25 C 251.46875 322.757812 251.566406 323.242188 251.761719 323.707031 C 251.957031 324.175781 252.234375 324.585938 252.59375 324.941406 C 252.953125 325.296875 253.367188 325.566406 253.835938 325.753906 C 254.304688 325.945312 254.792969 326.035156 255.296875 326.027344 L 270.398438 326.027344 L 270.398438 341.128906 C 270.394531 341.632812 270.484375 342.121094 270.671875 342.589844 C 270.859375 343.058594 271.132812 343.472656 271.488281 343.832031 C 271.839844 344.191406 272.253906 344.46875 272.71875 344.664062 C 273.183594 344.859375 273.671875 344.957031 274.175781 344.957031 C 274.679688 344.957031 275.167969 344.859375 275.632812 344.664062 C 276.097656 344.46875 276.507812 344.191406 276.863281 343.832031 C 277.21875 343.472656 277.492188 343.058594 277.679688 342.589844 C 277.867188 342.121094 277.957031 341.632812 277.949219 341.128906 L 277.949219 326.027344 L 293.050781 326.027344 C 293.558594 326.035156 294.046875 325.945312 294.515625 325.753906 C 294.984375 325.566406 295.398438 325.296875 295.757812 324.941406 C 296.117188 324.585938 296.394531 324.175781 296.589844 323.707031 C 296.785156 323.242188 296.882812 322.757812 296.882812 322.25 C 296.882812 321.746094 296.785156 321.261719 296.589844 320.792969 C 296.394531 320.328125 296.117188 319.917969 295.757812 319.5625 C 295.398438 319.207031 294.984375 318.9375 294.515625 318.75 C 294.046875 318.558594 293.558594 318.46875 293.050781 318.476562 L 277.949219 318.476562 L 277.949219 303.375 C 277.953125 303.121094 277.933594 302.871094 277.886719 302.625 C 277.839844 302.375 277.769531 302.136719 277.671875 301.902344 C 277.578125 301.667969 277.460938 301.445312 277.320312 301.234375 C 277.183594 301.023438 277.023438 300.832031 276.84375 300.652344 C 276.664062 300.472656 276.472656 300.3125 276.261719 300.175781 C 276.050781 300.035156 275.828125 299.917969 275.59375 299.824219 C 275.359375 299.730469 275.121094 299.660156 274.871094 299.613281 C 274.621094 299.566406 274.371094 299.542969 274.121094 299.546875 Z M 274.121094 299.546875 " fill-opacity="1" fill-rule="nonzero"/></g><g fill="#000000" fill-opacity="1"><g transform="translate(572.981882, 338.990806)"><g><path d="M 16.125 -25.78125 L 16.125 0 L 10.21875 0 L 10.21875 -25.78125 L 1.84375 -25.78125 L 1.84375 -30.578125 L 24.5 -30.578125 L 24.5 -25.78125 Z M 16.125 -25.78125 "/></g></g></g><g fill="#000000" fill-opacity="1"><g transform="translate(599.327033, 338.990806)"><g><path d="M 17.4375 0 L 17.4375 -15.484375 C 17.4375 -18.085938 16.46875 -19.390625 14.53125 -19.390625 C 13.5625 -19.390625 12.632812 -19 11.75 -18.21875 C 10.875 -17.445312 9.945312 -16.390625 8.96875 -15.046875 L 8.96875 0 L 3.25 0 L 3.25 -33.0625 L 8.96875 -33.0625 L 8.96875 -24.921875 L 8.6875 -20.609375 C 9.164062 -21.191406 9.65625 -21.710938 10.15625 -22.171875 C 10.65625 -22.628906 11.191406 -23.015625 11.765625 -23.328125 C 12.347656 -23.640625 12.972656 -23.875 13.640625 -24.03125 C 14.304688 -24.195312 15.046875 -24.28125 15.859375 -24.28125 C 17.078125 -24.28125 18.140625 -24.082031 19.046875 -23.6875 C 19.953125 -23.289062 20.707031 -22.726562 21.3125 -22 C 21.925781 -21.28125 22.382812 -20.410156 22.6875 -19.390625 C 22.988281 -18.367188 23.140625 -17.222656 23.140625 -15.953125 L 23.140625 0 Z M 17.4375 0 "/></g></g></g><g fill="#000000" fill-opacity="1"><g transform="translate(625.672183, 338.990806)"><g><path d="M 17.25 -30.28125 C 17.25 -29.757812 17.15625 -29.273438 16.96875 -28.828125 C 16.78125 -28.378906 16.515625 -27.984375 16.171875 -27.640625 C 15.835938 -27.304688 15.445312 -27.039062 15 -26.84375 C 14.550781 -26.65625 14.0625 -26.5625 13.53125 -26.5625 C 13 -26.5625 12.5 -26.65625 12.03125 -26.84375 C 11.570312 -27.039062 11.175781 -27.304688 10.84375 -27.640625 C 10.507812 -27.984375 10.25 -28.378906 10.0625 -28.828125 C 9.875 -29.273438 9.78125 -29.757812 9.78125 -30.28125 C 9.78125 -30.789062 9.875 -31.269531 10.0625 -31.71875 C 10.25 -32.175781 10.507812 -32.578125 10.84375 -32.921875 C 11.175781 -33.265625 11.570312 -33.53125 12.03125 -33.71875 C 12.5 -33.914062 13 -34.015625 13.53125 -34.015625 C 14.0625 -34.015625 14.550781 -33.914062 15 -33.71875 C 15.445312 -33.53125 15.835938 -33.265625 16.171875 -32.921875 C 16.515625 -32.578125 16.78125 -32.175781 16.96875 -31.71875 C 17.15625 -31.269531 17.25 -30.789062 17.25 -30.28125 Z M 10.921875 -19.328125 L 4.21875 -19.328125 L 4.21875 -23.78125 L 16.78125 -23.78125 L 16.78125 -4.453125 L 23.640625 -4.453125 L 23.640625 0 L 3.390625 0 L 3.390625 -4.453125 L 10.921875 -4.453125 Z M 10.921875 -19.328125 "/></g></g></g><g fill="#000000" fill-opacity="1"><g transform="translate(652.017334, 338.990806)"><g><path d="M 22.859375 -7 C 22.859375 -5.632812 22.554688 -4.472656 21.953125 -3.515625 C 21.359375 -2.554688 20.566406 -1.773438 19.578125 -1.171875 C 18.585938 -0.578125 17.460938 -0.144531 16.203125 0.125 C 14.953125 0.394531 13.671875 0.53125 12.359375 0.53125 C 10.609375 0.53125 9.03125 0.445312 7.625 0.28125 C 6.21875 0.125 4.894531 -0.109375 3.65625 -0.421875 L 3.65625 -5.5625 C 5.113281 -4.957031 6.570312 -4.519531 8.03125 -4.25 C 9.488281 -3.976562 10.867188 -3.84375 12.171875 -3.84375 C 13.660156 -3.84375 14.773438 -4.078125 15.515625 -4.546875 C 16.265625 -5.023438 16.640625 -5.644531 16.640625 -6.40625 C 16.640625 -6.769531 16.5625 -7.097656 16.40625 -7.390625 C 16.25 -7.691406 15.953125 -7.976562 15.515625 -8.25 C 15.085938 -8.519531 14.484375 -8.800781 13.703125 -9.09375 C 12.929688 -9.382812 11.910156 -9.707031 10.640625 -10.0625 C 9.472656 -10.382812 8.445312 -10.753906 7.5625 -11.171875 C 6.6875 -11.585938 5.957031 -12.078125 5.375 -12.640625 C 4.800781 -13.203125 4.367188 -13.851562 4.078125 -14.59375 C 3.796875 -15.332031 3.65625 -16.203125 3.65625 -17.203125 C 3.65625 -18.171875 3.867188 -19.082031 4.296875 -19.9375 C 4.734375 -20.789062 5.382812 -21.539062 6.25 -22.1875 C 7.125 -22.84375 8.207031 -23.351562 9.5 -23.71875 C 10.789062 -24.09375 12.304688 -24.28125 14.046875 -24.28125 C 15.535156 -24.28125 16.859375 -24.203125 18.015625 -24.046875 C 19.171875 -23.898438 20.191406 -23.734375 21.078125 -23.546875 L 21.078125 -18.890625 C 19.722656 -19.316406 18.445312 -19.617188 17.25 -19.796875 C 16.0625 -19.984375 14.882812 -20.078125 13.71875 -20.078125 C 12.539062 -20.078125 11.597656 -19.863281 10.890625 -19.4375 C 10.179688 -19.019531 9.828125 -18.4375 9.828125 -17.6875 C 9.828125 -17.332031 9.894531 -17.015625 10.03125 -16.734375 C 10.175781 -16.453125 10.453125 -16.175781 10.859375 -15.90625 C 11.273438 -15.644531 11.851562 -15.367188 12.59375 -15.078125 C 13.34375 -14.785156 14.320312 -14.472656 15.53125 -14.140625 C 16.90625 -13.742188 18.0625 -13.320312 19 -12.875 C 19.9375 -12.4375 20.6875 -11.9375 21.25 -11.375 C 21.820312 -10.8125 22.234375 -10.171875 22.484375 -9.453125 C 22.734375 -8.734375 22.859375 -7.914062 22.859375 -7 Z M 22.859375 -7 "/></g></g></g><g fill="#000000" fill-opacity="1"><g transform="translate(678.362485, 338.990806)"><g/></g></g><g fill="#000000" fill-opacity="1"><g transform="translate(704.707636, 338.990806)"><g><path d="M 17.25 -30.28125 C 17.25 -29.757812 17.15625 -29.273438 16.96875 -28.828125 C 16.78125 -28.378906 16.515625 -27.984375 16.171875 -27.640625 C 15.835938 -27.304688 15.445312 -27.039062 15 -26.84375 C 14.550781 -26.65625 14.0625 -26.5625 13.53125 -26.5625 C 13 -26.5625 12.5 -26.65625 12.03125 -26.84375 C 11.570312 -27.039062 11.175781 -27.304688 10.84375 -27.640625 C 10.507812 -27.984375 10.25 -28.378906 10.0625 -28.828125 C 9.875 -29.273438 9.78125 -29.757812 9.78125 -30.28125 C 9.78125 -30.789062 9.875 -31.269531 10.0625 -31.71875 C 10.25 -32.175781 10.507812 -32.578125 10.84375 -32.921875 C 11.175781 -33.265625 11.570312 -33.53125 12.03125 -33.71875 C 12.5 -33.914062 13 -34.015625 13.53125 -34.015625 C 14.0625 -34.015625 14.550781 -33.914062 15 -33.71875 C 15.445312 -33.53125 15.835938 -33.265625 16.171875 -32.921875 C 16.515625 -32.578125 16.78125 -32.175781 16.96875 -31.71875 C 17.15625 -31.269531 17.25 -30.789062 17.25 -30.28125 Z M 10.921875 -19.328125 L 4.21875 -19.328125 L 4.21875 -23.78125 L 16.78125 -23.78125 L 16.78125 -4.453125 L 23.640625 -4.453125 L 23.640625 0 L 3.390625 0 L 3.390625 -4.453125 L 10.921875 -4.453125 Z M 10.921875 -19.328125 "/></g></g></g><g fill="#000000" fill-opacity="1"><g transform="translate(731.052787, 338.990806)"><g><path d="M 22.859375 -7 C 22.859375 -5.632812 22.554688 -4.472656 21.953125 -3.515625 C 21.359375 -2.554688 20.566406 -1.773438 19.578125 -1.171875 C 18.585938 -0.578125 17.460938 -0.144531 16.203125 0.125 C 14.953125 0.394531 13.671875 0.53125 12.359375 0.53125 C 10.609375 0.53125 9.03125 0.445312 7.625 0.28125 C 6.21875 0.125 4.894531 -0.109375 3.65625 -0.421875 L 3.65625 -5.5625 C 5.113281 -4.957031 6.570312 -4.519531 8.03125 -4.25 C 9.488281 -3.976562 10.867188 -3.84375 12.171875 -3.84375 C 13.660156 -3.84375 14.773438 -4.078125 15.515625 -4.546875 C 16.265625 -5.023438 16.640625 -5.644531 16.640625 -6.40625 C 16.640625 -6.769531 16.5625 -7.097656 16.40625 -7.390625 C 16.25 -7.691406 15.953125 -7.976562 15.515625 -8.25 C 15.085938 -8.519531 14.484375 -8.800781 13.703125 -9.09375 C 12.929688 -9.382812 11.910156 -9.707031 10.640625 -10.0625 C 9.472656 -10.382812 8.445312 -10.753906 7.5625 -11.171875 C 6.6875 -11.585938 5.957031 -12.078125 5.375 -12.640625 C 4.800781 -13.203125 4.367188 -13.851562 4.078125 -14.59375 C 3.796875 -15.332031 3.65625 -16.203125 3.65625 -17.203125 C 3.65625 -18.171875 3.867188 -19.082031 4.296875 -19.9375 C 4.734375 -20.789062 5.382812 -21.539062 6.25 -22.1875 C 7.125 -22.84375 8.207031 -23.351562 9.5 -23.71875 C 10.789062 -24.09375 12.304688 -24.28125 14.046875 -24.28125 C 15.535156 -24.28125 16.859375 -24.203125 18.015625 -24.046875 C 19.171875 -23.898438 20.191406 -23.734375 21.078125 -23.546875 L 21.078125 -18.890625 C 19.722656 -19.316406 18.445312 -19.617188 17.25 -19.796875 C 16.0625 -19.984375 14.882812 -20.078125 13.71875 -20.078125 C 12.539062 -20.078125 11.597656 -19.863281 10.890625 -19.4375 C 10.179688 -19.019531 9.828125 -18.4375 9.828125 -17.6875 C 9.828125 -17.332031 9.894531 -17.015625 10.03125 -16.734375 C 10.175781 -16.453125 10.453125 -16.175781 10.859375 -15.90625 C 11.273438 -15.644531 11.851562 -15.367188 12.59375 -15.078125 C 13.34375 -14.785156 14.320312 -14.472656 15.53125 -14.140625 C 16.90625 -13.742188 18.0625 -13.320312 19 -12.875 C 19.9375 -12.4375 20.6875 -11.9375 21.25 -11.375 C 21.820312 -10.8125 22.234375 -10.171875 22.484375 -9.453125 C 22.734375 -8.734375 22.859375 -7.914062 22.859375 -7 Z M 22.859375 -7 "/></g></g></g><g fill="#000000" fill-opacity="1"><g transform="translate(757.397938, 338.990806)"><g/></g></g><g fill="#000000" fill-opacity="1"><g transform="translate(783.743089, 338.990806)"><g><path d="M 18.15625 0 L 18.015625 -3.109375 C 17.515625 -2.578125 16.988281 -2.085938 16.4375 -1.640625 C 15.894531 -1.203125 15.296875 -0.816406 14.640625 -0.484375 C 13.992188 -0.160156 13.28125 0.0859375 12.5 0.265625 C 11.726562 0.441406 10.882812 0.53125 9.96875 0.53125 C 8.75 0.53125 7.675781 0.351562 6.75 0 C 5.832031 -0.351562 5.0625 -0.847656 4.4375 -1.484375 C 3.820312 -2.128906 3.351562 -2.90625 3.03125 -3.8125 C 2.707031 -4.71875 2.546875 -5.71875 2.546875 -6.8125 C 2.546875 -7.9375 2.785156 -8.972656 3.265625 -9.921875 C 3.742188 -10.867188 4.46875 -11.6875 5.4375 -12.375 C 6.414062 -13.0625 7.632812 -13.597656 9.09375 -13.984375 C 10.550781 -14.378906 12.265625 -14.578125 14.234375 -14.578125 L 17.34375 -14.578125 L 17.34375 -16 C 17.34375 -16.613281 17.253906 -17.164062 17.078125 -17.65625 C 16.910156 -18.144531 16.632812 -18.5625 16.25 -18.90625 C 15.863281 -19.25 15.367188 -19.515625 14.765625 -19.703125 C 14.160156 -19.890625 13.410156 -19.984375 12.515625 -19.984375 C 11.109375 -19.984375 9.722656 -19.820312 8.359375 -19.5 C 6.992188 -19.1875 5.675781 -18.738281 4.40625 -18.15625 L 4.40625 -22.71875 C 5.539062 -23.175781 6.851562 -23.550781 8.34375 -23.84375 C 9.832031 -24.132812 11.378906 -24.28125 12.984375 -24.28125 C 14.742188 -24.28125 16.253906 -24.113281 17.515625 -23.78125 C 18.785156 -23.445312 19.828125 -22.941406 20.640625 -22.265625 C 21.460938 -21.597656 22.066406 -20.757812 22.453125 -19.75 C 22.847656 -18.75 23.046875 -17.578125 23.046875 -16.234375 L 23.046875 0 Z M 17.34375 -10.5 L 13.859375 -10.5 C 12.890625 -10.5 12.066406 -10.40625 11.390625 -10.21875 C 10.722656 -10.03125 10.175781 -9.773438 9.75 -9.453125 C 9.332031 -9.128906 9.023438 -8.75 8.828125 -8.3125 C 8.640625 -7.882812 8.546875 -7.429688 8.546875 -6.953125 C 8.546875 -5.984375 8.851562 -5.242188 9.46875 -4.734375 C 10.09375 -4.234375 10.945312 -3.984375 12.03125 -3.984375 C 12.820312 -3.984375 13.644531 -4.269531 14.5 -4.84375 C 15.363281 -5.414062 16.3125 -6.242188 17.34375 -7.328125 Z M 17.34375 -10.5 "/></g></g></g><g fill="#000000" fill-opacity="1"><g transform="translate(810.088228, 338.990806)"><g/></g></g><g fill="#000000" fill-opacity="1"><g transform="translate(836.433368, 338.990806)"><g><path d="M 17.4375 0 L 17.4375 -15.484375 C 17.4375 -18.085938 16.46875 -19.390625 14.53125 -19.390625 C 13.5625 -19.390625 12.632812 -19 11.75 -18.21875 C 10.875 -17.445312 9.945312 -16.390625 8.96875 -15.046875 L 8.96875 0 L 3.25 0 L 3.25 -33.0625 L 8.96875 -33.0625 L 8.96875 -24.921875 L 8.6875 -20.609375 C 9.164062 -21.191406 9.65625 -21.710938 10.15625 -22.171875 C 10.65625 -22.628906 11.191406 -23.015625 11.765625 -23.328125 C 12.347656 -23.640625 12.972656 -23.875 13.640625 -24.03125 C 14.304688 -24.195312 15.046875 -24.28125 15.859375 -24.28125 C 17.078125 -24.28125 18.140625 -24.082031 19.046875 -23.6875 C 19.953125 -23.289062 20.707031 -22.726562 21.3125 -22 C 21.925781 -21.28125 22.382812 -20.410156 22.6875 -19.390625 C 22.988281 -18.367188 23.140625 -17.222656 23.140625 -15.953125 L 23.140625 0 Z M 17.4375 0 "/></g></g></g><g fill="#000000" fill-opacity="1"><g transform="translate(862.778508, 338.990806)"><g><path d="M 17.546875 -2.59375 C 16.722656 -0.539062 15.863281 1.257812 14.96875 2.8125 C 14.070312 4.363281 13.082031 5.660156 12 6.703125 C 10.925781 7.742188 9.726562 8.523438 8.40625 9.046875 C 7.09375 9.566406 5.617188 9.828125 3.984375 9.828125 C 3.585938 9.828125 3.160156 9.804688 2.703125 9.765625 C 2.242188 9.722656 1.769531 9.664062 1.28125 9.59375 L 1.28125 4.75 C 1.46875 4.78125 1.679688 4.8125 1.921875 4.84375 C 2.171875 4.882812 2.425781 4.914062 2.6875 4.9375 C 2.957031 4.96875 3.226562 4.988281 3.5 5 C 3.769531 5.019531 4.023438 5.03125 4.265625 5.03125 C 4.910156 5.03125 5.515625 4.90625 6.078125 4.65625 C 6.640625 4.40625 7.160156 4.054688 7.640625 3.609375 C 8.117188 3.171875 8.550781 2.640625 8.9375 2.015625 C 9.332031 1.398438 9.675781 0.726562 9.96875 0 L 0.53125 -23.78125 L 6.90625 -23.78125 L 11.84375 -10.296875 L 13.3125 -5.9375 L 14.765625 -10.109375 L 19.75 -23.78125 L 25.875 -23.78125 Z M 17.546875 -2.59375 "/></g></g></g><g fill="#000000" fill-opacity="1"><g transform="translate(889.123647, 338.990806)"><g><path d="M 24.640625 -12.3125 C 24.640625 -10.125 24.332031 -8.234375 23.71875 -6.640625 C 23.101562 -5.054688 22.242188 -3.734375 21.140625 -2.671875 C 20.035156 -1.617188 18.734375 -0.835938 17.234375 -0.328125 C 15.742188 0.171875 14.117188 0.421875 12.359375 0.421875 C 11.765625 0.421875 11.171875 0.378906 10.578125 0.296875 C 9.984375 0.222656 9.445312 0.125 8.96875 0 L 8.96875 9.296875 L 3.25 9.296875 L 3.25 -23.78125 L 8.1875 -23.78125 L 8.328125 -20.265625 C 8.816406 -20.867188 9.320312 -21.421875 9.84375 -21.921875 C 10.363281 -22.421875 10.925781 -22.847656 11.53125 -23.203125 C 12.144531 -23.554688 12.800781 -23.820312 13.5 -24 C 14.195312 -24.1875 14.984375 -24.28125 15.859375 -24.28125 C 17.265625 -24.28125 18.515625 -24 19.609375 -23.4375 C 20.703125 -22.882812 21.617188 -22.085938 22.359375 -21.046875 C 23.097656 -20.003906 23.660156 -18.742188 24.046875 -17.265625 C 24.441406 -15.796875 24.640625 -14.144531 24.640625 -12.3125 Z M 18.65625 -12.078125 C 18.65625 -13.390625 18.5625 -14.503906 18.375 -15.421875 C 18.1875 -16.335938 17.914062 -17.09375 17.5625 -17.6875 C 17.207031 -18.28125 16.773438 -18.710938 16.265625 -18.984375 C 15.765625 -19.253906 15.1875 -19.390625 14.53125 -19.390625 C 13.5625 -19.390625 12.632812 -19 11.75 -18.21875 C 10.875 -17.445312 9.945312 -16.390625 8.96875 -15.046875 L 8.96875 -4.65625 C 9.414062 -4.488281 9.96875 -4.347656 10.625 -4.234375 C 11.289062 -4.128906 11.96875 -4.078125 12.65625 -4.078125 C 13.5625 -4.078125 14.382812 -4.257812 15.125 -4.625 C 15.863281 -5 16.492188 -5.53125 17.015625 -6.21875 C 17.546875 -6.90625 17.953125 -7.742188 18.234375 -8.734375 C 18.515625 -9.722656 18.65625 -10.835938 18.65625 -12.078125 Z M 18.65625 -12.078125 "/></g></g></g><g fill="#000000" fill-opacity="1"><g transform="translate(915.468787, 338.990806)"><g><path d="M 23.96875 -13.71875 C 23.96875 -13.320312 23.953125 -12.8125 23.921875 -12.1875 C 23.898438 -11.5625 23.867188 -10.976562 23.828125 -10.4375 L 8.1875 -10.4375 C 8.1875 -9.394531 8.347656 -8.472656 8.671875 -7.671875 C 8.992188 -6.878906 9.445312 -6.210938 10.03125 -5.671875 C 10.613281 -5.128906 11.3125 -4.71875 12.125 -4.4375 C 12.945312 -4.164062 13.859375 -4.03125 14.859375 -4.03125 C 16.015625 -4.03125 17.25 -4.117188 18.5625 -4.296875 C 19.882812 -4.472656 21.253906 -4.765625 22.671875 -5.171875 L 22.671875 -0.625 C 22.066406 -0.457031 21.40625 -0.300781 20.6875 -0.15625 C 19.96875 -0.0195312 19.234375 0.0976562 18.484375 0.203125 C 17.734375 0.316406 16.972656 0.398438 16.203125 0.453125 C 15.441406 0.503906 14.707031 0.53125 14 0.53125 C 12.1875 0.53125 10.5625 0.273438 9.125 -0.234375 C 7.6875 -0.742188 6.46875 -1.503906 5.46875 -2.515625 C 4.476562 -3.523438 3.71875 -4.769531 3.1875 -6.25 C 2.65625 -7.726562 2.390625 -9.441406 2.390625 -11.390625 C 2.390625 -13.328125 2.65625 -15.085938 3.1875 -16.671875 C 3.71875 -18.253906 4.460938 -19.609375 5.421875 -20.734375 C 6.390625 -21.867188 7.5625 -22.742188 8.9375 -23.359375 C 10.320312 -23.972656 11.867188 -24.28125 13.578125 -24.28125 C 15.253906 -24.28125 16.738281 -24.019531 18.03125 -23.5 C 19.332031 -22.976562 20.421875 -22.25 21.296875 -21.3125 C 22.171875 -20.375 22.832031 -19.257812 23.28125 -17.96875 C 23.738281 -16.675781 23.96875 -15.257812 23.96875 -13.71875 Z M 18.15625 -14.53125 C 18.175781 -15.46875 18.0625 -16.28125 17.8125 -16.96875 C 17.5625 -17.664062 17.21875 -18.238281 16.78125 -18.6875 C 16.351562 -19.144531 15.851562 -19.484375 15.28125 -19.703125 C 14.71875 -19.921875 14.109375 -20.03125 13.453125 -20.03125 C 12.015625 -20.03125 10.835938 -19.550781 9.921875 -18.59375 C 9.003906 -17.632812 8.457031 -16.28125 8.28125 -14.53125 Z M 18.15625 -14.53125 "/></g></g></g><g fill="#000000" fill-opacity="1"><g transform="translate(941.813926, 338.990806)"><g><path d="M 18.5625 -14.53125 C 18.59375 -15.414062 18.546875 -16.171875 18.421875 -16.796875 C 18.304688 -17.421875 18.117188 -17.9375 17.859375 -18.34375 C 17.609375 -18.75 17.296875 -19.046875 16.921875 -19.234375 C 16.546875 -19.421875 16.113281 -19.515625 15.625 -19.515625 C 14.789062 -19.515625 13.921875 -19.164062 13.015625 -18.46875 C 12.117188 -17.78125 11.132812 -16.640625 10.0625 -15.046875 L 10.0625 0 L 4.21875 0 L 4.21875 -23.78125 L 9.390625 -23.78125 L 9.59375 -20.3125 C 9.976562 -20.914062 10.414062 -21.457031 10.90625 -21.9375 C 11.40625 -22.425781 11.953125 -22.847656 12.546875 -23.203125 C 13.148438 -23.554688 13.816406 -23.820312 14.546875 -24 C 15.285156 -24.1875 16.09375 -24.28125 16.96875 -24.28125 C 18.164062 -24.28125 19.226562 -24.070312 20.15625 -23.65625 C 21.082031 -23.25 21.863281 -22.640625 22.5 -21.828125 C 23.132812 -21.015625 23.601562 -19.992188 23.90625 -18.765625 C 24.207031 -17.546875 24.332031 -16.132812 24.28125 -14.53125 Z M 18.5625 -14.53125 "/></g></g></g><g fill="#000000" fill-opacity="1"><g transform="translate(968.159066, 338.990806)"><g><path d="M 10.921875 -28.625 L 4.21875 -28.625 L 4.21875 -33.0625 L 16.78125 -33.0625 L 16.78125 -4.453125 L 23.640625 -4.453125 L 23.640625 0 L 3.390625 0 L 3.390625 -4.453125 L 10.921875 -4.453125 Z M 10.921875 -28.625 "/></g></g></g><g fill="#000000" fill-opacity="1"><g transform="translate(994.504206, 338.990806)"><g><path d="M 17.25 -30.28125 C 17.25 -29.757812 17.15625 -29.273438 16.96875 -28.828125 C 16.78125 -28.378906 16.515625 -27.984375 16.171875 -27.640625 C 15.835938 -27.304688 15.445312 -27.039062 15 -26.84375 C 14.550781 -26.65625 14.0625 -26.5625 13.53125 -26.5625 C 13 -26.5625 12.5 -26.65625 12.03125 -26.84375 C 11.570312 -27.039062 11.175781 -27.304688 10.84375 -27.640625 C 10.507812 -27.984375 10.25 -28.378906 10.0625 -28.828125 C 9.875 -29.273438 9.78125 -29.757812 9.78125 -30.28125 C 9.78125 -30.789062 9.875 -31.269531 10.0625 -31.71875 C 10.25 -32.175781 10.507812 -32.578125 10.84375 -32.921875 C 11.175781 -33.265625 11.570312 -33.53125 12.03125 -33.71875 C 12.5 -33.914062 13 -34.015625 13.53125 -34.015625 C 14.0625 -34.015625 14.550781 -33.914062 15 -33.71875 C 15.445312 -33.53125 15.835938 -33.265625 16.171875 -32.921875 C 16.515625 -32.578125 16.78125 -32.175781 16.96875 -31.71875 C 17.15625 -31.269531 17.25 -30.789062 17.25 -30.28125 Z M 10.921875 -19.328125 L 4.21875 -19.328125 L 4.21875 -23.78125 L 16.78125 -23.78125 L 16.78125 -4.453125 L 23.640625 -4.453125 L 23.640625 0 L 3.390625 0 L 3.390625 -4.453125 L 10.921875 -4.453125 Z M 10.921875 -19.328125 "/></g></g></g><g fill="#000000" fill-opacity="1"><g transform="translate(1020.849345, 338.990806)"><g><path d="M 17.4375 0 L 17.4375 -15.484375 C 17.4375 -18.085938 16.46875 -19.390625 14.53125 -19.390625 C 13.5625 -19.390625 12.632812 -19 11.75 -18.21875 C 10.875 -17.445312 9.945312 -16.390625 8.96875 -15.046875 L 8.96875 0 L 3.25 0 L 3.25 -23.78125 L 8.1875 -23.78125 L 8.328125 -20.265625 C 8.816406 -20.867188 9.320312 -21.421875 9.84375 -21.921875 C 10.363281 -22.421875 10.925781 -22.847656 11.53125 -23.203125 C 12.144531 -23.554688 12.800781 -23.820312 13.5 -24 C 14.195312 -24.1875 14.984375 -24.28125 15.859375 -24.28125 C 17.078125 -24.28125 18.140625 -24.082031 19.046875 -23.6875 C 19.953125 -23.289062 20.707031 -22.726562 21.3125 -22 C 21.925781 -21.28125 22.382812 -20.410156 22.6875 -19.390625 C 22.988281 -18.367188 23.140625 -17.222656 23.140625 -15.953125 L 23.140625 0 Z M 17.4375 0 "/></g></g></g><g fill="#000000" fill-opacity="1"><g transform="translate(1047.194485, 338.990806)"><g><path d="M 17.96875 0 L 9.203125 -11.890625 L 9.203125 0 L 3.484375 0 L 3.484375 -33.0625 L 9.203125 -33.0625 L 9.203125 -13.71875 L 17.5 -23.78125 L 24.640625 -23.78125 L 15 -12.9375 L 25.4375 0 Z M 17.96875 0 "/></g></g></g><g fill="#000000" fill-opacity="1"><g transform="translate(1073.539625, 338.990806)"><g><path d="M 15.625 -9.5 L 10.734375 -9.5 L 9.875 -33.0625 L 16.5 -33.0625 Z M 13.171875 -6.765625 C 13.671875 -6.765625 14.140625 -6.671875 14.578125 -6.484375 C 15.023438 -6.296875 15.410156 -6.035156 15.734375 -5.703125 C 16.066406 -5.378906 16.332031 -4.992188 16.53125 -4.546875 C 16.726562 -4.109375 16.828125 -3.628906 16.828125 -3.109375 C 16.828125 -2.597656 16.726562 -2.117188 16.53125 -1.671875 C 16.332031 -1.222656 16.066406 -0.832031 15.734375 -0.5 C 15.410156 -0.175781 15.023438 0.0703125 14.578125 0.25 C 14.140625 0.4375 13.671875 0.53125 13.171875 0.53125 C 12.671875 0.53125 12.195312 0.4375 11.75 0.25 C 11.3125 0.0703125 10.925781 -0.175781 10.59375 -0.5 C 10.269531 -0.832031 10.015625 -1.222656 9.828125 -1.671875 C 9.640625 -2.117188 9.546875 -2.597656 9.546875 -3.109375 C 9.546875 -3.628906 9.640625 -4.109375 9.828125 -4.546875 C 10.015625 -4.992188 10.269531 -5.378906 10.59375 -5.703125 C 10.925781 -6.035156 11.3125 -6.296875 11.75 -6.484375 C 12.195312 -6.671875 12.671875 -6.765625 13.171875 -6.765625 Z M 13.171875 -6.765625 "/></g></g></g></svg>