<svg xmlns="http://www.w3.org/2000/svg" xmlns:xlink="http://www.w3.org/1999/xlink" width="1600" zoomAndPan="magnify" viewBox="0 0 1200 374.999991" height="500" preserveAspectRatio="xMidYMid meet" version="1.0"><defs><g/></defs><rect x="-120" width="1440" fill="#ffffff" y="-37.499999" height="449.999989" fill-opacity="1"/><rect x="-120" width="1440" fill="#ffffff" y="-37.499999" height="449.999989" fill-opacity="1"/><g fill="#696667" fill-opacity="1"><g transform="translate(236.176844, 148.453772)"><g><path d="M 13.359375 0 L 13.359375 -88.359375 L 45.4375 -88.359375 C 51.363281 -88.359375 56.34375 -87.378906 60.375 -85.421875 C 64.40625 -83.460938 67.425781 -80.703125 69.4375 -77.140625 C 71.445312 -73.578125 72.453125 -69.359375 72.453125 -64.484375 C 72.453125 -59.003906 71.082031 -54.476562 68.34375 -50.90625 C 65.601562 -47.34375 61.332031 -44.675781 55.53125 -42.90625 L 55.53125 -41.640625 C 58.394531 -40.515625 60.734375 -38.738281 62.546875 -36.3125 C 64.359375 -33.894531 66.03125 -30.289062 67.5625 -25.5 L 75.71875 0 L 65.03125 0 L 56.203125 -27.015625 C 55.148438 -30.191406 53.9375 -32.6875 52.5625 -34.5 C 51.195312 -36.3125 49.46875 -37.617188 47.375 -38.421875 C 45.28125 -39.234375 42.625 -39.640625 39.40625 -39.640625 L 23.75 -39.640625 L 23.75 0 Z M 45.203125 -48.46875 C 50.722656 -48.46875 54.832031 -49.742188 57.53125 -52.296875 C 60.226562 -54.859375 61.578125 -58.757812 61.578125 -64 C 61.578125 -69.238281 60.226562 -73.132812 57.53125 -75.6875 C 54.832031 -78.25 50.722656 -79.53125 45.203125 -79.53125 L 23.75 -79.53125 L 23.75 -48.46875 Z M 45.203125 -48.46875 "/></g></g></g><g fill="#696667" fill-opacity="1"><g transform="translate(317.995888, 148.453772)"><g><path d="M 63.515625 -31.0625 L 17.703125 -31.0625 C 17.984375 -22.96875 19.925781 -17.023438 23.53125 -13.234375 C 27.144531 -9.441406 32.09375 -7.546875 38.375 -7.546875 C 43.125 -7.546875 46.945312 -8.390625 49.84375 -10.078125 C 52.75 -11.773438 55.03125 -14.4375 56.6875 -18.0625 L 57.953125 -18.0625 L 64.359375 -14.265625 C 62.421875 -9.429688 59.328125 -5.632812 55.078125 -2.875 C 50.828125 -0.113281 45.257812 1.265625 38.375 1.265625 C 31.925781 1.265625 26.382812 0 21.75 -2.53125 C 17.125 -5.070312 13.5625 -8.921875 11.0625 -14.078125 C 8.5625 -19.234375 7.3125 -25.640625 7.3125 -33.296875 C 7.3125 -40.867188 8.628906 -47.253906 11.265625 -52.453125 C 13.910156 -57.648438 17.519531 -61.523438 22.09375 -64.078125 C 26.664062 -66.640625 31.890625 -67.921875 37.765625 -67.921875 C 46.304688 -67.921875 52.972656 -65.515625 57.765625 -60.703125 C 62.566406 -55.890625 64.988281 -48.75 65.03125 -39.28125 C 65.03125 -35.570312 64.945312 -33.070312 64.78125 -31.78125 Z M 55.296875 -39.28125 C 55.128906 -46.375 53.554688 -51.53125 50.578125 -54.75 C 47.597656 -57.976562 43.328125 -59.59375 37.765625 -59.59375 C 31.921875 -59.59375 27.335938 -57.96875 24.015625 -54.71875 C 20.691406 -51.476562 18.671875 -46.332031 17.953125 -39.28125 Z M 55.296875 -39.28125 "/></g></g></g><g fill="#696667" fill-opacity="1"><g transform="translate(389.058809, 148.453772)"><g><path d="M 11.609375 27.015625 L 11.609375 -66.65625 L 21.453125 -66.65625 L 21.453125 -56.6875 L 22.71875 -56.4375 C 27.675781 -64.09375 34.945312 -67.921875 44.53125 -67.921875 C 50.09375 -67.921875 54.945312 -66.648438 59.09375 -64.109375 C 63.25 -61.578125 66.472656 -57.722656 68.765625 -52.546875 C 71.066406 -47.367188 72.21875 -40.953125 72.21875 -33.296875 C 72.21875 -25.679688 71.007812 -19.296875 68.59375 -14.140625 C 66.175781 -8.984375 62.832031 -5.125 58.5625 -2.5625 C 54.289062 -0.0078125 49.375 1.265625 43.8125 1.265625 C 39.300781 1.265625 35.289062 0.484375 31.78125 -1.078125 C 28.28125 -2.648438 25.257812 -5.234375 22.71875 -8.828125 L 21.453125 -8.578125 L 21.453125 27.015625 Z M 41.640625 -7.546875 C 55.140625 -7.546875 61.890625 -16.128906 61.890625 -33.296875 C 61.890625 -50.503906 55.140625 -59.109375 41.640625 -59.109375 C 37.691406 -59.109375 34.207031 -58.195312 31.1875 -56.375 C 28.164062 -54.5625 25.785156 -51.734375 24.046875 -47.890625 C 22.316406 -44.046875 21.453125 -39.179688 21.453125 -33.296875 C 21.453125 -27.453125 22.316406 -22.609375 24.046875 -18.765625 C 25.785156 -14.921875 28.164062 -12.085938 31.1875 -10.265625 C 34.207031 -8.453125 37.691406 -7.546875 41.640625 -7.546875 Z M 41.640625 -7.546875 "/></g></g></g><g fill="#696667" fill-opacity="1"><g transform="translate(468.581601, 148.453772)"><g><path d="M 38.25 1.265625 C 31.96875 1.265625 26.5 -0.0625 21.84375 -2.71875 C 17.1875 -5.375 13.597656 -9.289062 11.078125 -14.46875 C 8.566406 -19.644531 7.3125 -25.921875 7.3125 -33.296875 C 7.3125 -40.671875 8.566406 -46.957031 11.078125 -52.15625 C 13.597656 -57.351562 17.1875 -61.28125 21.84375 -63.9375 C 26.5 -66.59375 31.96875 -67.921875 38.25 -67.921875 C 44.539062 -67.921875 50.007812 -66.59375 54.65625 -63.9375 C 59.3125 -61.28125 62.894531 -57.351562 65.40625 -52.15625 C 67.925781 -46.957031 69.1875 -40.671875 69.1875 -33.296875 C 69.1875 -25.921875 67.925781 -19.644531 65.40625 -14.46875 C 62.894531 -9.289062 59.3125 -5.375 54.65625 -2.71875 C 50.007812 -0.0625 44.539062 1.265625 38.25 1.265625 Z M 38.25 -7.546875 C 44.894531 -7.546875 49.976562 -9.640625 53.5 -13.828125 C 57.03125 -18.023438 58.796875 -24.515625 58.796875 -33.296875 C 58.796875 -42.117188 57.03125 -48.625 53.5 -52.8125 C 49.976562 -57.007812 44.894531 -59.109375 38.25 -59.109375 C 31.601562 -59.109375 26.503906 -57 22.953125 -52.78125 C 19.410156 -48.570312 17.640625 -42.078125 17.640625 -33.296875 C 17.640625 -24.515625 19.410156 -18.023438 22.953125 -13.828125 C 26.503906 -9.640625 31.601562 -7.546875 38.25 -7.546875 Z M 38.25 -7.546875 "/></g></g></g><g fill="#696667" fill-opacity="1"><g transform="translate(545.083012, 148.453772)"><g><path d="M 11.609375 0 L 11.609375 -66.65625 L 20.96875 -66.65625 L 20.96875 -56.203125 L 22.234375 -55.90625 C 25.335938 -63.476562 31.179688 -67.265625 39.765625 -67.265625 C 44.316406 -67.265625 47.722656 -66.4375 49.984375 -64.78125 L 47.4375 -56.4375 L 46.234375 -56.203125 C 43.734375 -57.453125 40.992188 -58.078125 38.015625 -58.078125 C 32.691406 -58.078125 28.597656 -56.082031 25.734375 -52.09375 C 22.878906 -48.101562 21.453125 -41.632812 21.453125 -32.6875 L 21.453125 0 Z M 11.609375 0 "/></g></g></g><g fill="#696667" fill-opacity="1"><g transform="translate(596.567373, 148.453772)"><g><path d="M 45.078125 -10.578125 L 48.21875 -3.5 C 46.65625 -1.925781 44.59375 -0.738281 42.03125 0.0625 C 39.46875 0.863281 36.695312 1.265625 33.71875 1.265625 C 20.988281 1.265625 14.625 -5.175781 14.625 -18.0625 L 14.625 -58.625 L 3.015625 -58.625 L 3.015625 -66.71875 L 14.625 -66.71875 L 14.625 -80.796875 L 24.46875 -82.4375 L 24.46875 -66.71875 L 45.921875 -66.71875 L 45.921875 -58.625 L 24.46875 -58.625 L 24.46875 -19.03125 C 24.46875 -11.375 27.796875 -7.546875 34.453125 -7.546875 C 38.078125 -7.546875 41.195312 -8.554688 43.8125 -10.578125 Z M 45.078125 -10.578125 "/></g></g></g><g fill="#696667" fill-opacity="1"><g transform="translate(647.326602, 148.453772)"><g/></g></g><g fill="#696667" fill-opacity="1"><g transform="translate(677.661284, 148.453772)"><g><path d="M 27.5 1.265625 C 20.925781 1.265625 15.796875 -0.441406 12.109375 -3.859375 C 8.429688 -7.285156 6.59375 -12.179688 6.59375 -18.546875 C 6.59375 -22.492188 7.40625 -25.828125 9.03125 -28.546875 C 10.664062 -31.273438 13.191406 -33.492188 16.609375 -35.203125 C 20.035156 -36.910156 24.507812 -38.226562 30.03125 -39.15625 C 34.863281 -39.96875 38.539062 -40.875 41.0625 -41.875 C 43.582031 -42.882812 45.273438 -44.015625 46.140625 -45.265625 C 47.003906 -46.515625 47.4375 -48.085938 47.4375 -49.984375 C 47.4375 -53.003906 46.398438 -55.316406 44.328125 -56.921875 C 42.253906 -58.535156 38.921875 -59.34375 34.328125 -59.34375 C 30.015625 -59.34375 26.316406 -58.503906 23.234375 -56.828125 C 20.148438 -55.160156 17.320312 -52.675781 14.75 -49.375 L 13.53125 -49.375 L 8.703125 -56.203125 C 11.523438 -59.785156 15.109375 -62.632812 19.453125 -64.75 C 23.804688 -66.863281 28.765625 -67.921875 34.328125 -67.921875 C 42.179688 -67.921875 47.972656 -66.195312 51.703125 -62.75 C 55.429688 -59.3125 57.296875 -54.550781 57.296875 -48.46875 L 57.296875 -13.109375 C 57.296875 -9.398438 58.863281 -7.546875 62 -7.546875 C 63.050781 -7.546875 64.0625 -7.726562 65.03125 -8.09375 L 65.875 -7.859375 L 67.015625 -1.03125 C 66.296875 -0.539062 65.335938 -0.164062 64.140625 0.09375 C 62.953125 0.351562 61.738281 0.484375 60.5 0.484375 C 56.832031 0.484375 54.0625 -0.316406 52.1875 -1.921875 C 50.3125 -3.535156 49.113281 -5.914062 48.59375 -9.0625 L 47.3125 -9.1875 C 45.425781 -5.675781 42.867188 -3.054688 39.640625 -1.328125 C 36.421875 0.398438 32.375 1.265625 27.5 1.265625 Z M 29.671875 -6.59375 C 33.378906 -6.59375 36.59375 -7.445312 39.3125 -9.15625 C 42.03125 -10.863281 44.113281 -13.269531 45.5625 -16.375 C 47.007812 -19.476562 47.734375 -23.066406 47.734375 -27.140625 L 47.734375 -35.59375 L 46.59375 -35.84375 C 45.101562 -34.789062 43.289062 -33.910156 41.15625 -33.203125 C 39.019531 -32.503906 36.035156 -31.867188 32.203125 -31.296875 C 28.335938 -30.773438 25.265625 -29.96875 22.984375 -28.875 C 20.710938 -27.789062 19.09375 -26.410156 18.125 -24.734375 C 17.15625 -23.066406 16.671875 -21.003906 16.671875 -18.546875 C 16.671875 -14.640625 17.816406 -11.671875 20.109375 -9.640625 C 22.410156 -7.609375 25.597656 -6.59375 29.671875 -6.59375 Z M 29.671875 -6.59375 "/></g></g></g><g fill="#696667" fill-opacity="1"><g transform="translate(746.609259, 148.453772)"><g><path d="M 11.609375 0 L 11.609375 -66.65625 L 20.96875 -66.65625 L 20.96875 -56.203125 L 22.234375 -55.90625 C 24.453125 -59.8125 27.28125 -62.789062 30.71875 -64.84375 C 34.164062 -66.894531 38.367188 -67.921875 43.328125 -67.921875 C 51.347656 -67.921875 57.160156 -65.875 60.765625 -61.78125 C 64.367188 -57.695312 66.171875 -51.40625 66.171875 -42.90625 L 66.171875 0 L 56.328125 0 L 56.328125 -42.671875 C 56.328125 -46.691406 55.8125 -49.921875 54.78125 -52.359375 C 53.75 -54.796875 52.15625 -56.566406 50 -57.671875 C 47.851562 -58.785156 45.023438 -59.34375 41.515625 -59.34375 C 35.515625 -59.34375 30.671875 -57.359375 26.984375 -53.390625 C 23.296875 -49.421875 21.453125 -43.023438 21.453125 -34.203125 L 21.453125 0 Z M 11.609375 0 "/></g></g></g><g fill="#696667" fill-opacity="1"><g transform="translate(823.35238, 148.453772)"><g/></g></g><g fill="#696667" fill-opacity="1"><g transform="translate(853.687062, 148.453772)"><g><path d="M 16.5625 -79.53125 C 14.46875 -79.53125 12.765625 -80.179688 11.453125 -81.484375 C 10.140625 -82.796875 9.484375 -84.460938 9.484375 -86.484375 C 9.484375 -88.492188 10.140625 -90.148438 11.453125 -91.453125 C 12.765625 -92.765625 14.46875 -93.421875 16.5625 -93.421875 C 18.65625 -93.421875 20.351562 -92.765625 21.65625 -91.453125 C 22.96875 -90.148438 23.625 -88.492188 23.625 -86.484375 C 23.625 -84.460938 22.96875 -82.796875 21.65625 -81.484375 C 20.351562 -80.179688 18.65625 -79.53125 16.5625 -79.53125 Z M 11.609375 0 L 11.609375 -66.65625 L 21.453125 -66.65625 L 21.453125 0 Z M 11.609375 0 "/></g></g></g><g fill="#696667" fill-opacity="1"><g transform="translate(886.741011, 148.453772)"><g><path d="M 30.390625 1.265625 C 26.203125 1.265625 22.328125 0.710938 18.765625 -0.390625 C 15.203125 -1.503906 12.191406 -3.023438 9.734375 -4.953125 C 7.273438 -6.890625 5.539062 -9.066406 4.53125 -11.484375 L 10.328125 -17.53125 L 11.609375 -17.53125 C 13.773438 -14.21875 16.390625 -11.722656 19.453125 -10.046875 C 22.515625 -8.378906 26.160156 -7.546875 30.390625 -7.546875 C 35.304688 -7.546875 39.039062 -8.503906 41.59375 -10.421875 C 44.15625 -12.335938 45.4375 -15.007812 45.4375 -18.4375 C 45.4375 -21.050781 44.660156 -23.210938 43.109375 -24.921875 C 41.566406 -26.640625 39.0625 -27.921875 35.59375 -28.765625 L 24.359375 -31.546875 C 18.347656 -32.992188 13.960938 -35.289062 11.203125 -38.4375 C 8.453125 -41.582031 7.078125 -45.46875 7.078125 -50.09375 C 7.078125 -53.71875 8 -56.867188 9.84375 -59.546875 C 11.695312 -62.234375 14.363281 -64.300781 17.84375 -65.75 C 21.332031 -67.195312 25.476562 -67.921875 30.28125 -67.921875 C 36.40625 -67.921875 41.226562 -67.066406 44.75 -65.359375 C 48.269531 -63.648438 51.019531 -61.265625 53 -58.203125 L 47.4375 -52.75 L 46.234375 -52.75 C 44.097656 -55.207031 41.769531 -56.976562 39.25 -58.0625 C 36.726562 -59.15625 33.738281 -59.703125 30.28125 -59.703125 C 25.882812 -59.703125 22.515625 -58.914062 20.171875 -57.34375 C 17.835938 -55.78125 16.671875 -53.503906 16.671875 -50.515625 C 16.671875 -47.816406 17.5 -45.640625 19.15625 -43.984375 C 20.8125 -42.335938 23.691406 -41.007812 27.796875 -40 L 38.859375 -37.34375 C 44.660156 -35.976562 48.847656 -33.703125 51.421875 -30.515625 C 54.003906 -27.335938 55.296875 -23.347656 55.296875 -18.546875 C 55.296875 -14.640625 54.367188 -11.195312 52.515625 -8.21875 C 50.660156 -5.238281 47.859375 -2.910156 44.109375 -1.234375 C 40.367188 0.429688 35.796875 1.265625 30.390625 1.265625 Z M 30.390625 1.265625 "/></g></g></g><g fill="#696667" fill-opacity="1"><g transform="translate(948.377218, 148.453772)"><g><path d="M 30.390625 1.265625 C 26.203125 1.265625 22.328125 0.710938 18.765625 -0.390625 C 15.203125 -1.503906 12.191406 -3.023438 9.734375 -4.953125 C 7.273438 -6.890625 5.539062 -9.066406 4.53125 -11.484375 L 10.328125 -17.53125 L 11.609375 -17.53125 C 13.773438 -14.21875 16.390625 -11.722656 19.453125 -10.046875 C 22.515625 -8.378906 26.160156 -7.546875 30.390625 -7.546875 C 35.304688 -7.546875 39.039062 -8.503906 41.59375 -10.421875 C 44.15625 -12.335938 45.4375 -15.007812 45.4375 -18.4375 C 45.4375 -21.050781 44.660156 -23.210938 43.109375 -24.921875 C 41.566406 -26.640625 39.0625 -27.921875 35.59375 -28.765625 L 24.359375 -31.546875 C 18.347656 -32.992188 13.960938 -35.289062 11.203125 -38.4375 C 8.453125 -41.582031 7.078125 -45.46875 7.078125 -50.09375 C 7.078125 -53.71875 8 -56.867188 9.84375 -59.546875 C 11.695312 -62.234375 14.363281 -64.300781 17.84375 -65.75 C 21.332031 -67.195312 25.476562 -67.921875 30.28125 -67.921875 C 36.40625 -67.921875 41.226562 -67.066406 44.75 -65.359375 C 48.269531 -63.648438 51.019531 -61.265625 53 -58.203125 L 47.4375 -52.75 L 46.234375 -52.75 C 44.097656 -55.207031 41.769531 -56.976562 39.25 -58.0625 C 36.726562 -59.15625 33.738281 -59.703125 30.28125 -59.703125 C 25.882812 -59.703125 22.515625 -58.914062 20.171875 -57.34375 C 17.835938 -55.78125 16.671875 -53.503906 16.671875 -50.515625 C 16.671875 -47.816406 17.5 -45.640625 19.15625 -43.984375 C 20.8125 -42.335938 23.691406 -41.007812 27.796875 -40 L 38.859375 -37.34375 C 44.660156 -35.976562 48.847656 -33.703125 51.421875 -30.515625 C 54.003906 -27.335938 55.296875 -23.347656 55.296875 -18.546875 C 55.296875 -14.640625 54.367188 -11.195312 52.515625 -8.21875 C 50.660156 -5.238281 47.859375 -2.910156 44.109375 -1.234375 C 40.367188 0.429688 35.796875 1.265625 30.390625 1.265625 Z M 30.390625 1.265625 "/></g></g></g><g fill="#696667" fill-opacity="1"><g transform="translate(1010.013425, 148.453772)"><g><path d="M 32.9375 1.265625 C 25.40625 1.265625 19.796875 -0.726562 16.109375 -4.71875 C 12.421875 -8.707031 10.578125 -14.546875 10.578125 -22.234375 L 10.578125 -66.65625 L 20.421875 -66.65625 L 20.421875 -22.484375 C 20.421875 -12.367188 25.175781 -7.3125 34.6875 -7.3125 C 40.726562 -7.3125 45.5 -9.285156 49 -13.234375 C 52.507812 -17.179688 54.265625 -23.585938 54.265625 -32.453125 L 54.265625 -66.65625 L 64.125 -66.65625 L 64.125 0 L 54.8125 0 L 54.8125 -10.453125 L 53.546875 -10.75 C 51.242188 -6.6875 48.488281 -3.664062 45.28125 -1.6875 C 42.082031 0.28125 37.96875 1.265625 32.9375 1.265625 Z M 32.9375 1.265625 "/></g></g></g><g fill="#696667" fill-opacity="1"><g transform="translate(1085.729253, 148.453772)"><g><path d="M 63.515625 -31.0625 L 17.703125 -31.0625 C 17.984375 -22.96875 19.925781 -17.023438 23.53125 -13.234375 C 27.144531 -9.441406 32.09375 -7.546875 38.375 -7.546875 C 43.125 -7.546875 46.945312 -8.390625 49.84375 -10.078125 C 52.75 -11.773438 55.03125 -14.4375 56.6875 -18.0625 L 57.953125 -18.0625 L 64.359375 -14.265625 C 62.421875 -9.429688 59.328125 -5.632812 55.078125 -2.875 C 50.828125 -0.113281 45.257812 1.265625 38.375 1.265625 C 31.925781 1.265625 26.382812 0 21.75 -2.53125 C 17.125 -5.070312 13.5625 -8.921875 11.0625 -14.078125 C 8.5625 -19.234375 7.3125 -25.640625 7.3125 -33.296875 C 7.3125 -40.867188 8.628906 -47.253906 11.265625 -52.453125 C 13.910156 -57.648438 17.519531 -61.523438 22.09375 -64.078125 C 26.664062 -66.640625 31.890625 -67.921875 37.765625 -67.921875 C 46.304688 -67.921875 52.972656 -65.515625 57.765625 -60.703125 C 62.566406 -55.890625 64.988281 -48.75 65.03125 -39.28125 C 65.03125 -35.570312 64.945312 -33.070312 64.78125 -31.78125 Z M 55.296875 -39.28125 C 55.128906 -46.375 53.554688 -51.53125 50.578125 -54.75 C 47.597656 -57.976562 43.328125 -59.59375 37.765625 -59.59375 C 31.921875 -59.59375 27.335938 -57.96875 24.015625 -54.71875 C 20.691406 -51.476562 18.671875 -46.332031 17.953125 -39.28125 Z M 55.296875 -39.28125 "/></g></g></g><g fill="#696667" fill-opacity="1"><g transform="translate(236.176844, 321.158161)"><g><path d="M 48.109375 0 L 34.453125 0 L 3.8125 -88.359375 L 14.859375 -88.359375 L 40.796875 -13 L 42.296875 -13 L 67.921875 -88.359375 L 78.796875 -88.359375 Z M 48.109375 0 "/></g></g></g><g fill="#696667" fill-opacity="1"><g transform="translate(318.72102, 321.158161)"><g><path d="M 16.5625 -79.53125 C 14.46875 -79.53125 12.765625 -80.179688 11.453125 -81.484375 C 10.140625 -82.796875 9.484375 -84.460938 9.484375 -86.484375 C 9.484375 -88.492188 10.140625 -90.148438 11.453125 -91.453125 C 12.765625 -92.765625 14.46875 -93.421875 16.5625 -93.421875 C 18.65625 -93.421875 20.351562 -92.765625 21.65625 -91.453125 C 22.96875 -90.148438 23.625 -88.492188 23.625 -86.484375 C 23.625 -84.460938 22.96875 -82.796875 21.65625 -81.484375 C 20.351562 -80.179688 18.65625 -79.53125 16.5625 -79.53125 Z M 11.609375 0 L 11.609375 -66.65625 L 21.453125 -66.65625 L 21.453125 0 Z M 11.609375 0 "/></g></g></g><g fill="#696667" fill-opacity="1"><g transform="translate(351.774946, 321.158161)"><g><path d="M 63.515625 -31.0625 L 17.703125 -31.0625 C 17.984375 -22.96875 19.925781 -17.023438 23.53125 -13.234375 C 27.144531 -9.441406 32.09375 -7.546875 38.375 -7.546875 C 43.125 -7.546875 46.945312 -8.390625 49.84375 -10.078125 C 52.75 -11.773438 55.03125 -14.4375 56.6875 -18.0625 L 57.953125 -18.0625 L 64.359375 -14.265625 C 62.421875 -9.429688 59.328125 -5.632812 55.078125 -2.875 C 50.828125 -0.113281 45.257812 1.265625 38.375 1.265625 C 31.925781 1.265625 26.382812 0 21.75 -2.53125 C 17.125 -5.070312 13.5625 -8.921875 11.0625 -14.078125 C 8.5625 -19.234375 7.3125 -25.640625 7.3125 -33.296875 C 7.3125 -40.867188 8.628906 -47.253906 11.265625 -52.453125 C 13.910156 -57.648438 17.519531 -61.523438 22.09375 -64.078125 C 26.664062 -66.640625 31.890625 -67.921875 37.765625 -67.921875 C 46.304688 -67.921875 52.972656 -65.515625 57.765625 -60.703125 C 62.566406 -55.890625 64.988281 -48.75 65.03125 -39.28125 C 65.03125 -35.570312 64.945312 -33.070312 64.78125 -31.78125 Z M 55.296875 -39.28125 C 55.128906 -46.375 53.554688 -51.53125 50.578125 -54.75 C 47.597656 -57.976562 43.328125 -59.59375 37.765625 -59.59375 C 31.921875 -59.59375 27.335938 -57.96875 24.015625 -54.71875 C 20.691406 -51.476562 18.671875 -46.332031 17.953125 -39.28125 Z M 55.296875 -39.28125 "/></g></g></g><g fill="#696667" fill-opacity="1"><g transform="translate(422.837868, 321.158161)"><g><path d="M 33.0625 0 L 20.609375 0 L 4.296875 -66.65625 L 14.015625 -66.65625 L 26.65625 -11.484375 L 27.921875 -11.484375 L 43.453125 -66.65625 L 53.78125 -66.65625 L 69.796875 -11.484375 L 71.0625 -11.484375 L 83.453125 -66.65625 L 92.890625 -66.65625 L 76.75 0 L 64.234375 0 L 49.015625 -51.734375 L 47.734375 -51.734375 Z M 33.0625 0 "/></g></g></g><g fill="#696667" fill-opacity="1"><g transform="translate(520.005535, 321.158161)"><g/></g></g><g fill="#696667" fill-opacity="1"><g transform="translate(550.340217, 321.158161)"><g><path d="M 30.390625 1.265625 C 26.203125 1.265625 22.328125 0.710938 18.765625 -0.390625 C 15.203125 -1.503906 12.191406 -3.023438 9.734375 -4.953125 C 7.273438 -6.890625 5.539062 -9.066406 4.53125 -11.484375 L 10.328125 -17.53125 L 11.609375 -17.53125 C 13.773438 -14.21875 16.390625 -11.722656 19.453125 -10.046875 C 22.515625 -8.378906 26.160156 -7.546875 30.390625 -7.546875 C 35.304688 -7.546875 39.039062 -8.503906 41.59375 -10.421875 C 44.15625 -12.335938 45.4375 -15.007812 45.4375 -18.4375 C 45.4375 -21.050781 44.660156 -23.210938 43.109375 -24.921875 C 41.566406 -26.640625 39.0625 -27.921875 35.59375 -28.765625 L 24.359375 -31.546875 C 18.347656 -32.992188 13.960938 -35.289062 11.203125 -38.4375 C 8.453125 -41.582031 7.078125 -45.46875 7.078125 -50.09375 C 7.078125 -53.71875 8 -56.867188 9.84375 -59.546875 C 11.695312 -62.234375 14.363281 -64.300781 17.84375 -65.75 C 21.332031 -67.195312 25.476562 -67.921875 30.28125 -67.921875 C 36.40625 -67.921875 41.226562 -67.066406 44.75 -65.359375 C 48.269531 -63.648438 51.019531 -61.265625 53 -58.203125 L 47.4375 -52.75 L 46.234375 -52.75 C 44.097656 -55.207031 41.769531 -56.976562 39.25 -58.0625 C 36.726562 -59.15625 33.738281 -59.703125 30.28125 -59.703125 C 25.882812 -59.703125 22.515625 -58.914062 20.171875 -57.34375 C 17.835938 -55.78125 16.671875 -53.503906 16.671875 -50.515625 C 16.671875 -47.816406 17.5 -45.640625 19.15625 -43.984375 C 20.8125 -42.335938 23.691406 -41.007812 27.796875 -40 L 38.859375 -37.34375 C 44.660156 -35.976562 48.847656 -33.703125 51.421875 -30.515625 C 54.003906 -27.335938 55.296875 -23.347656 55.296875 -18.546875 C 55.296875 -14.640625 54.367188 -11.195312 52.515625 -8.21875 C 50.660156 -5.238281 47.859375 -2.910156 44.109375 -1.234375 C 40.367188 0.429688 35.796875 1.265625 30.390625 1.265625 Z M 30.390625 1.265625 "/></g></g></g><g fill="#696667" fill-opacity="1"><g transform="translate(611.976424, 321.158161)"><g><path d="M 38.25 1.265625 C 31.96875 1.265625 26.5 -0.0625 21.84375 -2.71875 C 17.1875 -5.375 13.597656 -9.289062 11.078125 -14.46875 C 8.566406 -19.644531 7.3125 -25.921875 7.3125 -33.296875 C 7.3125 -40.671875 8.566406 -46.957031 11.078125 -52.15625 C 13.597656 -57.351562 17.1875 -61.28125 21.84375 -63.9375 C 26.5 -66.59375 31.96875 -67.921875 38.25 -67.921875 C 44.539062 -67.921875 50.007812 -66.59375 54.65625 -63.9375 C 59.3125 -61.28125 62.894531 -57.351562 65.40625 -52.15625 C 67.925781 -46.957031 69.1875 -40.671875 69.1875 -33.296875 C 69.1875 -25.921875 67.925781 -19.644531 65.40625 -14.46875 C 62.894531 -9.289062 59.3125 -5.375 54.65625 -2.71875 C 50.007812 -0.0625 44.539062 1.265625 38.25 1.265625 Z M 38.25 -7.546875 C 44.894531 -7.546875 49.976562 -9.640625 53.5 -13.828125 C 57.03125 -18.023438 58.796875 -24.515625 58.796875 -33.296875 C 58.796875 -42.117188 57.03125 -48.625 53.5 -52.8125 C 49.976562 -57.007812 44.894531 -59.109375 38.25 -59.109375 C 31.601562 -59.109375 26.503906 -57 22.953125 -52.78125 C 19.410156 -48.570312 17.640625 -42.078125 17.640625 -33.296875 C 17.640625 -24.515625 19.410156 -18.023438 22.953125 -13.828125 C 26.503906 -9.640625 31.601562 -7.546875 38.25 -7.546875 Z M 38.25 -7.546875 "/></g></g></g><g fill="#696667" fill-opacity="1"><g transform="translate(688.477811, 321.158161)"><g><path d="M 32.9375 1.265625 C 25.40625 1.265625 19.796875 -0.726562 16.109375 -4.71875 C 12.421875 -8.707031 10.578125 -14.546875 10.578125 -22.234375 L 10.578125 -66.65625 L 20.421875 -66.65625 L 20.421875 -22.484375 C 20.421875 -12.367188 25.175781 -7.3125 34.6875 -7.3125 C 40.726562 -7.3125 45.5 -9.285156 49 -13.234375 C 52.507812 -17.179688 54.265625 -23.585938 54.265625 -32.453125 L 54.265625 -66.65625 L 64.125 -66.65625 L 64.125 0 L 54.8125 0 L 54.8125 -10.453125 L 53.546875 -10.75 C 51.242188 -6.6875 48.488281 -3.664062 45.28125 -1.6875 C 42.082031 0.28125 37.96875 1.265625 32.9375 1.265625 Z M 32.9375 1.265625 "/></g></g></g><g fill="#696667" fill-opacity="1"><g transform="translate(764.193638, 321.158161)"><g><path d="M 11.609375 0 L 11.609375 -66.65625 L 20.96875 -66.65625 L 20.96875 -56.203125 L 22.234375 -55.90625 C 25.335938 -63.476562 31.179688 -67.265625 39.765625 -67.265625 C 44.316406 -67.265625 47.722656 -66.4375 49.984375 -64.78125 L 47.4375 -56.4375 L 46.234375 -56.203125 C 43.734375 -57.453125 40.992188 -58.078125 38.015625 -58.078125 C 32.691406 -58.078125 28.597656 -56.082031 25.734375 -52.09375 C 22.878906 -48.101562 21.453125 -41.632812 21.453125 -32.6875 L 21.453125 0 Z M 11.609375 0 "/></g></g></g><g fill="#696667" fill-opacity="1"><g transform="translate(815.677999, 321.158161)"><g><path d="M 38.25 1.265625 C 32.375 1.265625 27.097656 -0.0703125 22.421875 -2.75 C 17.742188 -5.425781 14.054688 -9.375 11.359375 -14.59375 C 8.660156 -19.8125 7.3125 -26.046875 7.3125 -33.296875 C 7.3125 -40.585938 8.660156 -46.84375 11.359375 -52.0625 C 14.054688 -57.28125 17.742188 -61.226562 22.421875 -63.90625 C 27.097656 -66.582031 32.375 -67.921875 38.25 -67.921875 C 45.300781 -67.921875 50.910156 -66.59375 55.078125 -63.9375 C 59.253906 -61.28125 62.269531 -57.734375 64.125 -53.296875 L 57.40625 -48.46875 L 56.203125 -48.46875 C 54.390625 -52.132812 52.0625 -54.820312 49.21875 -56.53125 C 46.382812 -58.25 42.726562 -59.109375 38.25 -59.109375 C 34.144531 -59.109375 30.539062 -58.140625 27.4375 -56.203125 C 24.332031 -54.265625 21.921875 -51.363281 20.203125 -47.5 C 18.492188 -43.632812 17.640625 -38.898438 17.640625 -33.296875 C 17.640625 -27.734375 18.503906 -23.03125 20.234375 -19.1875 C 21.972656 -15.34375 24.382812 -12.441406 27.46875 -10.484375 C 30.550781 -8.523438 34.144531 -7.546875 38.25 -7.546875 C 42.882812 -7.546875 46.722656 -8.59375 49.765625 -10.6875 C 52.804688 -12.789062 55.191406 -16.097656 56.921875 -20.609375 L 58.203125 -20.609375 L 64.65625 -16.796875 C 62.925781 -11.203125 59.832031 -6.789062 55.375 -3.5625 C 50.925781 -0.34375 45.21875 1.265625 38.25 1.265625 Z M 38.25 1.265625 "/></g></g></g><g fill="#696667" fill-opacity="1"><g transform="translate(884.384219, 321.158161)"><g><path d="M 63.515625 -31.0625 L 17.703125 -31.0625 C 17.984375 -22.96875 19.925781 -17.023438 23.53125 -13.234375 C 27.144531 -9.441406 32.09375 -7.546875 38.375 -7.546875 C 43.125 -7.546875 46.945312 -8.390625 49.84375 -10.078125 C 52.75 -11.773438 55.03125 -14.4375 56.6875 -18.0625 L 57.953125 -18.0625 L 64.359375 -14.265625 C 62.421875 -9.429688 59.328125 -5.632812 55.078125 -2.875 C 50.828125 -0.113281 45.257812 1.265625 38.375 1.265625 C 31.925781 1.265625 26.382812 0 21.75 -2.53125 C 17.125 -5.070312 13.5625 -8.921875 11.0625 -14.078125 C 8.5625 -19.234375 7.3125 -25.640625 7.3125 -33.296875 C 7.3125 -40.867188 8.628906 -47.253906 11.265625 -52.453125 C 13.910156 -57.648438 17.519531 -61.523438 22.09375 -64.078125 C 26.664062 -66.640625 31.890625 -67.921875 37.765625 -67.921875 C 46.304688 -67.921875 52.972656 -65.515625 57.765625 -60.703125 C 62.566406 -55.890625 64.988281 -48.75 65.03125 -39.28125 C 65.03125 -35.570312 64.945312 -33.070312 64.78125 -31.78125 Z M 55.296875 -39.28125 C 55.128906 -46.375 53.554688 -51.53125 50.578125 -54.75 C 47.597656 -57.976562 43.328125 -59.59375 37.765625 -59.59375 C 31.921875 -59.59375 27.335938 -57.96875 24.015625 -54.71875 C 20.691406 -51.476562 18.671875 -46.332031 17.953125 -39.28125 Z M 55.296875 -39.28125 "/></g></g></g><path fill="#696667" d="M 194.015625 103.777344 L 127.316406 37.082031 C 123.476562 33.238281 117.25 33.238281 113.40625 37.082031 L 99.550781 50.933594 L 117.121094 68.503906 C 121.203125 67.125 125.890625 68.050781 129.140625 71.304688 C 132.414062 74.578125 133.332031 79.300781 131.917969 83.398438 L 148.851562 100.335938 C 152.945312 98.921875 157.671875 99.832031 160.949219 103.109375 C 165.519531 107.679688 165.519531 115.09375 160.949219 119.664062 C 156.371094 124.242188 148.964844 124.242188 144.390625 119.664062 C 140.945312 116.21875 140.097656 111.171875 141.839844 106.933594 L 126.050781 91.140625 L 126.042969 132.699219 C 127.160156 133.253906 128.210938 133.988281 129.140625 134.910156 C 133.714844 139.484375 133.714844 146.894531 129.140625 151.472656 C 124.570312 156.042969 117.152344 156.042969 112.585938 151.472656 C 108.015625 146.894531 108.015625 139.484375 112.585938 134.910156 C 113.714844 133.785156 115.023438 132.929688 116.417969 132.355469 L 116.417969 90.414062 C 115.023438 89.84375 113.722656 88.996094 112.585938 87.859375 C 109.121094 84.398438 108.289062 79.316406 110.0625 75.0625 L 92.746094 57.738281 L 47.007812 103.472656 C 43.164062 107.316406 43.164062 113.546875 47.007812 117.390625 L 113.710938 184.089844 C 117.554688 187.929688 123.785156 187.929688 127.625 184.089844 L 194.019531 117.699219 C 197.859375 113.855469 197.859375 107.621094 194.019531 103.777344 " fill-opacity="1" fill-rule="nonzero"/></svg>