<svg xmlns="http://www.w3.org/2000/svg" xmlns:xlink="http://www.w3.org/1999/xlink" width="1600" zoomAndPan="magnify" viewBox="0 0 1200 675.000002" height="900" preserveAspectRatio="xMidYMid meet" version="1.0"><defs><g/></defs><path stroke-linecap="butt" transform="matrix(0.749213, 0, 0, 0.748891, 178.73637, 473.867496)" fill="none" stroke-linejoin="miter" d="M 0.00255048 32.500793 L 435.819427 32.500793 " stroke="#000000" stroke-width="65" stroke-opacity="1" stroke-miterlimit="4"/><path stroke-linecap="butt" transform="matrix(0.000000000000001042, -0.748067, 0.748891, 0.000000000000001044, 178.82773, 643.961378)" fill="none" stroke-linejoin="miter" d="M 0.000589096 32.501732 L 227.253081 32.501732 " stroke="#000000" stroke-width="65" stroke-opacity="1" stroke-miterlimit="4"/><path stroke-linecap="butt" transform="matrix(0.977419, 0, 0, 0.977282, 460.284351, 352.449421)" fill="none" stroke-linejoin="miter" d="M 0.000824301 25.001382 L 333.967988 25.001382 " stroke="#000000" stroke-width="50" stroke-opacity="1" stroke-miterlimit="4"/><path stroke-linecap="butt" transform="matrix(0.000000000000001578, -0.976492, 0.977282, 0.000000000000001579, 460.28217, 522.636204)" fill="none" stroke-linejoin="miter" d="M -0.00052726 25.000648 L 174.143978 25.000648 " stroke="#000000" stroke-width="50" stroke-opacity="1" stroke-miterlimit="4"/><path stroke-linecap="butt" transform="matrix(0.748735, 0, 0, 0.748891, 739.614517, 231.030634)" fill="none" stroke-linejoin="miter" d="M -0.00165081 32.502028 L 376.085846 32.502028 " stroke="#000000" stroke-width="65" stroke-opacity="1" stroke-miterlimit="4"/><path stroke-linecap="butt" transform="matrix(0.000000000000001375, -0.748067, 0.748891, 0.000000000000001376, 739.705918, 401.124497)" fill="none" stroke-linejoin="miter" d="M -0.000672216 32.497476 L 227.257042 32.497476 " stroke="#000000" stroke-width="65" stroke-opacity="1" stroke-miterlimit="4"/><g fill="#d6d6d6" fill-opacity="1"><g transform="translate(203.556998, 319.516275)"><g><path d="M 16.265625 0.421875 C 13.523438 0.421875 11.109375 -0.144531 9.015625 -1.28125 C 6.921875 -2.425781 5.285156 -4.140625 4.109375 -6.421875 C 2.929688 -8.710938 2.34375 -11.53125 2.34375 -14.875 C 2.34375 -18.226562 2.929688 -21.046875 4.109375 -23.328125 C 5.285156 -25.617188 6.921875 -27.332031 9.015625 -28.46875 C 11.109375 -29.613281 13.523438 -30.1875 16.265625 -30.1875 C 19.128906 -30.1875 21.5625 -29.625 23.5625 -28.5 C 25.5625 -27.382812 26.988281 -25.679688 27.84375 -23.390625 L 23.546875 -20.765625 L 23.046875 -20.78125 C 22.398438 -22.332031 21.53125 -23.441406 20.4375 -24.109375 C 19.351562 -24.785156 17.960938 -25.125 16.265625 -25.125 C 13.796875 -25.125 11.867188 -24.304688 10.484375 -22.671875 C 9.097656 -21.035156 8.40625 -18.4375 8.40625 -14.875 C 8.40625 -11.332031 9.097656 -8.742188 10.484375 -7.109375 C 11.867188 -5.472656 13.796875 -4.65625 16.265625 -4.65625 C 20.128906 -4.65625 22.5 -6.535156 23.375 -10.296875 L 23.875 -10.296875 L 28.21875 -8.046875 C 27.394531 -5.222656 26 -3.101562 24.03125 -1.6875 C 22.070312 -0.28125 19.484375 0.421875 16.265625 0.421875 Z M 16.265625 0.421875 "/></g></g></g><g fill="#d6d6d6" fill-opacity="1"><g transform="translate(232.746159, 319.516275)"><g><path d="M 3.234375 0 L 3.234375 -31.46875 L 8.875 -31.46875 L 8.875 -19.515625 L 9.296875 -19.4375 C 10.046875 -20.539062 10.960938 -21.390625 12.046875 -21.984375 C 13.128906 -22.578125 14.441406 -22.875 15.984375 -22.875 C 20.929688 -22.875 23.40625 -20.066406 23.40625 -14.453125 L 23.40625 0 L 17.765625 0 L 17.765625 -13.734375 C 17.765625 -15.273438 17.457031 -16.390625 16.84375 -17.078125 C 16.238281 -17.765625 15.289062 -18.109375 14 -18.109375 C 12.425781 -18.109375 11.175781 -17.582031 10.25 -16.53125 C 9.332031 -15.488281 8.875 -13.851562 8.875 -11.625 L 8.875 0 Z M 3.234375 0 "/></g></g></g><g fill="#d6d6d6" fill-opacity="1"><g transform="translate(259.044901, 319.516275)"><g><path d="M 22.1875 -9.953125 L 7.75 -9.953125 C 7.914062 -7.992188 8.472656 -6.570312 9.421875 -5.6875 C 10.367188 -4.800781 11.664062 -4.359375 13.3125 -4.359375 C 14.601562 -4.359375 15.644531 -4.597656 16.4375 -5.078125 C 17.238281 -5.554688 17.882812 -6.285156 18.375 -7.265625 L 18.8125 -7.265625 L 22.546875 -4.859375 C 21.816406 -3.285156 20.710938 -2.007812 19.234375 -1.03125 C 17.753906 -0.0625 15.78125 0.421875 13.3125 0.421875 C 10.988281 0.421875 8.984375 -0.015625 7.296875 -0.890625 C 5.609375 -1.773438 4.304688 -3.085938 3.390625 -4.828125 C 2.472656 -6.578125 2.015625 -8.707031 2.015625 -11.21875 C 2.015625 -13.769531 2.492188 -15.921875 3.453125 -17.671875 C 4.421875 -19.421875 5.722656 -20.722656 7.359375 -21.578125 C 9.003906 -22.441406 10.851562 -22.875 12.90625 -22.875 C 16.082031 -22.875 18.515625 -22.03125 20.203125 -20.34375 C 21.890625 -18.664062 22.734375 -16.203125 22.734375 -12.953125 C 22.734375 -11.765625 22.691406 -10.847656 22.609375 -10.203125 Z M 17.34375 -13.59375 C 17.289062 -15.300781 16.894531 -16.546875 16.15625 -17.328125 C 15.414062 -18.109375 14.332031 -18.5 12.90625 -18.5 C 10.050781 -18.5 8.375 -16.863281 7.875 -13.59375 Z M 17.34375 -13.59375 "/></g></g></g><g fill="#d6d6d6" fill-opacity="1"><g transform="translate(283.450622, 319.516275)"><g><path d="M 13.09375 0.421875 C 10.914062 0.421875 8.992188 -0.0234375 7.328125 -0.921875 C 5.660156 -1.828125 4.359375 -3.15625 3.421875 -4.90625 C 2.484375 -6.65625 2.015625 -8.757812 2.015625 -11.21875 C 2.015625 -13.6875 2.484375 -15.796875 3.421875 -17.546875 C 4.359375 -19.296875 5.65625 -20.617188 7.3125 -21.515625 C 8.96875 -22.421875 10.859375 -22.875 12.984375 -22.875 C 17.722656 -22.875 20.753906 -21.160156 22.078125 -17.734375 L 18.21875 -14.96875 L 17.796875 -14.96875 C 17.328125 -16.019531 16.722656 -16.800781 15.984375 -17.3125 C 15.242188 -17.832031 14.242188 -18.09375 12.984375 -18.09375 C 11.359375 -18.09375 10.085938 -17.53125 9.171875 -16.40625 C 8.265625 -15.28125 7.8125 -13.550781 7.8125 -11.21875 C 7.8125 -8.90625 8.269531 -7.179688 9.1875 -6.046875 C 10.113281 -4.921875 11.414062 -4.359375 13.09375 -4.359375 C 14.3125 -4.359375 15.34375 -4.6875 16.1875 -5.34375 C 17.039062 -6 17.648438 -6.945312 18.015625 -8.1875 L 18.4375 -8.21875 L 22.453125 -6.03125 C 21.878906 -4.125 20.820312 -2.570312 19.28125 -1.375 C 17.738281 -0.175781 15.675781 0.421875 13.09375 0.421875 Z M 13.09375 0.421875 "/></g></g></g><g fill="#d6d6d6" fill-opacity="1"><g transform="translate(306.594329, 319.516275)"><g><path d="M 3.234375 0 L 3.234375 -31.46875 L 8.875 -31.46875 L 8.875 -14 L 9.421875 -14 L 15.921875 -22.453125 L 21.640625 -22.453125 L 21.640625 -21.984375 L 14 -12.125 L 22.5 -0.515625 L 22.5 0 L 16.546875 0 L 9.421875 -9.46875 L 8.875 -9.46875 L 8.875 0 Z M 3.234375 0 "/></g></g></g><g fill="#d6d6d6" fill-opacity="1"><g transform="translate(329.127385, 319.516275)"><g/></g></g><g fill="#d6d6d6" fill-opacity="1"><g transform="translate(338.958881, 319.516275)"><g><path d="M 15.484375 -5.359375 L 16.953125 -1.1875 C 16.347656 -0.675781 15.582031 -0.28125 14.65625 0 C 13.726562 0.28125 12.679688 0.421875 11.515625 0.421875 C 9.085938 0.421875 7.242188 -0.238281 5.984375 -1.5625 C 4.722656 -2.882812 4.09375 -4.804688 4.09375 -7.328125 L 4.09375 -18 L 0.671875 -18 L 0.671875 -22.46875 L 4.09375 -22.46875 L 4.09375 -26.84375 L 9.734375 -27.765625 L 9.734375 -22.46875 L 16.09375 -22.46875 L 16.09375 -18 L 9.734375 -18 L 9.734375 -7.734375 C 9.734375 -6.617188 9.960938 -5.804688 10.421875 -5.296875 C 10.878906 -4.796875 11.550781 -4.546875 12.4375 -4.546875 C 13.4375 -4.546875 14.3125 -4.816406 15.0625 -5.359375 Z M 15.484375 -5.359375 "/></g></g></g><g fill="#d6d6d6" fill-opacity="1"><g transform="translate(356.40317, 319.516275)"><g><path d="M 3.234375 0 L 3.234375 -31.46875 L 8.875 -31.46875 L 8.875 -19.515625 L 9.296875 -19.4375 C 10.046875 -20.539062 10.960938 -21.390625 12.046875 -21.984375 C 13.128906 -22.578125 14.441406 -22.875 15.984375 -22.875 C 20.929688 -22.875 23.40625 -20.066406 23.40625 -14.453125 L 23.40625 0 L 17.765625 0 L 17.765625 -13.734375 C 17.765625 -15.273438 17.457031 -16.390625 16.84375 -17.078125 C 16.238281 -17.765625 15.289062 -18.109375 14 -18.109375 C 12.425781 -18.109375 11.175781 -17.582031 10.25 -16.53125 C 9.332031 -15.488281 8.875 -13.851562 8.875 -11.625 L 8.875 0 Z M 3.234375 0 "/></g></g></g><g fill="#d6d6d6" fill-opacity="1"><g transform="translate(382.701912, 319.516275)"><g><path d="M 22.1875 -9.953125 L 7.75 -9.953125 C 7.914062 -7.992188 8.472656 -6.570312 9.421875 -5.6875 C 10.367188 -4.800781 11.664062 -4.359375 13.3125 -4.359375 C 14.601562 -4.359375 15.644531 -4.597656 16.4375 -5.078125 C 17.238281 -5.554688 17.882812 -6.285156 18.375 -7.265625 L 18.8125 -7.265625 L 22.546875 -4.859375 C 21.816406 -3.285156 20.710938 -2.007812 19.234375 -1.03125 C 17.753906 -0.0625 15.78125 0.421875 13.3125 0.421875 C 10.988281 0.421875 8.984375 -0.015625 7.296875 -0.890625 C 5.609375 -1.773438 4.304688 -3.085938 3.390625 -4.828125 C 2.472656 -6.578125 2.015625 -8.707031 2.015625 -11.21875 C 2.015625 -13.769531 2.492188 -15.921875 3.453125 -17.671875 C 4.421875 -19.421875 5.722656 -20.722656 7.359375 -21.578125 C 9.003906 -22.441406 10.851562 -22.875 12.90625 -22.875 C 16.082031 -22.875 18.515625 -22.03125 20.203125 -20.34375 C 21.890625 -18.664062 22.734375 -16.203125 22.734375 -12.953125 C 22.734375 -11.765625 22.691406 -10.847656 22.609375 -10.203125 Z M 17.34375 -13.59375 C 17.289062 -15.300781 16.894531 -16.546875 16.15625 -17.328125 C 15.414062 -18.109375 14.332031 -18.5 12.90625 -18.5 C 10.050781 -18.5 8.375 -16.863281 7.875 -13.59375 Z M 17.34375 -13.59375 "/></g></g></g><g fill="#d6d6d6" fill-opacity="1"><g transform="translate(180.377099, 377.175891)"><g><path d="M 23.65625 7.40625 C 21.03125 7.40625 18.851562 6.773438 17.125 5.515625 C 15.394531 4.253906 14.234375 2.5 13.640625 0.25 C 11.367188 -0.0820312 9.390625 -0.851562 7.703125 -2.0625 C 6.015625 -3.28125 4.695312 -4.957031 3.75 -7.09375 C 2.8125 -9.238281 2.34375 -11.832031 2.34375 -14.875 C 2.34375 -18.28125 2.929688 -21.125 4.109375 -23.40625 C 5.285156 -25.695312 6.914062 -27.398438 9 -28.515625 C 11.082031 -29.628906 13.488281 -30.1875 16.21875 -30.1875 C 18.945312 -30.1875 21.347656 -29.632812 23.421875 -28.53125 C 25.503906 -27.425781 27.128906 -25.722656 28.296875 -23.421875 C 29.472656 -21.128906 30.0625 -18.28125 30.0625 -14.875 C 30.0625 -10.425781 29.109375 -7.007812 27.203125 -4.625 C 25.296875 -2.25 22.617188 -0.769531 19.171875 -0.1875 L 19.078125 0.21875 C 19.492188 0.9375 20.117188 1.488281 20.953125 1.875 C 21.785156 2.269531 22.757812 2.46875 23.875 2.46875 C 24.769531 2.46875 25.578125 2.347656 26.296875 2.109375 L 26.703125 2.203125 L 27.546875 6.796875 C 27.109375 6.960938 26.519531 7.101562 25.78125 7.21875 C 25.050781 7.34375 24.34375 7.40625 23.65625 7.40625 Z M 16.21875 -4.6875 C 18.75 -4.6875 20.675781 -5.492188 22 -7.109375 C 23.332031 -8.734375 24 -11.320312 24 -14.875 C 24 -18.4375 23.332031 -21.03125 22 -22.65625 C 20.675781 -24.28125 18.75 -25.09375 16.21875 -25.09375 C 13.6875 -25.09375 11.75 -24.28125 10.40625 -22.65625 C 9.070312 -21.03125 8.40625 -18.4375 8.40625 -14.875 C 8.40625 -11.320312 9.070312 -8.734375 10.40625 -7.109375 C 11.75 -5.492188 13.6875 -4.6875 16.21875 -4.6875 Z M 16.21875 -4.6875 "/></g></g></g><g fill="#d6d6d6" fill-opacity="1"><g transform="translate(212.802716, 377.175891)"><g><path d="M 10.28125 0.421875 C 7.757812 0.421875 5.894531 -0.265625 4.6875 -1.640625 C 3.488281 -3.015625 2.890625 -4.992188 2.890625 -7.578125 L 2.890625 -22.453125 L 8.53125 -22.453125 L 8.53125 -8.28125 C 8.53125 -6.914062 8.820312 -5.914062 9.40625 -5.28125 C 10 -4.644531 10.914062 -4.328125 12.15625 -4.328125 C 13.71875 -4.328125 14.929688 -4.835938 15.796875 -5.859375 C 16.660156 -6.890625 17.09375 -8.503906 17.09375 -10.703125 L 17.09375 -22.453125 L 22.734375 -22.453125 L 22.734375 0 L 17.328125 0 L 17.328125 -3.296875 L 16.890625 -3.40625 C 16.171875 -2.113281 15.289062 -1.148438 14.25 -0.515625 C 13.21875 0.109375 11.894531 0.421875 10.28125 0.421875 Z M 10.28125 0.421875 "/></g></g></g><g fill="#d6d6d6" fill-opacity="1"><g transform="translate(238.775777, 377.175891)"><g><path d="M 8.75 0.421875 C 7.3125 0.421875 6.0625 0.160156 5 -0.359375 C 3.945312 -0.890625 3.132812 -1.664062 2.5625 -2.6875 C 1.988281 -3.71875 1.703125 -4.953125 1.703125 -6.390625 C 1.703125 -7.722656 1.988281 -8.835938 2.5625 -9.734375 C 3.132812 -10.640625 4.015625 -11.378906 5.203125 -11.953125 C 6.398438 -12.535156 7.960938 -12.984375 9.890625 -13.296875 C 11.234375 -13.515625 12.253906 -13.75 12.953125 -14 C 13.648438 -14.257812 14.117188 -14.550781 14.359375 -14.875 C 14.609375 -15.207031 14.734375 -15.625 14.734375 -16.125 C 14.734375 -16.84375 14.484375 -17.390625 13.984375 -17.765625 C 13.484375 -18.148438 12.648438 -18.34375 11.484375 -18.34375 C 10.234375 -18.34375 9.046875 -18.0625 7.921875 -17.5 C 6.796875 -16.945312 5.816406 -16.21875 4.984375 -15.3125 L 4.578125 -15.3125 L 2.21875 -18.875 C 3.351562 -20.132812 4.742188 -21.113281 6.390625 -21.8125 C 8.035156 -22.519531 9.828125 -22.875 11.765625 -22.875 C 14.734375 -22.875 16.882812 -22.242188 18.21875 -20.984375 C 19.550781 -19.722656 20.21875 -17.929688 20.21875 -15.609375 L 20.21875 -5.859375 C 20.21875 -4.859375 20.65625 -4.359375 21.53125 -4.359375 C 21.875 -4.359375 22.207031 -4.421875 22.53125 -4.546875 L 22.8125 -4.453125 L 23.21875 -0.53125 C 22.90625 -0.320312 22.472656 -0.15625 21.921875 -0.03125 C 21.367188 0.09375 20.757812 0.15625 20.09375 0.15625 C 18.75 0.15625 17.695312 -0.0976562 16.9375 -0.609375 C 16.1875 -1.128906 15.648438 -1.9375 15.328125 -3.03125 L 14.90625 -3.078125 C 13.800781 -0.742188 11.75 0.421875 8.75 0.421875 Z M 10.546875 -3.78125 C 11.847656 -3.78125 12.890625 -4.21875 13.671875 -5.09375 C 14.453125 -5.96875 14.84375 -7.1875 14.84375 -8.75 L 14.84375 -11.03125 L 14.453125 -11.109375 C 14.109375 -10.835938 13.660156 -10.609375 13.109375 -10.421875 C 12.566406 -10.242188 11.78125 -10.066406 10.75 -9.890625 C 9.53125 -9.691406 8.648438 -9.34375 8.109375 -8.84375 C 7.578125 -8.34375 7.3125 -7.640625 7.3125 -6.734375 C 7.3125 -5.773438 7.59375 -5.039062 8.15625 -4.53125 C 8.726562 -4.03125 9.523438 -3.78125 10.546875 -3.78125 Z M 10.546875 -3.78125 "/></g></g></g><g fill="#d6d6d6" fill-opacity="1"><g transform="translate(262.448715, 377.175891)"><g><path d="M 3.234375 0 L 3.234375 -22.453125 L 8.71875 -22.453125 L 8.71875 -19.109375 L 9.140625 -19.03125 C 9.679688 -20.28125 10.390625 -21.195312 11.265625 -21.78125 C 12.148438 -22.363281 13.226562 -22.65625 14.5 -22.65625 C 15.769531 -22.65625 16.738281 -22.4375 17.40625 -22 L 16.453125 -17.140625 L 16.015625 -17.0625 C 15.648438 -17.207031 15.296875 -17.3125 14.953125 -17.375 C 14.617188 -17.445312 14.207031 -17.484375 13.71875 -17.484375 C 12.144531 -17.484375 10.941406 -16.929688 10.109375 -15.828125 C 9.285156 -14.722656 8.875 -12.945312 8.875 -10.5 L 8.875 0 Z M 3.234375 0 "/></g></g></g><g fill="#d6d6d6" fill-opacity="1"><g transform="translate(280.055845, 377.175891)"><g><path d="M 15.484375 -5.359375 L 16.953125 -1.1875 C 16.347656 -0.675781 15.582031 -0.28125 14.65625 0 C 13.726562 0.28125 12.679688 0.421875 11.515625 0.421875 C 9.085938 0.421875 7.242188 -0.238281 5.984375 -1.5625 C 4.722656 -2.882812 4.09375 -4.804688 4.09375 -7.328125 L 4.09375 -18 L 0.671875 -18 L 0.671875 -22.46875 L 4.09375 -22.46875 L 4.09375 -26.84375 L 9.734375 -27.765625 L 9.734375 -22.46875 L 16.09375 -22.46875 L 16.09375 -18 L 9.734375 -18 L 9.734375 -7.734375 C 9.734375 -6.617188 9.960938 -5.804688 10.421875 -5.296875 C 10.878906 -4.796875 11.550781 -4.546875 12.4375 -4.546875 C 13.4375 -4.546875 14.3125 -4.816406 15.0625 -5.359375 Z M 15.484375 -5.359375 "/></g></g></g><g fill="#d6d6d6" fill-opacity="1"><g transform="translate(297.500135, 377.175891)"><g><path d="M 13.046875 0.421875 C 10.847656 0.421875 8.914062 -0.0234375 7.25 -0.921875 C 5.59375 -1.828125 4.304688 -3.148438 3.390625 -4.890625 C 2.472656 -6.640625 2.015625 -8.75 2.015625 -11.21875 C 2.015625 -13.6875 2.472656 -15.796875 3.390625 -17.546875 C 4.304688 -19.296875 5.59375 -20.617188 7.25 -21.515625 C 8.914062 -22.421875 10.847656 -22.875 13.046875 -22.875 C 15.242188 -22.875 17.171875 -22.421875 18.828125 -21.515625 C 20.492188 -20.617188 21.785156 -19.296875 22.703125 -17.546875 C 23.628906 -15.796875 24.09375 -13.6875 24.09375 -11.21875 C 24.09375 -8.75 23.628906 -6.640625 22.703125 -4.890625 C 21.785156 -3.148438 20.492188 -1.828125 18.828125 -0.921875 C 17.171875 -0.0234375 15.242188 0.421875 13.046875 0.421875 Z M 13.046875 -4.359375 C 16.535156 -4.359375 18.28125 -6.644531 18.28125 -11.21875 C 18.28125 -13.59375 17.832031 -15.332031 16.9375 -16.4375 C 16.039062 -17.539062 14.742188 -18.09375 13.046875 -18.09375 C 9.554688 -18.09375 7.8125 -15.800781 7.8125 -11.21875 C 7.8125 -6.644531 9.554688 -4.359375 13.046875 -4.359375 Z M 13.046875 -4.359375 "/></g></g></g><g fill="#d6d6d6" fill-opacity="1"><g transform="translate(323.595327, 377.175891)"><g/></g></g><g fill="#d6d6d6" fill-opacity="1"><g transform="translate(333.426822, 377.175891)"><g><path d="M 11.09375 0.421875 C 9.3125 0.421875 7.738281 -0.00390625 6.375 -0.859375 C 5.007812 -1.722656 3.941406 -3.023438 3.171875 -4.765625 C 2.398438 -6.515625 2.015625 -8.664062 2.015625 -11.21875 C 2.015625 -13.78125 2.410156 -15.929688 3.203125 -17.671875 C 3.992188 -19.421875 5.09375 -20.722656 6.5 -21.578125 C 7.90625 -22.441406 9.53125 -22.875 11.375 -22.875 C 12.769531 -22.875 13.976562 -22.632812 15 -22.15625 C 16.03125 -21.675781 16.898438 -20.925781 17.609375 -19.90625 L 18.03125 -20.015625 L 18.03125 -31.46875 L 23.671875 -31.46875 L 23.671875 0 L 18.03125 0 L 18.03125 -2.90625 L 17.609375 -3 C 16.984375 -1.9375 16.128906 -1.097656 15.046875 -0.484375 C 13.960938 0.117188 12.644531 0.421875 11.09375 0.421875 Z M 12.921875 -4.359375 C 14.515625 -4.359375 15.769531 -4.921875 16.6875 -6.046875 C 17.613281 -7.179688 18.078125 -8.90625 18.078125 -11.21875 C 18.078125 -13.519531 17.613281 -15.238281 16.6875 -16.375 C 15.769531 -17.519531 14.515625 -18.09375 12.921875 -18.09375 C 11.265625 -18.09375 10 -17.539062 9.125 -16.4375 C 8.25 -15.332031 7.8125 -13.59375 7.8125 -11.21875 C 7.8125 -8.851562 8.25 -7.117188 9.125 -6.015625 C 10 -4.910156 11.265625 -4.359375 12.921875 -4.359375 Z M 12.921875 -4.359375 "/></g></g></g><g fill="#d6d6d6" fill-opacity="1"><g transform="translate(360.336217, 377.175891)"><g><path d="M 13.046875 0.421875 C 10.847656 0.421875 8.914062 -0.0234375 7.25 -0.921875 C 5.59375 -1.828125 4.304688 -3.148438 3.390625 -4.890625 C 2.472656 -6.640625 2.015625 -8.75 2.015625 -11.21875 C 2.015625 -13.6875 2.472656 -15.796875 3.390625 -17.546875 C 4.304688 -19.296875 5.59375 -20.617188 7.25 -21.515625 C 8.914062 -22.421875 10.847656 -22.875 13.046875 -22.875 C 15.242188 -22.875 17.171875 -22.421875 18.828125 -21.515625 C 20.492188 -20.617188 21.785156 -19.296875 22.703125 -17.546875 C 23.628906 -15.796875 24.09375 -13.6875 24.09375 -11.21875 C 24.09375 -8.75 23.628906 -6.640625 22.703125 -4.890625 C 21.785156 -3.148438 20.492188 -1.828125 18.828125 -0.921875 C 17.171875 -0.0234375 15.242188 0.421875 13.046875 0.421875 Z M 13.046875 -4.359375 C 16.535156 -4.359375 18.28125 -6.644531 18.28125 -11.21875 C 18.28125 -13.59375 17.832031 -15.332031 16.9375 -16.4375 C 16.039062 -17.539062 14.742188 -18.09375 13.046875 -18.09375 C 9.554688 -18.09375 7.8125 -15.800781 7.8125 -11.21875 C 7.8125 -6.644531 9.554688 -4.359375 13.046875 -4.359375 Z M 13.046875 -4.359375 "/></g></g></g><g fill="#d6d6d6" fill-opacity="1"><g transform="translate(386.431408, 377.175891)"><g><path d="M 13.09375 0.421875 C 10.914062 0.421875 8.992188 -0.0234375 7.328125 -0.921875 C 5.660156 -1.828125 4.359375 -3.15625 3.421875 -4.90625 C 2.484375 -6.65625 2.015625 -8.757812 2.015625 -11.21875 C 2.015625 -13.6875 2.484375 -15.796875 3.421875 -17.546875 C 4.359375 -19.296875 5.65625 -20.617188 7.3125 -21.515625 C 8.96875 -22.421875 10.859375 -22.875 12.984375 -22.875 C 17.722656 -22.875 20.753906 -21.160156 22.078125 -17.734375 L 18.21875 -14.96875 L 17.796875 -14.96875 C 17.328125 -16.019531 16.722656 -16.800781 15.984375 -17.3125 C 15.242188 -17.832031 14.242188 -18.09375 12.984375 -18.09375 C 11.359375 -18.09375 10.085938 -17.53125 9.171875 -16.40625 C 8.265625 -15.28125 7.8125 -13.550781 7.8125 -11.21875 C 7.8125 -8.90625 8.269531 -7.179688 9.1875 -6.046875 C 10.113281 -4.921875 11.414062 -4.359375 13.09375 -4.359375 C 14.3125 -4.359375 15.34375 -4.6875 16.1875 -5.34375 C 17.039062 -6 17.648438 -6.945312 18.015625 -8.1875 L 18.4375 -8.21875 L 22.453125 -6.03125 C 21.878906 -4.125 20.820312 -2.570312 19.28125 -1.375 C 17.738281 -0.175781 15.675781 0.421875 13.09375 0.421875 Z M 13.09375 0.421875 "/></g></g></g><g fill="#d6d6d6" fill-opacity="1"><g transform="translate(409.575116, 377.175891)"><g><path d="M 10.5 0.421875 C 8.96875 0.421875 7.5625 0.242188 6.28125 -0.109375 C 5.007812 -0.472656 3.921875 -0.96875 3.015625 -1.59375 C 2.117188 -2.226562 1.453125 -2.953125 1.015625 -3.765625 L 4.15625 -7.140625 L 4.578125 -7.140625 C 5.328125 -6.140625 6.207031 -5.382812 7.21875 -4.875 C 8.238281 -4.375 9.347656 -4.125 10.546875 -4.125 C 11.640625 -4.125 12.460938 -4.320312 13.015625 -4.71875 C 13.578125 -5.113281 13.859375 -5.675781 13.859375 -6.40625 C 13.859375 -6.976562 13.65625 -7.457031 13.25 -7.84375 C 12.851562 -8.226562 12.207031 -8.53125 11.3125 -8.75 L 8.34375 -9.46875 C 6.113281 -10 4.488281 -10.804688 3.46875 -11.890625 C 2.445312 -12.984375 1.9375 -14.375 1.9375 -16.0625 C 1.9375 -17.457031 2.289062 -18.671875 3 -19.703125 C 3.71875 -20.734375 4.722656 -21.519531 6.015625 -22.0625 C 7.304688 -22.601562 8.816406 -22.875 10.546875 -22.875 C 12.566406 -22.875 14.238281 -22.582031 15.5625 -22 C 16.894531 -21.414062 17.9375 -20.632812 18.6875 -19.65625 L 15.671875 -16.40625 L 15.265625 -16.40625 C 14.640625 -17.113281 13.9375 -17.628906 13.15625 -17.953125 C 12.375 -18.273438 11.503906 -18.4375 10.546875 -18.4375 C 8.316406 -18.4375 7.203125 -17.742188 7.203125 -16.359375 C 7.203125 -15.773438 7.410156 -15.300781 7.828125 -14.9375 C 8.242188 -14.570312 8.972656 -14.273438 10.015625 -14.046875 L 12.78125 -13.4375 C 15.0625 -12.945312 16.726562 -12.160156 17.78125 -11.078125 C 18.832031 -10.003906 19.359375 -8.554688 19.359375 -6.734375 C 19.359375 -5.304688 19.003906 -4.050781 18.296875 -2.96875 C 17.585938 -1.882812 16.566406 -1.046875 15.234375 -0.453125 C 13.910156 0.128906 12.332031 0.421875 10.5 0.421875 Z M 10.5 0.421875 "/></g></g></g><g fill="#d6d6d6" fill-opacity="1"><g transform="translate(217.483262, 434.835508)"><g><path d="M 13.421875 -17.21875 L 20.15625 -17.21875 L 20.15625 -12.53125 L 13.421875 -12.53125 L 13.421875 -5.703125 L 8.53125 -5.703125 L 8.53125 -12.53125 L 1.765625 -12.53125 L 1.765625 -17.21875 L 8.53125 -17.21875 L 8.53125 -24.0625 L 13.421875 -24.0625 Z M 13.421875 -17.21875 "/></g></g></g><g fill="#d6d6d6" fill-opacity="1"><g transform="translate(239.446376, 434.835508)"><g/></g></g><g fill="#d6d6d6" fill-opacity="1"><g transform="translate(249.277871, 434.835508)"><g><path d="M 14.453125 0.421875 C 11.972656 0.421875 9.828125 -0.140625 8.015625 -1.265625 C 6.203125 -2.398438 4.800781 -4.109375 3.8125 -6.390625 C 2.832031 -8.679688 2.34375 -11.507812 2.34375 -14.875 C 2.34375 -18.269531 2.929688 -21.109375 4.109375 -23.390625 C 5.285156 -25.679688 6.921875 -27.382812 9.015625 -28.5 C 11.117188 -29.625 13.554688 -30.1875 16.328125 -30.1875 C 19.171875 -30.1875 21.597656 -29.65625 23.609375 -28.59375 C 25.617188 -27.539062 27.03125 -25.96875 27.84375 -23.875 L 23.546875 -21.265625 L 23.046875 -21.296875 C 22.429688 -22.617188 21.570312 -23.585938 20.46875 -24.203125 C 19.363281 -24.816406 17.984375 -25.125 16.328125 -25.125 C 13.765625 -25.125 11.800781 -24.3125 10.4375 -22.6875 C 9.082031 -21.0625 8.40625 -18.457031 8.40625 -14.875 C 8.40625 -11.28125 9.039062 -8.664062 10.3125 -7.03125 C 11.582031 -5.40625 13.457031 -4.59375 15.9375 -4.59375 C 18.082031 -4.59375 19.660156 -5.070312 20.671875 -6.03125 C 21.691406 -7 22.203125 -8.441406 22.203125 -10.359375 L 22.203125 -11.640625 L 15.171875 -11.640625 L 15.171875 -16.421875 L 28.046875 -16.421875 L 28.046875 0 L 22.4375 0 L 22.4375 -3.984375 L 22 -4.046875 C 21.394531 -2.617188 20.46875 -1.515625 19.21875 -0.734375 C 17.976562 0.0351562 16.390625 0.421875 14.453125 0.421875 Z M 14.453125 0.421875 "/></g></g></g><g fill="#d6d6d6" fill-opacity="1"><g transform="translate(280.319343, 434.835508)"><g><path d="M 13.046875 0.421875 C 10.847656 0.421875 8.914062 -0.0234375 7.25 -0.921875 C 5.59375 -1.828125 4.304688 -3.148438 3.390625 -4.890625 C 2.472656 -6.640625 2.015625 -8.75 2.015625 -11.21875 C 2.015625 -13.6875 2.472656 -15.796875 3.390625 -17.546875 C 4.304688 -19.296875 5.59375 -20.617188 7.25 -21.515625 C 8.914062 -22.421875 10.847656 -22.875 13.046875 -22.875 C 15.242188 -22.875 17.171875 -22.421875 18.828125 -21.515625 C 20.492188 -20.617188 21.785156 -19.296875 22.703125 -17.546875 C 23.628906 -15.796875 24.09375 -13.6875 24.09375 -11.21875 C 24.09375 -8.75 23.628906 -6.640625 22.703125 -4.890625 C 21.785156 -3.148438 20.492188 -1.828125 18.828125 -0.921875 C 17.171875 -0.0234375 15.242188 0.421875 13.046875 0.421875 Z M 13.046875 -4.359375 C 16.535156 -4.359375 18.28125 -6.644531 18.28125 -11.21875 C 18.28125 -13.59375 17.832031 -15.332031 16.9375 -16.4375 C 16.039062 -17.539062 14.742188 -18.09375 13.046875 -18.09375 C 9.554688 -18.09375 7.8125 -15.800781 7.8125 -11.21875 C 7.8125 -6.644531 9.554688 -4.359375 13.046875 -4.359375 Z M 13.046875 -4.359375 "/></g></g></g><g fill="#d6d6d6" fill-opacity="1"><g transform="translate(306.414535, 434.835508)"><g><path d="M 13.046875 0.421875 C 10.847656 0.421875 8.914062 -0.0234375 7.25 -0.921875 C 5.59375 -1.828125 4.304688 -3.148438 3.390625 -4.890625 C 2.472656 -6.640625 2.015625 -8.75 2.015625 -11.21875 C 2.015625 -13.6875 2.472656 -15.796875 3.390625 -17.546875 C 4.304688 -19.296875 5.59375 -20.617188 7.25 -21.515625 C 8.914062 -22.421875 10.847656 -22.875 13.046875 -22.875 C 15.242188 -22.875 17.171875 -22.421875 18.828125 -21.515625 C 20.492188 -20.617188 21.785156 -19.296875 22.703125 -17.546875 C 23.628906 -15.796875 24.09375 -13.6875 24.09375 -11.21875 C 24.09375 -8.75 23.628906 -6.640625 22.703125 -4.890625 C 21.785156 -3.148438 20.492188 -1.828125 18.828125 -0.921875 C 17.171875 -0.0234375 15.242188 0.421875 13.046875 0.421875 Z M 13.046875 -4.359375 C 16.535156 -4.359375 18.28125 -6.644531 18.28125 -11.21875 C 18.28125 -13.59375 17.832031 -15.332031 16.9375 -16.4375 C 16.039062 -17.539062 14.742188 -18.09375 13.046875 -18.09375 C 9.554688 -18.09375 7.8125 -15.800781 7.8125 -11.21875 C 7.8125 -6.644531 9.554688 -4.359375 13.046875 -4.359375 Z M 13.046875 -4.359375 "/></g></g></g><g fill="#d6d6d6" fill-opacity="1"><g transform="translate(332.509727, 434.835508)"><g><path d="M 11.640625 9.53125 C 7.941406 9.53125 5.207031 8.984375 3.4375 7.890625 C 1.675781 6.804688 0.796875 5.296875 0.796875 3.359375 C 0.796875 2.179688 1.171875 1.210938 1.921875 0.453125 C 2.671875 -0.296875 3.753906 -0.800781 5.171875 -1.0625 L 5.171875 -1.484375 C 4.410156 -1.941406 3.863281 -2.453125 3.53125 -3.015625 C 3.195312 -3.585938 3.03125 -4.242188 3.03125 -4.984375 C 3.03125 -6.785156 4.203125 -8 6.546875 -8.625 L 6.546875 -9.0625 C 5.347656 -9.75 4.441406 -10.601562 3.828125 -11.625 C 3.210938 -12.65625 2.90625 -13.894531 2.90625 -15.34375 C 2.90625 -16.84375 3.25 -18.15625 3.9375 -19.28125 C 4.625 -20.414062 5.628906 -21.296875 6.953125 -21.921875 C 8.273438 -22.554688 9.859375 -22.875 11.703125 -22.875 C 13.578125 -22.875 15.070312 -22.550781 16.1875 -21.90625 C 16.875 -22.90625 17.273438 -24.066406 17.390625 -25.390625 L 17.8125 -25.640625 L 21.859375 -24.65625 C 21.734375 -23.582031 21.421875 -22.679688 20.921875 -21.953125 C 20.421875 -21.222656 19.640625 -20.578125 18.578125 -20.015625 L 18.578125 -19.5625 C 19.847656 -18.445312 20.484375 -16.894531 20.484375 -14.90625 C 20.484375 -13.519531 20.132812 -12.273438 19.4375 -11.171875 C 18.75 -10.078125 17.742188 -9.207031 16.421875 -8.5625 C 15.097656 -7.925781 13.523438 -7.609375 11.703125 -7.609375 L 10.84375 -7.640625 C 10.300781 -7.660156 9.921875 -7.671875 9.703125 -7.671875 C 9.191406 -7.671875 8.789062 -7.53125 8.5 -7.25 C 8.207031 -6.976562 8.0625 -6.625 8.0625 -6.1875 C 8.0625 -5.707031 8.25 -5.335938 8.625 -5.078125 C 9.007812 -4.816406 9.566406 -4.671875 10.296875 -4.640625 L 15.328125 -4.453125 C 20.296875 -4.304688 22.78125 -2.171875 22.78125 1.953125 C 22.78125 3.398438 22.410156 4.691406 21.671875 5.828125 C 20.929688 6.960938 19.734375 7.863281 18.078125 8.53125 C 16.421875 9.195312 14.273438 9.53125 11.640625 9.53125 Z M 11.703125 -11.5625 C 12.785156 -11.5625 13.632812 -11.878906 14.25 -12.515625 C 14.863281 -13.148438 15.171875 -14.0625 15.171875 -15.25 C 15.171875 -16.425781 14.863281 -17.328125 14.25 -17.953125 C 13.632812 -18.585938 12.785156 -18.90625 11.703125 -18.90625 C 10.609375 -18.90625 9.757812 -18.585938 9.15625 -17.953125 C 8.5625 -17.328125 8.265625 -16.425781 8.265625 -15.25 C 8.265625 -14.050781 8.5625 -13.132812 9.15625 -12.5 C 9.757812 -11.875 10.609375 -11.5625 11.703125 -11.5625 Z M 11.640625 5.4375 C 13.566406 5.4375 14.96875 5.164062 15.84375 4.625 C 16.71875 4.082031 17.15625 3.375 17.15625 2.5 C 17.15625 1.789062 16.929688 1.269531 16.484375 0.9375 C 16.035156 0.613281 15.320312 0.4375 14.34375 0.40625 L 9.90625 0.203125 C 9.757812 0.203125 9.617188 0.191406 9.484375 0.171875 C 9.359375 0.160156 9.238281 0.15625 9.125 0.15625 C 8.164062 0.15625 7.4375 0.359375 6.9375 0.765625 C 6.445312 1.179688 6.203125 1.75 6.203125 2.46875 C 6.203125 3.414062 6.65625 4.144531 7.5625 4.65625 C 8.476562 5.175781 9.835938 5.4375 11.640625 5.4375 Z M 11.640625 5.4375 "/></g></g></g><g fill="#d6d6d6" fill-opacity="1"><g transform="translate(355.856984, 434.835508)"><g><path d="M 9.328125 0.421875 C 7.304688 0.421875 5.757812 -0.117188 4.6875 -1.203125 C 3.625 -2.296875 3.09375 -3.957031 3.09375 -6.1875 L 3.09375 -31.46875 L 8.734375 -31.46875 L 8.734375 -6.40625 C 8.734375 -5.039062 9.300781 -4.359375 10.4375 -4.359375 C 10.769531 -4.359375 11.117188 -4.410156 11.484375 -4.515625 L 11.765625 -4.4375 L 12.28125 -0.109375 C 11.96875 0.0546875 11.550781 0.1875 11.03125 0.28125 C 10.519531 0.375 9.953125 0.421875 9.328125 0.421875 Z M 9.328125 0.421875 "/></g></g></g><g fill="#d6d6d6" fill-opacity="1"><g transform="translate(368.762094, 434.835508)"><g><path d="M 22.1875 -9.953125 L 7.75 -9.953125 C 7.914062 -7.992188 8.472656 -6.570312 9.421875 -5.6875 C 10.367188 -4.800781 11.664062 -4.359375 13.3125 -4.359375 C 14.601562 -4.359375 15.644531 -4.597656 16.4375 -5.078125 C 17.238281 -5.554688 17.882812 -6.285156 18.375 -7.265625 L 18.8125 -7.265625 L 22.546875 -4.859375 C 21.816406 -3.285156 20.710938 -2.007812 19.234375 -1.03125 C 17.753906 -0.0625 15.78125 0.421875 13.3125 0.421875 C 10.988281 0.421875 8.984375 -0.015625 7.296875 -0.890625 C 5.609375 -1.773438 4.304688 -3.085938 3.390625 -4.828125 C 2.472656 -6.578125 2.015625 -8.707031 2.015625 -11.21875 C 2.015625 -13.769531 2.492188 -15.921875 3.453125 -17.671875 C 4.421875 -19.421875 5.722656 -20.722656 7.359375 -21.578125 C 9.003906 -22.441406 10.851562 -22.875 12.90625 -22.875 C 16.082031 -22.875 18.515625 -22.03125 20.203125 -20.34375 C 21.890625 -18.664062 22.734375 -16.203125 22.734375 -12.953125 C 22.734375 -11.765625 22.691406 -10.847656 22.609375 -10.203125 Z M 17.34375 -13.59375 C 17.289062 -15.300781 16.894531 -16.546875 16.15625 -17.328125 C 15.414062 -18.109375 14.332031 -18.5 12.90625 -18.5 C 10.050781 -18.5 8.375 -16.863281 7.875 -13.59375 Z M 17.34375 -13.59375 "/></g></g></g><g fill="#d6d6d6" fill-opacity="1"><g transform="translate(492.126504, 191.200206)"><g><path d="M 28.5625 0 L 22.375 0 L 20.125 -6.859375 L 8.734375 -6.859375 L 6.5 0 L 0.453125 0 L 10.734375 -29.765625 L 18.28125 -29.765625 Z M 14.140625 -23.546875 L 10.3125 -11.8125 L 18.5 -11.8125 L 14.65625 -23.546875 Z M 14.140625 -23.546875 "/></g></g></g><g fill="#d6d6d6" fill-opacity="1"><g transform="translate(521.13247, 191.200206)"><g><path d="M 10.5 0.421875 C 8.96875 0.421875 7.5625 0.242188 6.28125 -0.109375 C 5.007812 -0.472656 3.921875 -0.96875 3.015625 -1.59375 C 2.117188 -2.226562 1.453125 -2.953125 1.015625 -3.765625 L 4.15625 -7.140625 L 4.578125 -7.140625 C 5.328125 -6.140625 6.207031 -5.382812 7.21875 -4.875 C 8.238281 -4.375 9.347656 -4.125 10.546875 -4.125 C 11.640625 -4.125 12.460938 -4.320312 13.015625 -4.71875 C 13.578125 -5.113281 13.859375 -5.675781 13.859375 -6.40625 C 13.859375 -6.976562 13.65625 -7.457031 13.25 -7.84375 C 12.851562 -8.226562 12.207031 -8.53125 11.3125 -8.75 L 8.34375 -9.46875 C 6.113281 -10 4.488281 -10.804688 3.46875 -11.890625 C 2.445312 -12.984375 1.9375 -14.375 1.9375 -16.0625 C 1.9375 -17.457031 2.289062 -18.671875 3 -19.703125 C 3.71875 -20.734375 4.722656 -21.519531 6.015625 -22.0625 C 7.304688 -22.601562 8.816406 -22.875 10.546875 -22.875 C 12.566406 -22.875 14.238281 -22.582031 15.5625 -22 C 16.894531 -21.414062 17.9375 -20.632812 18.6875 -19.65625 L 15.671875 -16.40625 L 15.265625 -16.40625 C 14.640625 -17.113281 13.9375 -17.628906 13.15625 -17.953125 C 12.375 -18.273438 11.503906 -18.4375 10.546875 -18.4375 C 8.316406 -18.4375 7.203125 -17.742188 7.203125 -16.359375 C 7.203125 -15.773438 7.410156 -15.300781 7.828125 -14.9375 C 8.242188 -14.570312 8.972656 -14.273438 10.015625 -14.046875 L 12.78125 -13.4375 C 15.0625 -12.945312 16.726562 -12.160156 17.78125 -11.078125 C 18.832031 -10.003906 19.359375 -8.554688 19.359375 -6.734375 C 19.359375 -5.304688 19.003906 -4.050781 18.296875 -2.96875 C 17.585938 -1.882812 16.566406 -1.046875 15.234375 -0.453125 C 13.910156 0.128906 12.332031 0.421875 10.5 0.421875 Z M 10.5 0.421875 "/></g></g></g><g fill="#d6d6d6" fill-opacity="1"><g transform="translate(541.833569, 191.200206)"><g><path d="M 3.234375 0 L 3.234375 -31.46875 L 8.875 -31.46875 L 8.875 -14 L 9.421875 -14 L 15.921875 -22.453125 L 21.640625 -22.453125 L 21.640625 -21.984375 L 14 -12.125 L 22.5 -0.515625 L 22.5 0 L 16.546875 0 L 9.421875 -9.46875 L 8.875 -9.46875 L 8.875 0 Z M 3.234375 0 "/></g></g></g><g fill="#d6d6d6" fill-opacity="1"><g transform="translate(564.366625, 191.200206)"><g/></g></g><g fill="#d6d6d6" fill-opacity="1"><g transform="translate(574.19812, 191.200206)"><g><path d="M 4.96875 9.53125 C 4 9.53125 3.125 9.453125 2.34375 9.296875 C 1.570312 9.148438 0.941406 8.957031 0.453125 8.71875 L 1.34375 4.15625 L 1.703125 4.03125 C 2.046875 4.207031 2.46875 4.347656 2.96875 4.453125 C 3.46875 4.566406 3.984375 4.625 4.515625 4.625 C 5.421875 4.625 6.175781 4.503906 6.78125 4.265625 C 7.382812 4.023438 7.894531 3.628906 8.3125 3.078125 C 8.738281 2.535156 9.113281 1.773438 9.4375 0.796875 L 0.484375 -22.453125 L 6.390625 -22.453125 L 11.96875 -6.84375 L 12.453125 -6.84375 L 17.890625 -22.453125 L 23.625 -22.453125 L 14.609375 1.40625 C 13.890625 3.332031 13.097656 4.878906 12.234375 6.046875 C 11.378906 7.222656 10.363281 8.097656 9.1875 8.671875 C 8.007812 9.242188 6.601562 9.53125 4.96875 9.53125 Z M 4.96875 9.53125 "/></g></g></g><g fill="#d6d6d6" fill-opacity="1"><g transform="translate(598.298516, 191.200206)"><g><path d="M 13.046875 0.421875 C 10.847656 0.421875 8.914062 -0.0234375 7.25 -0.921875 C 5.59375 -1.828125 4.304688 -3.148438 3.390625 -4.890625 C 2.472656 -6.640625 2.015625 -8.75 2.015625 -11.21875 C 2.015625 -13.6875 2.472656 -15.796875 3.390625 -17.546875 C 4.304688 -19.296875 5.59375 -20.617188 7.25 -21.515625 C 8.914062 -22.421875 10.847656 -22.875 13.046875 -22.875 C 15.242188 -22.875 17.171875 -22.421875 18.828125 -21.515625 C 20.492188 -20.617188 21.785156 -19.296875 22.703125 -17.546875 C 23.628906 -15.796875 24.09375 -13.6875 24.09375 -11.21875 C 24.09375 -8.75 23.628906 -6.640625 22.703125 -4.890625 C 21.785156 -3.148438 20.492188 -1.828125 18.828125 -0.921875 C 17.171875 -0.0234375 15.242188 0.421875 13.046875 0.421875 Z M 13.046875 -4.359375 C 16.535156 -4.359375 18.28125 -6.644531 18.28125 -11.21875 C 18.28125 -13.59375 17.832031 -15.332031 16.9375 -16.4375 C 16.039062 -17.539062 14.742188 -18.09375 13.046875 -18.09375 C 9.554688 -18.09375 7.8125 -15.800781 7.8125 -11.21875 C 7.8125 -6.644531 9.554688 -4.359375 13.046875 -4.359375 Z M 13.046875 -4.359375 "/></g></g></g><g fill="#d6d6d6" fill-opacity="1"><g transform="translate(624.393708, 191.200206)"><g><path d="M 10.28125 0.421875 C 7.757812 0.421875 5.894531 -0.265625 4.6875 -1.640625 C 3.488281 -3.015625 2.890625 -4.992188 2.890625 -7.578125 L 2.890625 -22.453125 L 8.53125 -22.453125 L 8.53125 -8.28125 C 8.53125 -6.914062 8.820312 -5.914062 9.40625 -5.28125 C 10 -4.644531 10.914062 -4.328125 12.15625 -4.328125 C 13.71875 -4.328125 14.929688 -4.835938 15.796875 -5.859375 C 16.660156 -6.890625 17.09375 -8.503906 17.09375 -10.703125 L 17.09375 -22.453125 L 22.734375 -22.453125 L 22.734375 0 L 17.328125 0 L 17.328125 -3.296875 L 16.890625 -3.40625 C 16.171875 -2.113281 15.289062 -1.148438 14.25 -0.515625 C 13.21875 0.109375 11.894531 0.421875 10.28125 0.421875 Z M 10.28125 0.421875 "/></g></g></g><g fill="#d6d6d6" fill-opacity="1"><g transform="translate(650.366768, 191.200206)"><g><path d="M 3.234375 0 L 3.234375 -22.453125 L 8.71875 -22.453125 L 8.71875 -19.109375 L 9.140625 -19.03125 C 9.679688 -20.28125 10.390625 -21.195312 11.265625 -21.78125 C 12.148438 -22.363281 13.226562 -22.65625 14.5 -22.65625 C 15.769531 -22.65625 16.738281 -22.4375 17.40625 -22 L 16.453125 -17.140625 L 16.015625 -17.0625 C 15.648438 -17.207031 15.296875 -17.3125 14.953125 -17.375 C 14.617188 -17.445312 14.207031 -17.484375 13.71875 -17.484375 C 12.144531 -17.484375 10.941406 -16.929688 10.109375 -15.828125 C 9.285156 -14.722656 8.875 -12.945312 8.875 -10.5 L 8.875 0 Z M 3.234375 0 "/></g></g></g><g fill="#d6d6d6" fill-opacity="1"><g transform="translate(667.97612, 191.200206)"><g/></g></g><g fill="#d6d6d6" fill-opacity="1"><g transform="translate(495.66915, 248.859823)"><g><path d="M 3.234375 9.09375 L 3.234375 -22.453125 L 8.875 -22.453125 L 8.875 -19.515625 L 9.296875 -19.4375 C 9.960938 -20.582031 10.851562 -21.441406 11.96875 -22.015625 C 13.082031 -22.585938 14.382812 -22.875 15.875 -22.875 C 17.675781 -22.875 19.253906 -22.445312 20.609375 -21.59375 C 21.960938 -20.738281 23.015625 -19.4375 23.765625 -17.6875 C 24.515625 -15.945312 24.890625 -13.789062 24.890625 -11.21875 C 24.890625 -8.65625 24.492188 -6.503906 23.703125 -4.765625 C 22.910156 -3.023438 21.804688 -1.722656 20.390625 -0.859375 C 18.984375 -0.00390625 17.359375 0.421875 15.515625 0.421875 C 14.117188 0.421875 12.910156 0.1875 11.890625 -0.28125 C 10.867188 -0.75 10.003906 -1.476562 9.296875 -2.46875 L 8.875 -2.375 L 8.875 9.09375 Z M 13.9375 -4.359375 C 15.625 -4.359375 16.898438 -4.90625 17.765625 -6 C 18.640625 -7.101562 19.078125 -8.84375 19.078125 -11.21875 C 19.078125 -13.59375 18.640625 -15.332031 17.765625 -16.4375 C 16.898438 -17.539062 15.625 -18.09375 13.9375 -18.09375 C 12.363281 -18.09375 11.113281 -17.519531 10.1875 -16.375 C 9.269531 -15.238281 8.8125 -13.519531 8.8125 -11.21875 C 8.8125 -8.925781 9.269531 -7.207031 10.1875 -6.0625 C 11.113281 -4.925781 12.363281 -4.359375 13.9375 -4.359375 Z M 13.9375 -4.359375 "/></g></g></g><g fill="#d6d6d6" fill-opacity="1"><g transform="translate(522.558189, 248.859823)"><g><path d="M 22.1875 -9.953125 L 7.75 -9.953125 C 7.914062 -7.992188 8.472656 -6.570312 9.421875 -5.6875 C 10.367188 -4.800781 11.664062 -4.359375 13.3125 -4.359375 C 14.601562 -4.359375 15.644531 -4.597656 16.4375 -5.078125 C 17.238281 -5.554688 17.882812 -6.285156 18.375 -7.265625 L 18.8125 -7.265625 L 22.546875 -4.859375 C 21.816406 -3.285156 20.710938 -2.007812 19.234375 -1.03125 C 17.753906 -0.0625 15.78125 0.421875 13.3125 0.421875 C 10.988281 0.421875 8.984375 -0.015625 7.296875 -0.890625 C 5.609375 -1.773438 4.304688 -3.085938 3.390625 -4.828125 C 2.472656 -6.578125 2.015625 -8.707031 2.015625 -11.21875 C 2.015625 -13.769531 2.492188 -15.921875 3.453125 -17.671875 C 4.421875 -19.421875 5.722656 -20.722656 7.359375 -21.578125 C 9.003906 -22.441406 10.851562 -22.875 12.90625 -22.875 C 16.082031 -22.875 18.515625 -22.03125 20.203125 -20.34375 C 21.890625 -18.664062 22.734375 -16.203125 22.734375 -12.953125 C 22.734375 -11.765625 22.691406 -10.847656 22.609375 -10.203125 Z M 17.34375 -13.59375 C 17.289062 -15.300781 16.894531 -16.546875 16.15625 -17.328125 C 15.414062 -18.109375 14.332031 -18.5 12.90625 -18.5 C 10.050781 -18.5 8.375 -16.863281 7.875 -13.59375 Z M 17.34375 -13.59375 "/></g></g></g><g fill="#d6d6d6" fill-opacity="1"><g transform="translate(546.96391, 248.859823)"><g><path d="M 3.234375 0 L 3.234375 -22.453125 L 8.71875 -22.453125 L 8.71875 -19.109375 L 9.140625 -19.03125 C 9.679688 -20.28125 10.390625 -21.195312 11.265625 -21.78125 C 12.148438 -22.363281 13.226562 -22.65625 14.5 -22.65625 C 15.769531 -22.65625 16.738281 -22.4375 17.40625 -22 L 16.453125 -17.140625 L 16.015625 -17.0625 C 15.648438 -17.207031 15.296875 -17.3125 14.953125 -17.375 C 14.617188 -17.445312 14.207031 -17.484375 13.71875 -17.484375 C 12.144531 -17.484375 10.941406 -16.929688 10.109375 -15.828125 C 9.285156 -14.722656 8.875 -12.945312 8.875 -10.5 L 8.875 0 Z M 3.234375 0 "/></g></g></g><g fill="#d6d6d6" fill-opacity="1"><g transform="translate(564.57104, 248.859823)"><g><path d="M 10.5 0.421875 C 8.96875 0.421875 7.5625 0.242188 6.28125 -0.109375 C 5.007812 -0.472656 3.921875 -0.96875 3.015625 -1.59375 C 2.117188 -2.226562 1.453125 -2.953125 1.015625 -3.765625 L 4.15625 -7.140625 L 4.578125 -7.140625 C 5.328125 -6.140625 6.207031 -5.382812 7.21875 -4.875 C 8.238281 -4.375 9.347656 -4.125 10.546875 -4.125 C 11.640625 -4.125 12.460938 -4.320312 13.015625 -4.71875 C 13.578125 -5.113281 13.859375 -5.675781 13.859375 -6.40625 C 13.859375 -6.976562 13.65625 -7.457031 13.25 -7.84375 C 12.851562 -8.226562 12.207031 -8.53125 11.3125 -8.75 L 8.34375 -9.46875 C 6.113281 -10 4.488281 -10.804688 3.46875 -11.890625 C 2.445312 -12.984375 1.9375 -14.375 1.9375 -16.0625 C 1.9375 -17.457031 2.289062 -18.671875 3 -19.703125 C 3.71875 -20.734375 4.722656 -21.519531 6.015625 -22.0625 C 7.304688 -22.601562 8.816406 -22.875 10.546875 -22.875 C 12.566406 -22.875 14.238281 -22.582031 15.5625 -22 C 16.894531 -21.414062 17.9375 -20.632812 18.6875 -19.65625 L 15.671875 -16.40625 L 15.265625 -16.40625 C 14.640625 -17.113281 13.9375 -17.628906 13.15625 -17.953125 C 12.375 -18.273438 11.503906 -18.4375 10.546875 -18.4375 C 8.316406 -18.4375 7.203125 -17.742188 7.203125 -16.359375 C 7.203125 -15.773438 7.410156 -15.300781 7.828125 -14.9375 C 8.242188 -14.570312 8.972656 -14.273438 10.015625 -14.046875 L 12.78125 -13.4375 C 15.0625 -12.945312 16.726562 -12.160156 17.78125 -11.078125 C 18.832031 -10.003906 19.359375 -8.554688 19.359375 -6.734375 C 19.359375 -5.304688 19.003906 -4.050781 18.296875 -2.96875 C 17.585938 -1.882812 16.566406 -1.046875 15.234375 -0.453125 C 13.910156 0.128906 12.332031 0.421875 10.5 0.421875 Z M 10.5 0.421875 "/></g></g></g><g fill="#d6d6d6" fill-opacity="1"><g transform="translate(585.272139, 248.859823)"><g><path d="M 13.046875 0.421875 C 10.847656 0.421875 8.914062 -0.0234375 7.25 -0.921875 C 5.59375 -1.828125 4.304688 -3.148438 3.390625 -4.890625 C 2.472656 -6.640625 2.015625 -8.75 2.015625 -11.21875 C 2.015625 -13.6875 2.472656 -15.796875 3.390625 -17.546875 C 4.304688 -19.296875 5.59375 -20.617188 7.25 -21.515625 C 8.914062 -22.421875 10.847656 -22.875 13.046875 -22.875 C 15.242188 -22.875 17.171875 -22.421875 18.828125 -21.515625 C 20.492188 -20.617188 21.785156 -19.296875 22.703125 -17.546875 C 23.628906 -15.796875 24.09375 -13.6875 24.09375 -11.21875 C 24.09375 -8.75 23.628906 -6.640625 22.703125 -4.890625 C 21.785156 -3.148438 20.492188 -1.828125 18.828125 -0.921875 C 17.171875 -0.0234375 15.242188 0.421875 13.046875 0.421875 Z M 13.046875 -4.359375 C 16.535156 -4.359375 18.28125 -6.644531 18.28125 -11.21875 C 18.28125 -13.59375 17.832031 -15.332031 16.9375 -16.4375 C 16.039062 -17.539062 14.742188 -18.09375 13.046875 -18.09375 C 9.554688 -18.09375 7.8125 -15.800781 7.8125 -11.21875 C 7.8125 -6.644531 9.554688 -4.359375 13.046875 -4.359375 Z M 13.046875 -4.359375 "/></g></g></g><g fill="#d6d6d6" fill-opacity="1"><g transform="translate(611.367331, 248.859823)"><g><path d="M 3.234375 0 L 3.234375 -22.453125 L 8.65625 -22.453125 L 8.65625 -19.15625 L 9.078125 -19.046875 C 10.472656 -21.597656 12.738281 -22.875 15.875 -22.875 C 18.46875 -22.875 20.367188 -22.164062 21.578125 -20.75 C 22.796875 -19.34375 23.40625 -17.289062 23.40625 -14.59375 L 23.40625 0 L 17.765625 0 L 17.765625 -13.90625 C 17.765625 -15.394531 17.46875 -16.46875 16.875 -17.125 C 16.28125 -17.78125 15.320312 -18.109375 14 -18.109375 C 12.382812 -18.109375 11.125 -17.585938 10.21875 -16.546875 C 9.320312 -15.503906 8.875 -13.863281 8.875 -11.625 L 8.875 0 Z M 3.234375 0 "/></g></g></g><g fill="#d6d6d6" fill-opacity="1"><g transform="translate(637.666073, 248.859823)"><g><path d="M 8.75 0.421875 C 7.3125 0.421875 6.0625 0.160156 5 -0.359375 C 3.945312 -0.890625 3.132812 -1.664062 2.5625 -2.6875 C 1.988281 -3.71875 1.703125 -4.953125 1.703125 -6.390625 C 1.703125 -7.722656 1.988281 -8.835938 2.5625 -9.734375 C 3.132812 -10.640625 4.015625 -11.378906 5.203125 -11.953125 C 6.398438 -12.535156 7.960938 -12.984375 9.890625 -13.296875 C 11.234375 -13.515625 12.253906 -13.75 12.953125 -14 C 13.648438 -14.257812 14.117188 -14.550781 14.359375 -14.875 C 14.609375 -15.207031 14.734375 -15.625 14.734375 -16.125 C 14.734375 -16.84375 14.484375 -17.390625 13.984375 -17.765625 C 13.484375 -18.148438 12.648438 -18.34375 11.484375 -18.34375 C 10.234375 -18.34375 9.046875 -18.0625 7.921875 -17.5 C 6.796875 -16.945312 5.816406 -16.21875 4.984375 -15.3125 L 4.578125 -15.3125 L 2.21875 -18.875 C 3.351562 -20.132812 4.742188 -21.113281 6.390625 -21.8125 C 8.035156 -22.519531 9.828125 -22.875 11.765625 -22.875 C 14.734375 -22.875 16.882812 -22.242188 18.21875 -20.984375 C 19.550781 -19.722656 20.21875 -17.929688 20.21875 -15.609375 L 20.21875 -5.859375 C 20.21875 -4.859375 20.65625 -4.359375 21.53125 -4.359375 C 21.875 -4.359375 22.207031 -4.421875 22.53125 -4.546875 L 22.8125 -4.453125 L 23.21875 -0.53125 C 22.90625 -0.320312 22.472656 -0.15625 21.921875 -0.03125 C 21.367188 0.09375 20.757812 0.15625 20.09375 0.15625 C 18.75 0.15625 17.695312 -0.0976562 16.9375 -0.609375 C 16.1875 -1.128906 15.648438 -1.9375 15.328125 -3.03125 L 14.90625 -3.078125 C 13.800781 -0.742188 11.75 0.421875 8.75 0.421875 Z M 10.546875 -3.78125 C 11.847656 -3.78125 12.890625 -4.21875 13.671875 -5.09375 C 14.453125 -5.96875 14.84375 -7.1875 14.84375 -8.75 L 14.84375 -11.03125 L 14.453125 -11.109375 C 14.109375 -10.835938 13.660156 -10.609375 13.109375 -10.421875 C 12.566406 -10.242188 11.78125 -10.066406 10.75 -9.890625 C 9.53125 -9.691406 8.648438 -9.34375 8.109375 -8.84375 C 7.578125 -8.34375 7.3125 -7.640625 7.3125 -6.734375 C 7.3125 -5.773438 7.59375 -5.039062 8.15625 -4.53125 C 8.726562 -4.03125 9.523438 -3.78125 10.546875 -3.78125 Z M 10.546875 -3.78125 "/></g></g></g><g fill="#d6d6d6" fill-opacity="1"><g transform="translate(661.339011, 248.859823)"><g><path d="M 9.328125 0.421875 C 7.304688 0.421875 5.757812 -0.117188 4.6875 -1.203125 C 3.625 -2.296875 3.09375 -3.957031 3.09375 -6.1875 L 3.09375 -31.46875 L 8.734375 -31.46875 L 8.734375 -6.40625 C 8.734375 -5.039062 9.300781 -4.359375 10.4375 -4.359375 C 10.769531 -4.359375 11.117188 -4.410156 11.484375 -4.515625 L 11.765625 -4.4375 L 12.28125 -0.109375 C 11.96875 0.0546875 11.550781 0.1875 11.03125 0.28125 C 10.519531 0.375 9.953125 0.421875 9.328125 0.421875 Z M 9.328125 0.421875 "/></g></g></g><g fill="#d6d6d6" fill-opacity="1"><g transform="translate(482.521658, 306.51944)"><g><path d="M 3.875 0 L 3.875 -29.765625 L 15.8125 -29.765625 C 18.894531 -29.765625 21.21875 -29.050781 22.78125 -27.625 C 24.351562 -26.207031 25.140625 -24.253906 25.140625 -21.765625 C 25.140625 -19.953125 24.679688 -18.46875 23.765625 -17.3125 C 22.847656 -16.164062 21.476562 -15.285156 19.65625 -14.671875 L 19.65625 -14.25 C 20.59375 -13.84375 21.347656 -13.238281 21.921875 -12.4375 C 22.503906 -11.632812 23.054688 -10.445312 23.578125 -8.875 L 26.546875 0 L 20.5 0 L 17.59375 -8.890625 C 17.289062 -9.785156 16.953125 -10.476562 16.578125 -10.96875 C 16.203125 -11.46875 15.726562 -11.828125 15.15625 -12.046875 C 14.582031 -12.273438 13.832031 -12.390625 12.90625 -12.390625 L 9.75 -12.390625 L 9.75 0 Z M 15.109375 -17.0625 C 17.953125 -17.0625 19.375 -18.390625 19.375 -21.046875 C 19.375 -23.742188 17.953125 -25.09375 15.109375 -25.09375 L 9.75 -25.09375 L 9.75 -17.0625 Z M 15.109375 -17.0625 "/></g></g></g><g fill="#d6d6d6" fill-opacity="1"><g transform="translate(510.34703, 306.51944)"><g/></g></g><g fill="#d6d6d6" fill-opacity="1"><g transform="translate(520.178526, 306.51944)"><g><path d="M 3.234375 0 L 3.234375 -22.453125 L 8.65625 -22.453125 L 8.65625 -19.15625 L 9.078125 -19.046875 C 10.472656 -21.597656 12.738281 -22.875 15.875 -22.875 C 18.46875 -22.875 20.367188 -22.164062 21.578125 -20.75 C 22.796875 -19.34375 23.40625 -17.289062 23.40625 -14.59375 L 23.40625 0 L 17.765625 0 L 17.765625 -13.90625 C 17.765625 -15.394531 17.46875 -16.46875 16.875 -17.125 C 16.28125 -17.78125 15.320312 -18.109375 14 -18.109375 C 12.382812 -18.109375 11.125 -17.585938 10.21875 -16.546875 C 9.320312 -15.503906 8.875 -13.863281 8.875 -11.625 L 8.875 0 Z M 3.234375 0 "/></g></g></g><g fill="#d6d6d6" fill-opacity="1"><g transform="translate(546.477268, 306.51944)"><g><path d="M 22.1875 -9.953125 L 7.75 -9.953125 C 7.914062 -7.992188 8.472656 -6.570312 9.421875 -5.6875 C 10.367188 -4.800781 11.664062 -4.359375 13.3125 -4.359375 C 14.601562 -4.359375 15.644531 -4.597656 16.4375 -5.078125 C 17.238281 -5.554688 17.882812 -6.285156 18.375 -7.265625 L 18.8125 -7.265625 L 22.546875 -4.859375 C 21.816406 -3.285156 20.710938 -2.007812 19.234375 -1.03125 C 17.753906 -0.0625 15.78125 0.421875 13.3125 0.421875 C 10.988281 0.421875 8.984375 -0.015625 7.296875 -0.890625 C 5.609375 -1.773438 4.304688 -3.085938 3.390625 -4.828125 C 2.472656 -6.578125 2.015625 -8.707031 2.015625 -11.21875 C 2.015625 -13.769531 2.492188 -15.921875 3.453125 -17.671875 C 4.421875 -19.421875 5.722656 -20.722656 7.359375 -21.578125 C 9.003906 -22.441406 10.851562 -22.875 12.90625 -22.875 C 16.082031 -22.875 18.515625 -22.03125 20.203125 -20.34375 C 21.890625 -18.664062 22.734375 -16.203125 22.734375 -12.953125 C 22.734375 -11.765625 22.691406 -10.847656 22.609375 -10.203125 Z M 17.34375 -13.59375 C 17.289062 -15.300781 16.894531 -16.546875 16.15625 -17.328125 C 15.414062 -18.109375 14.332031 -18.5 12.90625 -18.5 C 10.050781 -18.5 8.375 -16.863281 7.875 -13.59375 Z M 17.34375 -13.59375 "/></g></g></g><g fill="#d6d6d6" fill-opacity="1"><g transform="translate(570.882989, 306.51944)"><g><path d="M 15.484375 -5.359375 L 16.953125 -1.1875 C 16.347656 -0.675781 15.582031 -0.28125 14.65625 0 C 13.726562 0.28125 12.679688 0.421875 11.515625 0.421875 C 9.085938 0.421875 7.242188 -0.238281 5.984375 -1.5625 C 4.722656 -2.882812 4.09375 -4.804688 4.09375 -7.328125 L 4.09375 -18 L 0.671875 -18 L 0.671875 -22.46875 L 4.09375 -22.46875 L 4.09375 -26.84375 L 9.734375 -27.765625 L 9.734375 -22.46875 L 16.09375 -22.46875 L 16.09375 -18 L 9.734375 -18 L 9.734375 -7.734375 C 9.734375 -6.617188 9.960938 -5.804688 10.421875 -5.296875 C 10.878906 -4.796875 11.550781 -4.546875 12.4375 -4.546875 C 13.4375 -4.546875 14.3125 -4.816406 15.0625 -5.359375 Z M 15.484375 -5.359375 "/></g></g></g><g fill="#d6d6d6" fill-opacity="1"><g transform="translate(588.327278, 306.51944)"><g><path d="M 12.046875 0 L 6.140625 0 L 0.8125 -22.453125 L 6.046875 -22.453125 L 9.34375 -7.265625 L 9.765625 -7.265625 L 14.046875 -22.453125 L 18.9375 -22.453125 L 23.34375 -7.265625 L 23.78125 -7.265625 L 26.953125 -22.453125 L 32.046875 -22.453125 L 26.765625 0 L 20.84375 0 L 16.59375 -15.28125 L 16.15625 -15.28125 Z M 12.046875 0 "/></g></g></g><g fill="#d6d6d6" fill-opacity="1"><g transform="translate(621.159996, 306.51944)"><g><path d="M 13.046875 0.421875 C 10.847656 0.421875 8.914062 -0.0234375 7.25 -0.921875 C 5.59375 -1.828125 4.304688 -3.148438 3.390625 -4.890625 C 2.472656 -6.640625 2.015625 -8.75 2.015625 -11.21875 C 2.015625 -13.6875 2.472656 -15.796875 3.390625 -17.546875 C 4.304688 -19.296875 5.59375 -20.617188 7.25 -21.515625 C 8.914062 -22.421875 10.847656 -22.875 13.046875 -22.875 C 15.242188 -22.875 17.171875 -22.421875 18.828125 -21.515625 C 20.492188 -20.617188 21.785156 -19.296875 22.703125 -17.546875 C 23.628906 -15.796875 24.09375 -13.6875 24.09375 -11.21875 C 24.09375 -8.75 23.628906 -6.640625 22.703125 -4.890625 C 21.785156 -3.148438 20.492188 -1.828125 18.828125 -0.921875 C 17.171875 -0.0234375 15.242188 0.421875 13.046875 0.421875 Z M 13.046875 -4.359375 C 16.535156 -4.359375 18.28125 -6.644531 18.28125 -11.21875 C 18.28125 -13.59375 17.832031 -15.332031 16.9375 -16.4375 C 16.039062 -17.539062 14.742188 -18.09375 13.046875 -18.09375 C 9.554688 -18.09375 7.8125 -15.800781 7.8125 -11.21875 C 7.8125 -6.644531 9.554688 -4.359375 13.046875 -4.359375 Z M 13.046875 -4.359375 "/></g></g></g><g fill="#d6d6d6" fill-opacity="1"><g transform="translate(647.255188, 306.51944)"><g><path d="M 3.234375 0 L 3.234375 -22.453125 L 8.71875 -22.453125 L 8.71875 -19.109375 L 9.140625 -19.03125 C 9.679688 -20.28125 10.390625 -21.195312 11.265625 -21.78125 C 12.148438 -22.363281 13.226562 -22.65625 14.5 -22.65625 C 15.769531 -22.65625 16.738281 -22.4375 17.40625 -22 L 16.453125 -17.140625 L 16.015625 -17.0625 C 15.648438 -17.207031 15.296875 -17.3125 14.953125 -17.375 C 14.617188 -17.445312 14.207031 -17.484375 13.71875 -17.484375 C 12.144531 -17.484375 10.941406 -16.929688 10.109375 -15.828125 C 9.285156 -14.722656 8.875 -12.945312 8.875 -10.5 L 8.875 0 Z M 3.234375 0 "/></g></g></g><g fill="#d6d6d6" fill-opacity="1"><g transform="translate(664.862318, 306.51944)"><g><path d="M 3.234375 0 L 3.234375 -31.46875 L 8.875 -31.46875 L 8.875 -14 L 9.421875 -14 L 15.921875 -22.453125 L 21.640625 -22.453125 L 21.640625 -21.984375 L 14 -12.125 L 22.5 -0.515625 L 22.5 0 L 16.546875 0 L 9.421875 -9.46875 L 8.875 -9.46875 L 8.875 0 Z M 3.234375 0 "/></g></g></g><g fill="#000000" fill-opacity="1"><g transform="translate(800.403715, 69.846244)"><g><path d="M 28.5625 0 L 22.375 0 L 20.125 -6.859375 L 8.734375 -6.859375 L 6.5 0 L 0.453125 0 L 10.734375 -29.765625 L 18.28125 -29.765625 Z M 14.140625 -23.546875 L 10.3125 -11.8125 L 18.5 -11.8125 L 14.65625 -23.546875 Z M 14.140625 -23.546875 "/></g></g></g><g fill="#000000" fill-opacity="1"><g transform="translate(829.40968, 69.846244)"><g><path d="M 10.5 0.421875 C 8.96875 0.421875 7.5625 0.242188 6.28125 -0.109375 C 5.007812 -0.472656 3.921875 -0.96875 3.015625 -1.59375 C 2.117188 -2.226562 1.453125 -2.953125 1.015625 -3.765625 L 4.15625 -7.140625 L 4.578125 -7.140625 C 5.328125 -6.140625 6.207031 -5.382812 7.21875 -4.875 C 8.238281 -4.375 9.347656 -4.125 10.546875 -4.125 C 11.640625 -4.125 12.460938 -4.320312 13.015625 -4.71875 C 13.578125 -5.113281 13.859375 -5.675781 13.859375 -6.40625 C 13.859375 -6.976562 13.65625 -7.457031 13.25 -7.84375 C 12.851562 -8.226562 12.207031 -8.53125 11.3125 -8.75 L 8.34375 -9.46875 C 6.113281 -10 4.488281 -10.804688 3.46875 -11.890625 C 2.445312 -12.984375 1.9375 -14.375 1.9375 -16.0625 C 1.9375 -17.457031 2.289062 -18.671875 3 -19.703125 C 3.71875 -20.734375 4.722656 -21.519531 6.015625 -22.0625 C 7.304688 -22.601562 8.816406 -22.875 10.546875 -22.875 C 12.566406 -22.875 14.238281 -22.582031 15.5625 -22 C 16.894531 -21.414062 17.9375 -20.632812 18.6875 -19.65625 L 15.671875 -16.40625 L 15.265625 -16.40625 C 14.640625 -17.113281 13.9375 -17.628906 13.15625 -17.953125 C 12.375 -18.273438 11.503906 -18.4375 10.546875 -18.4375 C 8.316406 -18.4375 7.203125 -17.742188 7.203125 -16.359375 C 7.203125 -15.773438 7.410156 -15.300781 7.828125 -14.9375 C 8.242188 -14.570312 8.972656 -14.273438 10.015625 -14.046875 L 12.78125 -13.4375 C 15.0625 -12.945312 16.726562 -12.160156 17.78125 -11.078125 C 18.832031 -10.003906 19.359375 -8.554688 19.359375 -6.734375 C 19.359375 -5.304688 19.003906 -4.050781 18.296875 -2.96875 C 17.585938 -1.882812 16.566406 -1.046875 15.234375 -0.453125 C 13.910156 0.128906 12.332031 0.421875 10.5 0.421875 Z M 10.5 0.421875 "/></g></g></g><g fill="#000000" fill-opacity="1"><g transform="translate(850.11078, 69.846244)"><g><path d="M 3.234375 0 L 3.234375 -31.46875 L 8.875 -31.46875 L 8.875 -14 L 9.421875 -14 L 15.921875 -22.453125 L 21.640625 -22.453125 L 21.640625 -21.984375 L 14 -12.125 L 22.5 -0.515625 L 22.5 0 L 16.546875 0 L 9.421875 -9.46875 L 8.875 -9.46875 L 8.875 0 Z M 3.234375 0 "/></g></g></g><g fill="#000000" fill-opacity="1"><g transform="translate(872.643835, 69.846244)"><g/></g></g><g fill="#000000" fill-opacity="1"><g transform="translate(882.475331, 69.846244)"><g><path d="M 15.484375 -5.359375 L 16.953125 -1.1875 C 16.347656 -0.675781 15.582031 -0.28125 14.65625 0 C 13.726562 0.28125 12.679688 0.421875 11.515625 0.421875 C 9.085938 0.421875 7.242188 -0.238281 5.984375 -1.5625 C 4.722656 -2.882812 4.09375 -4.804688 4.09375 -7.328125 L 4.09375 -18 L 0.671875 -18 L 0.671875 -22.46875 L 4.09375 -22.46875 L 4.09375 -26.84375 L 9.734375 -27.765625 L 9.734375 -22.46875 L 16.09375 -22.46875 L 16.09375 -18 L 9.734375 -18 L 9.734375 -7.734375 C 9.734375 -6.617188 9.960938 -5.804688 10.421875 -5.296875 C 10.878906 -4.796875 11.550781 -4.546875 12.4375 -4.546875 C 13.4375 -4.546875 14.3125 -4.816406 15.0625 -5.359375 Z M 15.484375 -5.359375 "/></g></g></g><g fill="#000000" fill-opacity="1"><g transform="translate(899.919621, 69.846244)"><g><path d="M 3.234375 0 L 3.234375 -31.46875 L 8.875 -31.46875 L 8.875 -19.515625 L 9.296875 -19.4375 C 10.046875 -20.539062 10.960938 -21.390625 12.046875 -21.984375 C 13.128906 -22.578125 14.441406 -22.875 15.984375 -22.875 C 20.929688 -22.875 23.40625 -20.066406 23.40625 -14.453125 L 23.40625 0 L 17.765625 0 L 17.765625 -13.734375 C 17.765625 -15.273438 17.457031 -16.390625 16.84375 -17.078125 C 16.238281 -17.765625 15.289062 -18.109375 14 -18.109375 C 12.425781 -18.109375 11.175781 -17.582031 10.25 -16.53125 C 9.332031 -15.488281 8.875 -13.851562 8.875 -11.625 L 8.875 0 Z M 3.234375 0 "/></g></g></g><g fill="#000000" fill-opacity="1"><g transform="translate(926.218362, 69.846244)"><g><path d="M 22.1875 -9.953125 L 7.75 -9.953125 C 7.914062 -7.992188 8.472656 -6.570312 9.421875 -5.6875 C 10.367188 -4.800781 11.664062 -4.359375 13.3125 -4.359375 C 14.601562 -4.359375 15.644531 -4.597656 16.4375 -5.078125 C 17.238281 -5.554688 17.882812 -6.285156 18.375 -7.265625 L 18.8125 -7.265625 L 22.546875 -4.859375 C 21.816406 -3.285156 20.710938 -2.007812 19.234375 -1.03125 C 17.753906 -0.0625 15.78125 0.421875 13.3125 0.421875 C 10.988281 0.421875 8.984375 -0.015625 7.296875 -0.890625 C 5.609375 -1.773438 4.304688 -3.085938 3.390625 -4.828125 C 2.472656 -6.578125 2.015625 -8.707031 2.015625 -11.21875 C 2.015625 -13.769531 2.492188 -15.921875 3.453125 -17.671875 C 4.421875 -19.421875 5.722656 -20.722656 7.359375 -21.578125 C 9.003906 -22.441406 10.851562 -22.875 12.90625 -22.875 C 16.082031 -22.875 18.515625 -22.03125 20.203125 -20.34375 C 21.890625 -18.664062 22.734375 -16.203125 22.734375 -12.953125 C 22.734375 -11.765625 22.691406 -10.847656 22.609375 -10.203125 Z M 17.34375 -13.59375 C 17.289062 -15.300781 16.894531 -16.546875 16.15625 -17.328125 C 15.414062 -18.109375 14.332031 -18.5 12.90625 -18.5 C 10.050781 -18.5 8.375 -16.863281 7.875 -13.59375 Z M 17.34375 -13.59375 "/></g></g></g><g fill="#000000" fill-opacity="1"><g transform="translate(950.630227, 69.846244)"><g/></g></g><g fill="#000000" fill-opacity="1"><g transform="translate(775.086012, 127.505861)"><g><path d="M 15.6875 0.421875 C 12.832031 0.421875 10.703125 -0.644531 9.296875 -2.78125 L 8.875 -2.703125 L 8.875 0 L 3.234375 0 L 3.234375 -31.46875 L 8.875 -31.46875 L 8.875 -19.8125 L 9.296875 -19.71875 C 10.078125 -20.789062 10.992188 -21.582031 12.046875 -22.09375 C 13.097656 -22.613281 14.351562 -22.875 15.8125 -22.875 C 17.632812 -22.875 19.222656 -22.445312 20.578125 -21.59375 C 21.929688 -20.738281 22.988281 -19.4375 23.75 -17.6875 C 24.507812 -15.945312 24.890625 -13.789062 24.890625 -11.21875 C 24.890625 -8.664062 24.492188 -6.515625 23.703125 -4.765625 C 22.921875 -3.023438 21.835938 -1.722656 20.453125 -0.859375 C 19.066406 -0.00390625 17.476562 0.421875 15.6875 0.421875 Z M 13.984375 -4.359375 C 15.640625 -4.359375 16.898438 -4.910156 17.765625 -6.015625 C 18.640625 -7.117188 19.078125 -8.851562 19.078125 -11.21875 C 19.078125 -13.59375 18.640625 -15.332031 17.765625 -16.4375 C 16.898438 -17.539062 15.640625 -18.09375 13.984375 -18.09375 C 12.398438 -18.09375 11.140625 -17.519531 10.203125 -16.375 C 9.273438 -15.238281 8.8125 -13.519531 8.8125 -11.21875 C 8.8125 -8.90625 9.273438 -7.179688 10.203125 -6.046875 C 11.140625 -4.921875 12.398438 -4.359375 13.984375 -4.359375 Z M 13.984375 -4.359375 "/></g></g></g><g fill="#000000" fill-opacity="1"><g transform="translate(801.975051, 127.505861)"><g><path d="M 3.234375 0 L 3.234375 -22.453125 L 8.71875 -22.453125 L 8.71875 -19.109375 L 9.140625 -19.03125 C 9.679688 -20.28125 10.390625 -21.195312 11.265625 -21.78125 C 12.148438 -22.363281 13.226562 -22.65625 14.5 -22.65625 C 15.769531 -22.65625 16.738281 -22.4375 17.40625 -22 L 16.453125 -17.140625 L 16.015625 -17.0625 C 15.648438 -17.207031 15.296875 -17.3125 14.953125 -17.375 C 14.617188 -17.445312 14.207031 -17.484375 13.71875 -17.484375 C 12.144531 -17.484375 10.941406 -16.929688 10.109375 -15.828125 C 9.285156 -14.722656 8.875 -12.945312 8.875 -10.5 L 8.875 0 Z M 3.234375 0 "/></g></g></g><g fill="#000000" fill-opacity="1"><g transform="translate(819.582181, 127.505861)"><g><path d="M 13.046875 0.421875 C 10.847656 0.421875 8.914062 -0.0234375 7.25 -0.921875 C 5.59375 -1.828125 4.304688 -3.148438 3.390625 -4.890625 C 2.472656 -6.640625 2.015625 -8.75 2.015625 -11.21875 C 2.015625 -13.6875 2.472656 -15.796875 3.390625 -17.546875 C 4.304688 -19.296875 5.59375 -20.617188 7.25 -21.515625 C 8.914062 -22.421875 10.847656 -22.875 13.046875 -22.875 C 15.242188 -22.875 17.171875 -22.421875 18.828125 -21.515625 C 20.492188 -20.617188 21.785156 -19.296875 22.703125 -17.546875 C 23.628906 -15.796875 24.09375 -13.6875 24.09375 -11.21875 C 24.09375 -8.75 23.628906 -6.640625 22.703125 -4.890625 C 21.785156 -3.148438 20.492188 -1.828125 18.828125 -0.921875 C 17.171875 -0.0234375 15.242188 0.421875 13.046875 0.421875 Z M 13.046875 -4.359375 C 16.535156 -4.359375 18.28125 -6.644531 18.28125 -11.21875 C 18.28125 -13.59375 17.832031 -15.332031 16.9375 -16.4375 C 16.039062 -17.539062 14.742188 -18.09375 13.046875 -18.09375 C 9.554688 -18.09375 7.8125 -15.800781 7.8125 -11.21875 C 7.8125 -6.644531 9.554688 -4.359375 13.046875 -4.359375 Z M 13.046875 -4.359375 "/></g></g></g><g fill="#000000" fill-opacity="1"><g transform="translate(845.677373, 127.505861)"><g><path d="M 8.75 0.421875 C 7.3125 0.421875 6.0625 0.160156 5 -0.359375 C 3.945312 -0.890625 3.132812 -1.664062 2.5625 -2.6875 C 1.988281 -3.71875 1.703125 -4.953125 1.703125 -6.390625 C 1.703125 -7.722656 1.988281 -8.835938 2.5625 -9.734375 C 3.132812 -10.640625 4.015625 -11.378906 5.203125 -11.953125 C 6.398438 -12.535156 7.960938 -12.984375 9.890625 -13.296875 C 11.234375 -13.515625 12.253906 -13.75 12.953125 -14 C 13.648438 -14.257812 14.117188 -14.550781 14.359375 -14.875 C 14.609375 -15.207031 14.734375 -15.625 14.734375 -16.125 C 14.734375 -16.84375 14.484375 -17.390625 13.984375 -17.765625 C 13.484375 -18.148438 12.648438 -18.34375 11.484375 -18.34375 C 10.234375 -18.34375 9.046875 -18.0625 7.921875 -17.5 C 6.796875 -16.945312 5.816406 -16.21875 4.984375 -15.3125 L 4.578125 -15.3125 L 2.21875 -18.875 C 3.351562 -20.132812 4.742188 -21.113281 6.390625 -21.8125 C 8.035156 -22.519531 9.828125 -22.875 11.765625 -22.875 C 14.734375 -22.875 16.882812 -22.242188 18.21875 -20.984375 C 19.550781 -19.722656 20.21875 -17.929688 20.21875 -15.609375 L 20.21875 -5.859375 C 20.21875 -4.859375 20.65625 -4.359375 21.53125 -4.359375 C 21.875 -4.359375 22.207031 -4.421875 22.53125 -4.546875 L 22.8125 -4.453125 L 23.21875 -0.53125 C 22.90625 -0.320312 22.472656 -0.15625 21.921875 -0.03125 C 21.367188 0.09375 20.757812 0.15625 20.09375 0.15625 C 18.75 0.15625 17.695312 -0.0976562 16.9375 -0.609375 C 16.1875 -1.128906 15.648438 -1.9375 15.328125 -3.03125 L 14.90625 -3.078125 C 13.800781 -0.742188 11.75 0.421875 8.75 0.421875 Z M 10.546875 -3.78125 C 11.847656 -3.78125 12.890625 -4.21875 13.671875 -5.09375 C 14.453125 -5.96875 14.84375 -7.1875 14.84375 -8.75 L 14.84375 -11.03125 L 14.453125 -11.109375 C 14.109375 -10.835938 13.660156 -10.609375 13.109375 -10.421875 C 12.566406 -10.242188 11.78125 -10.066406 10.75 -9.890625 C 9.53125 -9.691406 8.648438 -9.34375 8.109375 -8.84375 C 7.578125 -8.34375 7.3125 -7.640625 7.3125 -6.734375 C 7.3125 -5.773438 7.59375 -5.039062 8.15625 -4.53125 C 8.726562 -4.03125 9.523438 -3.78125 10.546875 -3.78125 Z M 10.546875 -3.78125 "/></g></g></g><g fill="#000000" fill-opacity="1"><g transform="translate(869.350311, 127.505861)"><g><path d="M 11.09375 0.421875 C 9.3125 0.421875 7.738281 -0.00390625 6.375 -0.859375 C 5.007812 -1.722656 3.941406 -3.023438 3.171875 -4.765625 C 2.398438 -6.515625 2.015625 -8.664062 2.015625 -11.21875 C 2.015625 -13.78125 2.410156 -15.929688 3.203125 -17.671875 C 3.992188 -19.421875 5.09375 -20.722656 6.5 -21.578125 C 7.90625 -22.441406 9.53125 -22.875 11.375 -22.875 C 12.769531 -22.875 13.976562 -22.632812 15 -22.15625 C 16.03125 -21.675781 16.898438 -20.925781 17.609375 -19.90625 L 18.03125 -20.015625 L 18.03125 -31.46875 L 23.671875 -31.46875 L 23.671875 0 L 18.03125 0 L 18.03125 -2.90625 L 17.609375 -3 C 16.984375 -1.9375 16.128906 -1.097656 15.046875 -0.484375 C 13.960938 0.117188 12.644531 0.421875 11.09375 0.421875 Z M 12.921875 -4.359375 C 14.515625 -4.359375 15.769531 -4.921875 16.6875 -6.046875 C 17.613281 -7.179688 18.078125 -8.90625 18.078125 -11.21875 C 18.078125 -13.519531 17.613281 -15.238281 16.6875 -16.375 C 15.769531 -17.519531 14.515625 -18.09375 12.921875 -18.09375 C 11.265625 -18.09375 10 -17.539062 9.125 -16.4375 C 8.25 -15.332031 7.8125 -13.59375 7.8125 -11.21875 C 7.8125 -8.851562 8.25 -7.117188 9.125 -6.015625 C 10 -4.910156 11.265625 -4.359375 12.921875 -4.359375 Z M 12.921875 -4.359375 "/></g></g></g><g fill="#000000" fill-opacity="1"><g transform="translate(896.259705, 127.505861)"><g><path d="M 22.1875 -9.953125 L 7.75 -9.953125 C 7.914062 -7.992188 8.472656 -6.570312 9.421875 -5.6875 C 10.367188 -4.800781 11.664062 -4.359375 13.3125 -4.359375 C 14.601562 -4.359375 15.644531 -4.597656 16.4375 -5.078125 C 17.238281 -5.554688 17.882812 -6.285156 18.375 -7.265625 L 18.8125 -7.265625 L 22.546875 -4.859375 C 21.816406 -3.285156 20.710938 -2.007812 19.234375 -1.03125 C 17.753906 -0.0625 15.78125 0.421875 13.3125 0.421875 C 10.988281 0.421875 8.984375 -0.015625 7.296875 -0.890625 C 5.609375 -1.773438 4.304688 -3.085938 3.390625 -4.828125 C 2.472656 -6.578125 2.015625 -8.707031 2.015625 -11.21875 C 2.015625 -13.769531 2.492188 -15.921875 3.453125 -17.671875 C 4.421875 -19.421875 5.722656 -20.722656 7.359375 -21.578125 C 9.003906 -22.441406 10.851562 -22.875 12.90625 -22.875 C 16.082031 -22.875 18.515625 -22.03125 20.203125 -20.34375 C 21.890625 -18.664062 22.734375 -16.203125 22.734375 -12.953125 C 22.734375 -11.765625 22.691406 -10.847656 22.609375 -10.203125 Z M 17.34375 -13.59375 C 17.289062 -15.300781 16.894531 -16.546875 16.15625 -17.328125 C 15.414062 -18.109375 14.332031 -18.5 12.90625 -18.5 C 10.050781 -18.5 8.375 -16.863281 7.875 -13.59375 Z M 17.34375 -13.59375 "/></g></g></g><g fill="#000000" fill-opacity="1"><g transform="translate(920.665426, 127.505861)"><g><path d="M 3.234375 0 L 3.234375 -22.453125 L 8.71875 -22.453125 L 8.71875 -19.109375 L 9.140625 -19.03125 C 9.679688 -20.28125 10.390625 -21.195312 11.265625 -21.78125 C 12.148438 -22.363281 13.226562 -22.65625 14.5 -22.65625 C 15.769531 -22.65625 16.738281 -22.4375 17.40625 -22 L 16.453125 -17.140625 L 16.015625 -17.0625 C 15.648438 -17.207031 15.296875 -17.3125 14.953125 -17.375 C 14.617188 -17.445312 14.207031 -17.484375 13.71875 -17.484375 C 12.144531 -17.484375 10.941406 -16.929688 10.109375 -15.828125 C 9.285156 -14.722656 8.875 -12.945312 8.875 -10.5 L 8.875 0 Z M 3.234375 0 "/></g></g></g><g fill="#000000" fill-opacity="1"><g transform="translate(938.272557, 127.505861)"><g/></g></g><g fill="#000000" fill-opacity="1"><g transform="translate(948.104052, 127.505861)"><g><path d="M 3.875 0 L 3.875 -29.765625 L 15.8125 -29.765625 C 18.894531 -29.765625 21.21875 -29.050781 22.78125 -27.625 C 24.351562 -26.207031 25.140625 -24.253906 25.140625 -21.765625 C 25.140625 -19.953125 24.679688 -18.46875 23.765625 -17.3125 C 22.847656 -16.164062 21.476562 -15.285156 19.65625 -14.671875 L 19.65625 -14.25 C 20.59375 -13.84375 21.347656 -13.238281 21.921875 -12.4375 C 22.503906 -11.632812 23.054688 -10.445312 23.578125 -8.875 L 26.546875 0 L 20.5 0 L 17.59375 -8.890625 C 17.289062 -9.785156 16.953125 -10.476562 16.578125 -10.96875 C 16.203125 -11.46875 15.726562 -11.828125 15.15625 -12.046875 C 14.582031 -12.273438 13.832031 -12.390625 12.90625 -12.390625 L 9.75 -12.390625 L 9.75 0 Z M 15.109375 -17.0625 C 17.953125 -17.0625 19.375 -18.390625 19.375 -21.046875 C 19.375 -23.742188 17.953125 -25.09375 15.109375 -25.09375 L 9.75 -25.09375 L 9.75 -17.0625 Z M 15.109375 -17.0625 "/></g></g></g><g fill="#000000" fill-opacity="1"><g transform="translate(975.932665, 127.505861)"><g/></g></g><g fill="#000000" fill-opacity="1"><g transform="translate(764.015244, 185.165478)"><g><path d="M 13.09375 0.421875 C 10.914062 0.421875 8.992188 -0.0234375 7.328125 -0.921875 C 5.660156 -1.828125 4.359375 -3.15625 3.421875 -4.90625 C 2.484375 -6.65625 2.015625 -8.757812 2.015625 -11.21875 C 2.015625 -13.6875 2.484375 -15.796875 3.421875 -17.546875 C 4.359375 -19.296875 5.65625 -20.617188 7.3125 -21.515625 C 8.96875 -22.421875 10.859375 -22.875 12.984375 -22.875 C 17.722656 -22.875 20.753906 -21.160156 22.078125 -17.734375 L 18.21875 -14.96875 L 17.796875 -14.96875 C 17.328125 -16.019531 16.722656 -16.800781 15.984375 -17.3125 C 15.242188 -17.832031 14.242188 -18.09375 12.984375 -18.09375 C 11.359375 -18.09375 10.085938 -17.53125 9.171875 -16.40625 C 8.265625 -15.28125 7.8125 -13.550781 7.8125 -11.21875 C 7.8125 -8.90625 8.269531 -7.179688 9.1875 -6.046875 C 10.113281 -4.921875 11.414062 -4.359375 13.09375 -4.359375 C 14.3125 -4.359375 15.34375 -4.6875 16.1875 -5.34375 C 17.039062 -6 17.648438 -6.945312 18.015625 -8.1875 L 18.4375 -8.21875 L 22.453125 -6.03125 C 21.878906 -4.125 20.820312 -2.570312 19.28125 -1.375 C 17.738281 -0.175781 15.675781 0.421875 13.09375 0.421875 Z M 13.09375 0.421875 "/></g></g></g><g fill="#000000" fill-opacity="1"><g transform="translate(787.158951, 185.165478)"><g><path d="M 13.046875 0.421875 C 10.847656 0.421875 8.914062 -0.0234375 7.25 -0.921875 C 5.59375 -1.828125 4.304688 -3.148438 3.390625 -4.890625 C 2.472656 -6.640625 2.015625 -8.75 2.015625 -11.21875 C 2.015625 -13.6875 2.472656 -15.796875 3.390625 -17.546875 C 4.304688 -19.296875 5.59375 -20.617188 7.25 -21.515625 C 8.914062 -22.421875 10.847656 -22.875 13.046875 -22.875 C 15.242188 -22.875 17.171875 -22.421875 18.828125 -21.515625 C 20.492188 -20.617188 21.785156 -19.296875 22.703125 -17.546875 C 23.628906 -15.796875 24.09375 -13.6875 24.09375 -11.21875 C 24.09375 -8.75 23.628906 -6.640625 22.703125 -4.890625 C 21.785156 -3.148438 20.492188 -1.828125 18.828125 -0.921875 C 17.171875 -0.0234375 15.242188 0.421875 13.046875 0.421875 Z M 13.046875 -4.359375 C 16.535156 -4.359375 18.28125 -6.644531 18.28125 -11.21875 C 18.28125 -13.59375 17.832031 -15.332031 16.9375 -16.4375 C 16.039062 -17.539062 14.742188 -18.09375 13.046875 -18.09375 C 9.554688 -18.09375 7.8125 -15.800781 7.8125 -11.21875 C 7.8125 -6.644531 9.554688 -4.359375 13.046875 -4.359375 Z M 13.046875 -4.359375 "/></g></g></g><g fill="#000000" fill-opacity="1"><g transform="translate(813.254143, 185.165478)"><g><path d="M 3.234375 0 L 3.234375 -22.453125 L 8.65625 -22.453125 L 8.65625 -19.4375 L 9.078125 -19.359375 C 9.804688 -20.566406 10.660156 -21.453125 11.640625 -22.015625 C 12.628906 -22.585938 13.890625 -22.875 15.421875 -22.875 C 17.117188 -22.875 18.484375 -22.535156 19.515625 -21.859375 C 20.546875 -21.191406 21.300781 -20.21875 21.78125 -18.9375 L 22.203125 -18.9375 C 22.898438 -20.28125 23.789062 -21.269531 24.875 -21.90625 C 25.96875 -22.550781 27.332031 -22.875 28.96875 -22.875 C 33.625 -22.875 35.953125 -20.285156 35.953125 -15.109375 L 35.953125 0 L 30.3125 0 L 30.3125 -14.390625 C 30.3125 -15.703125 30.050781 -16.648438 29.53125 -17.234375 C 29.019531 -17.816406 28.191406 -18.109375 27.046875 -18.109375 C 23.953125 -18.109375 22.40625 -16.039062 22.40625 -11.90625 L 22.40625 0 L 16.765625 0 L 16.765625 -14.390625 C 16.765625 -15.703125 16.503906 -16.648438 15.984375 -17.234375 C 15.460938 -17.816406 14.632812 -18.109375 13.5 -18.109375 C 12.039062 -18.109375 10.90625 -17.625 10.09375 -16.65625 C 9.28125 -15.6875 8.875 -14.144531 8.875 -12.03125 L 8.875 0 Z M 3.234375 0 "/></g></g></g><g fill="#000000" fill-opacity="1"><g transform="translate(852.091603, 185.165478)"><g><path d="M 3.234375 0 L 3.234375 -22.453125 L 8.65625 -22.453125 L 8.65625 -19.4375 L 9.078125 -19.359375 C 9.804688 -20.566406 10.660156 -21.453125 11.640625 -22.015625 C 12.628906 -22.585938 13.890625 -22.875 15.421875 -22.875 C 17.117188 -22.875 18.484375 -22.535156 19.515625 -21.859375 C 20.546875 -21.191406 21.300781 -20.21875 21.78125 -18.9375 L 22.203125 -18.9375 C 22.898438 -20.28125 23.789062 -21.269531 24.875 -21.90625 C 25.96875 -22.550781 27.332031 -22.875 28.96875 -22.875 C 33.625 -22.875 35.953125 -20.285156 35.953125 -15.109375 L 35.953125 0 L 30.3125 0 L 30.3125 -14.390625 C 30.3125 -15.703125 30.050781 -16.648438 29.53125 -17.234375 C 29.019531 -17.816406 28.191406 -18.109375 27.046875 -18.109375 C 23.953125 -18.109375 22.40625 -16.039062 22.40625 -11.90625 L 22.40625 0 L 16.765625 0 L 16.765625 -14.390625 C 16.765625 -15.703125 16.503906 -16.648438 15.984375 -17.234375 C 15.460938 -17.816406 14.632812 -18.109375 13.5 -18.109375 C 12.039062 -18.109375 10.90625 -17.625 10.09375 -16.65625 C 9.28125 -15.6875 8.875 -14.144531 8.875 -12.03125 L 8.875 0 Z M 3.234375 0 "/></g></g></g><g fill="#000000" fill-opacity="1"><g transform="translate(890.929064, 185.165478)"><g><path d="M 10.28125 0.421875 C 7.757812 0.421875 5.894531 -0.265625 4.6875 -1.640625 C 3.488281 -3.015625 2.890625 -4.992188 2.890625 -7.578125 L 2.890625 -22.453125 L 8.53125 -22.453125 L 8.53125 -8.28125 C 8.53125 -6.914062 8.820312 -5.914062 9.40625 -5.28125 C 10 -4.644531 10.914062 -4.328125 12.15625 -4.328125 C 13.71875 -4.328125 14.929688 -4.835938 15.796875 -5.859375 C 16.660156 -6.890625 17.09375 -8.503906 17.09375 -10.703125 L 17.09375 -22.453125 L 22.734375 -22.453125 L 22.734375 0 L 17.328125 0 L 17.328125 -3.296875 L 16.890625 -3.40625 C 16.171875 -2.113281 15.289062 -1.148438 14.25 -0.515625 C 13.21875 0.109375 11.894531 0.421875 10.28125 0.421875 Z M 10.28125 0.421875 "/></g></g></g><g fill="#000000" fill-opacity="1"><g transform="translate(916.902125, 185.165478)"><g><path d="M 3.234375 0 L 3.234375 -22.453125 L 8.65625 -22.453125 L 8.65625 -19.15625 L 9.078125 -19.046875 C 10.472656 -21.597656 12.738281 -22.875 15.875 -22.875 C 18.46875 -22.875 20.367188 -22.164062 21.578125 -20.75 C 22.796875 -19.34375 23.40625 -17.289062 23.40625 -14.59375 L 23.40625 0 L 17.765625 0 L 17.765625 -13.90625 C 17.765625 -15.394531 17.46875 -16.46875 16.875 -17.125 C 16.28125 -17.78125 15.320312 -18.109375 14 -18.109375 C 12.382812 -18.109375 11.125 -17.585938 10.21875 -16.546875 C 9.320312 -15.503906 8.875 -13.863281 8.875 -11.625 L 8.875 0 Z M 3.234375 0 "/></g></g></g><g fill="#000000" fill-opacity="1"><g transform="translate(943.200867, 185.165478)"><g><path d="M 6.046875 -25.140625 C 5.023438 -25.140625 4.195312 -25.445312 3.5625 -26.0625 C 2.925781 -26.675781 2.609375 -27.472656 2.609375 -28.453125 C 2.609375 -29.421875 2.925781 -30.210938 3.5625 -30.828125 C 4.195312 -31.441406 5.023438 -31.75 6.046875 -31.75 C 6.722656 -31.75 7.328125 -31.609375 7.859375 -31.328125 C 8.390625 -31.046875 8.800781 -30.65625 9.09375 -30.15625 C 9.382812 -29.65625 9.53125 -29.085938 9.53125 -28.453125 C 9.53125 -27.816406 9.382812 -27.25 9.09375 -26.75 C 8.800781 -26.25 8.390625 -25.851562 7.859375 -25.5625 C 7.328125 -25.28125 6.722656 -25.140625 6.046875 -25.140625 Z M 3.234375 0 L 3.234375 -22.453125 L 8.875 -22.453125 L 8.875 0 Z M 3.234375 0 "/></g></g></g><g fill="#000000" fill-opacity="1"><g transform="translate(955.291774, 185.165478)"><g><path d="M 15.484375 -5.359375 L 16.953125 -1.1875 C 16.347656 -0.675781 15.582031 -0.28125 14.65625 0 C 13.726562 0.28125 12.679688 0.421875 11.515625 0.421875 C 9.085938 0.421875 7.242188 -0.238281 5.984375 -1.5625 C 4.722656 -2.882812 4.09375 -4.804688 4.09375 -7.328125 L 4.09375 -18 L 0.671875 -18 L 0.671875 -22.46875 L 4.09375 -22.46875 L 4.09375 -26.84375 L 9.734375 -27.765625 L 9.734375 -22.46875 L 16.09375 -22.46875 L 16.09375 -18 L 9.734375 -18 L 9.734375 -7.734375 C 9.734375 -6.617188 9.960938 -5.804688 10.421875 -5.296875 C 10.878906 -4.796875 11.550781 -4.546875 12.4375 -4.546875 C 13.4375 -4.546875 14.3125 -4.816406 15.0625 -5.359375 Z M 15.484375 -5.359375 "/></g></g></g><g fill="#000000" fill-opacity="1"><g transform="translate(972.736064, 185.165478)"><g><path d="M 4.96875 9.53125 C 4 9.53125 3.125 9.453125 2.34375 9.296875 C 1.570312 9.148438 0.941406 8.957031 0.453125 8.71875 L 1.34375 4.15625 L 1.703125 4.03125 C 2.046875 4.207031 2.46875 4.347656 2.96875 4.453125 C 3.46875 4.566406 3.984375 4.625 4.515625 4.625 C 5.421875 4.625 6.175781 4.503906 6.78125 4.265625 C 7.382812 4.023438 7.894531 3.628906 8.3125 3.078125 C 8.738281 2.535156 9.113281 1.773438 9.4375 0.796875 L 0.484375 -22.453125 L 6.390625 -22.453125 L 11.96875 -6.84375 L 12.453125 -6.84375 L 17.890625 -22.453125 L 23.625 -22.453125 L 14.609375 1.40625 C 13.890625 3.332031 13.097656 4.878906 12.234375 6.046875 C 11.378906 7.222656 10.363281 8.097656 9.1875 8.671875 C 8.007812 9.242188 6.601562 9.53125 4.96875 9.53125 Z M 4.96875 9.53125 "/></g></g></g></svg>